<svg width="28" height="28" viewBox="0 0 28 28" fill="none" xmlns="http://www.w3.org/2000/svg">
    <path
        d="M16.902 25.6667H11.1514C5.89069 25.6667 3.65435 23.3768 3.65435 18.0264V13.1535C3.65435 12.7086 4.01643 12.3396 4.45305 12.3396C4.88967 12.3396 5.25174 12.7086 5.25174 13.1535V18.0264C5.25174 22.4652 6.79588 24.0388 11.1514 24.0388H16.8913C21.2469 24.0388 22.791 22.4652 22.791 18.0264V13.1535C22.791 12.7086 23.1531 12.3396 23.5897 12.3396C24.0263 12.3396 24.3884 12.7086 24.3884 13.1535V18.0264C24.3991 23.3768 22.1521 25.6667 16.902 25.6667Z"
        fill="#11A45D" />
    <path
        d="M14.0267 14.814C12.8553 14.814 11.7904 14.3473 11.0343 13.49C10.2782 12.6326 9.92675 11.5148 10.0439 10.321L10.7574 3.07136C10.8 2.65896 11.1408 2.33337 11.5561 2.33337H16.5293C16.9446 2.33337 17.2854 2.6481 17.328 3.07136L18.0415 10.321C18.1586 11.5148 17.8072 12.6326 17.0511 13.49C16.263 14.3473 15.1981 14.814 14.0267 14.814ZM12.2696 3.96128L11.6306 10.4838C11.5561 11.2109 11.7691 11.8946 12.2163 12.3938C13.1215 13.414 14.9319 13.414 15.8371 12.3938C16.2843 11.8838 16.4973 11.2 16.4228 10.4838L15.7838 3.96128H12.2696Z"
        fill="#11A45D" />
    <path
        d="M20.7464 14.814C18.5846 14.814 16.6571 13.0342 16.4334 10.8419L15.688 3.23415C15.6667 3.00624 15.7412 2.77834 15.8903 2.60469C16.0394 2.43105 16.2524 2.33337 16.4867 2.33337H19.7347C22.8656 2.33337 24.3245 3.66826 24.7611 6.94578L25.0593 9.96283C25.1871 11.2435 24.8037 12.459 23.9837 13.3814C23.1637 14.3039 22.0136 14.814 20.7464 14.814ZM17.3706 3.96128L18.0308 10.6791C18.1693 12.0357 19.4046 13.1861 20.7464 13.1861C21.5557 13.1861 22.2799 12.8714 22.8017 12.2962C23.3128 11.721 23.5471 10.9504 23.4726 10.1256L23.1744 7.14113C22.8443 4.68841 22.0669 3.96128 19.7347 3.96128H17.3706Z"
        fill="#11A45D" />
    <path
        d="M7.25379 14.814C5.98654 14.814 4.83642 14.3039 4.01643 13.3814C3.19644 12.459 2.81307 11.2435 2.94086 9.96283L3.22839 6.97834C3.67565 3.66826 5.1346 2.33337 8.26547 2.33337H11.5135C11.7371 2.33337 11.9501 2.43105 12.1098 2.60469C12.2696 2.77834 12.3335 3.00624 12.3122 3.23415L11.5667 10.8419C11.3431 13.0342 9.41559 14.814 7.25379 14.814ZM8.26547 3.96128C5.93329 3.96128 5.1559 4.67756 4.81512 7.16283L4.52759 10.1256C4.4424 10.9504 4.68733 11.721 5.19849 12.2962C5.70966 12.8714 6.4338 13.1861 7.25379 13.1861C8.5956 13.1861 9.84156 12.0357 9.96935 10.6791L10.6296 3.96128H8.26547Z"
        fill="#11A45D" />
    <path
        d="M16.689 25.6667H11.3644C10.9278 25.6667 10.5657 25.2977 10.5657 24.8528V22.1396C10.5657 19.8605 11.7904 18.6124 14.0267 18.6124C16.263 18.6124 17.4877 19.8605 17.4877 22.1396V24.8528C17.4877 25.2977 17.1256 25.6667 16.689 25.6667ZM12.1631 24.0388H15.8903V22.1396C15.8903 20.7721 15.3685 20.2404 14.0267 20.2404C12.6849 20.2404 12.1631 20.7721 12.1631 22.1396V24.0388Z"
        fill="#11A45D" />
</svg>