<svg width="28" height="28" viewBox="0 0 28 28" fill="none" xmlns="http://www.w3.org/2000/svg">
<path d="M25.6437 9.2443L25.3187 7.02654C24.8477 3.69163 23.3116 2.33337 20.0263 2.33337H7.96137C4.66483 2.33337 3.1399 3.69163 2.65776 7.05967L2.35493 9.25534C2.24281 10.4369 2.56798 11.5854 3.27438 12.4798C4.12654 13.5731 5.43843 14.1915 6.89608 14.1915C8.30889 14.1915 9.66563 13.4958 10.5178 12.3804C11.2803 13.4958 12.5809 14.1915 14.0274 14.1915C15.4738 14.1915 16.7409 13.5289 17.5145 12.4246C18.3779 13.5178 19.7122 14.1915 21.1026 14.1915C22.5939 14.1915 23.9394 13.5399 24.7804 12.3915C25.4531 11.5081 25.7559 10.3927 25.6437 9.2443Z" fill="#7250D1"/>
<path d="M24.5338 16.8546V20.1453C24.5338 23.1931 22.0221 25.6667 18.9274 25.6667C18.6247 25.6667 18.378 25.4238 18.378 25.1256V22.4864C18.378 21.0729 17.9407 19.9686 17.0885 19.2177C16.3373 18.5441 15.3169 18.2129 14.0499 18.2129C13.7696 18.2129 13.4892 18.2239 13.1865 18.257C11.1906 18.4558 9.67692 20.1122 9.67692 22.0999V25.1256C9.67692 25.4238 9.43024 25.6667 9.12749 25.6667C6.03278 25.6667 3.52114 23.1931 3.52114 20.1453V16.8767C3.52114 16.1037 4.29481 15.5847 5.02364 15.8387C5.32638 15.938 5.62913 16.0153 5.94308 16.0595C6.07764 16.0816 6.2234 16.1037 6.35795 16.1037C6.53736 16.1258 6.71676 16.1368 6.89616 16.1368C8.19684 16.1368 9.47509 15.662 10.4842 14.8448C11.4485 15.662 12.7044 16.1368 14.0275 16.1368C15.3618 16.1368 16.5952 15.6841 17.5595 14.8669C18.5686 15.673 19.8244 16.1368 21.1027 16.1368C21.3045 16.1368 21.5063 16.1258 21.6969 16.1037C21.8315 16.0926 21.9548 16.0816 22.0782 16.0595C22.4258 16.0153 22.7397 15.916 23.0537 15.8166C23.7825 15.5736 24.5338 16.1037 24.5338 16.8546Z" fill="#7250D1"/>
<path d="M13.3568 19.8555C12.0467 19.9876 11.0563 21.0848 11.0563 22.3853V25.1691C11.0563 25.4434 11.2832 25.6669 11.5618 25.6669H16.4826C16.7612 25.6669 16.9881 25.4434 16.9881 25.1691V22.7409C16.9984 20.6175 15.7295 19.6117 13.3568 19.8555Z" fill="#7250D1"/>
</svg>
