<svg width="28" height="28" viewBox="0 0 28 28" fill="none" xmlns="http://www.w3.org/2000/svg">
<path d="M16.9019 25.6667H11.1513C5.89057 25.6667 3.65423 23.3768 3.65423 18.0264V13.1535C3.65423 12.7086 4.01631 12.3396 4.45292 12.3396C4.88954 12.3396 5.25162 12.7086 5.25162 13.1535V18.0264C5.25162 22.4652 6.79575 24.0388 11.1513 24.0388H16.8912C21.2468 24.0388 22.7909 22.4652 22.7909 18.0264V13.1535C22.7909 12.7086 23.153 12.3396 23.5896 12.3396C24.0262 12.3396 24.3883 12.7086 24.3883 13.1535V18.0264C24.3989 23.3768 22.1519 25.6667 16.9019 25.6667Z" fill="#7250D1"/>
<path d="M14.0266 14.814C12.8552 14.814 11.7902 14.3473 11.0341 13.49C10.2781 12.6326 9.92663 11.5148 10.0438 10.321L10.7573 3.07136C10.7999 2.65896 11.1406 2.33337 11.556 2.33337H16.5292C16.9445 2.33337 17.2852 2.6481 17.3278 3.07136L18.0413 10.321C18.1585 11.5148 17.8071 12.6326 17.051 13.49C16.2629 14.3473 15.198 14.814 14.0266 14.814ZM12.2695 3.96128L11.6305 10.4838C11.556 11.2109 11.7689 11.8946 12.2162 12.3938C13.1214 13.414 14.9318 13.414 15.837 12.3938C16.2842 11.8838 16.4972 11.2 16.4227 10.4838L15.7837 3.96128H12.2695Z" fill="#7250D1"/>
<path d="M20.7462 14.814C18.5845 14.814 16.6569 13.0342 16.4333 10.8419L15.6879 3.23415C15.6666 3.00624 15.7411 2.77834 15.8902 2.60469C16.0393 2.43105 16.2523 2.33337 16.4866 2.33337H19.7346C22.8654 2.33337 24.3244 3.66826 24.761 6.94578L25.0592 9.96283C25.187 11.2435 24.8036 12.459 23.9836 13.3814C23.1636 14.3039 22.0135 14.814 20.7462 14.814ZM17.3704 3.96128L18.0307 10.6791C18.1691 12.0357 19.4044 13.1861 20.7462 13.1861C21.5556 13.1861 22.2797 12.8714 22.8015 12.2962C23.3127 11.721 23.547 10.9504 23.4725 10.1256L23.1743 7.14113C22.8441 4.68841 22.0668 3.96128 19.7346 3.96128H17.3704Z" fill="#7250D1"/>
<path d="M7.25367 14.814C5.98641 14.814 4.8363 14.3039 4.01631 13.3814C3.19632 12.459 2.81294 11.2435 2.94073 9.96283L3.22826 6.97834C3.67553 3.66826 5.13448 2.33337 8.26535 2.33337H11.5134C11.737 2.33337 11.95 2.43105 12.1097 2.60469C12.2695 2.77834 12.3334 3.00624 12.3121 3.23415L11.5666 10.8419C11.343 13.0342 9.41547 14.814 7.25367 14.814ZM8.26535 3.96128C5.93317 3.96128 5.15577 4.67756 4.815 7.16283L4.52747 10.1256C4.44228 10.9504 4.68721 11.721 5.19837 12.2962C5.70953 12.8714 6.43368 13.1861 7.25367 13.1861C8.59548 13.1861 9.84143 12.0357 9.96923 10.6791L10.6295 3.96128H8.26535Z" fill="#7250D1"/>
<path d="M16.6889 25.6667H11.3643C10.9277 25.6667 10.5656 25.2977 10.5656 24.8528V22.1396C10.5656 19.8605 11.7902 18.6124 14.0266 18.6124C16.2629 18.6124 17.4876 19.8605 17.4876 22.1396V24.8528C17.4876 25.2977 17.1255 25.6667 16.6889 25.6667ZM12.163 24.0388H15.8902V22.1396C15.8902 20.7721 15.3684 20.2404 14.0266 20.2404C12.6848 20.2404 12.163 20.7721 12.163 22.1396V24.0388Z" fill="#7250D1"/>
</svg>
