<svg width="28" height="28" viewBox="0 0 28 28" fill="none" xmlns="http://www.w3.org/2000/svg">
<path d="M13.9864 2.33348C13.7545 2.3371 13.5336 2.43256 13.3721 2.59888C13.2106 2.7652 13.1217 2.98879 13.125 3.22053V4.1315C6.80229 4.60949 2.33337 10.2245 2.33337 16.6299C2.33351 16.8134 2.39134 16.9921 2.49869 17.1409C2.60603 17.2896 2.75746 17.4009 2.93155 17.459C3.10565 17.517 3.29359 17.5189 3.46881 17.4643C3.64402 17.4097 3.79763 17.3015 3.90792 17.1549L4.34314 16.5753C5.46801 15.0766 7.67957 15.1706 8.67371 16.7586L8.8822 17.0923C8.95315 17.206 9.0493 17.3019 9.16322 17.3725C9.27714 17.4432 9.40579 17.4868 9.53924 17.4999C9.67269 17.513 9.80736 17.4953 9.93286 17.4481C10.0584 17.4009 10.1713 17.3255 10.2631 17.2278C11.0605 16.3778 12.0702 15.8656 13.125 15.6825V21.7313C13.125 22.9487 12.1556 23.9177 10.9375 23.9177C9.66922 23.9177 8.75004 23.0945 8.75004 21.8771C8.75168 21.7612 8.73026 21.6462 8.68702 21.5386C8.64379 21.4311 8.57959 21.3332 8.49818 21.2507C8.41677 21.1681 8.31975 21.1026 8.21278 21.0579C8.1058 21.0131 7.991 20.9901 7.87504 20.9901C7.75908 20.9901 7.64428 21.0131 7.5373 21.0579C7.43033 21.1026 7.33331 21.1681 7.2519 21.2507C7.17049 21.3332 7.1063 21.4311 7.06306 21.5386C7.01982 21.6462 6.9984 21.7612 7.00004 21.8771C7.00004 24.0401 8.8237 25.6667 10.9375 25.6667C13.1017 25.6667 14.875 23.8943 14.875 21.7313V15.6825C15.9299 15.8656 16.9396 16.3778 17.737 17.2278C17.8335 17.3305 17.9534 17.4084 18.0865 17.4549C18.2196 17.5014 18.362 17.515 18.5015 17.4947C18.641 17.4743 18.7735 17.4206 18.8878 17.338C19.0021 17.2555 19.0947 17.1465 19.1578 17.0205C20.0069 15.3232 22.2358 15.0381 23.486 16.466L24.1332 17.2061C24.2504 17.34 24.4058 17.435 24.5784 17.4783C24.7511 17.5216 24.9329 17.5113 25.0995 17.4487C25.2662 17.3861 25.4098 17.2742 25.5111 17.1279C25.6124 16.9816 25.6667 16.8079 25.6667 16.6299C25.6667 10.2245 21.1978 4.60949 14.875 4.1315V3.22053C14.8767 3.10348 14.8549 2.98729 14.8108 2.87883C14.7667 2.77038 14.7013 2.67187 14.6184 2.58915C14.5356 2.50642 14.4369 2.44117 14.3283 2.39725C14.2198 2.35334 14.1035 2.33165 13.9864 2.33348ZM13.8941 5.84867C13.9655 5.8579 14.0379 5.85829 14.1094 5.84981C19.1483 5.90491 22.9072 9.70528 23.7367 14.5871C21.9482 13.503 19.6989 13.8401 18.3055 15.4206C15.8042 13.396 12.2182 13.3906 9.71163 15.4058C8.3255 13.7811 6.05903 13.4295 4.28162 14.4516C5.15698 9.63329 8.89962 5.90157 13.8941 5.84867Z" fill="#C54208"/>
</svg>
