<svg width="28" height="28" viewBox="0 0 28 28" fill="none" xmlns="http://www.w3.org/2000/svg">
<path d="M13.9864 2.31981C13.7545 2.32343 13.5336 2.41894 13.3721 2.58535C13.2106 2.75176 13.1217 2.97547 13.125 3.20734V4.1188C6.80229 4.59705 2.33337 10.2151 2.33337 16.624C2.33351 16.8075 2.39134 16.9864 2.49869 17.1352C2.60603 17.2841 2.75746 17.3954 2.93155 17.4535C3.10565 17.5116 3.29359 17.5134 3.46881 17.4588C3.64402 17.4042 3.79763 17.2959 3.90792 17.1492L4.34314 16.5693C5.46801 15.0698 7.67957 15.1639 8.67371 16.7528L8.8822 17.0866C8.95315 17.2004 9.0493 17.2963 9.16322 17.367C9.27714 17.4377 9.40579 17.4813 9.53924 17.4944C9.67269 17.5075 9.80736 17.4898 9.93286 17.4426C10.0584 17.3954 10.1713 17.32 10.2631 17.2222C11.0605 16.3718 12.0702 15.8592 13.125 15.6761V21.7282C13.125 22.9462 12.1556 23.9157 10.9375 23.9157C9.66922 23.9157 8.75004 23.092 8.75004 21.874C8.75168 21.7581 8.73026 21.6429 8.68702 21.5353C8.64379 21.4277 8.57959 21.3298 8.49818 21.2472C8.41677 21.1647 8.31975 21.0991 8.21278 21.0543C8.1058 21.0096 7.991 20.9865 7.87504 20.9865C7.75908 20.9865 7.64428 21.0096 7.5373 21.0543C7.43033 21.0991 7.33331 21.1647 7.2519 21.2472C7.17049 21.3298 7.1063 21.4277 7.06306 21.5353C7.01982 21.6429 6.9984 21.7581 7.00004 21.874C7.00004 24.0382 8.8237 25.6657 10.9375 25.6657C13.1017 25.6657 14.875 23.8923 14.875 21.7282V15.6761C15.9299 15.8592 16.9396 16.3718 17.737 17.2222C17.8335 17.325 17.9534 17.4029 18.0865 17.4494C18.2196 17.4959 18.362 17.5096 18.5015 17.4892C18.641 17.4689 18.7735 17.4151 18.8878 17.3325C19.0021 17.2499 19.0947 17.1409 19.1578 17.0148C20.0069 15.3166 22.2358 15.0313 23.486 16.4599L24.1332 17.2005C24.2504 17.3345 24.4058 17.4295 24.5784 17.4728C24.7511 17.5162 24.9329 17.5059 25.0995 17.4432C25.2662 17.3806 25.4098 17.2686 25.5111 17.1222C25.6124 16.9758 25.6667 16.802 25.6667 16.624C25.6667 10.2151 21.1978 4.59705 14.875 4.1188V3.20734C14.8767 3.09023 14.8549 2.97397 14.8108 2.86546C14.7667 2.75694 14.7013 2.65838 14.6184 2.57561C14.5356 2.49285 14.4369 2.42756 14.3283 2.38362C14.2198 2.33968 14.1035 2.31798 13.9864 2.31981ZM13.8941 5.8369C13.9655 5.84614 14.0379 5.84652 14.1094 5.83804C19.1483 5.89317 22.9072 9.6956 23.7367 14.5801C21.9482 13.4954 19.6989 13.8326 18.3055 15.414C15.8042 13.3883 12.2182 13.3829 9.71163 15.3992C8.3255 13.7736 6.05903 13.4219 4.28162 14.4445C5.15698 9.62357 8.89962 5.88983 13.8941 5.8369Z" fill="#C54208"/>
<path d="M13.8941 5.8369C13.9655 5.84614 14.0379 5.84652 14.1094 5.83804C19.1483 5.89317 22.9072 9.6956 23.7367 14.5801C21.9482 13.4954 19.6989 13.8326 18.3055 15.414C15.8042 13.3883 12.2182 13.3829 9.71163 15.3992C8.3255 13.7736 6.05903 13.4219 4.28162 14.4445C5.15698 9.62357 8.89962 5.88983 13.8941 5.8369Z" fill="#C54208"/>
</svg>
