<svg width="28" height="28" viewBox="0 0 28 28" fill="none" xmlns="http://www.w3.org/2000/svg">
<path d="M13.9863 2.31969C13.7544 2.32331 13.5335 2.41882 13.372 2.58523C13.2105 2.75164 13.1217 2.97535 13.125 3.20722V4.11868C6.80223 4.59693 2.33331 10.215 2.33331 16.6239C2.33345 16.8074 2.39128 16.9862 2.49862 17.1351C2.60597 17.284 2.7574 17.3953 2.93149 17.4534C3.10559 17.5114 3.29353 17.5133 3.46874 17.4587C3.64396 17.4041 3.79757 17.2958 3.90786 17.1491L4.34308 16.5692C5.46795 15.0697 7.67951 15.1638 8.67365 16.7526L8.88214 17.0865C8.95309 17.2002 9.04924 17.2962 9.16316 17.3669C9.27708 17.4376 9.40573 17.4812 9.53918 17.4943C9.67263 17.5074 9.8073 17.4897 9.9328 17.4425C10.0583 17.3953 10.1713 17.3198 10.263 17.222C11.0604 16.3716 12.0701 15.8591 13.125 15.676V21.7281C13.125 22.9461 12.1555 23.9156 10.9375 23.9156C9.66916 23.9156 8.74998 23.0919 8.74998 21.8739C8.75162 21.7579 8.7302 21.6428 8.68696 21.5352C8.64372 21.4276 8.57953 21.3297 8.49812 21.2471C8.41671 21.1645 8.31969 21.099 8.21272 21.0542C8.10574 21.0095 7.99094 20.9864 7.87498 20.9864C7.75902 20.9864 7.64422 21.0095 7.53724 21.0542C7.43027 21.099 7.33325 21.1645 7.25184 21.2471C7.17043 21.3297 7.10623 21.4276 7.063 21.5352C7.01976 21.6428 6.99834 21.7579 6.99998 21.8739C6.99998 24.038 8.82364 25.6656 10.9375 25.6656C13.1016 25.6656 14.875 23.8922 14.875 21.7281V15.676C15.9299 15.8591 16.9396 16.3716 17.737 17.222C17.8334 17.3248 17.9533 17.4028 18.0864 17.4493C18.2196 17.4958 18.3619 17.5095 18.5014 17.4891C18.641 17.4687 18.7735 17.415 18.8877 17.3324C19.002 17.2498 19.0946 17.1408 19.1577 17.0147C20.0068 15.3165 22.2357 15.0312 23.486 16.4598L24.1331 17.2004C24.2504 17.3343 24.4057 17.4293 24.5784 17.4727C24.7511 17.5161 24.9328 17.5058 25.0995 17.4431C25.2661 17.3805 25.4097 17.2685 25.511 17.1221C25.6124 16.9757 25.6667 16.8019 25.6666 16.6239C25.6666 10.215 21.1977 4.59693 14.875 4.11868V3.20722C14.8767 3.09011 14.8548 2.97385 14.8107 2.86533C14.7667 2.75682 14.7012 2.65826 14.6184 2.57549C14.5355 2.49272 14.4368 2.42744 14.3283 2.38349C14.2197 2.33955 14.1034 2.31786 13.9863 2.31969ZM13.894 5.83678C13.9655 5.84602 14.0378 5.8464 14.1094 5.83792C19.1482 5.89305 22.9071 9.69548 23.7366 14.5799C21.9481 13.4952 19.6988 13.8325 18.3055 15.4139C15.8041 13.3882 12.2181 13.3828 9.71157 15.3991C8.32543 13.7735 6.05896 13.4217 4.28156 14.4444C5.15692 9.62345 8.89955 5.88971 13.894 5.83678Z" fill="#2B6AD1"/>
<path d="M13.894 5.83678C13.9655 5.84602 14.0378 5.8464 14.1094 5.83792C19.1482 5.89305 22.9071 9.69548 23.7366 14.5799C21.9481 13.4952 19.6988 13.8325 18.3055 15.4139C15.8041 13.3882 12.2181 13.3828 9.71157 15.3991C8.32543 13.7735 6.05896 13.4217 4.28156 14.4444C5.15692 9.62345 8.89955 5.88971 13.894 5.83678Z" fill="#2B6AD1"/>
</svg>
