<svg width="28" height="28" viewBox="0 0 28 28" fill="none" xmlns="http://www.w3.org/2000/svg">
<path d="M13.9863 2.33336C13.7544 2.33698 13.5335 2.43243 13.372 2.59876C13.2105 2.76508 13.1217 2.98867 13.125 3.22041V4.13138C6.80223 4.60937 2.33331 10.2244 2.33331 16.6298C2.33345 16.8132 2.39128 16.992 2.49862 17.1408C2.60597 17.2895 2.7574 17.4008 2.93149 17.4588C3.10559 17.5169 3.29353 17.5188 3.46874 17.4642C3.64396 17.4096 3.79757 17.3014 3.90786 17.1548L4.34308 16.5752C5.46795 15.0764 7.67951 15.1705 8.67365 16.7585L8.88214 17.0921C8.95309 17.2058 9.04924 17.3017 9.16316 17.3724C9.27708 17.4431 9.40573 17.4867 9.53918 17.4998C9.67263 17.5129 9.8073 17.4951 9.9328 17.448C10.0583 17.4008 10.1713 17.3254 10.263 17.2276C11.0604 16.3777 12.0701 15.8654 13.125 15.6824V21.7312C13.125 22.9486 12.1555 23.9175 10.9375 23.9175C9.66916 23.9175 8.74998 23.0943 8.74998 21.877C8.75162 21.7611 8.7302 21.646 8.68696 21.5385C8.64372 21.431 8.57953 21.3331 8.49812 21.2505C8.41671 21.168 8.31969 21.1025 8.21272 21.0578C8.10574 21.013 7.99094 20.99 7.87498 20.99C7.75902 20.99 7.64422 21.013 7.53724 21.0578C7.43027 21.1025 7.33325 21.168 7.25184 21.2505C7.17043 21.3331 7.10623 21.431 7.063 21.5385C7.01976 21.646 6.99834 21.7611 6.99998 21.877C6.99998 24.0399 8.82364 25.6666 10.9375 25.6666C13.1016 25.6666 14.875 23.8942 14.875 21.7312V15.6824C15.9299 15.8654 16.9396 16.3777 17.737 17.2276C17.8334 17.3304 17.9533 17.4083 18.0864 17.4548C18.2196 17.5013 18.3619 17.5149 18.5014 17.4946C18.641 17.4742 18.7735 17.4205 18.8877 17.3379C19.002 17.2554 19.0946 17.1464 19.1577 17.0204C20.0068 15.3231 22.2357 15.038 23.486 16.4658L24.1331 17.206C24.2504 17.3399 24.4057 17.4348 24.5784 17.4782C24.7511 17.5215 24.9328 17.5112 25.0995 17.4486C25.2661 17.386 25.4097 17.2741 25.511 17.1278C25.6124 16.9815 25.6667 16.8077 25.6666 16.6298C25.6666 10.2244 21.1977 4.60937 14.875 4.13138V3.22041C14.8767 3.10336 14.8548 2.98716 14.8107 2.87871C14.7667 2.77025 14.7012 2.67175 14.6184 2.58902C14.5355 2.5063 14.4368 2.44105 14.3283 2.39713C14.2197 2.35322 14.1034 2.33153 13.9863 2.33336ZM13.894 5.84854C13.9655 5.85778 14.0378 5.85817 14.1094 5.84968C19.1482 5.90479 22.9071 9.70516 23.7366 14.587C21.9481 13.5029 19.6988 13.8399 18.3055 15.4205C15.8041 13.3959 12.2181 13.3905 9.71157 15.4057C8.32543 13.781 6.05896 13.4294 4.28156 14.4515C5.15692 9.63316 8.89955 5.90145 13.894 5.84854Z" fill="#2B6AD1"/>
</svg>
