<svg width="28" height="28" viewBox="0 0 28 28" fill="none" xmlns="http://www.w3.org/2000/svg">
<path d="M14 25.6666C7.56438 25.6666 2.33337 20.4356 2.33337 13.9999C2.33337 7.56426 7.56438 2.33325 14 2.33325C20.4357 2.33325 25.6667 7.56426 25.6667 13.9999C25.6667 20.4356 20.4357 25.6666 14 25.6666ZM14 3.96116C8.46516 3.96116 3.96128 8.46503 3.96128 13.9999C3.96128 19.5348 8.46516 24.0387 14 24.0387C19.5349 24.0387 24.0388 19.5348 24.0388 13.9999C24.0388 8.46503 19.5349 3.96116 14 3.96116Z" fill="#11A45D"/>
<path d="M12.459 17.8852C12.2419 17.8852 12.0357 17.7984 11.8838 17.6464L8.81244 14.5751C8.49771 14.2604 8.49771 13.7395 8.81244 13.4247C9.12717 13.11 9.6481 13.11 9.96283 13.4247L12.459 15.9208L18.0372 10.3426C18.352 10.0278 18.8729 10.0278 19.1876 10.3426C19.5024 10.6573 19.5024 11.1782 19.1876 11.4929L13.0341 17.6464C12.8822 17.7984 12.676 17.8852 12.459 17.8852Z" fill="#11A45D"/>
</svg>

