<svg width="28" height="28" viewBox="0 0 28 28" fill="none" xmlns="http://www.w3.org/2000/svg">
<path d="M14 2.33325C7.57171 2.33325 2.33337 7.57159 2.33337 13.9999C2.33337 20.4283 7.57171 25.6666 14 25.6666C20.4284 25.6666 25.6667 20.4283 25.6667 13.9999C25.6667 7.57159 20.4284 2.33325 14 2.33325ZM19.5767 11.3166L12.9617 17.9316C12.7984 18.0949 12.5767 18.1883 12.3434 18.1883C12.11 18.1883 11.8884 18.0949 11.725 17.9316L8.42337 14.6299C8.08504 14.2916 8.08504 13.7316 8.42337 13.3933C8.76171 13.0549 9.32171 13.0549 9.66004 13.3933L12.3434 16.0766L18.34 10.0799C18.6784 9.74159 19.2384 9.74159 19.5767 10.0799C19.915 10.4183 19.915 10.9666 19.5767 11.3166Z" fill="#7250D1"/>
</svg>
