<svg width="28" height="28" viewBox="0 0 28 28" fill="none" xmlns="http://www.w3.org/2000/svg">
<path d="M11.3768 2.33325C10.3754 2.33325 9.5635 3.17839 9.5635 4.22091V5.45969C9.5635 6.50221 10.3754 7.34735 11.3768 7.34735H16.6752C17.6766 7.34735 18.4885 6.50221 18.4885 5.45969V4.22091C18.4885 3.17839 17.6766 2.33325 16.6752 2.33325H11.3768Z" fill="#F5A304"/>
<path fill-rule="evenodd" clip-rule="evenodd" d="M4.66663 8.99211C4.66663 6.64619 6.33054 4.70483 8.49683 4.37718V5.45969C8.49683 7.11546 9.78625 8.45774 11.3768 8.45774H16.6752C18.2657 8.45774 19.5552 7.11546 19.5552 5.45969V4.38538C21.696 4.73603 23.3333 6.66503 23.3333 8.99211V21.003C23.3333 23.5786 21.3275 25.6666 18.8533 25.6666H9.14663C6.67239 25.6666 4.66663 23.5786 4.66663 21.003V8.99211ZM12.4914 17.2711C12.6491 17.4338 12.8488 17.5098 13.0485 17.5098C13.1932 17.5098 13.3379 17.4699 13.4666 17.386C13.5155 17.3541 13.5621 17.3159 13.6055 17.2711L17.8097 12.93C18.1145 12.6152 18.1145 12.0943 17.8097 11.7796C17.5049 11.4649 17.0004 11.4649 16.6956 11.7796L13.0485 15.5455L12.029 14.4928C11.7242 14.178 11.2196 14.178 10.9148 14.4928C10.727 14.6868 10.6549 14.9591 10.6986 15.2132C10.7258 15.3713 10.7979 15.5224 10.9148 15.6432L12.4914 17.2711Z" fill="#F5A304"/>
</svg>
