<svg width="28" height="28" viewBox="0 0 28 28" fill="none" xmlns="http://www.w3.org/2000/svg">
<path d="M11.377 2.33325C10.3755 2.33325 9.56362 3.17839 9.56362 4.22091V5.45969C9.56362 6.50221 10.3755 7.34735 11.377 7.34735H16.6753C17.6768 7.34735 18.4886 6.50221 18.4886 5.45969V4.22091C18.4886 3.17839 17.6768 2.33325 16.6753 2.33325H11.377Z" fill="#C62323"/>
<path fill-rule="evenodd" clip-rule="evenodd" d="M4.66675 8.99211C4.66675 6.64619 6.33066 4.70483 8.49696 4.37718V5.45969C8.49696 7.11547 9.78638 8.45774 11.377 8.45774H16.6753C18.2659 8.45774 19.5553 7.11547 19.5553 5.45969V4.38538C21.6961 4.73603 23.3334 6.66503 23.3334 8.99211V21.003C23.3334 23.5786 21.3277 25.6666 18.8534 25.6666H9.14675C6.67251 25.6666 4.66675 23.5786 4.66675 21.003V8.99211ZM12.4915 17.2711C12.6492 17.4338 12.8489 17.5098 13.0486 17.5098C13.1933 17.5098 13.338 17.4699 13.4667 17.386C13.5157 17.3541 13.5622 17.3159 13.6057 17.2711L17.8099 12.93C18.1147 12.6152 18.1147 12.0943 17.8099 11.7796C17.5051 11.4649 17.0005 11.4649 16.6957 11.7796L13.0486 15.5455L12.0291 14.4928C11.7243 14.178 11.2198 14.178 10.915 14.4928C10.7271 14.6868 10.655 14.9591 10.6988 15.2132C10.726 15.3713 10.798 15.5224 10.915 15.6432L12.4915 17.2711Z" fill="#C62323"/>
</svg>
