<svg width="28" height="28" viewBox="0 0 28 28" fill="none" xmlns="http://www.w3.org/2000/svg">
<path d="M12.9154 17.7273C12.7073 17.7273 12.4993 17.6507 12.3351 17.4864L10.6926 15.844C10.3751 15.5264 10.3751 15.0009 10.6926 14.6833C11.0102 14.3658 11.5357 14.3658 11.8533 14.6833L12.9154 15.7454L16.7149 11.9459C17.0324 11.6284 17.558 11.6284 17.8756 11.9459C18.1931 12.2635 18.1931 12.789 17.8756 13.1066L13.4957 17.4864C13.3424 17.6507 13.1234 17.7273 12.9154 17.7273Z" fill="#F5A304"/>
<path d="M18.5038 25.6672H9.82166C6.54415 25.6672 4.66663 23.7897 4.66663 20.5123V9.93107C4.66663 6.51253 6.40306 4.77612 9.82166 4.77612C10.2666 4.77612 10.6356 5.14511 10.6356 5.59006C10.6356 6.02416 10.8093 6.43656 11.1131 6.74043C11.417 7.0443 11.8294 7.21794 12.2635 7.21794H16.062C16.9628 7.21794 17.6899 6.49082 17.6899 5.59006C17.6899 5.14511 18.0589 4.77612 18.5038 4.77612C21.9224 4.77612 23.6589 6.51253 23.6589 9.93107V20.5123C23.6589 23.7897 21.7814 25.6672 18.5038 25.6672ZM9.11621 6.42571C7.40148 6.56679 6.29453 7.33732 6.29453 9.93107V20.5123C6.29453 22.9215 7.41236 24.0394 9.82166 24.0394H18.5038C20.9131 24.0394 22.031 22.9215 22.031 20.5123V9.93107C22.031 7.33732 20.924 6.57765 19.2093 6.42571C18.8403 7.81483 17.5705 8.84582 16.062 8.84582H12.2635C11.3953 8.84582 10.5814 8.50939 9.96276 7.89079C9.55035 7.4784 9.26815 6.97919 9.11621 6.42571Z" fill="#F5A304"/>
<path d="M16.0617 8.84477H12.2633C11.395 8.84477 10.5811 8.50833 9.96249 7.88974C9.34389 7.27114 9.00745 6.45721 9.00745 5.58901C9.00745 3.79834 10.4726 2.33325 12.2633 2.33325H16.0617C16.9299 2.33325 17.7439 2.66969 18.3625 3.28828C18.9811 3.90687 19.3175 4.72081 19.3175 5.58901C19.3175 7.37968 17.8524 8.84477 16.0617 8.84477ZM12.2633 3.96113C11.3625 3.96113 10.6354 4.68825 10.6354 5.58901C10.6354 6.02311 10.809 6.4355 11.1129 6.73937C11.4168 7.04324 11.8292 7.21689 12.2633 7.21689H16.0617C16.9625 7.21689 17.6896 6.48977 17.6896 5.58901C17.6896 5.15491 17.516 4.74251 17.2121 4.43864C16.9082 4.13477 16.4958 3.96113 16.0617 3.96113H12.2633Z" fill="#F5A304"/>
</svg>
