<svg width="28" height="28" viewBox="0 0 28 28" fill="none" xmlns="http://www.w3.org/2000/svg">
<path d="M12.9153 17.7273C12.7072 17.7273 12.4992 17.6507 12.3349 17.4864L10.6925 15.844C10.375 15.5264 10.375 15.0009 10.6925 14.6833C11.01 14.3658 11.5356 14.3658 11.8532 14.6833L12.9153 15.7454L16.7148 11.9459C17.0323 11.6284 17.5579 11.6284 17.8754 11.9459C18.193 12.2635 18.193 12.789 17.8754 13.1066L13.4956 17.4864C13.3423 17.6507 13.1233 17.7273 12.9153 17.7273Z" fill="#C62323"/>
<path d="M18.504 25.6672H9.82179C6.54427 25.6672 4.66675 23.7897 4.66675 20.5123V9.93107C4.66675 6.51253 6.40318 4.77612 9.82179 4.77612C10.2667 4.77612 10.6357 5.14511 10.6357 5.59006C10.6357 6.02416 10.8094 6.43656 11.1133 6.74043C11.4171 7.0443 11.8295 7.21794 12.2636 7.21794H16.0621C16.9629 7.21794 17.69 6.49082 17.69 5.59006C17.69 5.14511 18.059 4.77612 18.504 4.77612C21.9226 4.77612 23.659 6.51253 23.659 9.93107V20.5123C23.659 23.7897 21.7815 25.6672 18.504 25.6672ZM9.11633 6.42571C7.40161 6.56679 6.29466 7.33732 6.29466 9.93107V20.5123C6.29466 22.9215 7.41248 24.0394 9.82179 24.0394H18.504C20.9133 24.0394 22.0311 22.9215 22.0311 20.5123V9.93107C22.0311 7.33732 20.9241 6.57765 19.2094 6.42571C18.8404 7.81483 17.5706 8.84582 16.0621 8.84582H12.2636C11.3954 8.84582 10.5815 8.50939 9.96288 7.89079C9.55047 7.4784 9.26827 6.97919 9.11633 6.42571Z" fill="#C62323"/>
<path d="M16.0618 8.84477H12.2634C11.3952 8.84477 10.5812 8.50833 9.96261 7.88974C9.34401 7.27114 9.00757 6.45721 9.00757 5.58901C9.00757 3.79834 10.4727 2.33325 12.2634 2.33325H16.0618C16.93 2.33325 17.744 2.66969 18.3626 3.28828C18.9812 3.90687 19.3176 4.72081 19.3176 5.58901C19.3176 7.37967 17.8525 8.84477 16.0618 8.84477ZM12.2634 3.96113C11.3626 3.96113 10.6355 4.68825 10.6355 5.58901C10.6355 6.02311 10.8091 6.4355 11.113 6.73937C11.4169 7.04324 11.8293 7.21689 12.2634 7.21689H16.0618C16.9626 7.21689 17.6897 6.48977 17.6897 5.58901C17.6897 5.15491 17.5161 4.74251 17.2122 4.43864C16.9083 4.13477 16.4959 3.96113 16.0618 3.96113H12.2634Z" fill="#C62323"/>
</svg>
