<svg width="28" height="28" viewBox="0 0 28 28" fill="none" xmlns="http://www.w3.org/2000/svg">
<path d="M3.5 6.67446C3.5 4.27694 5.41993 2.33337 7.78829 2.33337H19.045C21.4134 2.33337 23.3333 4.27694 23.3333 6.67446V21.3256C23.3333 23.7231 21.4134 25.6667 19.045 25.6667H7.78829C5.41993 25.6667 3.5 23.7231 3.5 21.3256V6.67446ZM18.7733 9.6214C19.2235 9.6214 19.5773 9.25241 19.5773 8.80745C19.5773 8.36249 19.2128 7.9935 18.7733 7.9935H14.1343C13.6947 7.9935 13.3302 8.36249 13.3302 8.80745C13.3302 9.25241 13.6947 9.6214 14.1343 9.6214H18.7733ZM8.89449 10.4462C9.1089 10.4462 9.3126 10.3594 9.46269 10.2075L11.8749 7.76559C12.1858 7.45086 12.1858 6.92993 11.8749 6.6152C11.5639 6.30047 11.0494 6.30047 10.7385 6.6152L8.89449 8.48187L8.65863 8.24311C8.34773 7.92838 7.83314 7.92838 7.52224 8.24311C7.21134 8.55784 7.21134 9.07877 7.52224 9.3935L8.32629 10.2075C8.4871 10.3702 8.6908 10.4462 8.89449 10.4462ZM18.7733 15.2089C19.2235 15.2089 19.5773 14.8399 19.5773 14.3949C19.5773 13.9499 19.2128 13.5809 18.7733 13.5809H14.1343C13.6947 13.5809 13.3302 13.9499 13.3302 14.3949C13.3302 14.8399 13.6947 15.2089 14.1343 15.2089H18.7733ZM8.89449 16.0337C9.1089 16.0337 9.3126 15.9468 9.46269 15.7949L11.8749 13.353C12.1858 13.0383 12.1858 12.5174 11.8749 12.2027C11.5639 11.8879 11.0494 11.8879 10.7385 12.2027L8.89449 14.0693L8.65863 13.8306C8.34773 13.5158 7.83314 13.5158 7.52224 13.8306C7.21134 14.1453 7.21134 14.6662 7.52224 14.9809L8.32629 15.7949C8.4871 15.9577 8.6908 16.0337 8.89449 16.0337ZM18.7733 20.7961C19.2235 20.7961 19.5773 20.4271 19.5773 19.9822C19.5773 19.5372 19.2128 19.1682 18.7733 19.1682H14.1343C13.6947 19.1682 13.3302 19.5372 13.3302 19.9822C13.3302 20.4271 13.6947 20.7961 14.1343 20.7961H18.7733ZM8.89449 21.6209C9.1089 21.6209 9.3126 21.5341 9.46269 21.3822L11.8749 18.9403C12.1858 18.6256 12.1858 18.1046 11.8749 17.7899C11.5639 17.4752 11.0494 17.4752 10.7385 17.7899L8.89449 19.6566L8.65863 19.4178C8.34773 19.1031 7.83314 19.1031 7.52224 19.4178C7.21134 19.7326 7.21134 20.2535 7.52224 20.5682L8.32629 21.3822C8.4871 21.545 8.6908 21.6209 8.89449 21.6209Z" fill="#7250D1"/>
</svg>
