<svg width="28" height="28" viewBox="0 0 28 28" fill="none" xmlns="http://www.w3.org/2000/svg">
<path d="M3.5 6.67434C3.5 4.27682 5.41993 2.33325 7.78829 2.33325H19.045C21.4134 2.33325 23.3333 4.27682 23.3333 6.67434V21.3255C23.3333 23.723 21.4134 25.6666 19.045 25.6666H7.78829C5.41993 25.6666 3.5 23.723 3.5 21.3255V6.67434ZM18.7733 9.62128C19.2235 9.62128 19.5773 9.25229 19.5773 8.80733C19.5773 8.36237 19.2128 7.99338 18.7733 7.99338H14.1343C13.6947 7.99338 13.3302 8.36237 13.3302 8.80733C13.3302 9.25229 13.6947 9.62128 14.1343 9.62128H18.7733ZM8.89449 10.4461C9.1089 10.4461 9.3126 10.3593 9.46269 10.2073L11.8749 7.76547C12.1858 7.45074 12.1858 6.92981 11.8749 6.61508C11.5639 6.30035 11.0494 6.30035 10.7385 6.61508L8.89449 8.48175L8.65863 8.24299C8.34773 7.92826 7.83314 7.92826 7.52224 8.24299C7.21134 8.55772 7.21134 9.07865 7.52224 9.39338L8.32629 10.2073C8.4871 10.3701 8.6908 10.4461 8.89449 10.4461ZM18.7733 15.2087C19.2235 15.2087 19.5773 14.8397 19.5773 14.3948C19.5773 13.9498 19.2128 13.5808 18.7733 13.5808H14.1343C13.6947 13.5808 13.3302 13.9498 13.3302 14.3948C13.3302 14.8397 13.6947 15.2087 14.1343 15.2087H18.7733ZM8.89449 16.0335C9.1089 16.0335 9.3126 15.9467 9.46269 15.7948L11.8749 13.3529C12.1858 13.0382 12.1858 12.5173 11.8749 12.2025C11.5639 11.8878 11.0494 11.8878 10.7385 12.2025L8.89449 14.0692L8.65863 13.8304C8.34773 13.5157 7.83314 13.5157 7.52224 13.8304C7.21134 14.1452 7.21134 14.6661 7.52224 14.9808L8.32629 15.7948C8.4871 15.9576 8.6908 16.0335 8.89449 16.0335ZM18.7733 20.796C19.2235 20.796 19.5773 20.427 19.5773 19.982C19.5773 19.5371 19.2128 19.1681 18.7733 19.1681H14.1343C13.6947 19.1681 13.3302 19.5371 13.3302 19.982C13.3302 20.427 13.6947 20.796 14.1343 20.796H18.7733ZM8.89449 21.6208C9.1089 21.6208 9.3126 21.534 9.46269 21.382L11.8749 18.9402C12.1858 18.6255 12.1858 18.1045 11.8749 17.7898C11.5639 17.4751 11.0494 17.4751 10.7385 17.7898L8.89449 19.6565L8.65863 19.4177C8.34773 19.103 7.83314 19.103 7.52224 19.4177C7.21134 19.7324 7.21134 20.2534 7.52224 20.5681L8.32629 21.382C8.4871 21.5448 8.6908 21.6208 8.89449 21.6208Z" fill="#F5A304"/>
</svg>
