<svg width="28" height="28" viewBox="0 0 28 28" fill="none" xmlns="http://www.w3.org/2000/svg">
<path d="M19.045 3.96116C20.5253 3.96116 21.7252 5.17589 21.7252 6.67434V21.3255C21.7252 22.8239 20.5253 24.0387 19.045 24.0387H7.78829C6.30807 24.0387 5.10811 22.8239 5.10811 21.3255V6.67434C5.10811 5.17589 6.30807 3.96116 7.78829 3.96116H19.045ZM7.78829 2.33325C5.41993 2.33325 3.5 4.27682 3.5 6.67434V21.3255C3.5 23.723 5.41993 25.6666 7.78829 25.6666H19.045C21.4134 25.6666 23.3333 23.723 23.3333 21.3255V6.67434C23.3333 4.27682 21.4134 2.33325 19.045 2.33325H7.78829Z" fill="#F5A304"/>
<path d="M18.7733 9.62128H14.1343C13.6947 9.62128 13.3302 9.25229 13.3302 8.80733C13.3302 8.36237 13.6947 7.99338 14.1343 7.99338H18.7733C19.2128 7.99338 19.5773 8.36237 19.5773 8.80733C19.5773 9.25229 19.2235 9.62128 18.7733 9.62128Z" fill="#F5A304"/>
<path d="M8.89449 10.4461C8.6908 10.4461 8.4871 10.3701 8.32629 10.2073L7.52224 9.39338C7.21134 9.07865 7.21134 8.55772 7.52224 8.24299C7.83314 7.92826 8.34773 7.92826 8.65863 8.24299L8.89449 8.48175L10.7385 6.61508C11.0494 6.30035 11.5639 6.30035 11.8749 6.61508C12.1858 6.92981 12.1858 7.45074 11.8749 7.76547L9.46269 10.2073C9.3126 10.3593 9.1089 10.4461 8.89449 10.4461Z" fill="#F5A304"/>
<path d="M18.7733 15.2087H14.1343C13.6947 15.2087 13.3302 14.8397 13.3302 14.3948C13.3302 13.9498 13.6947 13.5808 14.1343 13.5808H18.7733C19.2128 13.5808 19.5773 13.9498 19.5773 14.3948C19.5773 14.8397 19.2235 15.2087 18.7733 15.2087Z" fill="#F5A304"/>
<path d="M8.89449 16.0335C8.6908 16.0335 8.4871 15.9576 8.32629 15.7948L7.52224 14.9808C7.21134 14.6661 7.21134 14.1452 7.52224 13.8304C7.83314 13.5157 8.34773 13.5157 8.65863 13.8304L8.89449 14.0692L10.7385 12.2025C11.0494 11.8878 11.5639 11.8878 11.8749 12.2025C12.1858 12.5173 12.1858 13.0382 11.8749 13.3529L9.46269 15.7948C9.3126 15.9467 9.1089 16.0335 8.89449 16.0335Z" fill="#F5A304"/>
<path d="M18.7733 20.796H14.1343C13.6947 20.796 13.3302 20.427 13.3302 19.982C13.3302 19.5371 13.6947 19.1681 14.1343 19.1681H18.7733C19.2128 19.1681 19.5773 19.5371 19.5773 19.982C19.5773 20.427 19.2235 20.796 18.7733 20.796Z" fill="#F5A304"/>
<path d="M8.89449 21.6208C8.6908 21.6208 8.4871 21.5448 8.32629 21.382L7.52224 20.5681C7.21134 20.2534 7.21134 19.7324 7.52224 19.4177C7.83314 19.103 8.34773 19.103 8.65863 19.4177L8.89449 19.6565L10.7385 17.7898C11.0494 17.4751 11.5639 17.4751 11.8749 17.7898C12.1858 18.1045 12.1858 18.6255 11.8749 18.9402L9.46269 21.382C9.3126 21.534 9.1089 21.6208 8.89449 21.6208Z" fill="#F5A304"/>
</svg>
