<svg width="28" height="28" viewBox="0 0 28 28" fill="none" xmlns="http://www.w3.org/2000/svg">
<path d="M19.045 3.96128C20.5253 3.96128 21.7252 5.17601 21.7252 6.67446V21.3256C21.7252 22.8241 20.5253 24.0388 19.045 24.0388H7.78829C6.30807 24.0388 5.10811 22.8241 5.10811 21.3256V6.67446C5.10811 5.17601 6.30807 3.96128 7.78829 3.96128H19.045ZM7.78829 2.33337C5.41993 2.33337 3.5 4.27694 3.5 6.67446V21.3256C3.5 23.7231 5.41993 25.6667 7.78829 25.6667H19.045C21.4134 25.6667 23.3333 23.7231 23.3333 21.3256V6.67446C23.3333 4.27694 21.4134 2.33337 19.045 2.33337H7.78829Z" fill="#7250D1"/>
<path d="M18.7733 9.6214H14.1343C13.6947 9.6214 13.3302 9.25241 13.3302 8.80745C13.3302 8.36249 13.6947 7.9935 14.1343 7.9935H18.7733C19.2128 7.9935 19.5773 8.36249 19.5773 8.80745C19.5773 9.25241 19.2235 9.6214 18.7733 9.6214Z" fill="#7250D1"/>
<path d="M8.89449 10.4462C8.6908 10.4462 8.4871 10.3702 8.32629 10.2075L7.52224 9.3935C7.21134 9.07877 7.21134 8.55784 7.52224 8.24311C7.83314 7.92838 8.34773 7.92838 8.65863 8.24311L8.89449 8.48187L10.7385 6.6152C11.0494 6.30047 11.5639 6.30047 11.8749 6.6152C12.1858 6.92993 12.1858 7.45086 11.8749 7.76559L9.46269 10.2075C9.3126 10.3594 9.1089 10.4462 8.89449 10.4462Z" fill="#7250D1"/>
<path d="M18.7733 15.2089H14.1343C13.6947 15.2089 13.3302 14.8399 13.3302 14.3949C13.3302 13.9499 13.6947 13.5809 14.1343 13.5809H18.7733C19.2128 13.5809 19.5773 13.9499 19.5773 14.3949C19.5773 14.8399 19.2235 15.2089 18.7733 15.2089Z" fill="#7250D1"/>
<path d="M8.89449 16.0337C8.6908 16.0337 8.4871 15.9577 8.32629 15.7949L7.52224 14.9809C7.21134 14.6662 7.21134 14.1453 7.52224 13.8306C7.83314 13.5158 8.34773 13.5158 8.65863 13.8306L8.89449 14.0693L10.7385 12.2027C11.0494 11.8879 11.5639 11.8879 11.8749 12.2027C12.1858 12.5174 12.1858 13.0383 11.8749 13.353L9.46269 15.7949C9.3126 15.9468 9.1089 16.0337 8.89449 16.0337Z" fill="#7250D1"/>
<path d="M18.7733 20.7961H14.1343C13.6947 20.7961 13.3302 20.4271 13.3302 19.9822C13.3302 19.5372 13.6947 19.1682 14.1343 19.1682H18.7733C19.2128 19.1682 19.5773 19.5372 19.5773 19.9822C19.5773 20.4271 19.2235 20.7961 18.7733 20.7961Z" fill="#7250D1"/>
<path d="M8.89449 21.6209C8.6908 21.6209 8.4871 21.545 8.32629 21.3822L7.52224 20.5682C7.21134 20.2535 7.21134 19.7326 7.52224 19.4178C7.83314 19.1031 8.34773 19.1031 8.65863 19.4178L8.89449 19.6566L10.7385 17.7899C11.0494 17.4752 11.5639 17.4752 11.8749 17.7899C12.1858 18.1046 12.1858 18.6256 11.8749 18.9403L9.46269 21.3822C9.3126 21.5341 9.1089 21.6209 8.89449 21.6209Z" fill="#7250D1"/>
</svg>
