<svg width="28" height="28" viewBox="0 0 28 28" fill="none" xmlns="http://www.w3.org/2000/svg">
<path d="M16.4802 2.95447L23.9087 7.53832C25.4713 8.50641 25.9797 10.256 25.4837 11.7606V17.4992C25.4837 17.9774 25.062 18.3739 24.5535 18.3739C24.0451 18.3739 23.6234 17.9774 23.6234 17.4992V13.9301L16.4802 18.3389C15.1409 19.1671 12.9334 19.1671 11.5941 18.3389L6.11264 14.9798L4.12842 13.7668C1.73494 12.2971 1.73494 8.99629 4.12842 7.53832L11.5941 2.95447C12.9334 2.12634 15.1409 2.12634 16.4802 2.95447Z" fill="#F5A304"/>
<path d="M21.9244 19.2254C21.9244 18.2923 20.8331 17.7324 20.0022 18.2456L17.4847 19.7969C16.505 20.4151 15.2649 20.7184 14.0247 20.7184C12.7846 20.7184 11.5445 20.4151 10.5648 19.7969L8.01006 18.234C7.19157 17.7324 6.10024 18.2923 6.10024 19.2137V20.73C6.10024 22.2113 7.31558 23.7976 8.80375 24.2641L12.7598 25.5005C13.4419 25.7221 14.5704 25.7221 15.2649 25.5005L19.2209 24.2641C20.6967 23.7976 21.9244 22.2113 21.9244 20.73V19.2254Z" fill="#F5A304"/>
</svg>
