<svg width="28" height="28" viewBox="0 0 28 28" fill="none" xmlns="http://www.w3.org/2000/svg">
<path d="M14.0172 19.4268C13.0426 19.4268 12.0565 19.188 11.2883 18.7214L4.38573 14.4565C3.10154 13.6643 2.33331 12.3295 2.33331 10.8753C2.33331 9.42115 3.10154 8.08634 4.38573 7.29414L11.2997 3.04012C12.8362 2.09599 15.2326 2.09599 16.7576 3.05097L23.6257 7.31584C24.8984 8.10804 25.6666 9.44285 25.6666 10.8862C25.6666 12.3295 24.8984 13.6643 23.6257 14.4565L16.7576 18.7214C15.9893 19.1989 15.0033 19.4268 14.0172 19.4268ZM14.0172 3.96255C13.3636 3.96255 12.7101 4.10363 12.2399 4.40748L5.33741 8.6615C4.53479 9.1607 4.06468 9.96375 4.06468 10.8753C4.06468 11.7869 4.52332 12.59 5.33741 13.0891L12.2399 17.354C13.1916 17.94 14.8657 17.94 15.8173 17.354L22.6855 13.0891C23.4881 12.59 23.9467 11.7869 23.9467 10.8753C23.9467 9.96375 23.4881 9.1607 22.6855 8.6615L15.8173 4.39663C15.3358 4.11448 14.6822 3.96255 14.0172 3.96255Z" fill="#F5A304"/>
<path d="M14.0057 25.6667C13.5012 25.6667 12.9852 25.6016 12.5725 25.4714L8.9148 24.3211C7.18344 23.7784 5.81898 21.9879 5.83045 20.2624L5.84191 15.1727C5.84191 14.7278 6.23176 14.3588 6.70186 14.3588C7.17197 14.3588 7.56181 14.7278 7.56181 15.1727L7.55035 20.2624C7.55035 21.2825 8.4447 22.4545 9.46517 22.7801L13.1228 23.9304C13.5815 24.0715 14.43 24.0715 14.8886 23.9304L18.5463 22.7801C19.5667 22.4545 20.4611 21.2825 20.4611 20.2732V15.2379C20.4611 14.7929 20.8509 14.424 21.321 14.424C21.7911 14.424 22.181 14.7929 22.181 15.2379V20.2732C22.181 21.9987 20.828 23.7784 19.0966 24.3319L15.439 25.4822C15.0262 25.6016 14.5102 25.6667 14.0057 25.6667Z" fill="#F5A304"/>
<path d="M24.7838 18.0703C24.3137 18.0703 23.9238 17.7013 23.9238 17.2563V10.7451C23.9238 10.3002 24.3137 9.93119 24.7838 9.93119C25.2539 9.93119 25.6437 10.3002 25.6437 10.7451V17.2563C25.6437 17.7013 25.2539 18.0703 24.7838 18.0703Z" fill="#F5A304"/>
</svg>
