<svg width="28" height="28" viewBox="0 0 28 28" fill="none" xmlns="http://www.w3.org/2000/svg">
<path d="M17.2557 25.6667H10.7441C4.85108 25.6667 2.33325 23.1489 2.33325 17.2559V10.7442C2.33325 4.8512 4.85108 2.33337 10.7441 2.33337H17.2557C23.1488 2.33337 25.6666 4.8512 25.6666 10.7442V17.2559C25.6666 23.1489 23.1488 25.6667 17.2557 25.6667ZM10.7441 3.96128C5.741 3.96128 3.96116 5.74113 3.96116 10.7442V17.2559C3.96116 22.259 5.741 24.0388 10.7441 24.0388H17.2557C22.2588 24.0388 24.0387 22.259 24.0387 17.2559V10.7442C24.0387 5.74113 22.2588 3.96128 17.2557 3.96128H10.7441Z" fill="#11A45D"/>
<path d="M19.6038 9.22664H8.39606C7.9511 9.22664 7.58211 8.85765 7.58211 8.41268C7.58211 7.96772 7.9511 7.59873 8.39606 7.59873H19.6038C20.0487 7.59873 20.4177 7.96772 20.4177 8.41268C20.4177 8.85765 20.0596 9.22664 19.6038 9.22664Z" fill="#11A45D"/>
<path d="M19.6038 14.8141H8.39606C7.9511 14.8141 7.58211 14.4451 7.58211 14.0001C7.58211 13.5552 7.9511 13.1862 8.39606 13.1862H19.6038C20.0487 13.1862 20.4177 13.5552 20.4177 14.0001C20.4177 14.4451 20.0596 14.8141 19.6038 14.8141Z" fill="#11A45D"/>
<path d="M19.6038 20.4014H8.39606C7.9511 20.4014 7.58211 20.0324 7.58211 19.5874C7.58211 19.1424 7.9511 18.7734 8.39606 18.7734H19.6038C20.0487 18.7734 20.4177 19.1424 20.4177 19.5874C20.4177 20.0324 20.0596 20.4014 19.6038 20.4014Z" fill="#11A45D"/>
</svg>
