<svg width="24" height="23" viewBox="0 0 24 23" fill="none" xmlns="http://www.w3.org/2000/svg">
<path d="M6.57552 4.3252C6.96575 1.87392 9.09657 0 11.6666 0C14.2368 0 16.3675 1.87392 16.7578 4.3252H19.291C19.7733 4.3252 20.1761 4.3252 20.5066 4.34765C20.8508 4.37104 21.1758 4.42148 21.491 4.55153C22.2222 4.85335 22.8033 5.4322 23.1062 6.16081C23.2368 6.47483 23.2873 6.79869 23.3108 7.14159C23.3333 7.47097 23.3333 7.87215 23.3333 8.35275V8.4074C23.3333 8.888 23.3333 9.28918 23.3108 9.61861C23.2873 9.96151 23.2368 10.2853 23.1062 10.5994C22.9176 11.0528 22.6213 11.4484 22.2481 11.7551V14.471C22.2481 15.6521 22.2481 16.5878 22.1862 17.3422C22.1229 18.1136 21.9909 18.7663 21.6862 19.3623C21.192 20.3287 20.4033 21.1145 19.4334 21.6069C18.8352 21.9105 18.1802 22.042 17.4059 22.105C16.6488 22.1667 15.7095 22.1667 14.5242 22.1667H8.80909C7.62383 22.1667 6.68454 22.1667 5.92745 22.105C5.15321 22.042 4.49813 21.9105 3.89996 21.6069C2.92999 21.1145 2.14135 20.3287 1.64714 19.3623C1.34235 18.7663 1.21038 18.1137 1.14711 17.3422C1.08526 16.5878 1.08526 15.6519 1.08526 14.471V11.7551C0.712037 11.4484 0.415722 11.0528 0.227162 10.5994C0.0966286 10.2854 0.046005 9.96151 0.0225313 9.61861C-2.32738e-05 9.28921 -2.32799e-05 8.888 1.57112e-06 8.4074V8.35278C1.57112e-06 7.87218 1.57549e-06 7.47097 0.0225313 7.14161C0.046005 6.79872 0.0966289 6.47485 0.227162 6.16084C0.530085 5.43223 1.11106 4.85335 1.84235 4.55156C2.15752 4.4215 2.48257 4.37107 2.82673 4.34768C3.15733 4.32521 3.56 4.32521 4.04234 4.32523L6.57552 4.3252ZM8.2339 4.3252H15.0994C14.732 2.77533 13.3345 1.62195 11.6666 1.62195C9.9988 1.62195 8.60135 2.7753 8.2339 4.3252ZM20.6201 12.4037C20.5824 12.4069 20.5447 12.4099 20.5066 12.4125C20.176 12.435 19.7733 12.435 19.291 12.435H16.8217V12.7053C16.8217 13.1532 16.4573 13.5163 16.0077 13.5163C15.5582 13.5163 15.1938 13.1532 15.1938 12.7053V12.435H8.13953V12.7053C8.13953 13.1532 7.77511 13.5163 7.32558 13.5163C6.87605 13.5163 6.51162 13.1532 6.51162 12.7053V12.435H4.04234C3.55997 12.435 3.15732 12.435 2.82673 12.4125C2.78865 12.4099 2.75079 12.4069 2.71316 12.4037V14.4353C2.71316 15.6599 2.71381 16.5295 2.7696 17.2101C2.82462 17.8811 2.92922 18.2967 3.09761 18.6259C3.43578 19.2871 3.97535 19.8248 4.63899 20.1617C4.96944 20.3294 5.38643 20.4336 6.06001 20.4885C6.74306 20.544 7.6159 20.5447 8.84495 20.5447H14.4883C15.7174 20.5447 16.5902 20.544 17.2733 20.4885C17.9468 20.4336 18.3639 20.3294 18.6943 20.1617C19.358 19.8247 19.8976 19.2871 20.2357 18.6259C20.4041 18.2967 20.5087 17.8811 20.5637 17.2101C20.6195 16.5295 20.6201 15.6599 20.6201 14.4353L20.6201 12.4037ZM8.1395 10.813H15.1938V10.5427C15.1938 10.0948 15.5582 9.73169 16.0077 9.73169C16.4572 9.73169 16.8217 10.0948 16.8217 10.5427V10.813H19.2635C19.7803 10.813 20.1272 10.8126 20.3958 10.7943C20.657 10.7765 20.7842 10.7447 20.868 10.7102C21.2003 10.573 21.4645 10.3098 21.6022 9.97869C21.6368 9.89521 21.6688 9.76849 21.6866 9.50821C21.7049 9.2406 21.7054 8.89503 21.7054 8.3801C21.7054 7.86517 21.7049 7.5196 21.6866 7.25204C21.6688 6.99173 21.6368 6.86499 21.6022 6.78156C21.4645 6.4504 21.2003 6.18724 20.868 6.05006C20.7842 6.01551 20.657 5.98365 20.3958 5.96588C20.1272 5.94762 19.7803 5.94717 19.2635 5.94717H4.06974C3.55292 5.94717 3.20608 5.94759 2.93754 5.96588C2.67627 5.98365 2.54907 6.01551 2.46533 6.05006C2.13295 6.18724 1.86882 6.4504 1.73114 6.78156C1.69646 6.86499 1.66449 6.99173 1.64666 7.25204C1.62832 7.51963 1.62788 7.8652 1.62788 8.3801C1.62788 8.895 1.6283 9.2406 1.64666 9.50821C1.66449 9.76849 1.69646 9.89521 1.73114 9.97869C1.86882 10.3098 2.13295 10.573 2.46533 10.7102C2.54907 10.7447 2.67627 10.7766 2.93754 10.7943C3.20611 10.8126 3.55294 10.813 4.06974 10.813H6.5116V10.5427C6.5116 10.0948 6.87602 9.73169 7.32555 9.73169C7.77508 9.73169 8.1395 10.0948 8.1395 10.5427V10.813Z" fill="#2B6AD1"/>
</svg>
