<svg width="24" height="23" viewBox="0 0 24 23" fill="none" xmlns="http://www.w3.org/2000/svg">
<path fill-rule="evenodd" clip-rule="evenodd" d="M6.61099 4.325C7.00037 1.87383 9.12651 0 11.6909 0C14.2554 0 16.3815 1.87383 16.7709 4.325H15.1161C14.7496 2.77519 13.3551 1.62187 11.6909 1.62187C10.0268 1.62187 8.63237 2.77517 8.26573 4.325H6.61099ZM0 7.53709C0 5.80762 1.40414 4.40561 3.13624 4.40561H20.1971C21.9292 4.40561 23.3333 5.80762 23.3333 7.53709C23.3333 9.26656 21.9292 10.6686 20.1971 10.6686H16.9991V10.5449C16.9991 10.0927 16.632 9.72604 16.179 9.72604C15.7261 9.72604 15.3589 10.0927 15.3589 10.5449V10.6686H8.11664V10.5449C8.11664 10.0927 7.74947 9.72604 7.29654 9.72604C6.84361 9.72604 6.47644 10.0927 6.47644 10.5449V10.6686H3.13624C1.40414 10.6686 0 9.26656 0 7.53709ZM6.47644 12.2316H2.32896C1.72505 12.2316 1.23549 12.7205 1.23549 13.3235V17.7994C1.23549 20.2114 3.19374 22.1667 5.60935 22.1667H17.724C20.1396 22.1667 22.0978 20.2114 22.0978 17.7994V13.3235C22.0978 12.7205 21.6083 12.2316 21.0044 12.2316H16.9991V12.6965C16.9991 13.1488 16.632 13.5154 16.179 13.5154C15.7261 13.5154 15.3589 13.1488 15.3589 12.6965V12.2316H8.11664V12.6965C8.11664 13.1488 7.74947 13.5154 7.29654 13.5154C6.84361 13.5154 6.47644 13.1488 6.47644 12.6965V12.2316Z" fill="#2B6AD1"/>
</svg>
