<svg width="28" height="28" viewBox="0 0 28 28" fill="none" xmlns="http://www.w3.org/2000/svg">
<path d="M11.7997 25.7996C11.143 25.7996 10.5191 25.4713 10.0923 24.8912L8.77893 23.14C8.77893 23.151 8.7242 23.1181 8.70231 23.1181H8.29735C4.55421 23.1181 2.23389 22.1003 2.23389 17.0547V12.6767C2.23389 8.06896 5.04673 6.86502 7.41082 6.65707C7.6735 6.62424 7.97995 6.61328 8.29735 6.61328H15.3021C19.2641 6.61328 21.3655 8.71471 21.3655 12.6767V17.0547C21.3655 17.3721 21.3546 17.6785 21.3108 17.9741C21.1138 20.3053 19.9098 23.1181 15.3021 23.1181H14.8643L13.5071 24.8912C13.0802 25.4713 12.4564 25.7996 11.7997 25.7996ZM8.29735 8.25501C8.04562 8.25501 7.80483 8.26595 7.57499 8.28784C5.03578 8.50674 3.87562 9.89675 3.87562 12.6767V17.0547C3.87562 20.8088 5.03578 21.4764 8.29735 21.4764H8.73514C9.22766 21.4764 9.78584 21.75 10.0923 22.1441L11.4057 23.9062C11.6465 24.2345 11.9529 24.2345 12.1937 23.9062L13.5071 22.155C13.8245 21.7282 14.328 21.4764 14.8643 21.4764H15.3021C18.0821 21.4764 19.4721 20.3053 19.68 17.8099C19.7128 17.5472 19.7238 17.3064 19.7238 17.0547V12.6767C19.7238 9.62313 18.3557 8.25501 15.3021 8.25501H8.29735Z" fill="#C62323"/>
<path d="M11.7999 16.3975C11.187 16.3975 10.7054 15.905 10.7054 15.303C10.7054 14.701 11.198 14.2085 11.7999 14.2085C12.4019 14.2085 12.8944 14.701 12.8944 15.303C12.8944 15.905 12.4128 16.3975 11.7999 16.3975Z" fill="#C62323"/>
<path d="M15.3015 16.3975C14.6886 16.3975 14.207 15.905 14.207 15.303C14.207 14.701 14.6996 14.2085 15.3015 14.2085C15.9035 14.2085 16.396 14.701 16.396 15.303C16.396 15.905 15.9035 16.3975 15.3015 16.3975Z" fill="#C62323"/>
<path d="M8.30921 16.3975C7.6963 16.3975 7.21472 15.905 7.21472 15.303C7.21472 14.701 7.70724 14.2085 8.30921 14.2085C8.91118 14.2085 9.40369 14.701 9.40369 15.303C9.40369 15.905 8.91118 16.3975 8.30921 16.3975Z" fill="#C62323"/>
<path d="M20.5004 18.6964C20.2815 18.6964 20.0626 18.6089 19.9094 18.4447C19.7343 18.2696 19.6577 18.0179 19.6905 17.7771C19.7234 17.5472 19.7343 17.3064 19.7343 17.0547V12.6768C19.7343 9.62315 18.3662 8.25503 15.3126 8.25503H8.30783C8.0561 8.25503 7.81534 8.26597 7.5855 8.28786C7.34472 8.3207 7.09297 8.23312 6.91785 8.06895C6.74273 7.89383 6.64421 7.65307 6.6661 7.41229C6.86311 5.04819 8.07799 2.23535 12.6858 2.23535H19.6905C23.6526 2.23535 25.754 4.33678 25.754 8.29882V12.6768C25.754 17.2846 22.9411 18.4885 20.5771 18.6964C20.5442 18.6964 20.5223 18.6964 20.5004 18.6964ZM8.4392 6.6133H15.3016C19.2637 6.6133 21.3651 8.71472 21.3651 12.6768V16.9124C23.2257 16.4527 24.1013 15.0846 24.1013 12.6768V8.29882C24.1013 5.2452 22.7332 3.87708 19.6796 3.87708H12.6749C10.267 3.87708 8.90983 4.75267 8.4392 6.6133Z" fill="#C62323"/>
</svg>
