<svg width="28" height="28" viewBox="0 0 28 28" fill="none" xmlns="http://www.w3.org/2000/svg">
<path d="M25.6667 12.5717V7.91264C25.6667 4.19701 23.7982 2.33337 20.0728 2.33337H12.5988C10.2748 2.33337 8.6866 3.05553 7.81074 4.49985C7.60053 4.84929 7.88081 5.25696 8.28954 5.25696L15.4016 5.24531C20.0728 5.24531 22.7472 7.91264 22.7472 12.5717L22.7355 16.8814C22.7355 17.2891 23.1442 17.5686 23.4946 17.359C24.9427 16.4854 25.6667 14.9013 25.6667 12.5717Z" fill="#C54208"/>
<path d="M7.92723 6.99247H15.4013C19.1266 6.99247 20.9951 8.85611 20.9951 12.5717V17.2308C20.9951 17.5337 20.9835 17.8249 20.9484 18.1044C20.6798 21.2493 18.823 22.8101 15.4013 22.8101H14.9342C14.6422 22.8101 14.3619 22.9499 14.1867 23.1828L12.7854 25.0465C12.1664 25.8735 11.1621 25.8735 10.5431 25.0465L9.14177 23.1828C8.98995 22.9848 8.65128 22.8101 8.39436 22.8101H7.92723C4.20189 22.8101 2.33337 21.8899 2.33337 17.2308V12.5717C2.33337 9.15895 3.90993 7.30696 7.05137 7.03906C7.33164 7.00412 7.6236 6.99247 7.92723 6.99247ZM6.42074 15.1459C6.42074 15.7865 6.93459 16.3107 7.58856 16.3107C8.23087 16.3107 8.75638 15.7865 8.75638 15.1459C8.75638 14.5053 8.23087 13.9811 7.58856 13.9811C6.94626 13.9811 6.42074 14.5053 6.42074 15.1459ZM10.4964 15.1459C10.4964 15.7865 11.0103 16.3107 11.6643 16.3107C12.3182 16.3107 12.8321 15.7865 12.8321 15.1459C12.8321 14.5053 12.3066 13.9811 11.6643 13.9811C11.022 13.9811 10.4964 14.5053 10.4964 15.1459ZM14.5838 15.1459C14.5838 15.7865 15.0976 16.3107 15.7516 16.3107C16.3939 16.3107 16.9194 15.7865 16.9194 15.1459C16.9194 14.5053 16.3939 13.9811 15.7516 13.9811C15.1093 13.9811 14.5838 14.5053 14.5838 15.1459Z" fill="#C54208"/>
</svg>
