<svg width="28" height="28" viewBox="0 0 28 28" fill="none" xmlns="http://www.w3.org/2000/svg">
<path d="M23.8039 9.12354L14.609 14.3292C14.2389 14.5393 13.7732 14.5393 13.391 14.3292L4.19622 9.12354C3.53945 8.75004 3.37227 7.87464 3.8738 7.32606C4.2201 6.94088 4.61417 6.62574 5.03211 6.40397L11.5043 2.90238C12.8895 2.1437 15.1345 2.1437 16.5197 2.90238L22.9918 6.40397C23.4098 6.62574 23.8039 6.95256 24.1502 7.32606C24.6278 7.87464 24.4606 8.75004 23.8039 9.12354Z" fill="#7250D1"/>
<path d="M13.3194 16.5002V24.4605C13.3194 25.3476 12.3999 25.9312 11.5879 25.546C9.12798 24.3671 4.98435 22.1611 4.98435 22.1611C3.52751 21.3558 2.33337 19.3248 2.33337 17.6558V11.633C2.33337 10.7109 3.3245 10.1273 4.13651 10.5825L12.7223 15.4497C13.0806 15.6715 13.3194 16.0684 13.3194 16.5002Z" fill="#7250D1"/>
<path d="M14.6807 16.5002V24.4605C14.6807 25.3476 15.6002 25.9312 16.4122 25.546C18.8721 24.3671 23.0157 22.1611 23.0157 22.1611C24.4726 21.3558 25.6667 19.3248 25.6667 17.6558V11.633C25.6667 10.7109 24.6756 10.1273 23.8636 10.5825L15.2778 15.4497C14.9195 15.6715 14.6807 16.0684 14.6807 16.5002Z" fill="#7250D1"/>
</svg>
