<svg width="28" height="28" viewBox="0 0 28 28" fill="none" xmlns="http://www.w3.org/2000/svg">
<path d="M23.8037 9.12354L14.6089 14.3292C14.2387 14.5393 13.773 14.5393 13.3909 14.3292L4.1961 9.12354C3.53933 8.75004 3.37215 7.87464 3.87368 7.32606C4.21998 6.94088 4.61404 6.62574 5.03199 6.40397L11.5042 2.90238C12.8894 2.1437 15.1343 2.1437 16.5195 2.90238L22.9917 6.40397C23.4097 6.62574 23.8037 6.95256 24.15 7.32606C24.6277 7.87464 24.4605 8.75004 23.8037 9.12354Z" fill="#F5A304"/>
<path d="M13.3193 16.5002V24.4605C13.3193 25.3476 12.3998 25.9312 11.5878 25.546C9.12786 24.3671 4.98422 22.1611 4.98422 22.1611C3.52738 21.3558 2.33325 19.3248 2.33325 17.6558V11.633C2.33325 10.7109 3.32438 10.1273 4.13639 10.5825L12.7222 15.4497C13.0804 15.6715 13.3193 16.0684 13.3193 16.5002Z" fill="#F5A304"/>
<path d="M14.6806 16.5002V24.4605C14.6806 25.3476 15.6001 25.9312 16.4121 25.546C18.872 24.3671 23.0156 22.1611 23.0156 22.1611C24.4725 21.3558 25.6666 19.3248 25.6666 17.6558V11.633C25.6666 10.7109 24.6755 10.1273 23.8634 10.5825L15.2776 15.4497C14.9194 15.6715 14.6806 16.0684 14.6806 16.5002Z" fill="#F5A304"/>
</svg>
