<svg width="28" height="28" viewBox="0 0 28 28" fill="none" xmlns="http://www.w3.org/2000/svg">
<path d="M13.9998 15.4109C13.8608 15.4109 13.7217 15.3783 13.5933 15.3024L4.1468 9.75663C3.77236 9.52872 3.63328 9.0295 3.85795 8.6388C4.08261 8.2481 4.57472 8.11787 4.95986 8.34578L13.9998 13.6528L22.9863 8.37834C23.3715 8.15043 23.8636 8.29151 24.0882 8.67136C24.3129 9.06206 24.1738 9.56128 23.7994 9.78919L14.4171 15.3024C14.278 15.3675 14.1389 15.4109 13.9998 15.4109Z" fill="#F5A304"/>
<path d="M13.9998 25.2435C13.5612 25.2435 13.1975 24.8745 13.1975 24.4295V14.5861C13.1975 14.1411 13.5612 13.7721 13.9998 13.7721C14.4385 13.7721 14.8022 14.1411 14.8022 14.5861V24.4295C14.8022 24.8745 14.4385 25.2435 13.9998 25.2435Z" fill="#F5A304"/>
<path d="M13.9998 25.6667C13.0584 25.6667 12.1277 25.4605 11.3895 25.0481L5.67664 21.8248C4.1254 20.9566 2.9165 18.8621 2.9165 17.0605V10.9287C2.9165 9.12717 4.1254 7.04345 5.67664 6.16438L11.3895 2.95198C12.8551 2.12717 15.1445 2.12717 16.6102 2.95198L22.323 6.17523C23.8743 7.04345 25.0832 9.13803 25.0832 10.9396V17.0714C25.0832 18.8729 23.8743 20.9566 22.323 21.8357L16.6102 25.0481C15.872 25.4605 14.9413 25.6667 13.9998 25.6667ZM13.9998 3.96128C13.3258 3.96128 12.6626 4.10237 12.1704 4.37368L6.45761 7.59694C5.43058 8.17213 4.52123 9.73493 4.52123 10.9287V17.0605C4.52123 18.2543 5.43058 19.8171 6.45761 20.4031L12.1704 23.6264C13.144 24.1799 14.8557 24.1799 15.8292 23.6264L21.5421 20.4031C22.5691 19.8171 23.4784 18.2652 23.4784 17.0605V10.9287C23.4784 9.73493 22.5691 8.17213 21.5421 7.58609L15.8292 4.36283C15.3371 4.10237 14.6738 3.96128 13.9998 3.96128Z" fill="#F5A304"/>
</svg>
