<svg width="28" height="28" viewBox="0 0 28 28" fill="none" xmlns="http://www.w3.org/2000/svg">
<path d="M14 15.4109C13.8609 15.4109 13.7218 15.3783 13.5934 15.3024L4.14692 9.75663C3.77248 9.52872 3.63341 9.0295 3.85807 8.6388C4.08273 8.2481 4.57485 8.11787 4.95998 8.34578L14 13.6528L22.9864 8.37834C23.3716 8.15043 23.8637 8.29151 24.0884 8.67136C24.313 9.06206 24.1739 9.56128 23.7995 9.78919L14.4172 15.3024C14.2781 15.3675 14.139 15.4109 14 15.4109Z" fill="#7250D1"/>
<path d="M14 25.2435C13.5613 25.2435 13.1976 24.8745 13.1976 24.4295V14.5861C13.1976 14.1411 13.5613 13.7721 14 13.7721C14.4386 13.7721 14.8023 14.1411 14.8023 14.5861V24.4295C14.8023 24.8745 14.4386 25.2435 14 25.2435Z" fill="#7250D1"/>
<path d="M14 25.6667C13.0585 25.6667 12.1278 25.4605 11.3896 25.0481L5.67676 21.8248C4.12552 20.9566 2.91663 18.8621 2.91663 17.0605V10.9287C2.91663 9.12717 4.12552 7.04345 5.67676 6.16438L11.3896 2.95198C12.8553 2.12717 15.1447 2.12717 16.6103 2.95198L22.3232 6.17523C23.8744 7.04345 25.0833 9.13803 25.0833 10.9396V17.0714C25.0833 18.8729 23.8744 20.9566 22.3232 21.8357L16.6103 25.0481C15.8721 25.4605 14.9414 25.6667 14 25.6667ZM14 3.96128C13.326 3.96128 12.6627 4.10237 12.1706 4.37368L6.45773 7.59694C5.4307 8.17213 4.52136 9.73492 4.52136 10.9287V17.0605C4.52136 18.2543 5.4307 19.8171 6.45773 20.4031L12.1706 23.6264C13.1441 24.1799 14.8558 24.1799 15.8294 23.6264L21.5422 20.4031C22.5692 19.8171 23.4786 18.2652 23.4786 17.0605V10.9287C23.4786 9.73492 22.5692 8.17213 21.5422 7.58609L15.8294 4.36283C15.3372 4.10237 14.6739 3.96128 14 3.96128Z" fill="#7250D1"/>
</svg>
