<svg width="28" height="28" viewBox="0 0 28 28" fill="none" xmlns="http://www.w3.org/2000/svg">
<path d="M4.1078 9.83184L9.83948 4.10016C11.0415 2.89815 12.699 2.25286 14.3945 2.34143L20.7208 2.6451C23.2514 2.75897 25.2631 4.77075 25.3897 7.28864L25.6933 13.615C25.7692 15.3105 25.1366 16.968 23.9346 18.17L18.2029 23.9017C15.8495 26.2551 12.0284 26.2551 9.66234 23.9017L4.1078 18.3471C1.74174 16.0064 1.74174 12.1852 4.1078 9.83184ZM17.1781 14.488C19.1898 14.488 20.822 12.8558 20.822 10.8441C20.822 8.83227 19.1898 7.20007 17.1781 7.20007C15.1663 7.20007 13.5341 8.83227 13.5341 10.8441C13.5341 12.8558 15.1663 14.488 17.1781 14.488Z" fill="#2B6AD1"/>
</svg>
