<svg width="28" height="28" viewBox="0 0 28 28" fill="none" xmlns="http://www.w3.org/2000/svg">
<path fill-rule="evenodd" clip-rule="evenodd" d="M9.54167 4.25069L4.23531 9.53853C1.72293 12.0668 1.72055 16.1528 4.23698 18.6715L9.3664 23.8057L9.36806 23.8073C11.894 26.322 15.9762 26.3244 18.4926 23.8057L23.7856 18.5078C25.0697 17.2225 25.7583 15.4512 25.6773 13.6267L25.6771 13.6236L25.3966 7.77406C25.2572 4.99676 23.0392 2.7761 20.2506 2.64979L20.2492 2.64973L14.4134 2.36936L14.4115 2.36926C12.5955 2.27485 10.8244 2.9672 9.54167 4.25069ZM10.781 5.49114C11.7178 4.55347 13.0076 4.05251 14.322 4.12123L14.3257 4.12142L20.1678 4.4021L20.1705 4.40222C22.0546 4.48709 23.5514 5.98472 23.6461 7.86119L23.9263 13.7046L23.9264 13.7061C23.9852 15.0387 23.4819 16.3309 22.5463 17.2673L17.2533 22.5652C15.4234 24.3968 12.449 24.3994 10.6048 22.5644L5.47629 17.4311C3.64662 15.5997 3.64376 12.6229 5.47653 10.7771L5.47795 10.7757L10.7796 5.49251L10.781 5.49114Z" fill="#2B6AD1"/>
<path fill-rule="evenodd" clip-rule="evenodd" d="M16.9382 9.05776C18.0675 9.05776 18.983 9.97407 18.983 11.1044C18.983 12.2347 18.0675 13.151 16.9382 13.151C15.8089 13.151 14.8935 12.2347 14.8935 11.1044C14.8935 9.97407 15.8089 9.05776 16.9382 9.05776ZM20.7356 11.1044C20.7356 9.00522 19.0355 7.3035 16.9382 7.3035C14.841 7.3035 13.1408 9.00522 13.1408 11.1044C13.1408 13.2036 14.841 14.9053 16.9382 14.9053C19.0355 14.9053 20.7356 13.2036 20.7356 11.1044Z" fill="#2B6AD1"/>
</svg>
