<svg width="28" height="28" viewBox="0 0 28 28" fill="none" xmlns="http://www.w3.org/2000/svg">
<path fill-rule="evenodd" clip-rule="evenodd" d="M14 3.96116C8.45579 3.96116 3.96128 8.45567 3.96128 13.9999C3.96128 19.5442 8.45579 24.0387 14 24.0387C19.5443 24.0387 24.0388 19.5442 24.0388 13.9999C24.0388 12.3566 23.6446 10.8078 22.9463 9.44053C22.7418 9.04019 22.9006 8.54989 23.3009 8.34542C23.7013 8.14095 24.1916 8.29973 24.396 8.70007C25.2087 10.2913 25.6667 12.0933 25.6667 13.9999C25.6667 20.4432 20.4434 25.6666 14 25.6666C7.55672 25.6666 2.33337 20.4432 2.33337 13.9999C2.33337 7.5566 7.55672 2.33325 14 2.33325C15.9511 2.33325 17.7926 2.81284 19.4107 3.66125C19.8088 3.87 19.9623 4.36198 19.7535 4.7601C19.5448 5.15823 19.0528 5.31174 18.6547 5.10299C17.2643 4.37393 15.6816 3.96116 14 3.96116Z" fill="#2B6AD1"/>
<path fill-rule="evenodd" clip-rule="evenodd" d="M24.343 3.65692C24.6609 3.97479 24.6609 4.49016 24.343 4.80803L14.5756 14.5755C14.2577 14.8933 13.7424 14.8933 13.4245 14.5755C13.1066 14.2576 13.1066 13.7422 13.4245 13.4244L23.1919 3.65692C23.5098 3.33906 24.0252 3.33906 24.343 3.65692Z" fill="#2B6AD1"/>
<path fill-rule="evenodd" clip-rule="evenodd" d="M14 7.75961C10.5536 7.75961 7.75973 10.5535 7.75973 13.9999C7.75973 17.4463 10.5536 20.2402 14 20.2402C17.4465 20.2402 20.2404 17.4463 20.2404 13.9999C20.2404 13.3506 20.1415 12.7259 19.9585 12.1392C19.8246 11.7101 20.064 11.2537 20.4931 11.1199C20.9223 10.986 21.3787 11.2254 21.5125 11.6545C21.7439 12.3963 21.8683 13.1844 21.8683 13.9999C21.8683 18.3454 18.3455 21.8681 14 21.8681C9.65455 21.8681 6.13182 18.3454 6.13182 13.9999C6.13182 9.65442 9.65455 6.1317 14 6.1317C14.8025 6.1317 15.5783 6.25209 16.3096 6.47635C16.7394 6.60814 16.981 7.06338 16.8492 7.49317C16.7174 7.92295 16.2622 8.16452 15.8324 8.03272C15.254 7.85536 14.6389 7.75961 14 7.75961Z" fill="#2B6AD1"/>
<path fill-rule="evenodd" clip-rule="evenodd" d="M12.9673 10.6326C13.1951 11.0201 13.0657 11.519 12.6782 11.7469C11.9042 12.2021 11.3875 13.0416 11.3875 14.0009C11.3875 15.4438 12.5572 16.6134 14 16.6134C15.0907 16.6134 16.0271 15.9449 16.4182 14.9921C16.5889 14.5762 17.0644 14.3775 17.4802 14.5482C17.8961 14.7189 18.0949 15.1944 17.9242 15.6102C17.2911 17.1527 15.7737 18.2413 14 18.2413C11.6581 18.2413 9.75964 16.3428 9.75964 14.0009C9.75964 12.4412 10.6022 11.0792 11.853 10.3436C12.2405 10.1157 12.7394 10.2451 12.9673 10.6326Z" fill="#2B6AD1"/>
</svg>
