<svg width="28" height="28" viewBox="0 0 28 28" fill="none" xmlns="http://www.w3.org/2000/svg">
<path d="M14.8825 10.0261L17.1672 7.72102C16.2154 7.23997 15.1394 6.96897 14 6.96897C10.117 6.96897 6.96909 10.1168 6.96909 13.9999C6.96909 17.883 10.117 21.0309 14 21.0309C17.8831 21.0309 21.031 17.883 21.031 13.9999C21.031 12.8817 20.77 11.8245 20.3055 10.8859L17.9946 13.2173C18.044 13.4706 18.0698 13.7322 18.0698 13.9999C18.0698 16.2476 16.2477 18.0697 14 18.0697C11.7524 18.0697 9.93027 16.2476 9.93027 13.9999C9.93027 11.7522 11.7524 9.93015 14 9.93015C14.3031 9.93015 14.5983 9.96327 14.8825 10.0261Z" fill="#2B6AD1"/>
<path d="M13.3395 11.6484C12.3118 11.9365 11.5582 12.8802 11.5582 13.9999C11.5582 15.3485 12.6514 16.4418 14 16.4418C15.0677 16.4418 15.9753 15.7566 16.3071 14.802C15.4571 15.2839 14.3577 15.1625 13.6332 14.438C12.8753 13.6801 12.7774 12.5122 13.3395 11.6484Z" fill="#2B6AD1"/>
<path d="M21.5041 9.67669C22.2386 10.9489 22.6589 12.4253 22.6589 13.9999C22.6589 18.7821 18.7822 22.6588 14 22.6588C9.21789 22.6588 5.34119 18.7821 5.34119 13.9999C5.34119 9.21777 9.21789 5.34106 14 5.34106C15.5899 5.34106 17.0797 5.76956 18.3603 6.51736L20.5287 4.32962C18.6656 3.0693 16.4188 2.33325 14 2.33325C7.55672 2.33325 2.33337 7.5566 2.33337 13.9999C2.33337 20.4432 7.55672 25.6666 14 25.6666C20.4434 25.6666 25.6667 20.4432 25.6667 13.9999C25.6667 11.5863 24.9338 9.3439 23.6784 7.48309L21.5041 9.67669Z" fill="#2B6AD1"/>
<path fill-rule="evenodd" clip-rule="evenodd" d="M24.8583 3.13231C25.22 3.49399 25.22 4.0804 24.8583 4.44208L15.864 13.5163C15.5024 13.8779 14.916 13.8779 14.5543 13.5163C14.1926 13.1546 14.1926 12.5682 14.5543 12.2065L23.5485 3.13231C23.9102 2.77063 24.4966 2.77063 24.8583 3.13231Z" fill="#2B6AD1"/>
</svg>
