<svg width="28" height="28" viewBox="0 0 28 28" fill="none" xmlns="http://www.w3.org/2000/svg">
<path d="M18.36 24.653H5.31126C4.36786 24.653 3.49398 24.216 2.92794 23.4514C2.35196 22.6768 2.18315 21.7036 2.47114 20.78L6.65188 7.34399C7.02924 6.09274 8.1812 5.23872 9.49203 5.23872H21.7066C22.9082 5.23872 23.9906 5.95381 24.4474 7.06603C24.6957 7.642 24.7453 8.29743 24.5964 8.94291L21.2498 22.3788C20.932 23.7194 19.7403 24.653 18.36 24.653ZM9.50194 6.73824C8.85646 6.73824 8.27056 7.16531 8.08188 7.79093L3.90114 21.227C3.76211 21.6937 3.84155 22.1803 4.13946 22.5775C4.41752 22.9549 4.85446 23.1733 5.3212 23.1733H18.3699C19.0551 23.1733 19.6509 22.7066 19.8098 22.0412L23.1564 8.59524C23.2359 8.26754 23.216 7.93988 23.0869 7.65189C22.8486 7.08585 22.3223 6.7283 21.7165 6.7283H9.50194V6.73824Z" fill="#2B6AD1"/>
<path d="M22.7295 24.6529H17.9827C17.5755 24.6529 17.2379 24.3153 17.2379 23.9081C17.2379 23.501 17.5755 23.1633 17.9827 23.1633H22.7295C23.1366 23.1633 23.514 22.9946 23.7921 22.6966C24.0701 22.3987 24.2091 22.0015 24.1793 21.5944L23.1962 8.06899C23.1664 7.66183 23.4743 7.30429 23.8814 7.2745C24.2886 7.25463 24.6461 7.55249 24.6759 7.95964L25.659 21.4851C25.7186 22.2994 25.4306 23.1137 24.8745 23.7096C24.3283 24.3153 23.5438 24.6529 22.7295 24.6529Z" fill="#2B6AD1"/>
<path d="M11.7064 9.14142C11.6468 9.14142 11.5872 9.13147 11.5276 9.12154C11.1304 9.02224 10.8821 8.62498 10.9815 8.21783L12.0142 3.9279C12.1135 3.53068 12.5107 3.28236 12.9179 3.38167C13.3151 3.48097 13.5634 3.87823 13.4641 4.28538L12.4313 8.57544C12.3519 8.91308 12.044 9.14142 11.7064 9.14142Z" fill="#2B6AD1"/>
<path d="M18.36 9.15138C18.3103 9.15138 18.2507 9.15137 18.2011 9.1315C17.8039 9.04213 17.5457 8.64489 17.6251 8.24767L18.5586 3.93786C18.648 3.53071 19.0452 3.28249 19.4424 3.36193C19.8396 3.44137 20.0978 3.84842 20.0184 4.24564L19.0849 8.55558C19.0154 8.91308 18.7076 9.15138 18.36 9.15138Z" fill="#2B6AD1"/>
<path d="M17.685 14.7224H9.74054C9.33339 14.7224 8.99575 14.3848 8.99575 13.9776C8.99575 13.5705 9.33339 13.2328 9.74054 13.2328H17.685C18.0921 13.2328 18.4298 13.5705 18.4298 13.9776C18.4298 14.3848 18.0921 14.7224 17.685 14.7224Z" fill="#2B6AD1"/>
<path d="M16.6919 18.6946H8.74749C8.34034 18.6946 8.0027 18.357 8.0027 17.9498C8.0027 17.5427 8.34034 17.2051 8.74749 17.2051H16.6919C17.0991 17.2051 17.4367 17.5427 17.4367 17.9498C17.4367 18.357 17.0991 18.6946 16.6919 18.6946Z" fill="#2B6AD1"/>
</svg>
