<svg width="28" height="28" viewBox="0 0 28 28" fill="none" xmlns="http://www.w3.org/2000/svg">
<path d="M23.4425 12.0888L24.0684 22.5798C24.0896 22.8662 23.9517 23.0572 23.8774 23.142C23.7926 23.2375 23.6122 23.386 23.3152 23.386H20.4193L22.7106 12.0888H23.4425ZM24.6094 8.00479L24.5987 8.02601C24.62 8.28059 24.5987 8.54579 24.5351 8.81098L16.7172 23.1632C16.4626 24.2346 15.5079 24.9772 14.4047 24.9772H23.3152C24.6836 24.9772 25.7656 23.8209 25.6595 22.4525L24.6094 8.00479Z" fill="#2B6AD1"/>
<path d="M13.4182 4.01629C13.5243 3.59198 13.2591 3.15706 12.8348 3.05098C12.4105 2.95551 11.9755 3.2101 11.8695 3.63441L11.3391 5.83021H12.9727L13.4182 4.01629Z" fill="#2B6AD1"/>
<path d="M20.4193 3.98446C20.5148 3.54955 20.239 3.13584 19.8041 3.04037C19.3797 2.9449 18.9554 3.22071 18.86 3.65562L18.3826 5.85142H20.0162L20.4193 3.98446Z" fill="#2B6AD1"/>
<path d="M24.4184 7.29408C24.0684 6.44546 23.241 5.84082 22.2226 5.84082H20.0162L19.4222 8.58822C19.3373 8.95949 19.0085 9.21408 18.6478 9.21408C18.5948 9.21408 18.5311 9.21408 18.4781 9.19286C18.0538 9.09739 17.778 8.67308 17.8628 8.24877L18.3826 5.83021H12.9727L12.3044 8.58822C12.2195 8.94888 11.8907 9.19286 11.53 9.19286C11.4664 9.19286 11.4027 9.18225 11.3391 9.17164C10.9148 9.06557 10.6496 8.64126 10.7557 8.20634L11.3285 5.8196H9.1751C8.13554 5.8196 7.21267 6.4985 6.90505 7.49562L2.43919 21.8691C1.97245 23.4072 3.10748 24.9772 4.70925 24.9772H18.6478C19.751 24.9772 20.7057 24.2346 20.9603 23.1632L24.5351 8.81098C24.5987 8.54579 24.62 8.28059 24.5987 8.02601C24.5775 7.77142 24.5245 7.51684 24.4184 7.29408ZM16.8657 19.4081H8.37952C7.94461 19.4081 7.58394 19.0474 7.58394 18.6125C7.58394 18.1776 7.94461 17.8169 8.37952 17.8169H16.8657C17.3006 17.8169 17.6613 18.1776 17.6613 18.6125C17.6613 19.0474 17.3006 19.4081 16.8657 19.4081ZM17.9265 15.165H9.4403C9.00538 15.165 8.64472 14.8044 8.64472 14.3694C8.64472 13.9345 9.00538 13.5739 9.4403 13.5739H17.9265C18.3614 13.5739 18.7221 13.9345 18.7221 14.3694C18.7221 14.8044 18.3614 15.165 17.9265 15.165Z" fill="#2B6AD1"/>
</svg>
