<svg width="28" height="28" viewBox="0 0 28 28" fill="none" xmlns="http://www.w3.org/2000/svg">
<path fill-rule="evenodd" clip-rule="evenodd" d="M14 3.96116C11.0928 3.96116 8.47429 5.19691 6.64102 7.17179C4.97805 8.96322 3.96122 11.3628 3.96122 13.9999C3.96122 19.5442 8.45573 24.0387 14 24.0387C18.8664 24.0387 22.924 20.576 23.8435 15.9802C23.9715 15.34 24.0387 14.6778 24.0387 13.9999C24.0387 11.6275 23.2158 9.44731 21.8398 7.72921C20.288 5.79168 18.0329 4.44183 15.4615 4.06678C14.9844 3.99719 14.4964 3.96116 14 3.96116ZM2.33331 13.9999C2.33331 7.5566 7.55666 2.33325 14 2.33325C20.4433 2.33325 25.6666 7.5566 25.6666 13.9999C25.6666 20.4432 20.4433 25.6666 14 25.6666C7.55666 25.6666 2.33331 20.4432 2.33331 13.9999Z" fill="#F5A304"/>
<path fill-rule="evenodd" clip-rule="evenodd" d="M15.999 3.46099C16.4251 3.31768 16.8867 3.54692 17.03 3.973C17.3067 4.79576 17.3337 5.53316 17.1193 6.18144C16.9057 6.82709 16.4844 7.2881 16.0401 7.61829C15.6029 7.94331 15.1144 8.16327 14.7131 8.32391C14.5215 8.4006 14.3666 8.45843 14.2367 8.50694C14.0541 8.5751 13.9208 8.62487 13.8041 8.68273C13.803 8.68618 13.8014 8.69128 13.799 8.6987C13.7741 8.77534 13.7655 8.85016 13.7483 9.00036C13.7414 9.05961 13.7333 9.1306 13.7223 9.21805C13.6907 9.468 13.6318 9.8493 13.4108 10.21C13.1714 10.6008 12.7972 10.8843 12.2901 11.0519C12.1735 11.0904 12.1086 11.1497 12.055 11.2727C11.9875 11.4276 11.942 11.6896 11.9671 12.0882C11.988 12.4182 12.0536 12.7939 12.1559 13.2017C12.8932 13.243 13.5284 13.3679 14.0641 13.6039C14.7661 13.9131 15.2583 14.3964 15.5773 15.0286C15.6932 15.2584 15.9715 15.5034 16.4106 15.6969C16.8389 15.8855 17.3141 15.9767 17.6664 15.9767C18.351 15.9767 18.7749 16.4799 18.9762 16.8894C19.1908 17.326 19.2781 17.8667 19.2412 18.415C19.1659 19.5345 18.5635 20.8321 17.1438 21.6763C16.2906 22.1836 15.7939 22.6902 15.5162 23.0847C15.3768 23.2828 15.2934 23.4512 15.2464 23.577C15.2028 23.6938 15.1963 23.7576 15.1954 23.7667C15.1954 24.0953 14.9977 24.3922 14.6945 24.5187C14.3912 24.6451 14.0417 24.5768 13.8083 24.3455C13.0789 23.6226 11.6901 21.628 11.6901 19.1162C11.6901 19.1065 11.6808 19.005 11.4653 18.8313C11.2642 18.6693 11.0046 18.5478 10.8408 18.4937C10.4614 18.3684 10.229 17.9861 10.2925 17.5915C10.356 17.197 10.6965 16.9069 11.0961 16.9069C11.2555 16.9069 11.3769 16.8418 11.4204 16.7812C11.4387 16.7556 11.6051 16.5056 11.28 15.6999C11.1548 15.3897 11.0355 15.0745 10.9265 14.7591C9.96812 14.5954 9.08234 14.0785 8.44539 13.3898C7.66588 12.547 7.1721 11.3444 7.49108 10.0799C7.59195 9.68001 7.46792 9.4338 7.23182 9.22167C6.95368 8.97178 6.54039 8.81041 6.24482 8.75183C5.80387 8.66442 5.51726 8.2361 5.60466 7.79515C5.69206 7.35419 6.12038 7.06758 6.56134 7.15499C6.58728 7.16013 6.61386 7.16573 6.64102 7.17179C7.12352 7.27956 7.79078 7.53544 8.31979 8.01072C8.92062 8.55054 9.34411 9.38959 9.06954 10.4781C8.9192 11.074 9.12939 11.7319 9.64047 12.2844C9.86764 12.53 10.1371 12.7346 10.4259 12.8865C10.3851 12.6475 10.3566 12.4147 10.3425 12.1907C10.3089 11.6591 10.3514 11.1071 10.5626 10.6225C10.7877 10.1059 11.192 9.70017 11.7794 9.50612C11.9723 9.44241 12.0112 9.37843 12.022 9.36065L12.0227 9.35961C12.051 9.31333 12.08 9.22952 12.1072 9.01434C12.1105 8.98799 12.114 8.95576 12.118 8.91894C12.1377 8.73786 12.1696 8.44588 12.2505 8.19648C12.37 7.82783 12.6129 7.4562 13.0813 7.22409C13.2652 7.13293 13.536 7.03073 13.7853 6.93662C13.9012 6.89288 14.0124 6.85089 14.1082 6.81256C14.4694 6.66797 14.8023 6.51002 15.069 6.31178C15.3287 6.11872 15.494 5.91112 15.5737 5.67014C15.6526 5.43179 15.6796 5.06454 15.487 4.49196C15.4392 4.3498 15.4329 4.2037 15.4615 4.06678C15.5186 3.79331 15.7151 3.55649 15.999 3.46099ZM12.7125 14.8969C12.7377 14.9612 12.7634 15.0258 12.7896 15.0906C13.2153 16.1454 13.2252 17.0582 12.743 17.7302C12.7337 17.7432 12.7243 17.756 12.7148 17.7686C13.0229 18.0781 13.318 18.5279 13.318 19.1162C13.318 20.3164 13.7386 21.384 14.1841 22.149C14.6187 21.5333 15.305 20.8757 16.3118 20.2771C17.2386 19.7259 17.5749 18.9304 17.6169 18.3058C17.6387 17.982 17.5793 17.7378 17.5153 17.6075C17.5142 17.6054 17.5122 17.6014 17.5122 17.6014C16.9601 17.5791 16.3279 17.4393 15.7544 17.1867C15.1376 16.915 14.4773 16.4623 14.1239 15.7619C13.9736 15.4639 13.7618 15.2495 13.4079 15.0937C13.2248 15.013 12.9972 14.9454 12.7125 14.8969ZM17.4721 17.5369C17.4721 17.5369 17.475 17.539 17.4801 17.5461C17.4746 17.5409 17.4721 17.5369 17.4721 17.5369ZM21.6804 5.78657C22.1064 5.92988 22.3357 6.39146 22.1924 6.81754C22.1069 7.07164 21.9865 7.39152 21.8398 7.72921C21.6987 8.05383 21.5333 8.3949 21.3511 8.70983C21.1667 9.02849 20.9447 9.35668 20.6887 9.61568C20.5095 9.79699 20.2393 10.0201 19.8908 10.1157C19.8969 10.1953 19.9154 10.2953 19.9558 10.4056C20.029 10.6049 20.1427 10.752 20.2602 10.8307C20.3551 10.8941 20.4995 10.9478 20.7558 10.8843C21.3915 10.7268 21.9975 10.7876 22.4989 11.0806C22.9945 11.3703 23.3018 11.837 23.4376 12.3305C23.7037 13.2976 23.3471 14.478 22.3389 15.1441C22.2765 15.1854 22.2398 15.2175 22.2191 15.2393C22.2356 15.2706 22.271 15.3243 22.3458 15.3985C22.6637 15.7135 23.2794 15.9767 23.7674 15.9767C23.7931 15.9767 23.8184 15.9779 23.8435 15.9802C24.2573 16.0185 24.5814 16.3667 24.5814 16.7906C24.5814 17.2402 24.217 17.6046 23.7674 17.6046C22.8475 17.6046 21.8207 17.17 21.1999 16.5548C20.8879 16.2456 20.5776 15.7881 20.5776 15.2208C20.5776 14.6034 20.9401 14.1172 21.4415 13.7859C21.8413 13.5218 21.9539 13.0743 21.868 12.7624C21.8278 12.6163 21.7538 12.5307 21.6775 12.4861C21.6069 12.4448 21.4503 12.3893 21.1473 12.4644C20.465 12.6335 19.8468 12.5127 19.3551 12.1837C18.886 11.8699 18.5891 11.4066 18.4275 10.9663C18.2688 10.5336 18.2088 10.036 18.3106 9.59461C18.362 9.37145 18.467 9.11334 18.6742 8.90028C18.879 8.68971 19.1515 8.55843 19.4578 8.5377C19.4743 8.52486 19.4986 8.50398 19.5308 8.47136C19.6484 8.35246 19.79 8.1574 19.942 7.89466C20.2429 7.37442 20.5042 6.73044 20.6494 6.29858C20.7927 5.8725 21.2543 5.64327 21.6804 5.78657ZM22.1943 15.2732C22.1943 15.2732 22.1949 15.2695 22.1997 15.2624C22.1973 15.2698 22.1943 15.2732 22.1943 15.2732Z" fill="#F5A304"/>
<path d="M14 3.96116C11.0928 3.96116 8.47429 5.19691 6.64102 7.17179C7.12352 7.27956 7.79078 7.53544 8.31979 8.01072C8.92062 8.55054 9.34411 9.38959 9.06954 10.4781C8.9192 11.074 9.12939 11.7319 9.64047 12.2844C9.86764 12.53 10.1371 12.7346 10.4259 12.8865C10.3851 12.6475 10.3566 12.4147 10.3425 12.1907C10.3089 11.6591 10.3514 11.1071 10.5626 10.6225C10.7877 10.1059 11.192 9.70017 11.7794 9.50612C11.9723 9.44241 12.0112 9.37843 12.022 9.36065L12.0227 9.35961C12.051 9.31333 12.08 9.22952 12.1072 9.01434C12.1105 8.98799 12.114 8.95576 12.118 8.91894C12.1377 8.73786 12.1696 8.44588 12.2505 8.19648C12.37 7.82783 12.6129 7.4562 13.0813 7.22409C13.2652 7.13293 13.536 7.03073 13.7853 6.93662C13.9012 6.89288 14.0124 6.85089 14.1082 6.81256C14.4694 6.66797 14.8023 6.51002 15.069 6.31178C15.3287 6.11872 15.494 5.91112 15.5737 5.67014C15.6526 5.43179 15.6796 5.06454 15.487 4.49196C15.4392 4.3498 15.4329 4.2037 15.4615 4.06678C14.9844 3.99719 14.4964 3.96116 14 3.96116Z" fill="#F5A304"/>
<path d="M12.7896 15.0906C12.7634 15.0258 12.7377 14.9612 12.7125 14.8969C12.9972 14.9454 13.2248 15.013 13.4079 15.0937C13.7618 15.2495 13.9736 15.4639 14.1239 15.7619C14.4773 16.4623 15.1376 16.915 15.7544 17.1867C16.3279 17.4393 16.9601 17.5791 17.5122 17.6014L17.5153 17.6075C17.5793 17.7378 17.6387 17.982 17.6169 18.3058C17.5749 18.9304 17.2386 19.7259 16.3118 20.2771C15.305 20.8757 14.6187 21.5333 14.1841 22.149C13.7386 21.384 13.318 20.3164 13.318 19.1162C13.318 18.5279 13.0229 18.0781 12.7148 17.7686C12.7243 17.756 12.7337 17.7432 12.743 17.7302C13.2252 17.0582 13.2153 16.1454 12.7896 15.0906Z" fill="#F5A304"/>
<path d="M23.8435 15.9802C23.9715 15.34 24.0387 14.6778 24.0387 13.9999C24.0387 11.6275 23.2158 9.44731 21.8398 7.72921C21.6987 8.05383 21.5333 8.3949 21.3511 8.70983C21.1667 9.02849 20.9447 9.35668 20.6887 9.61568C20.5095 9.79699 20.2393 10.0201 19.8908 10.1157C19.8969 10.1953 19.9154 10.2953 19.9558 10.4056C20.029 10.6049 20.1427 10.752 20.2602 10.8307C20.3551 10.8941 20.4995 10.9478 20.7558 10.8843C21.3915 10.7268 21.9975 10.7876 22.4989 11.0806C22.9945 11.3703 23.3018 11.837 23.4376 12.3305C23.7037 13.2976 23.3471 14.478 22.3389 15.1441C22.2765 15.1854 22.2398 15.2175 22.2191 15.2393C22.2356 15.2706 22.271 15.3243 22.3458 15.3985C22.6637 15.7135 23.2794 15.9767 23.7674 15.9767C23.7931 15.9767 23.8184 15.9779 23.8435 15.9802Z" fill="#F5A304"/>
</svg>
