<svg width="28" height="28" viewBox="0 0 28 28" fill="none" xmlns="http://www.w3.org/2000/svg">
<path fill-rule="evenodd" clip-rule="evenodd" d="M13.9999 3.96116C8.45566 3.96116 3.96116 8.45566 3.96116 13.9999C3.96116 19.5442 8.45566 24.0387 13.9999 24.0387C19.5442 24.0387 24.0387 19.5442 24.0387 13.9999C24.0387 8.45566 19.5442 3.96116 13.9999 3.96116ZM2.33325 13.9999C2.33325 7.5566 7.5566 2.33325 13.9999 2.33325C20.4432 2.33325 25.6666 7.5566 25.6666 13.9999C25.6666 20.4432 20.4432 25.6666 13.9999 25.6666C7.5566 25.6666 2.33325 20.4432 2.33325 13.9999Z" fill="#2B6AD1"/>
<path fill-rule="evenodd" clip-rule="evenodd" d="M15.999 3.46099C16.4251 3.31768 16.8866 3.54692 17.0299 3.973C17.3067 4.79576 17.3337 5.53316 17.1192 6.18144C16.9056 6.82709 16.4843 7.2881 16.0401 7.61829C15.6028 7.94331 15.1144 8.16327 14.713 8.32391C14.5214 8.4006 14.3665 8.45843 14.2366 8.50695C14.0541 8.5751 13.9208 8.62487 13.804 8.68273C13.8029 8.68618 13.8013 8.69128 13.7989 8.6987C13.774 8.77534 13.7654 8.85016 13.7482 9.00036C13.7414 9.05961 13.7332 9.1306 13.7222 9.21805C13.6907 9.468 13.6317 9.8493 13.4107 10.21C13.1713 10.6008 12.7972 10.8843 12.29 11.0519C12.1735 11.0904 12.1085 11.1497 12.0549 11.2727C11.9875 11.4276 11.9419 11.6896 11.9671 12.0882C11.9879 12.4182 12.0535 12.7939 12.1559 13.2017C12.8931 13.243 13.5284 13.3679 14.064 13.6039C14.7661 13.9131 15.2583 14.3964 15.5772 15.0286C15.6932 15.2584 15.9714 15.5034 16.4106 15.6969C16.8389 15.8855 17.314 15.9767 17.6664 15.9767C18.351 15.9767 18.7749 16.4799 18.9761 16.8894C19.1908 17.326 19.278 17.8667 19.2411 18.415C19.1658 19.5345 18.5635 20.8321 17.1438 21.6763C16.2906 22.1836 15.7938 22.6902 15.5161 23.0847C15.3767 23.2828 15.2934 23.4512 15.2463 23.577C15.2027 23.6938 15.1963 23.7576 15.1953 23.7667C15.1953 24.0953 14.9977 24.3922 14.6944 24.5187C14.3911 24.6451 14.0416 24.5768 13.8083 24.3455C13.0789 23.6226 11.6901 21.628 11.6901 19.1162C11.6901 19.1066 11.6807 19.005 11.4652 18.8313C11.2642 18.6693 11.0046 18.5478 10.8408 18.4937C10.4613 18.3684 10.229 17.9861 10.2925 17.5915C10.356 17.197 10.6965 16.9069 11.0961 16.9069C11.2554 16.9069 11.3768 16.8418 11.4203 16.7812C11.4387 16.7556 11.6051 16.5056 11.2799 15.6999C11.1547 15.3897 11.0355 15.0745 10.9265 14.7591C9.96806 14.5955 9.08228 14.0785 8.44532 13.3898C7.66582 12.547 7.17204 11.3444 7.49102 10.0799C7.59189 9.68001 7.46786 9.4338 7.23176 9.22167C6.95362 8.97178 6.54033 8.81041 6.24476 8.75183C5.80381 8.66442 5.5172 8.2361 5.6046 7.79515C5.692 7.35419 6.12032 7.06758 6.56128 7.15499C7.04788 7.25144 7.76093 7.50868 8.31973 8.01072C8.92056 8.55054 9.34405 9.38959 9.06948 10.4781C8.91914 11.074 9.12933 11.7319 9.64041 12.2844C9.86758 12.5301 10.1371 12.7346 10.4258 12.8865C10.3851 12.6475 10.3565 12.4147 10.3424 12.1907C10.3089 11.6591 10.3514 11.1071 10.5625 10.6225C10.7876 10.1059 11.192 9.70017 11.7794 9.50612C11.9722 9.44241 12.0111 9.37843 12.022 9.36065L12.0226 9.35961C12.0509 9.31333 12.08 9.22952 12.1071 9.01434C12.1104 8.98799 12.1139 8.95576 12.1179 8.91894C12.1377 8.73787 12.1695 8.44588 12.2504 8.19649C12.37 7.82783 12.6128 7.4562 13.0812 7.22409C13.2652 7.13293 13.5359 7.03073 13.7852 6.93662C13.9011 6.89288 14.0124 6.85089 14.1081 6.81256C14.4694 6.66797 14.8022 6.51002 15.0689 6.31178C15.3287 6.11872 15.494 5.91112 15.5737 5.67014C15.6525 5.43179 15.6796 5.06454 15.487 4.49196C15.3437 4.06588 15.5729 3.6043 15.999 3.46099ZM12.7125 14.8969C12.7376 14.9612 12.7633 15.0258 12.7895 15.0906C13.2152 16.1454 13.2252 17.0582 12.743 17.7303C12.7337 17.7432 12.7242 17.756 12.7147 17.7686C13.0229 18.0781 13.318 18.5279 13.318 19.1162C13.318 20.3164 13.7386 21.384 14.184 22.149C14.6186 21.5333 15.305 20.8757 16.3117 20.2771C17.2386 19.7259 17.5749 18.9304 17.6169 18.3058C17.6387 17.982 17.5792 17.7378 17.5152 17.6075C17.5142 17.6054 17.5122 17.6014 17.5122 17.6014C16.9601 17.5791 16.3278 17.4393 15.7544 17.1867C15.1376 16.915 14.4772 16.4623 14.1238 15.7619C13.9735 15.4639 13.7617 15.2495 13.4078 15.0937C13.2248 15.013 12.9971 14.9454 12.7125 14.8969ZM17.4721 17.5369C17.4721 17.5369 17.475 17.539 17.4801 17.5461C17.4745 17.5409 17.4721 17.5369 17.4721 17.5369ZM21.6803 5.78657C22.1064 5.92988 22.3356 6.39146 22.1923 6.81754C22.0247 7.3159 21.7227 8.06728 21.351 8.70983C21.1667 9.02849 20.9446 9.35668 20.6886 9.61568C20.5094 9.79699 20.2393 10.0201 19.8907 10.1157C19.8968 10.1953 19.9153 10.2953 19.9558 10.4056C20.0289 10.6049 20.1426 10.752 20.2602 10.8307C20.3551 10.8941 20.4995 10.9478 20.7558 10.8843C21.3914 10.7268 21.9975 10.7876 22.4989 11.0806C22.9944 11.3703 23.3018 11.837 23.4375 12.3305C23.7037 13.2976 23.347 14.478 22.3388 15.1441C22.2764 15.1854 22.2398 15.2175 22.219 15.2393C22.2355 15.2706 22.2709 15.3243 22.3458 15.3985C22.6636 15.7135 23.2794 15.9767 23.7674 15.9767C24.2169 15.9767 24.5813 16.3411 24.5813 16.7906C24.5813 17.2402 24.2169 17.6046 23.7674 17.6046C22.8474 17.6046 21.8206 17.17 21.1998 16.5548C20.8878 16.2456 20.5775 15.7881 20.5775 15.2208C20.5775 14.6034 20.94 14.1172 21.4414 13.7859C21.8412 13.5218 21.9538 13.0743 21.868 12.7624C21.8278 12.6163 21.7538 12.5307 21.6774 12.4861C21.6068 12.4448 21.4502 12.3893 21.1473 12.4644C20.4649 12.6335 19.8467 12.5127 19.355 12.1837C18.8859 11.8699 18.589 11.4066 18.4275 10.9663C18.2687 10.5336 18.2087 10.036 18.3105 9.59461C18.362 9.37145 18.4669 9.11334 18.6741 8.90028C18.8789 8.68971 19.1514 8.55843 19.4577 8.5377C19.4742 8.52486 19.4985 8.50398 19.5308 8.47137C19.6483 8.35246 19.7899 8.1574 19.9419 7.89466C20.2429 7.37442 20.5041 6.73044 20.6493 6.29858C20.7926 5.8725 21.2542 5.64327 21.6803 5.78657ZM22.1942 15.2732C22.1942 15.2732 22.1948 15.2695 22.1997 15.2625C22.1972 15.2698 22.1942 15.2732 22.1942 15.2732Z" fill="#2B6AD1"/>
</svg>
