<svg width="28" height="28" viewBox="0 0 28 28" fill="none" xmlns="http://www.w3.org/2000/svg">
<path d="M14 15.8884C13.1535 15.8884 12.3504 15.5628 11.7318 14.9551C10.9396 14.1628 10.6248 13.0233 10.8853 11.9055C11.1566 10.7659 12.0682 9.8543 13.2078 9.58298C14.3147 9.31166 15.4543 9.62642 16.2574 10.4295C17.0605 11.2326 17.3644 12.3613 17.1039 13.4791C16.8326 14.6187 15.9209 15.5302 14.7814 15.8016C14.5209 15.8558 14.2605 15.8884 14 15.8884ZM14 11.1132C13.8698 11.1132 13.7287 11.1349 13.5985 11.1675C13.0558 11.2977 12.6109 11.7427 12.4806 12.2853C12.3396 12.8496 12.4915 13.4031 12.893 13.7938C13.2946 14.1954 13.8372 14.3365 14.4124 14.2062C14.9551 14.076 15.4 13.631 15.5303 13.0884C15.6713 12.524 15.5194 11.9706 15.1178 11.5799C14.814 11.276 14.4233 11.1132 14 11.1132Z" fill="#F5A304"/>
<path d="M7.51011 20.4791C7.31476 20.4791 7.10855 20.4032 6.95661 20.2621C4.85118 18.3086 3.64655 15.552 3.64655 12.6868C3.64655 6.97831 8.2915 2.33337 14 2.33337C19.7086 2.33337 24.3535 6.97831 24.3535 12.6868C24.3535 15.5737 23.1923 18.2434 21.0868 20.2295C20.7613 20.5334 20.2403 20.5225 19.9365 20.197C19.6326 19.8714 19.6434 19.3505 19.969 19.0466C21.7489 17.3753 22.7256 15.1287 22.7256 12.6977C22.7256 7.88995 18.8078 3.97214 14 3.97214C9.19227 3.97214 5.27445 7.88995 5.27445 12.6977C5.27445 15.1504 6.26204 17.4078 8.06359 19.0791C8.38917 19.383 8.41089 19.9039 8.10701 20.2295C7.94422 20.3923 7.72716 20.4791 7.51011 20.4791Z" fill="#F5A304"/>
<path d="M18.3412 17.5815C18.1458 17.5815 17.9396 17.5055 17.7877 17.3644C17.4621 17.0605 17.4404 16.5396 17.7551 16.214C18.6559 15.259 19.1551 14.0001 19.1551 12.6978C19.1551 9.85436 16.8435 7.55359 14.0109 7.55359C11.1784 7.55359 8.86676 9.86521 8.86676 12.6978C8.86676 14.0109 9.36598 15.259 10.2668 16.214C10.5706 16.5396 10.5598 17.0605 10.2342 17.3644C9.90862 17.6683 9.38769 17.6575 9.08381 17.3319C7.90087 16.073 7.23886 14.4233 7.23886 12.6978C7.23886 8.96443 10.2776 5.92569 14.0109 5.92569C17.7443 5.92569 20.783 8.96443 20.783 12.6978C20.783 14.4233 20.1319 16.073 18.9381 17.3319C18.7753 17.4947 18.5582 17.5815 18.3412 17.5815Z" fill="#F5A304"/>
<path d="M15.5631 25.6667H12.4483C11.2111 25.6667 10.115 24.9722 9.5832 23.8652C9.05142 22.7582 9.19251 21.4667 9.96305 20.5008L11.5258 18.5582C12.1336 17.7985 13.0344 17.3644 14.0111 17.3644C14.9879 17.3644 15.8886 17.7985 16.4964 18.5582L18.0592 20.5008C18.8297 21.4667 18.9817 22.7582 18.439 23.8652C17.8855 24.9722 16.7894 25.6667 15.5631 25.6667ZM12.7848 19.5675L11.222 21.5101C10.8421 21.9876 10.7662 22.6062 11.0375 23.1489C11.2979 23.7024 11.8297 24.0279 12.4375 24.0279H15.5522C16.1599 24.0279 16.6917 23.7024 16.9522 23.1489C17.2127 22.5954 17.1476 21.9876 16.7677 21.5101L15.2049 19.5675C14.6189 18.8295 13.3817 18.8295 12.7848 19.5675Z" fill="#F5A304"/>
</svg>
