<svg width="28" height="28" viewBox="0 0 28 28" fill="none" xmlns="http://www.w3.org/2000/svg">
<path d="M14 15.8884C13.1534 15.8884 12.3503 15.5628 11.7317 14.9551C10.9395 14.1628 10.6248 13.0233 10.8852 11.9055C11.1565 10.7659 12.0682 9.8543 13.2077 9.58298C14.3147 9.31166 15.4542 9.62642 16.2573 10.4295C17.0604 11.2326 17.3643 12.3613 17.1038 13.4791C16.8325 14.6187 15.9209 15.5302 14.7814 15.8016C14.5209 15.8558 14.2604 15.8884 14 15.8884ZM14 11.1132C13.8697 11.1132 13.7286 11.1349 13.5984 11.1675C13.0558 11.2977 12.6108 11.7427 12.4806 12.2853C12.3395 12.8496 12.4914 13.4031 12.893 13.7938C13.2945 14.1954 13.8372 14.3365 14.4124 14.2062C14.955 14.076 15.4 13.631 15.5302 13.0884C15.6713 12.524 15.5193 11.9706 15.1178 11.5799C14.8139 11.276 14.4232 11.1132 14 11.1132Z" fill="#2B6AD1"/>
<path d="M7.51005 20.4791C7.3147 20.4791 7.10849 20.4032 6.95655 20.2621C4.85112 18.3086 3.64648 15.552 3.64648 12.6868C3.64648 6.97831 8.29144 2.33337 14 2.33337C19.7085 2.33337 24.3534 6.97831 24.3534 12.6868C24.3534 15.5737 23.1922 18.2434 21.0868 20.2295C20.7612 20.5334 20.2403 20.5225 19.9364 20.197C19.6325 19.8714 19.6434 19.3505 19.969 19.0466C21.7488 17.3753 22.7255 15.1287 22.7255 12.6977C22.7255 7.88995 18.8077 3.97214 14 3.97214C9.19221 3.97214 5.27439 7.88995 5.27439 12.6977C5.27439 15.1504 6.26198 17.4078 8.06353 19.0791C8.38911 19.383 8.41083 19.9039 8.10695 20.2295C7.94416 20.3923 7.7271 20.4791 7.51005 20.4791Z" fill="#2B6AD1"/>
<path d="M18.3411 17.5815C18.1458 17.5815 17.9396 17.5055 17.7876 17.3644C17.4621 17.0605 17.4403 16.5396 17.7551 16.214C18.6559 15.259 19.1551 14.0001 19.1551 12.6978C19.1551 9.85436 16.8434 7.55359 14.0109 7.55359C11.1783 7.55359 8.8667 9.86521 8.8667 12.6978C8.8667 14.0109 9.36592 15.259 10.2667 16.214C10.5706 16.5396 10.5597 17.0605 10.2341 17.3644C9.90856 17.6683 9.38763 17.6575 9.08375 17.3319C7.90081 16.073 7.2388 14.4234 7.2388 12.6978C7.2388 8.96444 10.2775 5.92569 14.0109 5.92569C17.7442 5.92569 20.783 8.96444 20.783 12.6978C20.783 14.4234 20.1318 16.073 18.938 17.3319C18.7752 17.4947 18.5582 17.5815 18.3411 17.5815Z" fill="#2B6AD1"/>
<path d="M15.563 25.6667H12.4483C11.2111 25.6667 10.1149 24.9722 9.58314 23.8652C9.05136 22.7582 9.19245 21.4667 9.96299 20.5008L11.5258 18.5582C12.1335 17.7985 13.0343 17.3644 14.011 17.3644C14.9878 17.3644 15.8886 17.7985 16.4963 18.5582L18.0591 20.5008C18.8297 21.4667 18.9816 22.7582 18.439 23.8652C17.8855 24.9722 16.7894 25.6667 15.563 25.6667ZM12.7847 19.5675L11.2219 21.5101C10.8421 21.9876 10.7661 22.6062 11.0374 23.1489C11.2979 23.7024 11.8297 24.0279 12.4374 24.0279H15.5521C16.1599 24.0279 16.6917 23.7024 16.9521 23.1489C17.2126 22.5954 17.1475 21.9876 16.7676 21.5101L15.2049 19.5675C14.6188 18.8295 13.3816 18.8295 12.7847 19.5675Z" fill="#2B6AD1"/>
</svg>
