<svg width="28" height="28" viewBox="0 0 28 28" fill="none" xmlns="http://www.w3.org/2000/svg">
<path d="M16.3952 13.6796C16.8338 11.8354 15.2258 10.2273 13.3816 10.6659C12.5157 10.8796 11.8073 11.588 11.5936 12.4539C11.1551 14.298 12.7631 15.9061 14.6073 15.4675C15.4844 15.2539 16.1928 14.5454 16.3952 13.6796Z" fill="#F5A304"/>
<path d="M7.27555 21.135C7.07314 21.135 6.85949 21.0563 6.70206 20.9101C4.52053 18.886 3.27234 16.0298 3.27234 13.0611C3.27234 7.14622 8.08519 2.33337 14.0001 2.33337C19.9149 2.33337 24.7278 7.14622 24.7278 13.0611C24.7278 16.0522 23.5245 18.8185 21.343 20.8763C21.0057 21.1912 20.4659 21.18 20.1511 20.8426C19.8362 20.5053 19.8474 19.9655 20.1848 19.6506C22.029 17.9189 23.041 15.5912 23.041 13.0723C23.041 8.0908 18.9816 4.03137 14.0001 4.03137C9.01852 4.03137 4.95909 8.0908 4.95909 13.0723C4.95909 15.6137 5.98238 17.9527 7.84905 19.6844C8.1864 19.9992 8.20889 20.539 7.89403 20.8763C7.72535 21.045 7.50045 21.135 7.27555 21.135Z" fill="#F5A304"/>
<path d="M18.498 18.1326C18.2956 18.1326 18.082 18.0539 17.9245 17.9077C17.5872 17.5928 17.5647 17.0531 17.8908 16.7157C18.8241 15.7261 19.3414 14.4217 19.3414 13.0723C19.3414 10.1261 16.9462 7.74221 14.0113 7.74221C11.0764 7.74221 8.68117 10.1374 8.68117 13.0723C8.68117 14.433 9.19844 15.7261 10.1318 16.7157C10.4466 17.0531 10.4354 17.5928 10.098 17.9077C9.76069 18.2338 9.22093 18.2113 8.90607 17.8739C7.68037 16.5695 6.99443 14.8603 6.99443 13.0723C6.99443 9.20406 10.143 6.05546 14.0113 6.05546C17.8796 6.05546 21.0282 9.20406 21.0282 13.0723C21.0282 14.8603 20.3535 16.5695 19.1165 17.8739C18.9478 18.0426 18.7229 18.1326 18.498 18.1326Z" fill="#F5A304"/>
<path d="M12.0884 19.6619L10.4691 21.6747C9.1872 23.2828 10.3342 25.6667 12.3808 25.6667H15.6081C17.6659 25.6667 18.8129 23.2828 17.5197 21.686L15.9005 19.6731C14.9334 18.4362 13.0667 18.4362 12.0884 19.6619Z" fill="#F5A304"/>
</svg>
