<svg width="28" height="28" viewBox="0 0 28 28" fill="none" xmlns="http://www.w3.org/2000/svg">
<path d="M16.3951 13.6796C16.8337 11.8354 15.2256 10.2274 13.3815 10.6659C12.5156 10.8796 11.8072 11.588 11.5935 12.4539C11.1549 14.298 12.763 15.9061 14.6072 15.4675C15.4843 15.2539 16.1927 14.5454 16.3951 13.6796Z" fill="#2B6AD1"/>
<path d="M7.27543 21.135C7.07302 21.135 6.85937 21.0563 6.70194 20.9101C4.52041 18.886 3.27222 16.0298 3.27222 13.0611C3.27222 7.14623 8.08507 2.33337 13.9999 2.33337C19.9148 2.33337 24.7276 7.14623 24.7276 13.0611C24.7276 16.0523 23.5244 18.8185 21.3429 20.8763C21.0056 21.1912 20.4658 21.18 20.1509 20.8426C19.8361 20.5053 19.8473 19.9655 20.1847 19.6506C22.0288 17.9189 23.0409 15.5912 23.0409 13.0723C23.0409 8.0908 18.9815 4.03137 13.9999 4.03137C9.0184 4.03137 4.95896 8.0908 4.95896 13.0723C4.95896 15.6137 5.98226 17.9527 7.84892 19.6844C8.18627 19.9992 8.20876 20.539 7.8939 20.8763C7.72523 21.045 7.50033 21.135 7.27543 21.135Z" fill="#2B6AD1"/>
<path d="M18.4979 18.1326C18.2955 18.1326 18.0819 18.0539 17.9244 17.9077C17.5871 17.5928 17.5646 17.0531 17.8907 16.7157C18.824 15.7261 19.3413 14.4217 19.3413 13.0723C19.3413 10.1261 16.9461 7.74221 14.0112 7.74221C11.0762 7.74221 8.68105 10.1374 8.68105 13.0723C8.68105 14.433 9.19832 15.7261 10.1317 16.7157C10.4465 17.0531 10.4353 17.5928 10.0979 17.9077C9.76057 18.2338 9.22081 18.2113 8.90595 17.8739C7.68025 16.5695 6.99431 14.8603 6.99431 13.0723C6.99431 9.20406 10.1429 6.05546 14.0112 6.05546C17.8794 6.05546 21.028 9.20406 21.028 13.0723C21.028 14.8603 20.3533 16.5695 19.1164 17.8739C18.9477 18.0426 18.7228 18.1326 18.4979 18.1326Z" fill="#2B6AD1"/>
<path d="M12.0883 19.6619L10.469 21.6747C9.18708 23.2828 10.3341 25.6667 12.3807 25.6667H15.608C17.6658 25.6667 18.8128 23.2828 17.5196 21.686L15.9003 19.6731C14.9333 18.4362 13.0666 18.4362 12.0883 19.6619Z" fill="#2B6AD1"/>
</svg>
