<svg width="28" height="28" viewBox="0 0 28 28" fill="none" xmlns="http://www.w3.org/2000/svg">
<path d="M18.7885 25.6667H9.18375C7.34613 25.6667 5.96792 25.1675 5.11321 24.1799C4.2585 23.1923 3.92729 21.7597 4.15166 19.9039L5.11321 11.7644C5.39099 9.36593 5.98929 7.21709 10.156 7.21709H17.8484C22.0044 7.21709 22.6027 9.36593 22.8911 11.7644L23.8527 19.9039C24.0663 21.7597 23.7458 23.2031 22.8911 24.1799C22.0044 25.1675 20.6368 25.6667 18.7885 25.6667ZM10.1453 8.845C7.06835 8.845 6.91878 10.0822 6.69442 11.9489L5.73288 20.0884C5.57262 21.4667 5.76492 22.476 6.3098 23.0946C6.85467 23.7132 7.81622 24.0279 9.18375 24.0279H18.7885C20.1561 24.0279 21.1176 23.7132 21.6625 23.0946C22.2073 22.476 22.3997 21.4667 22.2394 20.0884L21.2779 11.9489C21.0535 10.0713 20.9146 8.845 17.827 8.845H10.1453Z" fill="#C62323"/>
<path d="M18.2651 10.4729C17.8271 10.4729 17.4638 10.1039 17.4638 9.65896V5.86051C17.4638 4.68841 16.748 3.96128 15.5941 3.96128H12.389C11.2351 3.96128 10.5193 4.68841 10.5193 5.86051V9.65896C10.5193 10.1039 10.1561 10.4729 9.71802 10.4729C9.27998 10.4729 8.91673 10.1039 8.91673 9.65896V5.86051C8.91673 3.78764 10.3484 2.33337 12.389 2.33337H15.5941C17.6347 2.33337 19.0664 3.78764 19.0664 5.86051V9.65896C19.0664 10.1039 18.7031 10.4729 18.2651 10.4729Z" fill="#C62323"/>
<path d="M22.9767 20.2729H9.71802C9.27998 20.2729 8.91673 19.9039 8.91673 19.459C8.91673 19.014 9.27998 18.645 9.71802 18.645H22.9767C23.4147 18.645 23.778 19.014 23.778 19.459C23.778 19.9039 23.4147 20.2729 22.9767 20.2729Z" fill="#C62323"/>
</svg>

