<svg width="28" height="28" viewBox="0 0 28 28" fill="none" xmlns="http://www.w3.org/2000/svg">
<path d="M18.3738 10.7671C17.9251 10.7671 17.5531 10.3848 17.5531 9.92374V5.98799C17.5531 4.77354 16.8199 4.02012 15.6381 4.02012H12.3552C11.1733 4.02012 10.4401 4.77354 10.4401 5.98799V9.92374C10.4401 10.3848 10.0681 10.7671 9.61941 10.7671C9.17075 10.7671 8.79869 10.3848 8.79869 9.92374V5.98799C8.79869 3.8402 10.265 2.33337 12.3552 2.33337H15.6381C17.7282 2.33337 19.1945 3.8402 19.1945 5.98799V9.92374C19.1945 10.3848 18.8225 10.7671 18.3738 10.7671Z" fill="#11A45D"/>
<path d="M9.61941 20.9213C9.17075 20.9213 8.79869 20.539 8.79869 20.078C8.79869 19.6057 9.17075 19.2346 9.61941 19.2346H22.4884C22.8167 19.2346 23.0683 18.9422 23.0355 18.6049L22.2914 12.2065C22.0288 10.0249 21.6567 8.23699 17.9361 8.23699H10.0571C6.33651 8.23699 5.96445 10.0249 5.71276 12.2065L4.72789 20.6402C4.41055 23.4065 5.24221 25.6667 9.0832 25.6667H18.91C22.368 25.6667 23.3857 23.8338 23.331 21.4498C23.32 21.1462 23.0793 20.9213 22.7838 20.9213H9.61941Z" fill="#11A45D"/>
</svg>
