<svg width="28" height="28" viewBox="0 0 28 28" fill="none" xmlns="http://www.w3.org/2000/svg">
<path d="M18.7886 25.6667H9.18381C7.34619 25.6667 5.96798 25.1675 5.11327 24.1799C4.25856 23.1923 3.92736 21.7597 4.15172 19.9039L5.11327 11.7644C5.39105 9.36594 5.98935 7.2171 10.156 7.2171H17.8484C22.0044 7.2171 22.6027 9.36594 22.8912 11.7644L23.8527 19.9039C24.0664 21.7597 23.7459 23.2031 22.8912 24.1799C22.0044 25.1675 20.6369 25.6667 18.7886 25.6667ZM10.1454 8.845C7.06841 8.845 6.91884 10.0822 6.69448 11.9489L5.73294 20.0884C5.57268 21.4667 5.76498 22.476 6.30986 23.0946C6.85473 23.7132 7.81628 24.0279 9.18381 24.0279H18.7886C20.1561 24.0279 21.1177 23.7132 21.6625 23.0946C22.2074 22.476 22.3997 21.4667 22.2395 20.0884L21.2779 11.9489C21.0536 10.0713 20.9147 8.845 17.827 8.845H10.1454Z" fill="#11A45D"/>
<path d="M18.2652 10.4729C17.8271 10.4729 17.4639 10.1039 17.4639 9.65896V5.86051C17.4639 4.68841 16.748 3.96128 15.5942 3.96128H12.389C11.2352 3.96128 10.5194 4.68841 10.5194 5.86051V9.65896C10.5194 10.1039 10.1561 10.4729 9.71808 10.4729C9.28004 10.4729 8.91679 10.1039 8.91679 9.65896V5.86051C8.91679 3.78764 10.3484 2.33337 12.389 2.33337H15.5942C17.6348 2.33337 19.0664 3.78764 19.0664 5.86051V9.65896C19.0664 10.1039 18.7032 10.4729 18.2652 10.4729Z" fill="#11A45D"/>
<path d="M22.9767 20.2729H9.71808C9.28004 20.2729 8.91679 19.9039 8.91679 19.459C8.91679 19.014 9.28004 18.645 9.71808 18.645H22.9767C23.4148 18.645 23.778 19.014 23.778 19.459C23.778 19.9039 23.4148 20.2729 22.9767 20.2729Z" fill="#11A45D"/>
</svg>
