<svg width="28" height="28" viewBox="0 0 28 28" fill="none" xmlns="http://www.w3.org/2000/svg">
<path d="M10.5299 2.33325C7.47949 2.33325 4.9996 4.81825 4.9996 7.87492C4.9996 10.8733 7.33978 13.2999 10.3902 13.4049C10.4833 13.3933 10.5764 13.3933 10.6463 13.4049C10.6696 13.4049 10.6812 13.4049 10.7045 13.4049C10.7162 13.4049 10.7162 13.4049 10.7278 13.4049C13.7083 13.2999 16.0485 10.8733 16.0602 7.87492C16.0602 4.81825 13.5803 2.33325 10.5299 2.33325Z" fill="#C62323"/>
<path d="M16.4443 16.5093C13.196 14.3393 7.89858 14.3393 4.62699 16.5093C3.14836 17.5009 2.33337 18.8426 2.33337 20.2776C2.33337 21.7126 3.14836 23.0426 4.61534 24.0226C6.24532 25.1193 8.38758 25.6676 10.5298 25.6676C12.6721 25.6676 14.8143 25.1193 16.4443 24.0226C17.9113 23.0309 18.7263 21.7009 18.7263 20.2543C18.7146 18.8193 17.9113 17.4893 16.4443 16.5093Z" fill="#C62323"/>
<path d="M23.3256 8.56337C23.5119 10.8267 21.9052 12.81 19.6814 13.0784C19.6698 13.0784 19.6698 13.0784 19.6582 13.0784H19.6232C19.5534 13.0784 19.4835 13.0784 19.4253 13.1017C18.296 13.16 17.2598 12.7984 16.4797 12.1334C17.6789 11.06 18.3658 9.45003 18.2261 7.70003C18.1446 6.75503 17.8186 5.8917 17.3296 5.1567C17.772 4.93503 18.2843 4.79503 18.8082 4.74837C21.0902 4.55003 23.1277 6.25337 23.3256 8.56337Z" fill="#C62323"/>
<path d="M25.654 19.3554C25.5609 20.487 24.839 21.467 23.6282 22.132C22.4639 22.7737 20.9969 23.077 19.5416 23.042C20.3799 22.2837 20.8689 21.3387 20.962 20.3354C21.0784 18.8887 20.3915 17.5004 19.0177 16.392C18.2376 15.7737 17.3295 15.2837 16.3399 14.922C18.9129 14.1754 22.1496 14.677 24.1405 16.287C25.2116 17.1504 25.7588 18.2354 25.654 19.3554Z" fill="#C62323"/>
</svg>
