<svg width="28" height="28" viewBox="0 0 28 28" fill="none" xmlns="http://www.w3.org/2000/svg">
<path d="M10.8842 13.6932C10.8503 13.6932 10.8277 13.6932 10.7937 13.6932C10.7372 13.6822 10.658 13.6822 10.5901 13.6932C7.31005 13.5946 4.83302 11.0969 4.83302 8.0187C4.83302 4.88568 7.4684 2.33325 10.7032 2.33325C13.9381 2.33325 16.5734 4.88568 16.5734 8.0187C16.5621 11.0969 14.0738 13.5946 10.9181 13.6932C10.9068 13.6932 10.8955 13.6932 10.8842 13.6932ZM10.7032 3.97644C8.40718 3.97644 6.52961 5.79491 6.52961 8.0187C6.52961 10.2096 8.29407 11.9733 10.5449 12.05C10.6127 12.039 10.7598 12.039 10.9068 12.05C13.1237 11.9514 14.8655 10.1877 14.8769 8.0187C14.8769 5.79491 12.9993 3.97644 10.7032 3.97644Z" fill="#F5A304"/>
<path d="M19.2314 13.8356C19.1975 13.8356 19.1636 13.8356 19.1296 13.8246C18.6659 13.8685 18.1909 13.5508 18.1456 13.1016C18.1004 12.6525 18.3831 12.2472 18.8469 12.1924C18.9826 12.1815 19.1296 12.1815 19.2541 12.1815C20.9054 12.0938 22.1948 10.7793 22.1948 9.16893C22.1948 7.50383 20.8036 6.15641 19.0844 6.15641C18.6207 6.16737 18.2361 5.79491 18.2361 5.34577C18.2361 4.89663 18.6207 4.52418 19.0844 4.52418C21.7311 4.52418 23.8914 6.61651 23.8914 9.17989C23.8914 11.6994 21.8555 13.737 19.2654 13.8356C19.2541 13.8356 19.2428 13.8356 19.2314 13.8356Z" fill="#F5A304"/>
<path d="M10.8955 25.6666C8.67863 25.6666 6.45044 25.1189 4.76516 24.0234C3.19298 23.0156 2.33337 21.6353 2.33337 20.1345C2.33337 18.6337 3.19298 17.2425 4.76516 16.2237C8.15834 14.0437 13.6553 14.0437 17.0259 16.2237C18.5867 17.2315 19.4577 18.6118 19.4577 20.1126C19.4577 21.6134 18.598 23.0046 17.0259 24.0234C15.3293 25.1189 13.1124 25.6666 10.8955 25.6666ZM5.70394 17.604C4.61812 18.3051 4.02997 19.2034 4.02997 20.1455C4.02997 21.0766 4.62943 21.9749 5.70394 22.665C8.52028 24.4944 13.2707 24.4944 16.0871 22.665C17.1729 21.9639 17.7611 21.0656 17.7611 20.1236C17.7611 19.1924 17.1616 18.2941 16.0871 17.604C13.2707 15.7855 8.52028 15.7855 5.70394 17.604Z" fill="#F5A304"/>
<path d="M21.2669 23.6948C20.871 23.6948 20.5204 23.4319 20.4412 23.0375C20.3507 22.5884 20.6448 22.1611 21.0972 22.0625C21.8098 21.9201 22.4658 21.6463 22.9748 21.2628C23.6195 20.7918 23.9701 20.2003 23.9701 19.5758C23.9701 18.9514 23.6195 18.3599 22.9861 17.8998C22.4884 17.5273 21.8663 17.2644 21.1311 17.1001C20.6787 17.0015 20.3846 16.5633 20.4864 16.1142C20.5882 15.676 21.0407 15.3912 21.5044 15.4898C22.4771 15.6979 23.3254 16.0704 24.0154 16.5852C25.0672 17.3521 25.6667 18.4366 25.6667 19.5758C25.6667 20.7151 25.0559 21.7996 24.004 22.5774C23.3028 23.1032 22.4206 23.4866 21.4478 23.6729C21.38 23.6948 21.3234 23.6948 21.2669 23.6948Z" fill="#F5A304"/>
</svg>
