<svg width="28" height="28" viewBox="0 0 28 28" fill="none" xmlns="http://www.w3.org/2000/svg">
<path fill-rule="evenodd" clip-rule="evenodd" d="M14 3.96128C8.45579 3.96128 3.96128 8.45579 3.96128 14C3.96128 19.5443 8.45579 24.0388 14 24.0388C19.5443 24.0388 24.0388 19.5443 24.0388 14C24.0388 12.3567 23.6446 10.8079 22.9463 9.44065C22.7418 9.04031 22.9006 8.55001 23.3009 8.34554C23.7013 8.14107 24.1916 8.29985 24.396 8.70019C25.2087 10.2914 25.6667 12.0934 25.6667 14C25.6667 20.4434 20.4434 25.6667 14 25.6667C7.55672 25.6667 2.33337 20.4434 2.33337 14C2.33337 7.55672 7.55672 2.33337 14 2.33337C15.9511 2.33337 17.7926 2.81296 19.4106 3.66137C19.8088 3.87013 19.9623 4.3621 19.7535 4.76022C19.5448 5.15835 19.0528 5.31186 18.6547 5.10311C17.2643 4.37406 15.6816 3.96128 14 3.96128Z" fill="#C62323"/>
<path fill-rule="evenodd" clip-rule="evenodd" d="M24.343 3.65705C24.6609 3.97492 24.6609 4.49028 24.343 4.80815L14.5756 14.5756C14.2577 14.8935 13.7424 14.8935 13.4245 14.5756C13.1066 14.2577 13.1066 13.7424 13.4245 13.4245L23.1919 3.65705C23.5098 3.33918 24.0252 3.33918 24.343 3.65705Z" fill="#C62323"/>
<path fill-rule="evenodd" clip-rule="evenodd" d="M14 7.75973C10.5536 7.75973 7.75973 10.5536 7.75973 14C7.75973 17.4465 10.5536 20.2404 14 20.2404C17.4465 20.2404 20.2404 17.4465 20.2404 14C20.2404 13.3507 20.1415 12.726 19.9585 12.1394C19.8246 11.7102 20.064 11.2538 20.4931 11.12C20.9223 10.9861 21.3787 11.2255 21.5125 11.6546C21.7439 12.3964 21.8683 13.1845 21.8683 14C21.8683 18.3455 18.3455 21.8683 14 21.8683C9.65454 21.8683 6.13182 18.3455 6.13182 14C6.13182 9.65454 9.65454 6.13182 14 6.13182C14.8025 6.13182 15.5783 6.25221 16.3096 6.47647C16.7394 6.60826 16.981 7.06351 16.8492 7.49329C16.7174 7.92307 16.2622 8.16464 15.8324 8.03284C15.254 7.85548 14.6389 7.75973 14 7.75973Z" fill="#C62323"/>
<path fill-rule="evenodd" clip-rule="evenodd" d="M12.9673 10.6327C13.1951 11.0202 13.0657 11.5191 12.6782 11.747C11.9042 12.2022 11.3875 13.0417 11.3875 14.0011C11.3875 15.4439 12.5572 16.6135 14 16.6135C15.0907 16.6135 16.0271 15.945 16.4182 14.9922C16.5889 14.5764 17.0644 14.3776 17.4802 14.5483C17.8961 14.719 18.0949 15.1945 17.9242 15.6104C17.2911 17.1528 15.7737 18.2415 14 18.2415C11.6581 18.2415 9.75964 16.343 9.75964 14.0011C9.75964 12.4413 10.6022 11.0793 11.853 10.3437C12.2405 10.1158 12.7394 10.2453 12.9673 10.6327Z" fill="#C62323"/>
</svg>
