<svg width="28" height="28" viewBox="0 0 28 28" fill="none" xmlns="http://www.w3.org/2000/svg">
<path d="M22.3067 17.4299L22.6801 18.1883C22.8667 18.5616 23.3451 18.9116 23.7417 18.9816L24.2434 19.0633C25.7717 19.3199 26.1217 20.4399 25.0367 21.5366L24.5701 22.0033C24.2551 22.3183 24.0917 22.9249 24.1851 23.3683L24.2434 23.6483C24.6634 25.4916 23.6834 26.2033 22.0851 25.2349L21.7467 25.0249C21.3384 24.7799 20.6617 24.7799 20.2534 25.0249L19.9151 25.2349C18.3051 26.2033 17.3367 25.4916 17.7567 23.6483L17.8151 23.3683C17.9084 22.9366 17.7451 22.3183 17.4301 22.0033L16.9634 21.5366C15.8784 20.4283 16.2284 19.3199 17.7567 19.0633L18.2584 18.9816C18.6667 18.9116 19.1334 18.5616 19.3201 18.1883L19.6934 17.4299C20.4167 15.9716 21.5834 15.9716 22.3067 17.4299Z" fill="#C54208"/>
<path d="M18.8884 2.33325H9.11171C4.86504 2.33325 2.33337 4.86492 2.33337 9.11159V18.8883C2.33337 23.1349 4.86504 25.6666 9.11171 25.6666H15.2717C15.68 25.6666 15.9717 25.2466 15.925 24.8383C15.8784 24.3949 15.9017 23.8699 16.0417 23.2633C16.065 23.1816 16.0417 23.0883 15.9717 23.0183L15.715 22.7616C14.7234 21.7583 14.3617 20.5449 14.7117 19.4366C15.0734 18.3399 16.0767 17.5699 17.465 17.3366L17.815 17.2783L18.13 16.6483C18.7717 15.3416 19.8217 14.5833 21 14.5833C22.1784 14.5833 23.2284 15.3416 23.87 16.6483L24.045 17.0099C24.1267 17.1849 24.29 17.3016 24.4767 17.3366C24.5817 17.3599 24.6867 17.3833 24.7917 17.4066C25.2 17.5116 25.6667 17.1849 25.6667 16.7533V9.11159C25.6667 4.86492 23.135 2.33325 18.8884 2.33325ZM18.97 10.4533L16.275 13.9299C15.9367 14.3616 15.4584 14.6416 14.91 14.6999C14.3734 14.7699 13.825 14.6183 13.405 14.2799L11.27 12.6233C11.1884 12.5533 11.095 12.5533 11.0484 12.5649C11.0017 12.5649 10.92 12.5883 10.85 12.6816L8.07337 16.2866C7.89837 16.5083 7.64171 16.6249 7.37337 16.6249C7.18671 16.6249 7.00004 16.5666 6.83671 16.4383C6.45171 16.1466 6.38171 15.5983 6.67337 15.2133L9.45004 11.6083C9.78837 11.1766 10.2667 10.8966 10.815 10.8266C11.3634 10.7566 11.9 10.9083 12.3317 11.2466L14.4667 12.9266C14.5484 12.9966 14.63 12.9849 14.6884 12.9849C14.735 12.9849 14.8167 12.9616 14.8867 12.8683L17.5817 9.39159C17.8734 9.00659 18.4217 8.93659 18.8067 9.23992C19.2034 9.53159 19.2617 10.0799 18.97 10.4533Z" fill="#C54208"/>
</svg>
