<svg width="28" height="28" viewBox="0 0 28 28" fill="none" xmlns="http://www.w3.org/2000/svg">
<path d="M15.1667 26.5417H10.5C4.16504 26.5417 1.45837 23.835 1.45837 17.5V10.5C1.45837 4.16504 4.16504 1.45837 10.5 1.45837H17.5C23.835 1.45837 26.5417 4.16504 26.5417 10.5V15.1667C26.5417 15.645 26.145 16.0417 25.6667 16.0417C25.1884 16.0417 24.7917 15.645 24.7917 15.1667V10.5C24.7917 5.12171 22.8784 3.20837 17.5 3.20837H10.5C5.12171 3.20837 3.20837 5.12171 3.20837 10.5V17.5C3.20837 22.8784 5.12171 24.7917 10.5 24.7917H15.1667C15.645 24.7917 16.0417 25.1884 16.0417 25.6667C16.0417 26.145 15.645 26.5417 15.1667 26.5417Z" fill="#2B6AD1"/>
<path d="M8.55182 17.78C8.36515 17.78 8.17849 17.7217 8.01516 17.5933C7.63016 17.3017 7.56018 16.7533 7.85184 16.3683L10.6285 12.7633C10.9668 12.3317 11.4452 12.0517 11.9935 11.9817C12.5418 11.9117 13.0785 12.0633 13.5101 12.4017L15.6452 14.0817C15.7268 14.1517 15.8085 14.14 15.8668 14.14C15.9135 14.14 15.9952 14.1167 16.0652 14.0233L18.7601 10.5467C19.0518 10.1617 19.6002 10.0917 19.9852 10.395C20.3702 10.6867 20.4402 11.235 20.1368 11.62L17.4418 15.0967C17.1035 15.5283 16.6252 15.8083 16.0768 15.8667C15.5402 15.9367 14.9918 15.785 14.5718 15.4467L12.4368 13.7667C12.3552 13.6967 12.2618 13.6967 12.2152 13.7083C12.1685 13.7083 12.0868 13.7317 12.0168 13.825L9.24018 17.43C9.07685 17.6633 8.82015 17.78 8.55182 17.78Z" fill="#2B6AD1"/>
<path d="M23.6372 26.542C23.2288 26.542 22.7038 26.4136 22.0855 26.0403L21.7938 25.8653C21.7121 25.8186 21.4671 25.8186 21.3855 25.8653L21.0938 26.0403C19.7521 26.8453 18.9005 26.507 18.5272 26.227C18.1422 25.947 17.5471 25.247 17.8971 23.707L17.9555 23.462C17.9788 23.3686 17.9088 23.147 17.8505 23.077L17.4422 22.6686C16.7538 21.9686 16.4855 21.152 16.7188 20.417C16.9521 19.6936 17.6405 19.1803 18.6088 19.017L19.0521 18.947C19.1338 18.9236 19.2971 18.807 19.3438 18.7253L19.6705 18.0603C20.1255 17.1386 20.8255 16.6136 21.5955 16.6136C22.3655 16.6136 23.0655 17.1386 23.5205 18.0603L23.8472 18.7136C23.8938 18.7953 24.0572 18.912 24.1388 18.9353L24.5822 19.0053C25.5505 19.1686 26.2388 19.682 26.4722 20.4053C26.7055 21.1286 26.4488 21.9453 25.7488 22.657L25.3405 23.0653C25.2822 23.1353 25.2122 23.357 25.2355 23.4503L25.2938 23.6953C25.6438 25.2353 25.0488 25.9353 24.6638 26.2153C24.4538 26.3786 24.1155 26.542 23.6372 26.542ZM21.5721 18.3753C21.5605 18.387 21.3972 18.5036 21.2338 18.842L20.9072 19.507C20.6272 20.0786 19.9621 20.5686 19.3438 20.6736L18.9005 20.7436C18.5272 20.802 18.3988 20.9303 18.3872 20.9536C18.3872 20.977 18.4221 21.1636 18.6905 21.432L19.0988 21.8403C19.5771 22.3303 19.8221 23.1703 19.6705 23.8353L19.6121 24.0803C19.5071 24.5353 19.5538 24.7336 19.5771 24.8036C19.6121 24.7803 19.8105 24.757 20.1955 24.5236L20.4871 24.3486C21.1288 23.9636 22.0505 23.9636 22.6922 24.3486L22.9838 24.5236C23.4622 24.8153 23.6605 24.7803 23.6722 24.7803C23.6255 24.7803 23.6838 24.547 23.5788 24.0803L23.5205 23.8353C23.3688 23.1586 23.6138 22.3303 24.0921 21.8403L24.5005 21.432C24.7688 21.1636 24.8038 20.977 24.8038 20.942C24.7922 20.9186 24.6638 20.802 24.2905 20.732L23.8472 20.662C23.2172 20.557 22.5638 20.067 22.2838 19.4953L21.9572 18.842C21.7705 18.492 21.6071 18.387 21.5721 18.3753Z" fill="#2B6AD1"/>
</svg>
