<svg width="28" height="28" viewBox="0 0 28 28" fill="none" xmlns="http://www.w3.org/2000/svg">
<path d="M14.8825 10.0262L17.1672 7.72114C16.2154 7.24009 15.1394 6.96909 14 6.96909C10.117 6.96909 6.96909 10.117 6.96909 14C6.96909 17.8831 10.117 21.031 14 21.031C17.8831 21.031 21.031 17.8831 21.031 14C21.031 12.8819 20.77 11.8247 20.3055 10.886L17.9946 13.2175C18.044 13.4707 18.0698 13.7324 18.0698 14C18.0698 16.2477 16.2477 18.0698 14 18.0698C11.7524 18.0698 9.93027 16.2477 9.93027 14C9.93027 11.7524 11.7524 9.93027 14 9.93027C14.3031 9.93027 14.5983 9.96339 14.8825 10.0262Z" fill="#C62323"/>
<path d="M13.3395 11.6486C12.3118 11.9367 11.5582 12.8803 11.5582 14C11.5582 15.3486 12.6514 16.4419 14 16.4419C15.0677 16.4419 15.9753 15.7567 16.3071 14.8021C15.4571 15.284 14.3577 15.1627 13.6332 14.4381C12.8753 13.6803 12.7774 12.5124 13.3395 11.6486Z" fill="#C62323"/>
<path d="M21.5041 9.67682C22.2386 10.949 22.6589 12.4254 22.6589 14C22.6589 18.7822 18.7822 22.6589 14 22.6589C9.21789 22.6589 5.34119 18.7822 5.34119 14C5.34119 9.21789 9.21789 5.34119 14 5.34119C15.5899 5.34119 17.0797 5.76968 18.3603 6.51748L20.5287 4.32974C18.6656 3.06942 16.4188 2.33337 14 2.33337C7.55672 2.33337 2.33337 7.55672 2.33337 14C2.33337 20.4434 7.55672 25.6667 14 25.6667C20.4434 25.6667 25.6667 20.4434 25.6667 14C25.6667 11.5864 24.9338 9.34402 23.6784 7.48321L21.5041 9.67682Z" fill="#C62323"/>
<path fill-rule="evenodd" clip-rule="evenodd" d="M24.8583 3.13243C25.22 3.49412 25.22 4.08052 24.8583 4.4422L15.864 13.5164C15.5024 13.8781 14.916 13.8781 14.5543 13.5164C14.1926 13.1547 14.1926 12.5683 14.5543 12.2066L23.5485 3.13243C23.9102 2.77075 24.4966 2.77075 24.8583 3.13243Z" fill="#C62323"/>
</svg>
