<svg width="28" height="28" viewBox="0 0 28 28" fill="none" xmlns="http://www.w3.org/2000/svg">
<path d="M22.3067 17.4301L22.6801 18.1884C22.8667 18.5617 23.3451 18.9117 23.7417 18.9817L24.2434 19.0634C25.7717 19.3201 26.1217 20.4401 25.0367 21.5367L24.5701 22.0034C24.2551 22.3184 24.0917 22.9251 24.1851 23.3684L24.2434 23.6484C24.6634 25.4917 23.6834 26.2034 22.0851 25.2351L21.7467 25.0251C21.3384 24.7801 20.6617 24.7801 20.2534 25.0251L19.9151 25.2351C18.3051 26.2034 17.3367 25.4917 17.7567 23.6484L17.8151 23.3684C17.9084 22.9367 17.7451 22.3184 17.4301 22.0034L16.9634 21.5367C15.8784 20.4284 16.2284 19.3201 17.7567 19.0634L18.2584 18.9817C18.6667 18.9117 19.1334 18.5617 19.3201 18.1884L19.6934 17.4301C20.4167 15.9717 21.5834 15.9717 22.3067 17.4301Z" fill="#2B6AD1"/>
<path d="M18.8884 2.33337H9.11171C4.86504 2.33337 2.33337 4.86504 2.33337 9.11171V18.8884C2.33337 23.135 4.86504 25.6667 9.11171 25.6667H15.2717C15.68 25.6667 15.9717 25.2467 15.925 24.8384C15.8784 24.395 15.9017 23.87 16.0417 23.2634C16.065 23.1817 16.0417 23.0884 15.9717 23.0184L15.715 22.7617C14.7234 21.7584 14.3617 20.545 14.7117 19.4367C15.0734 18.34 16.0767 17.57 17.465 17.3367L17.815 17.2784L18.13 16.6484C18.7717 15.3417 19.8217 14.5834 21 14.5834C22.1784 14.5834 23.2284 15.3417 23.87 16.6484L24.045 17.01C24.1267 17.185 24.29 17.3017 24.4767 17.3367C24.5817 17.36 24.6867 17.3834 24.7917 17.4067C25.2 17.5117 25.6667 17.185 25.6667 16.7534V9.11171C25.6667 4.86504 23.135 2.33337 18.8884 2.33337ZM18.97 10.4534L16.275 13.93C15.9367 14.3617 15.4584 14.6417 14.91 14.7C14.3734 14.77 13.825 14.6184 13.405 14.28L11.27 12.6234C11.1884 12.5534 11.095 12.5534 11.0484 12.565C11.0017 12.565 10.92 12.5884 10.85 12.6817L8.07337 16.2867C7.89837 16.5084 7.64171 16.625 7.37337 16.625C7.18671 16.625 7.00004 16.5667 6.83671 16.4384C6.45171 16.1467 6.38171 15.5984 6.67337 15.2134L9.45004 11.6084C9.78837 11.1767 10.2667 10.8967 10.815 10.8267C11.3634 10.7567 11.9 10.9084 12.3317 11.2467L14.4667 12.9267C14.5484 12.9967 14.63 12.985 14.6884 12.985C14.735 12.985 14.8167 12.9617 14.8867 12.8684L17.5817 9.39171C17.8734 9.00671 18.4217 8.93671 18.8067 9.24004C19.2034 9.53171 19.2617 10.08 18.97 10.4534Z" fill="#2B6AD1"/>
</svg>
