<svg width="28" height="28" viewBox="0 0 28 28" fill="none" xmlns="http://www.w3.org/2000/svg">
<path d="M15.1667 26.5416H10.5C4.16504 26.5416 1.45837 23.8349 1.45837 17.4999V10.4999C1.45837 4.16492 4.16504 1.45825 10.5 1.45825H17.5C23.835 1.45825 26.5417 4.16492 26.5417 10.4999V15.1666C26.5417 15.6449 26.145 16.0416 25.6667 16.0416C25.1884 16.0416 24.7917 15.6449 24.7917 15.1666V10.4999C24.7917 5.12159 22.8784 3.20825 17.5 3.20825H10.5C5.12171 3.20825 3.20837 5.12159 3.20837 10.4999V17.4999C3.20837 22.8783 5.12171 24.7916 10.5 24.7916H15.1667C15.645 24.7916 16.0417 25.1883 16.0417 25.6666C16.0417 26.1449 15.645 26.5416 15.1667 26.5416Z" fill="#C54208"/>
<path d="M8.55182 17.78C8.36515 17.78 8.17849 17.7217 8.01516 17.5933C7.63016 17.3017 7.56018 16.7533 7.85184 16.3683L10.6285 12.7633C10.9668 12.3317 11.4452 12.0517 11.9935 11.9817C12.5418 11.9117 13.0785 12.0633 13.5101 12.4017L15.6452 14.0817C15.7268 14.1517 15.8085 14.14 15.8668 14.14C15.9135 14.14 15.9952 14.1167 16.0652 14.0233L18.7601 10.5467C19.0518 10.1617 19.6002 10.0917 19.9852 10.395C20.3702 10.6867 20.4402 11.235 20.1368 11.62L17.4418 15.0967C17.1035 15.5283 16.6252 15.8083 16.0768 15.8667C15.5402 15.9367 14.9918 15.785 14.5718 15.4467L12.4368 13.7667C12.3552 13.6967 12.2618 13.6967 12.2152 13.7083C12.1685 13.7083 12.0868 13.7317 12.0168 13.825L9.24018 17.43C9.07685 17.6633 8.82015 17.78 8.55182 17.78Z" fill="#C54208"/>
<path d="M23.6372 26.5419C23.2288 26.5419 22.7038 26.4135 22.0855 26.0402L21.7938 25.8652C21.7121 25.8185 21.4671 25.8185 21.3855 25.8652L21.0938 26.0402C19.7521 26.8452 18.9005 26.5068 18.5272 26.2268C18.1422 25.9468 17.5471 25.2469 17.8971 23.7069L17.9555 23.4619C17.9788 23.3685 17.9088 23.1469 17.8505 23.0769L17.4422 22.6685C16.7538 21.9685 16.4855 21.1519 16.7188 20.4169C16.9521 19.6935 17.6405 19.1802 18.6088 19.0169L19.0521 18.9469C19.1338 18.9235 19.2971 18.8069 19.3438 18.7252L19.6705 18.0602C20.1255 17.1385 20.8255 16.6135 21.5955 16.6135C22.3655 16.6135 23.0655 17.1385 23.5205 18.0602L23.8472 18.7135C23.8938 18.7952 24.0572 18.9118 24.1388 18.9352L24.5822 19.0052C25.5505 19.1685 26.2388 19.6819 26.4722 20.4052C26.7055 21.1285 26.4488 21.9452 25.7488 22.6569L25.3405 23.0652C25.2822 23.1352 25.2122 23.3569 25.2355 23.4502L25.2938 23.6952C25.6438 25.2352 25.0488 25.9352 24.6638 26.2152C24.4538 26.3785 24.1155 26.5419 23.6372 26.5419ZM21.5721 18.3752C21.5605 18.3869 21.3972 18.5035 21.2338 18.8418L20.9072 19.5069C20.6272 20.0785 19.9621 20.5685 19.3438 20.6735L18.9005 20.7435C18.5272 20.8019 18.3988 20.9302 18.3872 20.9535C18.3872 20.9769 18.4221 21.1635 18.6905 21.4318L19.0988 21.8402C19.5771 22.3302 19.8221 23.1702 19.6705 23.8352L19.6121 24.0802C19.5071 24.5352 19.5538 24.7335 19.5771 24.8035C19.6121 24.7802 19.8105 24.7569 20.1955 24.5235L20.4871 24.3485C21.1288 23.9635 22.0505 23.9635 22.6922 24.3485L22.9838 24.5235C23.4622 24.8152 23.6605 24.7802 23.6722 24.7802C23.6255 24.7802 23.6838 24.5469 23.5788 24.0802L23.5205 23.8352C23.3688 23.1585 23.6138 22.3302 24.0921 21.8402L24.5005 21.4318C24.7688 21.1635 24.8038 20.9768 24.8038 20.9418C24.7922 20.9185 24.6638 20.8019 24.2905 20.7319L23.8472 20.6619C23.2172 20.5569 22.5638 20.0669 22.2838 19.4952L21.9572 18.8418C21.7705 18.4918 21.6071 18.3869 21.5721 18.3752Z" fill="#C54208"/>
</svg>
