<svg width="28" height="28" viewBox="0 0 28 28" fill="none" xmlns="http://www.w3.org/2000/svg">
<path d="M24.6167 9.18159C25.2934 8.43492 25.6667 7.46659 25.6667 6.45159C25.6667 4.17659 23.8234 2.33325 21.5484 2.33325C20.5334 2.33325 19.5767 2.70659 18.83 3.38325C17.325 2.68325 15.7034 2.33325 14 2.33325C12.3317 2.33325 10.675 2.69492 9.18171 3.38325C8.43504 2.70659 7.46671 2.33325 6.45171 2.33325C4.17671 2.33325 2.33337 4.17659 2.33337 6.45159C2.33337 7.46659 2.70671 8.43492 3.38337 9.18159C2.69504 10.6749 2.33337 12.3316 2.33337 13.9999C2.33337 15.7033 2.68337 17.3249 3.38337 18.8299C2.70671 19.5766 2.33337 20.5333 2.33337 21.5483C2.33337 23.8233 4.17671 25.6666 6.45171 25.6666C7.46671 25.6666 8.43504 25.2933 9.18171 24.6166C10.675 25.3049 12.3317 25.6666 14 25.6666C15.7034 25.6666 17.325 25.3166 18.83 24.6166C19.5767 25.2933 20.5334 25.6666 21.5484 25.6666C23.8234 25.6666 25.6667 23.8233 25.6667 21.5483C25.6667 20.5333 25.2934 19.5766 24.6167 18.8299C25.3167 17.3249 25.6667 15.7033 25.6667 13.9999C25.6667 12.3316 25.305 10.6749 24.6167 9.18159ZM22.96 17.6983C22.8317 17.6516 22.7034 17.6049 22.575 17.5699C22.3767 17.5233 22.1667 17.4883 21.9684 17.4649C21.8284 17.4533 21.6884 17.4416 21.5484 17.4416C19.285 17.4416 17.4417 19.2849 17.4417 21.5483C17.4417 21.6883 17.4534 21.8283 17.465 21.9683C17.4884 22.1666 17.5234 22.3766 17.57 22.5749C17.605 22.7033 17.6517 22.8316 17.6984 22.9599C17.6984 22.9949 17.71 23.0299 17.7334 23.0649C17.745 23.0999 17.7567 23.1349 17.7684 23.1699C15.4234 24.1499 12.6234 24.1616 10.2317 23.1699C10.2434 23.1349 10.255 23.0999 10.2667 23.0649C10.29 23.0299 10.3017 22.9949 10.3017 22.9599C10.3484 22.8316 10.395 22.7033 10.43 22.5749C10.4767 22.3766 10.5117 22.1666 10.535 21.9683C10.5467 21.8283 10.5584 21.6883 10.5584 21.5483C10.5584 19.2849 8.71504 17.4416 6.45171 17.4416C6.31171 17.4416 6.17171 17.4533 6.03171 17.4649C5.83337 17.4883 5.62337 17.5233 5.42504 17.5699C5.29671 17.6049 5.16837 17.6516 5.04004 17.6983C5.00504 17.6983 4.97004 17.7099 4.93504 17.7333C4.90004 17.7449 4.86504 17.7566 4.83004 17.7683C4.32837 16.5899 4.08337 15.3183 4.08337 13.9999C4.08337 12.7049 4.34004 11.4099 4.83004 10.2316C4.84171 10.2316 4.86504 10.2433 4.87671 10.2433C4.73671 10.1849 4.58504 10.1149 4.45671 10.0449C4.27004 9.93992 4.08337 9.82325 3.90837 9.68325C4.25837 9.95159 4.63171 10.1616 5.04004 10.3016C5.18004 10.3599 5.33171 10.4066 5.47171 10.4416C5.56504 10.4649 5.64671 10.4766 5.72837 10.4883C5.83337 10.5116 5.92671 10.5233 6.03171 10.5349C6.17171 10.5466 6.31171 10.5583 6.45171 10.5583C8.71504 10.5583 10.5584 8.71492 10.5584 6.45159C10.5584 6.31159 10.5467 6.17159 10.535 6.03159C10.5234 5.92659 10.5117 5.83325 10.4884 5.72825C10.4767 5.64659 10.465 5.56492 10.4417 5.47159C10.4067 5.33159 10.36 5.17992 10.3017 5.03992C10.1617 4.63159 9.95171 4.25825 9.68337 3.90825C9.82337 4.08325 9.94004 4.26992 10.045 4.45659C10.115 4.58492 10.185 4.73659 10.2434 4.87659C10.2434 4.86492 10.2317 4.84159 10.2317 4.82992C12.6117 3.83825 15.4234 3.84992 17.7684 4.82992C17.7567 4.86492 17.745 4.89992 17.7334 4.93492C17.71 4.96992 17.6984 5.00492 17.6984 5.03992C17.6517 5.16825 17.605 5.29659 17.57 5.42492C17.5234 5.62325 17.4884 5.83325 17.465 6.03159C17.4534 6.17159 17.4417 6.31159 17.4417 6.45159C17.4417 8.71492 19.285 10.5583 21.5484 10.5583C21.6884 10.5583 21.8284 10.5466 21.9684 10.5349C22.1667 10.5116 22.3767 10.4766 22.575 10.4299C22.7034 10.3949 22.8317 10.3483 22.96 10.3016C22.995 10.3016 23.03 10.2899 23.065 10.2666C23.1 10.2549 23.135 10.2433 23.17 10.2316C23.66 11.4099 23.9167 12.7049 23.9167 13.9999C23.9167 15.3183 23.6717 16.5899 23.17 17.7683C23.135 17.7566 23.1 17.7449 23.065 17.7333C23.03 17.7099 22.995 17.6983 22.96 17.6983Z" fill="#7250D1"/>
</svg>
