<svg width="28" height="28" viewBox="0 0 28 28" fill="none" xmlns="http://www.w3.org/2000/svg">
<path fill-rule="evenodd" clip-rule="evenodd" d="M21.5691 4.04057C20.8068 4.04057 20.1309 4.40024 19.7064 4.94953C19.6836 4.97905 19.659 5.00685 19.6329 5.03282C19.3449 5.43532 19.1789 5.90796 19.1789 6.43081C19.1789 7.75773 20.2422 8.82106 21.5691 8.82106C22.1325 8.82106 22.6415 8.6286 23.0425 8.3111L23.0441 8.30986C23.6005 7.87148 23.9594 7.19178 23.9594 6.43081C23.9594 5.1039 22.8961 4.04057 21.5691 4.04057ZM18.437 3.80359C19.1766 2.90851 20.3073 2.33325 21.5691 2.33325C23.839 2.33325 25.6667 4.16098 25.6667 6.43081C25.6667 7.74139 25.0467 8.90559 24.1007 9.65095L23.5724 8.98041L24.1023 9.64971C23.4106 10.1973 22.531 10.5284 21.5691 10.5284C19.2993 10.5284 17.4716 8.70065 17.4716 6.43081C17.4716 5.46445 17.8055 4.60008 18.345 3.90442C18.3731 3.86813 18.4039 3.83445 18.437 3.80359Z" fill="#7250D1"/>
<path fill-rule="evenodd" clip-rule="evenodd" d="M6.43094 4.04057C5.10402 4.04057 4.04069 5.1039 4.04069 6.43081C4.04069 7.19062 4.39849 7.86942 4.95346 8.30787C5.3727 8.63216 5.87326 8.82106 6.43094 8.82106C7.75785 8.82106 8.82118 7.75772 8.82118 6.43081C8.82118 5.87314 8.63229 5.37258 8.30799 4.95333C7.86954 4.39837 7.19075 4.04057 6.43094 4.04057ZM2.33337 6.43081C2.33337 4.16098 4.1611 2.33325 6.43094 2.33325C7.74151 2.33325 8.90571 2.95323 9.65107 3.89926L9.65513 3.9044C10.1946 4.60007 10.5285 5.46445 10.5285 6.43081C10.5285 8.70065 8.70077 10.5284 6.43094 10.5284C5.46457 10.5284 4.60021 10.1945 3.90454 9.65498L3.89936 9.65097C2.95333 8.90561 2.33337 7.74139 2.33337 6.43081Z" fill="#7250D1"/>
<path fill-rule="evenodd" clip-rule="evenodd" d="M21.5691 19.1788C20.2422 19.1788 19.1789 20.2421 19.1789 21.569C19.1789 22.0955 19.347 22.5745 19.6281 22.9623C19.656 22.9896 19.6822 23.019 19.7064 23.0503C20.1309 23.5996 20.8068 23.9593 21.5691 23.9593C22.8961 23.9593 23.9594 22.8959 23.9594 21.569C23.9594 20.8067 23.5997 20.1308 23.0504 19.7063C23.0209 19.6835 22.9931 19.6589 22.9671 19.6328C22.5646 19.3448 22.092 19.1788 21.5691 19.1788ZM17.4716 21.569C17.4716 19.2992 19.2993 17.4715 21.5691 17.4715C22.5355 17.4715 23.3999 17.8054 24.0955 18.3449C24.1318 18.373 24.1655 18.4038 24.1964 18.4368C25.0915 19.1764 25.6667 20.3071 25.6667 21.569C25.6667 23.8389 23.839 25.6666 21.5691 25.6666C20.3072 25.6666 19.1766 25.0913 18.437 24.1962C18.406 24.1673 18.377 24.1359 18.3502 24.1021C17.8027 23.4105 17.4716 22.5309 17.4716 21.569Z" fill="#7250D1"/>
<path fill-rule="evenodd" clip-rule="evenodd" d="M5.03768 19.628C5.01036 19.6559 4.98098 19.6821 4.94965 19.7063C4.40036 20.1308 4.04069 20.8067 4.04069 21.569C4.04069 22.8959 5.10402 23.9593 6.43094 23.9593C7.19753 23.9593 7.87262 23.6075 8.30615 23.0489C8.63157 22.6292 8.82118 22.1278 8.82118 21.569C8.82118 20.2421 7.75785 19.1788 6.43094 19.1788C5.90448 19.1788 5.42547 19.3469 5.03768 19.628ZM3.89781 18.3501C4.58944 17.8026 5.46906 17.4715 6.43094 17.4715C8.70077 17.4715 10.5285 19.2992 10.5285 21.569C10.5285 22.5354 10.1946 23.3998 9.65511 24.0954C8.9049 25.062 7.73589 25.6666 6.43094 25.6666C4.1611 25.6666 2.33337 23.8389 2.33337 21.569C2.33337 20.3071 2.90863 19.1764 3.80371 18.4368C3.83266 18.4058 3.86408 18.3768 3.89781 18.3501Z" fill="#7250D1"/>
<path fill-rule="evenodd" clip-rule="evenodd" d="M10.1885 4.79952C10.4056 5.29581 10.5285 5.84454 10.5285 6.43081C10.5285 8.70065 8.70077 10.5284 6.43094 10.5284C5.84467 10.5284 5.29594 10.4055 4.79964 10.1883C4.3088 11.3622 4.04069 12.6488 4.04069 13.9999C4.04069 15.3596 4.30856 16.6403 4.79929 17.8117C5.29568 17.5944 5.84453 17.4715 6.43094 17.4715C8.70077 17.4715 10.5285 19.2992 10.5285 21.569C10.5285 22.151 10.4073 22.7028 10.1903 23.2011C11.3637 23.6914 12.6497 23.9593 14 23.9593C15.3597 23.9593 16.6404 23.6914 17.8118 23.2007C17.5945 22.7043 17.4716 22.1554 17.4716 21.569C17.4716 19.2992 19.2993 17.4715 21.5691 17.4715C22.1512 17.4715 22.7032 17.5927 23.2016 17.8098C23.6918 16.6389 23.9594 15.3589 23.9594 13.9999C23.9594 12.6488 23.6913 11.3622 23.2004 10.1883C22.7041 10.4055 22.1554 10.5284 21.5691 10.5284C19.2993 10.5284 17.4716 8.70065 17.4716 6.43081C17.4716 5.84874 17.5928 5.29679 17.8099 4.7984C16.639 4.30815 15.359 4.04057 14 4.04057C12.649 4.04057 11.3623 4.30868 10.1885 4.79952ZM8.58059 3.67339C10.2046 2.81218 12.049 2.33325 14 2.33325C15.9629 2.33325 17.7959 2.8124 19.4195 3.67339C19.6434 3.79213 19.803 4.00424 19.855 4.2523C19.9071 4.50035 19.8462 4.75871 19.6889 4.95743C19.3714 5.35848 19.1789 5.86749 19.1789 6.43081C19.1789 7.75773 20.2422 8.82106 21.5691 8.82106C22.128 8.82106 22.6295 8.63137 23.0493 8.30583C23.2484 8.15142 23.5055 8.09286 23.7518 8.14582C23.9982 8.19879 24.2085 8.35787 24.3266 8.58047C25.1878 10.2045 25.6667 12.0489 25.6667 13.9999C25.6667 15.9628 25.1876 17.7958 24.3266 19.4194C24.2078 19.6433 23.9957 19.8029 23.7477 19.8549C23.4996 19.9069 23.2413 19.8461 23.0425 19.6887C22.6415 19.3712 22.1325 19.1788 21.5691 19.1788C20.2422 19.1788 19.1789 20.2421 19.1789 21.569C19.1789 22.1279 19.3686 22.6294 19.6941 23.0491C19.8485 23.2482 19.9071 23.5054 19.8541 23.7517C19.8012 23.9981 19.6421 24.2084 19.4195 24.3265C17.7959 25.1874 15.9629 25.6666 14 25.6666C12.049 25.6666 10.2046 25.1877 8.58059 24.3265C8.35667 24.2077 8.19709 23.9956 8.14506 23.7475C8.09302 23.4995 8.1539 23.2411 8.31122 23.0424C8.62872 22.6414 8.82118 22.1324 8.82118 21.569C8.82118 20.2421 7.75785 19.1788 6.43094 19.1788C5.87209 19.1788 5.37061 19.3685 4.95082 19.694C4.75172 19.8484 4.49457 19.907 4.24824 19.854C4.00191 19.8011 3.79155 19.642 3.67351 19.4194C2.81252 17.7958 2.33337 15.9628 2.33337 13.9999C2.33337 12.0489 2.8123 10.2045 3.67351 8.58047C3.79155 8.35787 4.00191 8.19879 4.24824 8.14582C4.49457 8.09286 4.75172 8.15142 4.95082 8.30583C5.37061 8.63137 5.87209 8.82106 6.43094 8.82106C7.75785 8.82106 8.82118 7.75772 8.82118 6.43081C8.82118 5.87197 8.6315 5.37048 8.30595 4.9507C8.15154 4.7516 8.09298 4.49445 8.14594 4.24812C8.19891 4.00178 8.35799 3.79143 8.58059 3.67339Z" fill="#7250D1"/>
</svg>
