<svg width="28" height="28" viewBox="0 0 28 28" fill="none" xmlns="http://www.w3.org/2000/svg">
<path d="M24.8528 11.0518H3.14733C2.70237 11.0518 2.33337 10.6873 2.33337 10.2478C2.33337 9.80824 2.70237 9.44373 3.14733 9.44373H24.8528C25.2977 9.44373 25.6667 9.80824 25.6667 10.2478C25.6667 10.6873 25.2977 11.0518 24.8528 11.0518Z" fill="#2B6AD1"/>
<path d="M9.65896 19.6284H7.48841C7.04345 19.6284 6.67446 19.2639 6.67446 18.8244C6.67446 18.3848 7.04345 18.0203 7.48841 18.0203H9.65896C10.1039 18.0203 10.4729 18.3848 10.4729 18.8244C10.4729 19.2639 10.1039 19.6284 9.65896 19.6284Z" fill="#2B6AD1"/>
<path d="M16.7132 19.6284H12.3721C11.9272 19.6284 11.5582 19.2639 11.5582 18.8244C11.5582 18.3848 11.9272 18.0203 12.3721 18.0203H16.7132C17.1582 18.0203 17.5272 18.3848 17.5272 18.8244C17.5272 19.2639 17.1582 19.6284 16.7132 19.6284Z" fill="#2B6AD1"/>
<path d="M20.0342 23.9167H7.96593C3.64655 23.9167 2.33337 22.6302 2.33337 18.4063V9.59382C2.33337 5.36986 3.64655 4.08337 7.96593 4.08337H20.0233C24.3427 4.08337 25.6559 5.36986 25.6559 9.59382V18.3955C25.6667 22.6302 24.3535 23.9167 20.0342 23.9167ZM7.96593 5.69148C4.55818 5.69148 3.96128 6.2704 3.96128 9.59382V18.3955C3.96128 21.719 4.55818 22.2979 7.96593 22.2979H20.0233C23.431 22.2979 24.0279 21.719 24.0279 18.3955V9.59382C24.0279 6.2704 23.431 5.69148 20.0233 5.69148H7.96593Z" fill="#2B6AD1"/>
</svg>
