<svg width="28" height="28" viewBox="0 0 28 28" fill="none" xmlns="http://www.w3.org/2000/svg">
<path d="M25.6667 8.80883C25.6667 9.57883 25.0367 10.2088 24.2667 10.2088H3.73337C2.96337 10.2088 2.33337 9.57883 2.33337 8.80883V8.79716C2.33337 6.1255 4.49171 3.96716 7.16337 3.96716H20.825C23.4967 3.96716 25.6667 6.13716 25.6667 8.80883Z" fill="#2B6AD1"/>
<path d="M2.33337 13.3588V19.2038C2.33337 21.8755 4.49171 24.0338 7.16337 24.0338H20.825C23.4967 24.0338 25.6667 21.8638 25.6667 19.1922V13.3588C25.6667 12.5888 25.0367 11.9588 24.2667 11.9588H3.73337C2.96337 11.9588 2.33337 12.5888 2.33337 13.3588ZM9.33337 20.1255H7.00004C6.52171 20.1255 6.12504 19.7288 6.12504 19.2505C6.12504 18.7722 6.52171 18.3755 7.00004 18.3755H9.33337C9.81171 18.3755 10.2084 18.7722 10.2084 19.2505C10.2084 19.7288 9.81171 20.1255 9.33337 20.1255ZM16.9167 20.1255H12.25C11.7717 20.1255 11.375 19.7288 11.375 19.2505C11.375 18.7722 11.7717 18.3755 12.25 18.3755H16.9167C17.395 18.3755 17.7917 18.7722 17.7917 19.2505C17.7917 19.7288 17.395 20.1255 16.9167 20.1255Z" fill="#2B6AD1"/>
</svg>
