<svg width="28" height="28" viewBox="0 0 28 28" fill="none" xmlns="http://www.w3.org/2000/svg">
<path d="M14 25.0834C13.6745 25.0834 13.3489 25.0065 13.0776 24.8525C11.0481 23.7311 7.47756 22.5437 5.2419 22.2468L4.92717 22.2029C3.50547 22.0269 2.33337 20.6746 2.33337 19.2123V5.93095C2.33337 5.06239 2.66981 4.27078 3.28841 3.69906C3.90702 3.12735 4.71012 2.85249 5.55663 2.92945C7.94423 3.11635 11.5473 4.32575 13.5876 5.62311L13.8481 5.77703C13.9241 5.82101 14.0869 5.82101 14.152 5.78802L14.3256 5.67808C16.3659 4.38072 19.969 3.14934 22.3675 2.94044C22.3892 2.94044 22.476 2.94044 22.4977 2.94044C23.29 2.86348 24.1039 3.14934 24.7117 3.72105C25.3303 4.29277 25.6667 5.08437 25.6667 5.95294V19.2233C25.6667 20.6966 24.4946 22.0379 23.0621 22.2138L22.7039 22.2578C20.4683 22.5547 16.8869 23.7531 14.9008 24.8635C14.6404 25.0174 14.3256 25.0834 14 25.0834ZM5.29616 4.56763C4.94888 4.56763 4.63415 4.68857 4.38454 4.91946C4.11322 5.17233 3.96128 5.53515 3.96128 5.93095V19.2123C3.96128 19.861 4.51477 20.4877 5.13337 20.5757L5.45896 20.6196C7.90082 20.9495 11.645 22.1919 13.8155 23.3903C13.9132 23.4342 14.0543 23.4452 14.1086 23.4232C16.2791 22.2029 20.045 20.9495 22.4977 20.6196L22.8667 20.5757C23.4853 20.4987 24.0388 19.861 24.0388 19.2123V5.94195C24.0388 5.53515 23.8869 5.18333 23.6155 4.91946C23.3334 4.66658 22.9752 4.54564 22.5737 4.56763C22.552 4.56763 22.4652 4.56763 22.4435 4.56763C20.3706 4.75454 17.0279 5.88697 15.2047 7.0414L15.031 7.16234C14.4341 7.53615 13.5876 7.53615 13.0124 7.17333L12.752 7.01941C10.8962 5.86499 7.55353 4.74354 5.4264 4.56763C5.38299 4.56763 5.33958 4.56763 5.29616 4.56763Z" fill="#7250D1"/>
<path d="M14 24.1599C13.5551 24.1599 13.1861 23.7861 13.1861 23.3353V6.8435C13.1861 6.39272 13.5551 6.01891 14 6.01891C14.445 6.01891 14.814 6.39272 14.814 6.8435V23.3353C14.814 23.7971 14.445 24.1599 14 24.1599Z" fill="#7250D1"/>
<path d="M9.38764 10.9664H6.94578C6.50082 10.9664 6.13182 10.5926 6.13182 10.1419C6.13182 9.69108 6.50082 9.31727 6.94578 9.31727H9.38764C9.8326 9.31727 10.2016 9.69108 10.2016 10.1419C10.2016 10.5926 9.8326 10.9664 9.38764 10.9664Z" fill="#7250D1"/>
<path d="M10.2016 14.2648H6.94578C6.50082 14.2648 6.13182 13.891 6.13182 13.4402C6.13182 12.9894 6.50082 12.6156 6.94578 12.6156H10.2016C10.6466 12.6156 11.0155 12.9894 11.0155 13.4402C11.0155 13.891 10.6466 14.2648 10.2016 14.2648Z" fill="#7250D1"/>
</svg>
