<svg width="28" height="28" viewBox="0 0 28 28" fill="none" xmlns="http://www.w3.org/2000/svg">
<path d="M13.9999 25.0834C13.6743 25.0834 13.3488 25.0065 13.0774 24.8525C11.048 23.7311 7.47744 22.5437 5.24178 22.2468L4.92705 22.2028C3.50535 22.0269 2.33325 20.6746 2.33325 19.2123V5.93095C2.33325 5.06238 2.66969 4.27078 3.28829 3.69906C3.9069 3.12735 4.71 2.85249 5.55651 2.92945C7.94411 3.11635 11.5472 4.32575 13.5875 5.62311L13.848 5.77703C13.9239 5.82101 14.0867 5.82101 14.1519 5.78802L14.3255 5.67808C16.3658 4.38072 19.9689 3.14934 22.3674 2.94044C22.3891 2.94044 22.4759 2.94044 22.4976 2.94044C23.2898 2.86348 24.1038 3.14934 24.7115 3.72105C25.3302 4.29277 25.6666 5.08437 25.6666 5.95294V19.2233C25.6666 20.6966 24.4945 22.0379 23.0619 22.2138L22.7038 22.2578C20.4681 22.5547 16.8867 23.7531 14.9007 24.8635C14.6402 25.0174 14.3255 25.0834 13.9999 25.0834ZM5.29604 4.56763C4.94876 4.56763 4.63403 4.68857 4.38442 4.91946C4.1131 5.17233 3.96116 5.53515 3.96116 5.93095V19.2123C3.96116 19.861 4.51465 20.4877 5.13325 20.5757L5.45883 20.6196C7.90069 20.9495 11.6449 22.1919 13.8154 23.3903C13.9131 23.4342 14.0542 23.4452 14.1084 23.4232C16.279 22.2028 20.0449 20.9495 22.4976 20.6196L22.8666 20.5757C23.4852 20.4987 24.0387 19.861 24.0387 19.2123V5.94195C24.0387 5.53515 23.8867 5.18332 23.6154 4.91946C23.3333 4.66658 22.9751 4.54564 22.5736 4.56763C22.5519 4.56763 22.465 4.56763 22.4433 4.56763C20.3705 4.75454 17.0278 5.88697 15.2046 7.0414L15.0309 7.16234C14.434 7.53615 13.5875 7.53615 13.0123 7.17333L12.7519 7.01941C10.896 5.86499 7.55341 4.74354 5.42628 4.56763C5.38286 4.56763 5.33945 4.56763 5.29604 4.56763Z" fill="#F5A304"/>
<path d="M13.9999 24.1599C13.555 24.1599 13.186 23.7861 13.186 23.3353V6.8435C13.186 6.39272 13.555 6.01891 13.9999 6.01891C14.4449 6.01891 14.8139 6.39272 14.8139 6.8435V23.3353C14.8139 23.7971 14.4449 24.1599 13.9999 24.1599Z" fill="#F5A304"/>
<path d="M9.38752 10.9664H6.94566C6.50069 10.9664 6.1317 10.5926 6.1317 10.1419C6.1317 9.69108 6.50069 9.31727 6.94566 9.31727H9.38752C9.83248 9.31727 10.2015 9.69108 10.2015 10.1419C10.2015 10.5926 9.83248 10.9664 9.38752 10.9664Z" fill="#F5A304"/>
<path d="M10.2015 14.2648H6.94566C6.50069 14.2648 6.1317 13.891 6.1317 13.4402C6.1317 12.9894 6.50069 12.6156 6.94566 12.6156H10.2015C10.6464 12.6156 11.0154 12.9894 11.0154 13.4402C11.0154 13.891 10.6464 14.2648 10.2015 14.2648Z" fill="#F5A304"/>
</svg>
