<svg width="28" height="28" viewBox="0 0 28 28" fill="none" xmlns="http://www.w3.org/2000/svg">
<path d="M25.667 5.65789V19.5296C25.667 20.6612 24.7454 21.6996 23.6137 21.8396L23.252 21.8862C21.3387 22.1429 18.6437 22.9362 16.4737 23.8462C15.7154 24.1612 14.8754 23.5896 14.8754 22.7612V6.53289C14.8754 6.10122 15.1204 5.70455 15.5054 5.49455C17.6404 4.33955 20.872 3.31289 23.0654 3.12622H23.1354C24.5354 3.12622 25.667 4.25789 25.667 5.65789Z" fill="#F5A304"/>
<path d="M12.4954 5.49455C10.3604 4.33955 7.12869 3.31289 4.93535 3.12622H4.85369C3.45369 3.12622 2.32202 4.25789 2.32202 5.65789V19.5296C2.32202 20.6612 3.24369 21.6996 4.37535 21.8396L4.73702 21.8862C6.65035 22.1429 9.34535 22.9362 11.5154 23.8462C12.2737 24.1612 13.1137 23.5896 13.1137 22.7612V6.53289C13.1137 6.08955 12.8804 5.70455 12.4954 5.49455ZM5.83369 9.02955H8.45869C8.93702 9.02955 9.33369 9.42622 9.33369 9.90455C9.33369 10.3946 8.93702 10.7796 8.45869 10.7796H5.83369C5.35535 10.7796 4.95869 10.3946 4.95869 9.90455C4.95869 9.42622 5.35535 9.02955 5.83369 9.02955ZM9.33369 14.2796H5.83369C5.35535 14.2796 4.95869 13.8946 4.95869 13.4046C4.95869 12.9262 5.35535 12.5296 5.83369 12.5296H9.33369C9.81202 12.5296 10.2087 12.9262 10.2087 13.4046C10.2087 13.8946 9.81202 14.2796 9.33369 14.2796Z" fill="#F5A304"/>
</svg>
