<svg width="28" height="28" viewBox="0 0 28 28" fill="none" xmlns="http://www.w3.org/2000/svg">
<path d="M25.6669 5.65789V19.5296C25.6669 20.6612 24.7452 21.6996 23.6136 21.8396L23.2519 21.8862C21.3386 22.1429 18.6436 22.9362 16.4736 23.8462C15.7152 24.1612 14.8752 23.5896 14.8752 22.7612V6.53289C14.8752 6.10122 15.1202 5.70455 15.5052 5.49455C17.6402 4.33955 20.8719 3.31289 23.0652 3.12622H23.1352C24.5352 3.12622 25.6669 4.25789 25.6669 5.65789Z" fill="#7250D1"/>
<path d="M12.4952 5.49455C10.3602 4.33955 7.12857 3.31289 4.93523 3.12622H4.85357C3.45357 3.12622 2.3219 4.25789 2.3219 5.65789V19.5296C2.3219 20.6612 3.24357 21.6996 4.37523 21.8396L4.7369 21.8862C6.65023 22.1429 9.34523 22.9362 11.5152 23.8462C12.2736 24.1612 13.1136 23.5896 13.1136 22.7612V6.53289C13.1136 6.08955 12.8802 5.70455 12.4952 5.49455ZM5.83357 9.02955H8.45857C8.9369 9.02955 9.33357 9.42622 9.33357 9.90455C9.33357 10.3946 8.9369 10.7796 8.45857 10.7796H5.83357C5.35523 10.7796 4.95857 10.3946 4.95857 9.90455C4.95857 9.42622 5.35523 9.02955 5.83357 9.02955ZM9.33357 14.2796H5.83357C5.35523 14.2796 4.95857 13.8946 4.95857 13.4046C4.95857 12.9262 5.35523 12.5296 5.83357 12.5296H9.33357C9.8119 12.5296 10.2086 12.9262 10.2086 13.4046C10.2086 13.8946 9.8119 14.2796 9.33357 14.2796Z" fill="#7250D1"/>
</svg>
