<svg width="28" height="28" viewBox="0 0 28 28" fill="none" xmlns="http://www.w3.org/2000/svg">
<path d="M11.8294 20.185H7.71626C3.59223 20.185 2.33331 18.9261 2.33331 14.802V8.29042C2.33331 4.16639 3.59223 2.90747 7.71626 2.90747H19.1442C23.2682 2.90747 24.5271 4.16639 24.5271 8.29042C24.5271 8.73538 24.1581 9.10437 23.7132 9.10437C23.2682 9.10437 22.8992 8.73538 22.8992 8.29042C22.8992 5.09972 22.3349 4.53538 19.1442 4.53538H7.71626C4.52556 4.53538 3.96122 5.09972 3.96122 8.29042V14.802C3.96122 17.9927 4.52556 18.5571 7.71626 18.5571H11.8294C12.2744 18.5571 12.6434 18.9261 12.6434 19.371C12.6434 19.816 12.2744 20.185 11.8294 20.185Z" fill="#2B6AD1"/>
<path d="M11.8294 25.0904C11.3845 25.0904 11.0155 24.7214 11.0155 24.2765V19.3602C11.0155 18.9152 11.3845 18.5462 11.8294 18.5462C12.2744 18.5462 12.6434 18.9152 12.6434 19.3602V24.2765C12.6434 24.7323 12.2744 25.0904 11.8294 25.0904Z" fill="#2B6AD1"/>
<path d="M11.8294 15.8439H3.14727C2.70231 15.8439 2.33331 15.4749 2.33331 15.03C2.33331 14.585 2.70231 14.216 3.14727 14.216H11.8294C12.2744 14.216 12.6434 14.585 12.6434 15.03C12.6434 15.4749 12.2744 15.8439 11.8294 15.8439Z" fill="#2B6AD1"/>
<path d="M11.8294 25.0904H8.29145C7.84649 25.0904 7.4775 24.7214 7.4775 24.2765C7.4775 23.8315 7.84649 23.4625 8.29145 23.4625H11.8294C12.2744 23.4625 12.6434 23.8315 12.6434 24.2765C12.6434 24.7214 12.2744 25.0904 11.8294 25.0904Z" fill="#2B6AD1"/>
<path d="M21.6403 25.0904H17.7876C14.7814 25.0904 13.7612 24.0703 13.7612 21.0641V14.8672C13.7612 11.861 14.7814 10.8408 17.7876 10.8408H21.6403C24.6465 10.8408 25.6666 11.861 25.6666 14.8672V21.0641C25.6666 24.0811 24.6465 25.0904 21.6403 25.0904ZM17.7876 12.4687C15.6604 12.4687 15.3891 12.74 15.3891 14.8672V21.0641C15.3891 23.1912 15.6604 23.4625 17.7876 23.4625H21.6403C23.7674 23.4625 24.0387 23.1912 24.0387 21.0641V14.8672C24.0387 12.74 23.7674 12.4687 21.6403 12.4687H17.7876Z" fill="#2B6AD1"/>
<path d="M19.7519 21.5633C19.4697 21.5633 19.1876 21.4548 18.9814 21.2486C18.8837 21.1509 18.8077 21.0315 18.7535 20.9013C18.6992 20.7602 18.6666 20.6191 18.6666 20.478C18.6666 20.1958 18.786 19.9137 18.9814 19.7183C19.231 19.4687 19.6108 19.3493 19.969 19.4144C20.0341 19.4362 20.0992 19.4579 20.1643 19.4796C20.2294 19.5121 20.2946 19.5447 20.3488 19.5772C20.4139 19.6206 20.4682 19.6641 20.5225 19.7183C20.7178 19.9137 20.8372 20.1958 20.8372 20.478C20.8372 20.6191 20.8046 20.7602 20.7504 20.9013C20.6961 21.0315 20.6201 21.1509 20.5225 21.2486C20.4682 21.3028 20.4139 21.3462 20.3488 21.3788C20.2946 21.4222 20.2294 21.4548 20.1643 21.4873C20.0992 21.509 20.0341 21.5307 19.969 21.5416C19.893 21.5633 19.8279 21.5633 19.7519 21.5633Z" fill="#2B6AD1"/>
</svg>
