<svg width="28" height="28" viewBox="0 0 28 28" fill="none" xmlns="http://www.w3.org/2000/svg">
<path d="M11.8295 20.185H7.71632C3.59229 20.185 2.33337 18.9261 2.33337 14.802V8.29042C2.33337 4.16639 3.59229 2.90747 7.71632 2.90747H19.1442C23.2683 2.90747 24.5272 4.16639 24.5272 8.29042C24.5272 8.73538 24.1582 9.10437 23.7132 9.10437C23.2683 9.10437 22.8993 8.73538 22.8993 8.29042C22.8993 5.09972 22.3349 4.53538 19.1442 4.53538H7.71632C4.52562 4.53538 3.96128 5.09972 3.96128 8.29042V14.802C3.96128 17.9927 4.52562 18.5571 7.71632 18.5571H11.8295C12.2745 18.5571 12.6435 18.9261 12.6435 19.371C12.6435 19.816 12.2745 20.185 11.8295 20.185Z" fill="#C54208"/>
<path d="M11.8295 25.0904C11.3845 25.0904 11.0155 24.7214 11.0155 24.2765V19.3602C11.0155 18.9152 11.3845 18.5462 11.8295 18.5462C12.2745 18.5462 12.6435 18.9152 12.6435 19.3602V24.2765C12.6435 24.7323 12.2745 25.0904 11.8295 25.0904Z" fill="#C54208"/>
<path d="M11.8295 15.8439H3.14733C2.70237 15.8439 2.33337 15.4749 2.33337 15.03C2.33337 14.585 2.70237 14.216 3.14733 14.216H11.8295C12.2745 14.216 12.6435 14.585 12.6435 15.03C12.6435 15.4749 12.2745 15.8439 11.8295 15.8439Z" fill="#C54208"/>
<path d="M11.8295 25.0904H8.29151C7.84655 25.0904 7.47756 24.7214 7.47756 24.2765C7.47756 23.8315 7.84655 23.4625 8.29151 23.4625H11.8295C12.2745 23.4625 12.6435 23.8315 12.6435 24.2765C12.6435 24.7214 12.2745 25.0904 11.8295 25.0904Z" fill="#C54208"/>
<path d="M21.6404 25.0904H17.7876C14.7814 25.0904 13.7613 24.0703 13.7613 21.0641V14.8672C13.7613 11.861 14.7814 10.8408 17.7876 10.8408H21.6404C24.6466 10.8408 25.6667 11.861 25.6667 14.8672V21.0641C25.6667 24.0811 24.6466 25.0904 21.6404 25.0904ZM17.7876 12.4687C15.6605 12.4687 15.3892 12.74 15.3892 14.8672V21.0641C15.3892 23.1912 15.6605 23.4625 17.7876 23.4625H21.6404C23.7675 23.4625 24.0388 23.1912 24.0388 21.0641V14.8672C24.0388 12.74 23.7675 12.4687 21.6404 12.4687H17.7876Z" fill="#C54208"/>
<path d="M19.752 21.5633C19.4698 21.5633 19.1876 21.4548 18.9814 21.2486C18.8838 21.1509 18.8078 21.0315 18.7535 20.9013C18.6993 20.7602 18.6667 20.6191 18.6667 20.478C18.6667 20.1958 18.7861 19.9137 18.9814 19.7183C19.231 19.4687 19.6109 19.3493 19.969 19.4144C20.0342 19.4362 20.0993 19.4579 20.1644 19.4796C20.2295 19.5121 20.2946 19.5447 20.3489 19.5772C20.414 19.6206 20.4683 19.6641 20.5225 19.7183C20.7179 19.9137 20.8373 20.1958 20.8373 20.478C20.8373 20.6191 20.8047 20.7602 20.7504 20.9013C20.6962 21.0315 20.6202 21.1509 20.5225 21.2486C20.4683 21.3028 20.414 21.3462 20.3489 21.3788C20.2946 21.4222 20.2295 21.4548 20.1644 21.4873C20.0993 21.509 20.0342 21.5307 19.969 21.5416C19.8931 21.5633 19.8279 21.5633 19.752 21.5633Z" fill="#C54208"/>
</svg>
