<svg width="28" height="28" viewBox="0 0 28 28" fill="none" xmlns="http://www.w3.org/2000/svg">
<path d="M24.4881 11.3283C24.0914 11.1649 23.5664 11.0833 22.9131 11.0833H16.7531C14.7231 11.0833 13.9997 11.8066 13.9997 13.8599V22.8899C13.9997 23.5666 14.0814 24.0916 14.2564 24.4999C14.6181 25.3399 15.3881 25.6666 16.7531 25.6666H22.9131C24.9431 25.6666 25.6664 24.9316 25.6664 22.8899V13.8599C25.6664 12.4716 25.3397 11.6899 24.4881 11.3283ZM20.9997 23.0416H18.6664C18.6431 23.0416 18.6081 23.0416 18.5847 23.0299C18.4097 23.0183 18.2581 22.9599 18.1297 22.8433C17.9197 22.6916 17.7914 22.4466 17.7914 22.1666C17.7914 21.6883 18.1881 21.2916 18.6664 21.2916H20.9997C21.4781 21.2916 21.8747 21.6883 21.8747 22.1666C21.8747 22.6449 21.4781 23.0416 20.9997 23.0416Z" fill="#2B6AD1"/>
<path d="M24.4881 7.22159V8.16658C24.4881 8.80825 23.9631 9.33325 23.3214 9.33325H16.7531C13.7664 9.33325 12.2497 10.8616 12.2497 13.8599V24.4999C12.2497 25.1416 11.7247 25.6666 11.0831 25.6666H8.80806C8.34139 25.6666 7.96806 25.2933 7.96806 24.8383C7.96806 24.3716 8.34139 24.0099 8.80806 24.0099H11.0831V19.5416H6.99973C4.40973 19.4133 2.34473 17.2783 2.34473 14.6533V7.22159C2.34473 4.52659 4.53806 2.33325 7.24473 2.33325H19.5997C22.2947 2.33325 24.4881 4.52659 24.4881 7.22159Z" fill="#2B6AD1"/>
</svg>
