<svg width="28" height="28" viewBox="0 0 28 28" fill="none" xmlns="http://www.w3.org/2000/svg">
<path d="M14.8751 18.5737H15.6334C16.3917 18.5737 17.0217 17.8971 17.0217 17.0804C17.0217 16.0654 16.6601 15.8671 16.0651 15.6571L14.8867 15.2487V18.5737H14.8751Z" fill="#11A45D"/>
<path d="M13.9651 2.21706C7.52506 2.24039 2.31006 7.47873 2.33339 13.9187C2.35672 20.3587 7.59506 25.5737 14.0351 25.5504C20.4751 25.5271 25.6901 20.2887 25.6667 13.8487C25.6434 7.40873 20.4051 2.20539 13.9651 2.21706ZM16.6367 14.0004C17.5467 14.3154 18.7717 14.9921 18.7717 17.0804C18.7717 18.8771 17.3601 20.3237 15.6334 20.3237H14.8751V21.0004C14.8751 21.4787 14.4784 21.8754 14.0001 21.8754C13.5217 21.8754 13.1251 21.4787 13.1251 21.0004V20.3237H12.7051C10.7917 20.3237 9.24006 18.7137 9.24006 16.7304C9.24006 16.2521 9.63672 15.8554 10.1151 15.8554C10.5934 15.8554 10.9901 16.2521 10.9901 16.7304C10.9901 17.7454 11.7601 18.5737 12.7051 18.5737H13.1251V14.6304L11.3634 14.0004C10.4534 13.6854 9.22839 13.0087 9.22839 10.9204C9.22839 9.12373 10.6401 7.67706 12.3667 7.67706H13.1251V7.00039C13.1251 6.52206 13.5217 6.12539 14.0001 6.12539C14.4784 6.12539 14.8751 6.52206 14.8751 7.00039V7.67706H15.2951C17.2084 7.67706 18.7601 9.28706 18.7601 11.2704C18.7601 11.7487 18.3634 12.1454 17.8851 12.1454C17.4067 12.1454 17.0101 11.7487 17.0101 11.2704C17.0101 10.2554 16.2401 9.42706 15.2951 9.42706H14.8751V13.3704L16.6367 14.0004Z" fill="#11A45D"/>
<path d="M10.9901 10.9321C10.9901 11.9471 11.3517 12.1454 11.9467 12.3554L13.1251 12.7637V9.42706H12.3667C11.6084 9.42706 10.9901 10.1037 10.9901 10.9321Z" fill="#11A45D"/>
</svg>
