<svg width="28" height="28" viewBox="0 0 28 28" fill="none" xmlns="http://www.w3.org/2000/svg">
<path d="M15.5194 19.8821H12.7953C11.0155 19.8821 9.57209 18.3844 9.57209 16.5395C9.57209 16.0945 9.94108 15.7255 10.386 15.7255C10.831 15.7255 11.2 16.0945 11.2 16.5395C11.2 17.4836 11.9163 18.2542 12.7953 18.2542H15.5194C16.2248 18.2542 16.8108 17.6247 16.8108 16.865C16.8108 15.9209 16.4744 15.7364 15.9209 15.541L11.5473 13.9999C10.7007 13.7069 9.56122 13.0774 9.56122 11.1348C9.56122 9.46348 10.8744 8.11775 12.4806 8.11775H15.2046C16.9845 8.11775 18.4279 9.61542 18.4279 11.4604C18.4279 11.9053 18.0589 12.2743 17.6139 12.2743C17.169 12.2743 16.8 11.9053 16.8 11.4604C16.8 10.5162 16.0837 9.74566 15.2046 9.74566H12.4806C11.7752 9.74566 11.1891 10.3751 11.1891 11.1348C11.1891 12.079 11.5256 12.2635 12.0791 12.4588L16.4527 13.9999C17.2992 14.2929 18.4387 14.9224 18.4387 16.865C18.4279 18.5255 17.1256 19.8821 15.5194 19.8821Z" fill="#11A45D"/>
<path d="M14 21.3255C13.555 21.3255 13.186 20.9565 13.186 20.5115V7.48829C13.186 7.04333 13.555 6.67434 14 6.67434C14.4449 6.67434 14.8139 7.04333 14.8139 7.48829V20.5115C14.8139 20.9565 14.4449 21.3255 14 21.3255Z" fill="#11A45D"/>
<path d="M14 25.6666C7.56432 25.6666 2.33331 20.4356 2.33331 13.9999C2.33331 7.56426 7.56432 2.33325 14 2.33325C20.4356 2.33325 25.6666 7.56426 25.6666 13.9999C25.6666 20.4356 20.4356 25.6666 14 25.6666ZM14 3.96116C8.4651 3.96116 3.96122 8.46504 3.96122 13.9999C3.96122 19.5348 8.4651 24.0387 14 24.0387C19.5349 24.0387 24.0387 19.5348 24.0387 13.9999C24.0387 8.46504 19.5349 3.96116 14 3.96116Z" fill="#11A45D"/>
</svg>
