<svg width="28" height="28" viewBox="0 0 28 28" fill="none" xmlns="http://www.w3.org/2000/svg">
<path d="M24.5221 3.81103C23.7221 2.89992 22.5333 2.33325 21.2221 2.33325C19.9777 2.33325 18.8444 2.84436 18.0332 3.6777C17.5666 4.15547 17.211 4.73325 16.9999 5.3777C16.8555 5.82214 16.7777 6.28881 16.7777 6.7777C16.7777 7.61103 17.011 8.39992 17.4221 9.06659C17.6444 9.44436 17.9333 9.78881 18.2666 10.0777C19.0444 10.7888 20.0777 11.2221 21.2221 11.2221C21.711 11.2221 22.1777 11.1444 22.611 10.9888C23.6333 10.6666 24.4888 9.96659 25.0221 9.06659C25.2555 8.68881 25.4333 8.25547 25.5333 7.81103C25.6221 7.4777 25.6666 7.13325 25.6666 6.7777C25.6666 5.64436 25.2332 4.59992 24.5221 3.81103ZM22.8777 7.58881H22.0555V8.45547C22.0555 8.91103 21.6777 9.28881 21.2221 9.28881C20.7666 9.28881 20.3888 8.91103 20.3888 8.45547V7.58881H19.5666C19.111 7.58881 18.7333 7.21103 18.7333 6.75547C18.7333 6.29992 19.111 5.92214 19.5666 5.92214H20.3888V5.13325C20.3888 4.6777 20.7666 4.29992 21.2221 4.29992C21.6777 4.29992 22.0555 4.6777 22.0555 5.13325V5.92214H22.8777C23.3333 5.92214 23.711 6.29992 23.711 6.75547C23.711 7.21103 23.3444 7.58881 22.8777 7.58881Z" fill="#2B6AD1"/>
<path d="M24.5555 14.5555C24.5555 13.0999 24.2777 11.6999 23.7555 10.4221C23.411 10.6666 23.0221 10.8555 22.611 10.9888C22.4888 11.0333 22.3666 11.0666 22.2332 11.0999C22.6555 12.1666 22.8888 13.3333 22.8888 14.5555C22.8888 17.1333 21.8444 19.4777 20.1555 21.1888C19.8333 20.7777 19.4221 20.3999 18.9333 20.0777C15.9221 18.0555 10.9888 18.0555 7.95547 20.0777C7.46659 20.3999 7.06659 20.7777 6.73325 21.1888C5.04436 19.4777 3.99992 17.1333 3.99992 14.5555C3.99992 9.34436 8.23325 5.11103 13.4444 5.11103C14.6555 5.11103 15.8221 5.34436 16.8888 5.76659C16.9221 5.63325 16.9555 5.51103 16.9999 5.3777C17.1333 4.96659 17.3221 4.58881 17.5777 4.24436C16.2999 3.72214 14.8999 3.44436 13.4444 3.44436C7.32214 3.44436 2.33325 8.43325 2.33325 14.5555C2.33325 17.7777 3.72214 20.6777 5.92214 22.711C5.92214 22.7221 5.92214 22.7221 5.91103 22.7333C6.02214 22.8444 6.15547 22.9333 6.26659 23.0333C6.33325 23.0888 6.38881 23.1444 6.45547 23.1888C6.65547 23.3555 6.8777 23.511 7.08881 23.6666C7.16659 23.7221 7.23325 23.7666 7.31103 23.8221C7.52214 23.9666 7.74436 24.0999 7.9777 24.2221C8.05547 24.2666 8.14436 24.3221 8.22214 24.3666C8.44436 24.4888 8.6777 24.5999 8.92214 24.6999C9.01103 24.7444 9.09992 24.7888 9.18881 24.8221C9.43325 24.9221 9.6777 25.011 9.92214 25.0888C10.011 25.1221 10.0999 25.1555 10.1888 25.1777C10.4555 25.2555 10.7221 25.3221 10.9888 25.3888C11.0666 25.411 11.1444 25.4333 11.2333 25.4444C11.5444 25.511 11.8555 25.5555 12.1777 25.5888C12.2221 25.5888 12.2666 25.5999 12.311 25.611C12.6888 25.6444 13.0666 25.6666 13.4444 25.6666C13.8221 25.6666 14.1999 25.6444 14.5666 25.611C14.611 25.611 14.6555 25.5999 14.6999 25.5888C15.0221 25.5555 15.3333 25.511 15.6444 25.4444C15.7221 25.4333 15.7999 25.3999 15.8888 25.3888C16.1555 25.3221 16.4333 25.2666 16.6888 25.1777C16.7777 25.1444 16.8666 25.111 16.9555 25.0888C17.1999 24.9999 17.4555 24.9221 17.6888 24.8221C17.7777 24.7888 17.8666 24.7444 17.9555 24.6999C18.1888 24.5999 18.4221 24.4888 18.6555 24.3666C18.7444 24.3221 18.8221 24.2666 18.8999 24.2221C19.1221 24.0888 19.3444 23.9666 19.5666 23.8221C19.6444 23.7777 19.711 23.7221 19.7888 23.6666C20.011 23.511 20.2221 23.3555 20.4221 23.1888C20.4888 23.1333 20.5444 23.0777 20.611 23.0333C20.7333 22.9333 20.8555 22.8333 20.9666 22.7333C20.9666 22.7221 20.9666 22.7221 20.9555 22.711C23.1666 20.6777 24.5555 17.7777 24.5555 14.5555Z" fill="#2B6AD1"/>
<path d="M13.4444 8.92214C11.1444 8.92214 9.2777 10.7888 9.2777 13.0888C9.2777 15.3444 11.0444 17.1777 13.3888 17.2444C13.4221 17.2444 13.4666 17.2444 13.4888 17.2444C13.511 17.2444 13.5444 17.2444 13.5666 17.2444C13.5777 17.2444 13.5888 17.2444 13.5888 17.2444C15.8333 17.1666 17.5999 15.3444 17.611 13.0888C17.611 10.7888 15.7444 8.92214 13.4444 8.92214Z" fill="#2B6AD1"/>
</svg>
