<svg width="28" height="28" viewBox="0 0 28 28" fill="none" xmlns="http://www.w3.org/2000/svg">
<path d="M12.9166 17.0903C10.8849 17.0903 9.22638 15.431 9.22638 13.3984C9.22638 11.3658 10.8849 9.70657 12.9166 9.70657C14.9483 9.70657 16.6068 11.3658 16.6068 13.3984C16.6068 15.431 14.9483 17.0903 12.9166 17.0903ZM12.9166 11.2725C11.7453 11.2725 10.7812 12.2266 10.7812 13.4088C10.7812 14.591 11.7349 15.5451 12.9166 15.5451C14.0983 15.5451 15.0519 14.591 15.0519 13.4088C15.0519 12.2266 14.0983 11.2725 12.9166 11.2725Z" fill="#2B6AD1"/>
<path d="M18.2965 23.7999C17.8715 23.7999 17.5191 23.4473 17.5191 23.0222C17.5191 21.031 15.4563 19.4132 12.9167 19.4132C10.3771 19.4132 8.31432 21.031 8.31432 23.0222C8.31432 23.4473 7.96188 23.7999 7.53688 23.7999C7.11189 23.7999 6.75945 23.4473 6.75945 23.0222C6.75945 20.1807 9.51674 17.8577 12.9167 17.8577C16.3167 17.8577 19.074 20.1703 19.074 23.0222C19.074 23.4473 18.7215 23.7999 18.2965 23.7999Z" fill="#2B6AD1"/>
<path d="M12.9582 25.6666C7.1015 25.6666 2.33325 20.8962 2.33325 15.037C2.33325 9.1777 7.1015 4.40733 12.9582 4.40733C14.399 4.40733 15.788 4.68731 17.0941 5.23694C17.4673 5.3925 17.6538 5.8073 17.5295 6.191C17.4154 6.53322 17.3636 6.89621 17.3636 7.25918C17.3636 7.87103 17.5295 8.47249 17.8508 8.99101C18.0167 9.28138 18.2343 9.54063 18.4831 9.75841C19.3849 10.5777 20.7221 10.837 21.7691 10.4636C22.1526 10.3185 22.588 10.5155 22.7434 10.8992C23.3032 12.2162 23.5831 13.6162 23.5831 15.0473C23.5831 20.8962 18.8148 25.6666 12.9582 25.6666ZM12.9582 5.96288C7.96186 5.96288 3.88812 10.0281 3.88812 15.037C3.88812 20.0458 7.96186 24.111 12.9582 24.111C17.9545 24.111 22.0282 20.0458 22.0282 15.037C22.0282 14.0414 21.8623 13.0562 21.5514 12.1125C20.1209 12.3614 18.5557 11.9155 17.4569 10.9096C17.0941 10.5985 16.7728 10.2147 16.524 9.78955C16.0679 9.04288 15.8191 8.1614 15.8191 7.25918C15.8191 6.97918 15.8398 6.70957 15.8917 6.43994C14.9484 6.11846 13.9636 5.96288 12.9582 5.96288Z" fill="#2B6AD1"/>
<path d="M20.7325 12.1851C19.5093 12.1851 18.3484 11.7288 17.4465 10.9096C17.0837 10.5985 16.7624 10.2147 16.5136 9.78955C16.0575 9.04288 15.8087 8.1614 15.8087 7.25918C15.8087 6.73029 15.8917 6.21178 16.0575 5.714C16.2856 5.00882 16.6795 4.35548 17.2081 3.82659C18.141 2.87251 19.3953 2.33325 20.7428 2.33325C22.1526 2.33325 23.4898 2.93475 24.402 3.97179C25.2105 4.87401 25.6666 6.03547 25.6666 7.25918C25.6666 7.65325 25.6148 8.04732 25.5111 8.42065C25.4074 8.88732 25.2105 9.37475 24.941 9.79993C24.3398 10.8162 23.3861 11.5733 22.2666 11.9258C21.8002 12.1021 21.2819 12.1851 20.7325 12.1851ZM20.7325 3.88881C19.8099 3.88881 18.9496 4.25175 18.3173 4.90508C17.9545 5.27842 17.6953 5.70359 17.5398 6.191C17.4258 6.53322 17.374 6.89621 17.374 7.25918C17.374 7.87103 17.5398 8.47249 17.8612 8.99101C18.027 9.28138 18.2447 9.54063 18.4935 9.75841C19.3953 10.5777 20.7325 10.837 21.7794 10.4636C22.5672 10.2148 23.2099 9.69621 23.6245 9.00139C23.8111 8.70065 23.9355 8.3792 24.0081 8.05772C24.0806 7.78809 24.1117 7.52881 24.1117 7.25918C24.1117 6.42955 23.8007 5.63105 23.241 5.00883C22.6087 4.29327 21.6965 3.88881 20.7325 3.88881Z" fill="#2B6AD1"/>
<path d="M22.277 8.01619H19.1776C18.7526 8.01619 18.4002 7.6636 18.4002 7.23842C18.4002 6.81323 18.7526 6.46064 19.1776 6.46064H22.277C22.702 6.46064 23.0544 6.81323 23.0544 7.23842C23.0544 7.6636 22.7123 8.01619 22.277 8.01619Z" fill="#2B6AD1"/>
<path d="M20.7325 9.60289C20.3075 9.60289 19.955 9.2503 19.955 8.82511V5.72438C19.955 5.2992 20.3075 4.94661 20.7325 4.94661C21.1575 4.94661 21.5099 5.2992 21.5099 5.72438V8.82511C21.5099 9.26067 21.1575 9.60289 20.7325 9.60289Z" fill="#2B6AD1"/>
</svg>
