<svg width="28" height="28" viewBox="0 0 28 28" fill="none" xmlns="http://www.w3.org/2000/svg">
<path d="M14.957 2.33325C15.5491 2.33325 16.0291 2.81914 16.0291 3.41852V6.31824C16.0291 7.56316 16.2239 8.6478 16.9525 9.3854C17.6812 10.123 18.7526 10.3202 19.9824 10.3202H22.8445C23.4366 10.3202 23.9166 10.8061 23.9166 11.4054V19.4263C23.9166 22.8727 21.1567 25.6666 17.7522 25.6666H10.2477C6.84315 25.6666 4.08325 22.8727 4.08325 19.4263V8.57356C4.08325 5.12713 6.84315 2.33325 10.2477 2.33325H14.957ZM9.6886 14.2734C9.24905 14.2734 8.88454 14.6423 8.88454 15.0873C8.88454 15.5323 9.24905 15.9013 9.6886 15.9013H13.9769C14.4164 15.9013 14.7809 15.5323 14.7809 15.0873C14.7809 14.6423 14.4164 14.2734 13.9769 14.2734H9.6886ZM9.6886 18.6144C9.24905 18.6144 8.88454 18.9834 8.88454 19.4284C8.88454 19.8734 9.24905 20.2423 9.6886 20.2423H17.6887C18.1282 20.2423 18.4927 19.8734 18.4927 19.4284C18.4927 18.9834 18.1282 18.6144 17.6887 18.6144H9.6886Z" fill="#C54208"/>
<path d="M17.48 2.87744V6.12624C17.48 7.44076 17.7072 8.02754 18.0015 8.3264C18.2958 8.62526 18.8735 8.85609 20.1678 8.85609H23.3652C23.8422 8.85609 24.0816 8.27264 23.7449 7.9305L18.3958 2.49448C18.0584 2.15162 17.48 2.3935 17.48 2.87744Z" fill="#C54208"/>
</svg>
