<svg width="28" height="28" viewBox="0 0 28 28" fill="none" xmlns="http://www.w3.org/2000/svg">
<path d="M14.9572 2.33325C15.5493 2.33325 16.0292 2.81914 16.0292 3.41852V6.31824C16.0292 7.56316 16.224 8.6478 16.9526 9.38541C17.6813 10.123 18.7527 10.3202 19.9825 10.3202H22.8446C23.4367 10.3202 23.9167 10.8061 23.9167 11.4054V19.4263C23.9167 22.8727 21.1568 25.6666 17.7523 25.6666H10.2478C6.84328 25.6666 4.08337 22.8727 4.08337 19.4263V8.57356C4.08337 5.12713 6.84328 2.33325 10.2478 2.33325H14.9572ZM9.68872 14.2734C9.24917 14.2734 8.88467 14.6423 8.88467 15.0873C8.88467 15.5323 9.24917 15.9013 9.68872 15.9013H13.977C14.4166 15.9013 14.7811 15.5323 14.7811 15.0873C14.7811 14.6423 14.4166 14.2734 13.977 14.2734H9.68872ZM9.68872 18.6144C9.24917 18.6144 8.88467 18.9834 8.88467 19.4284C8.88467 19.8734 9.24917 20.2423 9.68872 20.2423H17.6888C18.1284 20.2423 18.4929 19.8734 18.4929 19.4284C18.4929 18.9834 18.1284 18.6144 17.6888 18.6144H9.68872Z" fill="#11A45D"/>
<path d="M17.4801 2.87744V6.12624C17.4801 7.44076 17.7074 8.02754 18.0016 8.3264C18.2959 8.62526 18.8736 8.85609 20.1679 8.85609H23.3653C23.8423 8.85609 24.0817 8.27264 23.745 7.9305L18.3959 2.49449C18.0585 2.15162 17.4801 2.3935 17.4801 2.87744Z" fill="#11A45D"/>
</svg>
