<svg width="28" height="28" viewBox="0 0 28 28" fill="none" xmlns="http://www.w3.org/2000/svg">
<path fill-rule="evenodd" clip-rule="evenodd" d="M10.2477 3.96118C7.73128 3.96118 5.69136 6.02622 5.69136 8.57358V19.4263C5.69136 21.9736 7.73128 24.0387 10.2477 24.0387H17.7522C20.2685 24.0387 22.3085 21.9736 22.3085 19.4263V9.7024H23.9166V19.4263C23.9166 22.8727 21.1567 25.6666 17.7522 25.6666H10.2477C6.84315 25.6666 4.08325 22.8727 4.08325 19.4263V8.57358C4.08325 5.12715 6.84315 2.33328 10.2477 2.33328H16.6738L17.0052 3.96118H10.2477Z" fill="#C54208"/>
<path fill-rule="evenodd" clip-rule="evenodd" d="M16.3724 2.39523C16.6728 2.26925 17.0187 2.33889 17.2486 2.57168L23.6811 9.0833C23.911 9.31609 23.9798 9.66618 23.8554 9.97034C23.7309 10.2745 23.4377 10.4728 23.1125 10.4728H19.8963C18.6457 10.4728 17.5561 10.2723 16.8151 9.52219C16.0741 8.77208 15.876 7.66906 15.876 6.40304V3.14723C15.876 2.81802 16.0719 2.52122 16.3724 2.39523ZM17.4841 5.11228V6.40304C17.4841 7.57888 17.6881 8.10376 17.9522 8.37109C18.2163 8.63842 18.7348 8.8449 19.8963 8.8449H21.1714L17.4841 5.11228Z" fill="#C54208"/>
<path d="M17.6887 18.6801H9.68859C9.24904 18.6801 8.88454 19.0491 8.88454 19.4941C8.88454 19.939 9.24904 20.308 9.68859 20.308H17.6887C18.1282 20.308 18.4927 19.939 18.4927 19.4941C18.4927 19.0491 18.1282 18.6801 17.6887 18.6801Z" fill="#C54208"/>
<path d="M13.9769 14.3391H9.68859C9.24904 14.3391 8.88454 14.708 8.88454 15.153C8.88454 15.598 9.24904 15.967 9.68859 15.967H13.9769C14.4164 15.967 14.7809 15.598 14.7809 15.153C14.7809 14.708 14.4164 14.3391 13.9769 14.3391Z" fill="#C54208"/>
</svg>
