<svg width="28" height="28" viewBox="0 0 28 28" fill="none" xmlns="http://www.w3.org/2000/svg">
<path fill-rule="evenodd" clip-rule="evenodd" d="M10.2478 3.96118C7.73141 3.96118 5.69148 6.02622 5.69148 8.57358V19.4263C5.69148 21.9736 7.73141 24.0387 10.2478 24.0387H17.7523C20.2687 24.0387 22.3086 21.9736 22.3086 19.4263V9.7024H23.9167V19.4263C23.9167 22.8727 21.1568 25.6666 17.7523 25.6666H10.2478C6.84327 25.6666 4.08337 22.8727 4.08337 19.4263V8.57358C4.08337 5.12716 6.84327 2.33328 10.2478 2.33328H16.6739L17.0053 3.96118H10.2478Z" fill="#11A45D"/>
<path fill-rule="evenodd" clip-rule="evenodd" d="M16.3725 2.39523C16.673 2.26925 17.0188 2.33889 17.2488 2.57168L23.6812 9.0833C23.9111 9.31609 23.9799 9.66618 23.8555 9.97034C23.731 10.2745 23.4378 10.4728 23.1126 10.4728H19.8964C18.6458 10.4728 17.5562 10.2723 16.8152 9.52219C16.0742 8.77209 15.8762 7.66906 15.8762 6.40304V3.14723C15.8762 2.81802 16.0721 2.52122 16.3725 2.39523ZM17.4843 5.11228V6.40304C17.4843 7.57888 17.6882 8.10376 17.9523 8.37109C18.2164 8.63842 18.7349 8.8449 19.8964 8.8449H21.1715L17.4843 5.11228Z" fill="#11A45D"/>
<path d="M17.6888 18.6801H9.68871C9.24916 18.6801 8.88466 19.0491 8.88466 19.4941C8.88466 19.939 9.24916 20.308 9.68871 20.308H17.6888C18.1283 20.308 18.4928 19.939 18.4928 19.4941C18.4928 19.0491 18.1283 18.6801 17.6888 18.6801Z" fill="#11A45D"/>
<path d="M13.977 14.3391H9.68871C9.24916 14.3391 8.88466 14.708 8.88466 15.153C8.88466 15.598 9.24916 15.967 9.68871 15.967H13.977C14.4165 15.967 14.7811 15.598 14.7811 15.153C14.7811 14.708 14.4165 14.3391 13.977 14.3391Z" fill="#11A45D"/>
</svg>
