<svg width="121" height="38" viewBox="0 0 121 38" fill="none" xmlns="http://www.w3.org/2000/svg">
<rect width="121" height="38" rx="8" fill="#100F0D"/>
<path d="M26.3366 18.2281C26.3106 15.261 28.7022 13.8175 28.8115 13.7503C27.4571 11.7222 25.3578 11.4451 24.6201 11.423C22.8569 11.2324 21.1466 12.5065 20.2484 12.5065C19.3323 12.5065 17.9492 11.4414 16.4585 11.4727C14.5403 11.5031 12.7457 12.6437 11.7615 14.415C9.73027 18.0265 11.2452 23.3338 13.1912 26.2531C14.1647 27.6828 15.3022 29.2791 16.7911 29.223C18.2477 29.1613 18.7918 28.2692 20.5496 28.2692C22.2913 28.2692 22.8022 29.223 24.3207 29.187C25.884 29.1613 26.8682 27.7509 27.8076 26.3083C28.9326 24.6696 29.3843 23.0558 29.4023 22.9729C29.3655 22.9601 26.3662 21.7844 26.3366 18.2281Z" fill="white"/>
<path d="M23.4725 9.50265C24.2559 8.49642 24.792 7.12748 24.6432 5.73828C23.5092 5.78984 22.0912 6.54381 21.2746 7.52794C20.5521 8.39516 19.9067 9.81658 20.0734 11.1533C21.3472 11.2509 22.655 10.4932 23.4725 9.50265Z" fill="white"/>
<path d="M47.4224 29.0168H45.3867L44.2716 25.4182H40.3957L39.3335 29.0168H37.3516L41.1917 16.7654H43.5635L47.4224 29.0168ZM43.9355 23.9084L42.9271 20.7093C42.8204 20.3825 42.6205 19.6128 42.3256 18.4013H42.2897C42.1723 18.9224 41.9832 19.692 41.7232 20.7093L40.7327 23.9084H43.9355Z" fill="white"/>
<path d="M57.2991 24.4918C57.2991 25.9942 56.9038 27.1818 56.1132 28.0536C55.405 28.8297 54.5257 29.2172 53.476 29.2172C52.343 29.2172 51.5291 28.7993 51.0334 27.9634H50.9975V32.6171H49.0864V23.0915C49.0864 22.147 49.0622 21.1776 49.0156 20.1833H50.6963L50.803 21.5836H50.8389C51.4762 20.5285 52.4434 20.002 53.7413 20.002C54.7561 20.002 55.6031 20.4135 56.2808 21.2374C56.9603 22.0623 57.2991 23.1468 57.2991 24.4918ZM55.3521 24.5636C55.3521 23.7037 55.1639 22.9949 54.7856 22.437C54.3724 21.8551 53.8175 21.5642 53.1219 21.5642C52.6505 21.5642 52.222 21.7263 51.8392 22.0457C51.4556 22.3679 51.2046 22.7886 51.0872 23.3097C51.028 23.5527 50.9984 23.7516 50.9984 23.9081V25.3811C50.9984 26.0237 51.1902 26.5659 51.5739 27.0087C51.9576 27.4515 52.4559 27.6725 53.0691 27.6725C53.7889 27.6725 54.3491 27.3871 54.7498 26.8181C55.1514 26.2483 55.3521 25.4971 55.3521 24.5636Z" fill="white"/>
<path d="M67.1888 24.4918C67.1888 25.9942 66.7935 27.1818 66.002 28.0536C65.2948 28.8297 64.4154 29.2172 63.3657 29.2172C62.2327 29.2172 61.4188 28.7993 60.924 27.9634H60.8881V32.6171H58.9771V23.0915C58.9771 22.147 58.9529 21.1776 58.9062 20.1833H60.587L60.6936 21.5836H60.7295C61.3659 20.5285 62.3331 20.002 63.632 20.002C64.6458 20.002 65.4929 20.4135 66.1723 21.2374C66.8491 22.0623 67.1888 23.1468 67.1888 24.4918ZM65.2419 24.5636C65.2419 23.7037 65.0527 22.9949 64.6745 22.437C64.2612 21.8551 63.7082 21.5642 63.0117 21.5642C62.5393 21.5642 62.1117 21.7263 61.7281 22.0457C61.3444 22.3679 61.0943 22.7886 60.9769 23.3097C60.9186 23.5527 60.8881 23.7516 60.8881 23.9081V25.3811C60.8881 26.0237 61.08 26.5659 61.4618 27.0087C61.8455 27.4506 62.3439 27.6725 62.9588 27.6725C63.6786 27.6725 64.2388 27.3871 64.6395 26.8181C65.0411 26.2483 65.2419 25.4971 65.2419 24.5636Z" fill="white"/>
<path d="M78.2599 25.5812C78.2599 26.6233 77.9076 27.4712 77.2004 28.1258C76.4232 28.8411 75.3413 29.1983 73.951 29.1983C72.6674 29.1983 71.6383 28.9442 70.8594 28.4351L71.3022 26.7992C72.1412 27.3202 73.0618 27.5817 74.0648 27.5817C74.7846 27.5817 75.3449 27.4141 75.7473 27.0809C76.148 26.7476 76.3479 26.3002 76.3479 25.7423C76.3479 25.2452 76.183 24.8263 75.8522 24.4866C75.5232 24.1469 74.9738 23.8311 74.2065 23.5393C72.1179 22.7393 71.0745 21.5674 71.0745 20.0263C71.0745 19.0191 71.4402 18.1933 72.1726 17.5507C72.9022 16.9072 73.8757 16.5859 75.093 16.5859C76.1785 16.5859 77.0803 16.7802 77.8001 17.1678L77.3223 18.7678C76.65 18.3922 75.8899 18.2044 75.0392 18.2044C74.3669 18.2044 73.8416 18.3747 73.4652 18.7135C73.1469 19.0163 72.9874 19.3855 72.9874 19.8228C72.9874 20.307 73.1694 20.7075 73.5351 21.0223C73.8533 21.3133 74.4315 21.6281 75.2705 21.9678C76.2968 22.3922 77.0507 22.8884 77.5356 23.4574C78.0188 24.0245 78.2599 24.7342 78.2599 25.5812Z" fill="white"/>
<path d="M84.5666 21.6556H82.4601V25.9447C82.4601 27.0356 82.8312 27.5806 83.5752 27.5806C83.9167 27.5806 84.2 27.5502 84.4241 27.4895L84.4769 28.98C84.1005 29.1245 83.6048 29.1972 82.9907 29.1972C82.236 29.1972 81.6462 28.9606 81.2204 28.4883C80.7964 28.0152 80.5831 27.2216 80.5831 26.1067V21.6538H79.3281V20.1808H80.5831V18.5633L82.4601 17.9814V20.1808H84.5666V21.6556Z" fill="white"/>
<path d="M94.0735 24.5267C94.0735 25.8846 93.6953 26.9995 92.9405 27.8713C92.149 28.7689 91.0984 29.2163 89.7888 29.2163C88.5267 29.2163 87.5219 28.7864 86.7725 27.9266C86.0231 27.0667 85.6484 25.9813 85.6484 24.6731C85.6484 23.3042 86.0339 22.1829 86.8075 21.3111C87.5792 20.4383 88.6208 20.002 89.9305 20.002C91.1926 20.002 92.2082 20.4319 92.9746 21.2926C93.7078 22.1276 94.0735 23.2057 94.0735 24.5267ZM92.0907 24.5903C92.0907 23.7755 91.9213 23.0768 91.578 22.494C91.1773 21.7889 90.6045 21.4372 89.8623 21.4372C89.0941 21.4372 88.5106 21.7898 88.1099 22.494C87.7666 23.0777 87.5972 23.7875 87.5972 24.6271C87.5972 25.4418 87.7666 26.1406 88.1099 26.7224C88.5231 27.4276 89.1004 27.7793 89.8453 27.7793C90.575 27.7793 91.1477 27.4202 91.561 26.704C91.9133 26.1102 92.0907 25.4041 92.0907 24.5903Z" fill="white"/>
<path d="M100.29 21.9085C100.1 21.8726 99.8987 21.8542 99.6872 21.8542C99.0149 21.8542 98.495 22.1147 98.1292 22.6367C97.811 23.097 97.6515 23.6788 97.6515 24.3812V29.0165H95.7413L95.7592 22.9644C95.7592 21.9462 95.735 21.0192 95.6875 20.1833H97.3521L97.422 21.8735H97.4749C97.6766 21.2926 97.9948 20.8249 98.4304 20.4742C98.8562 20.1584 99.3161 20.001 99.8118 20.001C99.9883 20.001 100.148 20.0139 100.29 20.0369V21.9085Z" fill="white"/>
<path d="M108.832 24.1824C108.832 24.5341 108.809 24.8305 108.762 25.0726H103.029C103.051 25.9454 103.328 26.6128 103.861 27.0731C104.344 27.4846 104.968 27.6908 105.736 27.6908C106.585 27.6908 107.359 27.5518 108.056 27.2729L108.355 28.6354C107.541 28.9999 106.58 29.1813 105.471 29.1813C104.137 29.1813 103.091 28.7781 102.329 27.9725C101.568 27.167 101.188 26.0853 101.188 24.7283C101.188 23.3962 101.542 22.2869 102.251 21.4022C102.993 20.4576 103.996 19.9854 105.258 19.9854C106.498 19.9854 107.436 20.4576 108.074 21.4022C108.578 22.1525 108.832 23.0804 108.832 24.1824ZM107.01 23.6733C107.022 23.0915 106.897 22.5888 106.638 22.1644C106.308 21.6185 105.799 21.346 105.115 21.346C104.491 21.346 103.982 21.6121 103.594 22.146C103.276 22.5704 103.087 23.0795 103.029 23.6724L107.01 23.6733Z" fill="white"/>
<path d="M43.3015 9.22853C43.3015 10.3121 42.9851 11.1277 42.3532 11.6755C41.7678 12.1809 40.936 12.4341 39.8585 12.4341C39.3243 12.4341 38.8671 12.4102 38.4844 12.3623V6.44185C38.9837 6.359 39.5215 6.31665 40.1023 6.31665C41.1287 6.31665 41.9023 6.54588 42.424 7.00434C43.0084 7.52265 43.3015 8.26374 43.3015 9.22853ZM42.311 9.25523C42.311 8.55281 42.13 8.01425 41.7678 7.63864C41.4057 7.26396 40.8768 7.07615 40.1803 7.07615C39.8845 7.07615 39.6326 7.09641 39.4238 7.13875V11.6396C39.5394 11.658 39.751 11.6663 40.0584 11.6663C40.7773 11.6663 41.3322 11.461 41.723 11.0504C42.1138 10.6398 42.311 10.0414 42.311 9.25523Z" fill="white"/>
<path d="M48.5448 10.1745C48.5448 10.8419 48.3593 11.3888 47.9882 11.8178C47.5992 12.2588 47.0837 12.4788 46.4401 12.4788C45.8198 12.4788 45.3259 12.268 44.9575 11.8445C44.59 11.4219 44.4062 10.8889 44.4062 10.2463C44.4062 9.57426 44.5954 9.02282 44.9755 8.59473C45.3555 8.16665 45.8665 7.95215 46.5101 7.95215C47.1304 7.95215 47.6287 8.16297 48.0061 8.58553C48.3647 8.99612 48.5448 9.52639 48.5448 10.1745ZM47.5705 10.2058C47.5705 9.80533 47.4862 9.46195 47.3186 9.17564C47.1214 8.82949 46.8408 8.65641 46.476 8.65641C46.0986 8.65641 45.8118 8.82949 45.6146 9.17564C45.4461 9.46195 45.3627 9.81086 45.3627 10.2233C45.3627 10.6238 45.4469 10.9671 45.6146 11.2534C45.8181 11.5996 46.1013 11.7727 46.467 11.7727C46.8256 11.7727 47.107 11.5968 47.3096 11.2442C47.4835 10.9524 47.5705 10.6063 47.5705 10.2058Z" fill="white"/>
<path d="M55.591 8.04102L54.2689 12.3808H53.4083L52.8607 10.4963C52.7217 10.0258 52.6088 9.55818 52.5209 9.09419H52.5039C52.4223 9.57107 52.3094 10.0378 52.1642 10.4963L51.5824 12.3808H50.712L49.4688 8.04102H50.4342L50.9119 10.1041C51.0276 10.592 51.1226 11.0569 51.1988 11.497H51.2158C51.2857 11.1343 51.4013 10.6721 51.5645 10.1133L52.1642 8.04194H52.9297L53.5043 10.0691C53.6432 10.5635 53.7561 11.0394 53.8431 11.4979H53.8691C53.9327 11.0514 54.0286 10.5755 54.1559 10.0691L54.6687 8.04194H55.591V8.04102Z" fill="white"/>
<path d="M60.4695 12.3811H59.5301V9.89544C59.5301 9.12949 59.2468 8.74652 58.6785 8.74652C58.3997 8.74652 58.1747 8.85147 57.9999 9.06229C57.8269 9.27311 57.7391 9.52167 57.7391 9.80614V12.3802H56.7997V9.2814C56.7997 8.90026 56.788 8.48691 56.7656 8.03949H57.5912L57.6351 8.71798H57.6611C57.7705 8.50716 57.9336 8.33317 58.1478 8.19416C58.4024 8.03213 58.6875 7.9502 58.9994 7.9502C59.3938 7.9502 59.7219 8.08092 59.9827 8.3433C60.3072 8.66459 60.4695 9.14422 60.4695 9.78129V12.3811Z" fill="white"/>
<path d="M63.0557 12.3808H62.1172V6.0498H63.0557V12.3808Z" fill="white"/>
<path d="M68.5917 10.1745C68.5917 10.8419 68.4062 11.3888 68.0351 11.8178C67.646 12.2588 67.1297 12.4788 66.487 12.4788C65.8658 12.4788 65.3719 12.268 65.0044 11.8445C64.6369 11.4219 64.4531 10.8889 64.4531 10.2463C64.4531 9.57426 64.6423 9.02282 65.0223 8.59473C65.4024 8.16665 65.9133 7.95215 66.556 7.95215C67.1772 7.95215 67.6747 8.16297 68.053 8.58553C68.4115 8.99612 68.5917 9.52639 68.5917 10.1745ZM67.6165 10.2058C67.6165 9.80533 67.5322 9.46195 67.3646 9.17564C67.1683 8.82949 66.8868 8.65641 66.5229 8.65641C66.1446 8.65641 65.8578 8.82949 65.6614 9.17564C65.4929 9.46195 65.4096 9.81086 65.4096 10.2233C65.4096 10.6238 65.4938 10.9671 65.6614 11.2534C65.8649 11.5996 66.1482 11.7727 66.5139 11.7727C66.8725 11.7727 67.153 11.5968 67.3556 11.2442C67.5304 10.9524 67.6165 10.6063 67.6165 10.2058Z" fill="white"/>
<path d="M73.1331 12.381H72.2896L72.2196 11.8811H72.1937C71.905 12.2797 71.4936 12.4795 70.9593 12.4795C70.5604 12.4795 70.2377 12.3479 69.9948 12.0864C69.7743 11.8489 69.6641 11.5534 69.6641 11.2026C69.6641 10.6724 69.8792 10.2682 70.3121 9.98835C70.7442 9.70848 71.352 9.57131 72.1345 9.57775V9.49674C72.1345 8.92504 71.8423 8.63965 71.2569 8.63965C70.8401 8.63965 70.4726 8.74737 70.1553 8.96095L69.9643 8.32757C70.357 8.07808 70.8419 7.95288 71.4138 7.95288C72.5181 7.95288 73.0721 8.55128 73.0721 9.74807V11.3462C73.0721 11.7798 73.0927 12.1251 73.1331 12.381ZM72.1578 10.8896V10.2203C71.1216 10.2019 70.6035 10.4938 70.6035 11.0949C70.6035 11.3214 70.6626 11.4908 70.7836 11.604C70.9047 11.7172 71.0588 11.7734 71.2426 11.7734C71.4488 11.7734 71.6415 11.7062 71.8172 11.5727C71.9938 11.4383 72.1022 11.268 72.1426 11.059C72.1524 11.0121 72.1578 10.955 72.1578 10.8896Z" fill="white"/>
<path d="M78.4712 12.3808H77.6376L77.5937 11.6839H77.5677C77.3014 12.2142 76.8479 12.4793 76.2105 12.4793C75.7014 12.4793 75.2774 12.274 74.9413 11.8634C74.6051 11.4529 74.4375 10.9198 74.4375 10.2653C74.4375 9.56285 74.6195 8.99391 74.9852 8.55938C75.3393 8.15431 75.7731 7.95178 76.2894 7.95178C76.8568 7.95178 77.2539 8.14787 77.4798 8.54097H77.4977V6.0498H78.4381V11.2117C78.4381 11.6342 78.4488 12.0236 78.4712 12.3808ZM77.4977 10.5507V9.82706C77.4977 9.70186 77.4888 9.60059 77.4717 9.52326C77.4189 9.29127 77.305 9.0961 77.132 8.93867C76.9572 8.78125 76.7466 8.70208 76.5037 8.70208C76.1532 8.70208 75.8789 8.84477 75.6772 9.13108C75.4773 9.41739 75.376 9.78287 75.376 10.2294C75.376 10.6584 75.4719 11.0064 75.6646 11.2743C75.8681 11.5596 76.1424 11.7023 76.4857 11.7023C76.7941 11.7023 77.0406 11.5836 77.2279 11.3451C77.409 11.1251 77.4977 10.86 77.4977 10.5507Z" fill="white"/>
<path d="M86.5058 10.1752C86.5058 10.8427 86.3202 11.3895 85.9491 11.8185C85.5601 12.2595 85.0456 12.4795 84.4011 12.4795C83.7817 12.4795 83.2878 12.2687 82.9185 11.8452C82.551 11.4227 82.3672 10.8896 82.3672 10.247C82.3672 9.57499 82.5563 9.02355 82.9364 8.59547C83.3165 8.16738 83.8274 7.95288 84.4719 7.95288C85.0913 7.95288 85.5906 8.1637 85.9671 8.58626C86.3256 8.99685 86.5058 9.52712 86.5058 10.1752ZM85.5323 10.2065C85.5323 9.80607 85.4481 9.46268 85.2804 9.17637C85.0823 8.83022 84.8027 8.65715 84.4369 8.65715C84.0605 8.65715 83.7736 8.83022 83.5755 9.17637C83.407 9.46268 83.3236 9.81159 83.3236 10.224C83.3236 10.6245 83.4079 10.9679 83.5755 11.2542C83.779 11.6003 84.0622 11.7734 84.428 11.7734C84.7865 11.7734 85.0689 11.5976 85.2715 11.245C85.4445 10.9531 85.5323 10.607 85.5323 10.2065Z" fill="white"/>
<path d="M91.5623 12.3811H90.6238V9.89544C90.6238 9.12949 90.3406 8.74652 89.7714 8.74652C89.4926 8.74652 89.2676 8.85147 89.0937 9.06229C88.9198 9.27311 88.8328 9.52167 88.8328 9.80614V12.3802H87.8925V9.2814C87.8925 8.90026 87.8818 8.48691 87.8594 8.03949H88.684L88.728 8.71798H88.754C88.8642 8.50716 89.0274 8.33317 89.2407 8.19416C89.4962 8.03213 89.7803 7.9502 90.0932 7.9502C90.4867 7.9502 90.8147 8.08092 91.0756 8.3433C91.401 8.66459 91.5623 9.14422 91.5623 9.78129V12.3811Z" fill="white"/>
<path d="M97.8782 8.76343H96.8438V10.8716C96.8438 11.4074 97.0275 11.6753 97.3915 11.6753C97.56 11.6753 97.6998 11.6606 97.8101 11.6302L97.8343 12.3621C97.6487 12.4339 97.4049 12.4698 97.1046 12.4698C96.7335 12.4698 96.4449 12.3538 96.236 12.1218C96.0263 11.8898 95.9223 11.4995 95.9223 10.9517V8.76343H95.3047V8.04075H95.9223V7.24535L96.8429 6.95996V8.03983H97.8773L97.8782 8.76343Z" fill="white"/>
<path d="M102.857 12.3808H101.917V9.9136C101.917 9.13568 101.634 8.74627 101.066 8.74627C100.631 8.74627 100.333 8.97182 100.17 9.42291C100.142 9.51774 100.126 9.63373 100.126 9.76998V12.3799H99.1875V6.0498H100.126V8.66525H100.144C100.44 8.1893 100.864 7.95178 101.413 7.95178C101.802 7.95178 102.124 8.08251 102.38 8.34488C102.698 8.6717 102.857 9.15778 102.857 9.80036V12.3808Z" fill="white"/>
<path d="M107.983 10.0056C107.983 10.1787 107.971 10.3241 107.948 10.4429H105.131C105.144 10.8719 105.278 11.1987 105.539 11.4252C105.777 11.6277 106.085 11.729 106.461 11.729C106.878 11.729 107.258 11.6608 107.601 11.5237L107.748 12.1939C107.347 12.3725 106.875 12.4618 106.329 12.4618C105.675 12.4618 105.16 12.2638 104.787 11.868C104.412 11.4721 104.227 10.9409 104.227 10.2744C104.227 9.61984 104.4 9.07484 104.748 8.64032C105.112 8.17633 105.604 7.94434 106.225 7.94434C106.833 7.94434 107.295 8.17633 107.607 8.64032C107.859 9.00856 107.983 9.46426 107.983 10.0056ZM107.087 9.75609C107.094 9.46978 107.032 9.22306 106.905 9.015C106.742 8.74711 106.494 8.6127 106.157 8.6127C105.851 8.6127 105.601 8.74342 105.41 9.0058C105.254 9.21478 105.161 9.46426 105.131 9.75609H107.087Z" fill="white"/>
</svg>

