<svg width="28" height="28" viewBox="0 0 28 28" fill="none" xmlns="http://www.w3.org/2000/svg">
<path fill-rule="evenodd" clip-rule="evenodd" d="M5.29326 5.04485C5.65775 4.68036 6.24871 4.68036 6.6132 5.04485L22.9465 21.3782C23.311 21.7427 23.311 22.3336 22.9465 22.6981C22.582 23.0626 21.9911 23.0626 21.6266 22.6981L5.29326 6.36478C4.92878 6.00029 4.92878 5.40934 5.29326 5.04485Z" fill="white"/>
<path fill-rule="evenodd" clip-rule="evenodd" d="M22.7073 5.30006C23.0718 5.66455 23.0718 6.2555 22.7073 6.61999L6.37394 22.9533C6.00945 23.3178 5.4185 23.3178 5.05401 22.9533C4.68952 22.5888 4.68952 21.9979 5.05401 21.6334L21.3873 5.30006C21.7518 4.93557 22.3428 4.93557 22.7073 5.30006Z" fill="white"/>
</svg>
