<svg width="24" height="24" viewBox="0 0 24 24" fill="none" xmlns="http://www.w3.org/2000/svg">
<path d="M5.71847 17.565C6.30327 18.5742 7.39764 19.2534 8.65121 19.2534H15.9606C16.2086 19.2534 16.4483 19.3308 16.6484 19.4768C17.5031 20.1005 19.9633 21.8946 21.6531 23.1142C22.3884 23.6448 23.3333 23.1555 23.3333 22.2508V8.79661C23.3333 7.09855 22.0738 5.69363 20.4349 5.45892V10.8148C20.4349 13.7041 18.0844 16.0463 15.1849 16.0463H7.80274C7.33959 16.3842 6.57328 16.943 5.71847 17.565Z" fill="white"/>
<path d="M3.5 0C1.567 0 0 1.56147 0 3.48764V17.4731C0 18.3778 0.945143 18.8673 1.68052 18.3368C3.43585 17.0703 6.03929 15.1718 6.92365 14.5264C7.12376 14.3804 7.36411 14.3025 7.61215 14.3025H15.1849C17.1179 14.3025 18.6849 12.741 18.6849 10.8148V3.48764C18.6849 1.56147 17.1179 0 15.1849 0H3.5ZM5.46533 4.1779H13.3722C13.8555 4.1779 14.2472 4.56826 14.2472 5.04981C14.2472 5.53135 13.8555 5.92171 13.3722 5.92171H5.46533C4.98208 5.92171 4.59033 5.53135 4.59033 5.04981C4.59033 4.56826 4.98208 4.1779 5.46533 4.1779ZM5.46533 8.25816H11.6667C12.1499 8.25816 12.5417 8.64852 12.5417 9.13007C12.5417 9.61161 12.1499 10.002 11.6667 10.002H5.46533C4.98208 10.002 4.59033 9.61161 4.59033 9.13007C4.59033 8.64852 4.98208 8.25816 5.46533 8.25816Z" fill="white"/>
</svg>
