<svg width="20" height="20" viewBox="0 0 20 20" fill="none" xmlns="http://www.w3.org/2000/svg">
<path fill-rule="evenodd" clip-rule="evenodd" d="M10.386 1.00824C5.80539 0.811861 2 4.15283 2 8.28563V13.2142C2 14.3751 2.94799 15.3245 4.16801 15.5102C4.24207 15.5262 4.31726 15.5396 4.39345 15.5502C4.50919 17.2244 6.0162 18.5714 7.88235 18.5714H8.35938C8.5744 18.8299 8.91154 19 9.29412 19H10.7059C11.3544 19 11.8824 18.5196 11.8824 17.9286C11.8824 17.3376 11.3544 16.8571 10.7059 16.8571H9.29412C8.91154 16.8571 8.5744 17.0272 8.35938 17.2857H7.88235C6.79108 17.2857 5.93723 16.5408 5.81265 15.5798H6.70496C6.74978 15.5798 6.79387 15.5769 6.83701 15.5714H6.94118C7.12838 15.5714 7.30792 15.5037 7.44029 15.3831C7.57266 15.2625 7.64704 15.099 7.64706 14.9285L7.64614 10.1004C7.64614 9.62699 7.22476 9.24323 6.70496 9.24323H4.82353C4.30924 9.24323 3.82707 9.36845 3.41176 9.58724V8.28563C3.41176 4.86781 6.52216 2.12952 10.3189 2.29229C13.8551 2.44371 16.5882 5.22562 16.5882 8.47313V9.58724C16.1729 9.36845 15.6908 9.24323 15.1765 9.24323H13.295C12.7752 9.24323 12.3539 9.62699 12.3539 10.1004L12.3529 14.9285C12.353 15.099 12.4273 15.2625 12.5597 15.3831C12.6921 15.5037 12.8716 15.5714 13.0588 15.5714H13.163C13.2061 15.5769 13.2502 15.5798 13.295 15.5798H15.1769C15.2542 15.5798 15.3307 15.5769 15.4064 15.5714H15.4118C16.8328 15.5714 18 14.5084 18 13.2142V8.47313C18 4.56689 14.6964 1.19281 10.386 1.00824ZM15.3389 14.2857H13.7656V10.529H15.1765C15.9562 10.529 16.5882 11.1046 16.5882 11.8147V13.0087C16.5882 13.6687 16.0421 14.2125 15.3389 14.2857ZM6.23437 10.529V14.2857H4.66111C3.95795 14.2125 3.41176 13.6687 3.41176 13.0087V11.8147C3.41176 11.1046 4.04383 10.529 4.82353 10.529H6.23437Z" fill="#1D232E"/>
</svg>
