<svg width="20" height="20" viewBox="0 0 20 20" fill="none" xmlns="http://www.w3.org/2000/svg">
<path d="M11.4999 5.0002H5.49996C5.22396 5.0002 4.99996 5.2242 4.99996 5.5002C4.99996 5.7762 5.22396 6.0002 5.49996 6.0002H11.4999C11.7759 6.0002 11.9999 5.7762 11.9999 5.5002C11.9999 5.2242 11.7759 5.0002 11.4999 5.0002Z" fill="#1D232E"/>
<path d="M9.49994 6.99993H5.49996C5.22396 6.99993 4.99996 7.22393 4.99996 7.49993C4.99996 7.77593 5.22396 7.99992 5.49996 7.99992H9.49994C9.77594 7.99992 9.99994 7.77593 9.99994 7.49993C9.99994 7.22393 9.77594 6.99993 9.49994 6.99993Z" fill="#1D232E"/>
<path d="M12.9999 2H3.99999C2.897 2 2 2.897 2 3.99999V13.9999C2 14.1939 2.112 14.3709 2.288 14.4529C2.355 14.4839 2.428 14.4999 2.5 14.4999C2.615 14.4999 2.729 14.4599 2.82 14.3839L5.68098 12H12.9999C14.1029 12 14.9999 11.103 14.9999 9.99996V3.99999C14.9999 2.897 14.1029 2 12.9999 2ZM13.9999 9.99996C13.9999 10.551 13.5519 11 12.9999 11H5.49998C5.38298 11 5.26998 11.041 5.17998 11.116L2.99999 12.9329V3.99999C2.99999 3.44899 3.44799 2.99999 3.99999 2.99999H12.9999C13.5519 2.99999 13.9999 3.44899 13.9999 3.99999V9.99996Z" fill="#1D232E"/>
<path d="M15.9999 6.00007C15.7239 6.00007 15.4999 6.22407 15.4999 6.50006C15.4999 6.77606 15.7239 7.00006 15.9999 7.00006C16.5519 7.00006 16.9999 7.44906 16.9999 8.00006V16.459L15.3119 15.109C15.2239 15.039 15.1129 15 14.9999 15H7.99993C7.44794 15 6.99994 14.551 6.99994 14V13.5C6.99994 13.224 6.77594 13 6.49994 13C6.22394 13 5.99994 13.224 5.99994 13.5V14C5.99994 15.103 6.89694 16 7.99993 16H14.8239L17.1869 17.891C17.2779 17.963 17.3889 18 17.4999 18C17.5729 18 17.6469 17.984 17.7169 17.951C17.8899 17.867 17.9999 17.692 17.9999 17.5V8.00006C17.9999 6.89706 17.1029 6.00007 15.9999 6.00007Z" fill="#1D232E"/>
<path d="M11.4999 5.0002H5.49996C5.22396 5.0002 4.99996 5.2242 4.99996 5.5002C4.99996 5.7762 5.22396 6.0002 5.49996 6.0002H11.4999C11.7759 6.0002 11.9999 5.7762 11.9999 5.5002C11.9999 5.2242 11.7759 5.0002 11.4999 5.0002Z" stroke="#1D232E" stroke-width="0.2"/>
<path d="M9.49994 6.99993H5.49996C5.22396 6.99993 4.99996 7.22393 4.99996 7.49993C4.99996 7.77593 5.22396 7.99992 5.49996 7.99992H9.49994C9.77594 7.99992 9.99994 7.77593 9.99994 7.49993C9.99994 7.22393 9.77594 6.99993 9.49994 6.99993Z" stroke="#1D232E" stroke-width="0.2"/>
<path d="M12.9999 2H3.99999C2.897 2 2 2.897 2 3.99999V13.9999C2 14.1939 2.112 14.3709 2.288 14.4529C2.355 14.4839 2.428 14.4999 2.5 14.4999C2.615 14.4999 2.729 14.4599 2.82 14.3839L5.68098 12H12.9999C14.1029 12 14.9999 11.103 14.9999 9.99996V3.99999C14.9999 2.897 14.1029 2 12.9999 2ZM13.9999 9.99996C13.9999 10.551 13.5519 11 12.9999 11H5.49998C5.38298 11 5.26998 11.041 5.17998 11.116L2.99999 12.9329V3.99999C2.99999 3.44899 3.44799 2.99999 3.99999 2.99999H12.9999C13.5519 2.99999 13.9999 3.44899 13.9999 3.99999V9.99996Z" stroke="#1D232E" stroke-width="0.2"/>
<path d="M15.9999 6.00007C15.7239 6.00007 15.4999 6.22407 15.4999 6.50006C15.4999 6.77606 15.7239 7.00006 15.9999 7.00006C16.5519 7.00006 16.9999 7.44906 16.9999 8.00006V16.459L15.3119 15.109C15.2239 15.039 15.1129 15 14.9999 15H7.99993C7.44794 15 6.99994 14.551 6.99994 14V13.5C6.99994 13.224 6.77594 13 6.49994 13C6.22394 13 5.99994 13.224 5.99994 13.5V14C5.99994 15.103 6.89694 16 7.99993 16H14.8239L17.1869 17.891C17.2779 17.963 17.3889 18 17.4999 18C17.5729 18 17.6469 17.984 17.7169 17.951C17.8899 17.867 17.9999 17.692 17.9999 17.5V8.00006C17.9999 6.89706 17.1029 6.00007 15.9999 6.00007Z" stroke="#1D232E" stroke-width="0.2"/>
</svg>
