<svg width="28" height="28" viewBox="0 0 28 28" fill="none" xmlns="http://www.w3.org/2000/svg">
<path fill-rule="evenodd" clip-rule="evenodd" d="M5.29322 5.04485C5.65771 4.68036 6.24866 4.68036 6.61315 5.04485L22.9465 21.3782C23.311 21.7427 23.311 22.3336 22.9465 22.6981C22.582 23.0626 21.991 23.0626 21.6266 22.6981L5.29322 6.36478C4.92873 6.00029 4.92873 5.40934 5.29322 5.04485Z" fill="#83868C"/>
<path fill-rule="evenodd" clip-rule="evenodd" d="M22.7072 5.30006C23.0717 5.66455 23.0717 6.2555 22.7072 6.61999L6.37389 22.9533C6.0094 23.3178 5.41845 23.3178 5.05396 22.9533C4.68947 22.5888 4.68947 21.9979 5.05396 21.6334L21.3873 5.30006C21.7518 4.93557 22.3427 4.93557 22.7072 5.30006Z" fill="#83868C"/>
<path fill-rule="evenodd" clip-rule="evenodd" d="M5.29322 5.04485C5.65771 4.68036 6.24866 4.68036 6.61315 5.04485L22.9465 21.3782C23.311 21.7427 23.311 22.3336 22.9465 22.6981C22.582 23.0626 21.991 23.0626 21.6266 22.6981L5.29322 6.36478C4.92873 6.00029 4.92873 5.40934 5.29322 5.04485Z" stroke="#83868C" stroke-width="0.4" stroke-miterlimit="10" stroke-linecap="round" stroke-linejoin="round"/>
<path fill-rule="evenodd" clip-rule="evenodd" d="M22.7072 5.30006C23.0717 5.66455 23.0717 6.2555 22.7072 6.61999L6.37389 22.9533C6.0094 23.3178 5.41845 23.3178 5.05396 22.9533C4.68947 22.5888 4.68947 21.9979 5.05396 21.6334L21.3873 5.30006C21.7518 4.93557 22.3427 4.93557 22.7072 5.30006Z" stroke="#83868C" stroke-width="0.4" stroke-miterlimit="10" stroke-linecap="round" stroke-linejoin="round"/>
</svg>
