<svg width="109" height="38" viewBox="0 0 109 38" fill="none" xmlns="http://www.w3.org/2000/svg">
<rect width="108.571" height="38" rx="8" fill="#100F0D"/>
<path d="M86.3082 26.9851H87.8142V17.3533H86.3082V26.9851ZM99.8733 20.8231L98.1469 24.9987H98.0953L96.3035 20.8231H94.6813L97.3689 26.6592L95.8363 29.9057H97.4069L101.548 20.8234L99.8733 20.8231ZM91.3319 25.891C90.8396 25.891 90.1512 25.6554 90.1512 25.0731C90.1512 24.3297 91.0083 24.0447 91.7476 24.0447C92.4094 24.0447 92.7218 24.1808 93.1237 24.3667C93.0067 25.259 92.202 25.891 91.3319 25.891ZM91.5143 20.6125C90.4239 20.6125 89.2948 21.0711 88.8275 22.0871L90.1641 22.6198C90.4498 22.0871 90.9816 21.9138 91.5402 21.9138C92.319 21.9138 93.1108 22.3595 93.1237 23.1528V23.2518C92.8509 23.1031 92.2665 22.8801 91.5531 22.8801C90.1116 22.8801 88.6451 23.6358 88.6451 25.0484C88.6451 26.337 89.8267 27.1673 91.1503 27.1673C92.1625 27.1673 92.7218 26.7336 93.0712 26.2254H93.1237V26.9693H94.5781V23.2764C94.5781 21.5665 93.2399 20.6125 91.5143 20.6125ZM82.2066 21.9956H80.0646V18.6943H82.2066C83.3326 18.6943 83.9717 19.5839 83.9717 20.3449C83.9717 21.0913 83.3325 21.9956 82.2066 21.9956ZM82.1679 17.3535H78.5592V26.9853H80.0646V23.3364H82.1679C83.837 23.3364 85.4779 22.1832 85.4779 20.3453C85.4779 18.5077 83.837 17.3535 82.1679 17.3535ZM62.49 25.8926C61.4496 25.8926 60.5788 25.0608 60.5788 23.9194C60.5788 22.7646 61.4496 21.9211 62.49 21.9211C63.5173 21.9211 64.3234 22.7647 64.3234 23.9194C64.3234 25.0608 63.5173 25.8926 62.49 25.8926ZM64.2193 21.3623H64.1673C63.8293 20.9776 63.1789 20.6301 62.3601 20.6301C60.6435 20.6301 59.0702 22.0701 59.0702 23.9194C59.0702 25.756 60.6435 27.1834 62.3601 27.1834C63.1789 27.1834 63.8293 26.8358 64.1673 26.4389H64.2193V26.9101C64.2193 28.1642 63.5173 28.8341 62.386 28.8341C61.4631 28.8341 60.891 28.2012 60.6567 27.6675L59.3437 28.1888C59.7204 29.0572 60.7214 30.1251 62.386 30.1251C64.1547 30.1251 65.65 29.1319 65.65 26.7114V20.8286H64.2194L64.2193 21.3623ZM66.6905 26.9848H68.1981V17.353H66.6905V26.9848ZM70.4218 23.8074C70.383 22.5414 71.4495 21.8961 72.2163 21.8961C72.8147 21.8961 73.3213 22.1817 73.491 22.591L70.4218 23.8074ZM75.1026 22.715C74.8167 21.9831 73.9456 20.6301 72.1642 20.6301C70.3956 20.6301 68.9264 21.9581 68.9264 23.9068C68.9264 25.7437 70.383 27.1834 72.333 27.1834C73.9062 27.1834 74.8167 26.2653 75.194 25.7314L74.0237 24.9866C73.6335 25.5328 73.1007 25.8927 72.333 25.8927C71.5662 25.8927 71.0199 25.5575 70.6693 24.8997L75.2587 23.0876L75.1026 22.715ZM38.5346 21.6355V23.0256H42.0192C41.9152 23.8075 41.6421 24.3783 41.226 24.7756C40.7187 25.2595 39.9255 25.7934 38.5345 25.7934C36.389 25.7934 34.7118 24.1427 34.7118 22.0948C34.7118 20.0468 36.389 18.3959 38.5345 18.3959C39.6918 18.3959 40.5368 18.8304 41.161 19.389L42.1885 18.4082C41.317 17.614 40.16 17.0059 38.5345 17.0059C35.5955 17.0059 33.125 19.2897 33.125 22.0948C33.125 24.8996 35.5955 27.1834 38.5345 27.1834C40.1206 27.1834 41.3171 26.6869 42.2531 25.7561C43.2154 24.8376 43.5145 23.5468 43.5145 22.5041C43.5145 22.1818 43.4883 21.8839 43.4363 21.6355H38.5346ZM47.4767 25.8926C46.4362 25.8926 45.539 25.0735 45.539 23.9068C45.539 22.7277 46.4362 21.9211 47.4767 21.9211C48.5167 21.9211 49.4139 22.7277 49.4139 23.9068C49.4139 25.0735 48.5167 25.8926 47.4767 25.8926ZM47.4767 20.6301C45.5777 20.6301 44.0306 22.0077 44.0306 23.9068C44.0306 25.7934 45.5777 27.1834 47.4767 27.1834C49.3749 27.1834 50.9223 25.7934 50.9223 23.9068C50.9223 22.0077 49.3749 20.6301 47.4767 20.6301ZM54.9932 25.8926C53.9535 25.8926 53.0559 25.0735 53.0559 23.9068C53.0559 22.7277 53.9535 21.9211 54.9932 21.9211C56.0337 21.9211 56.9306 22.7277 56.9306 23.9068C56.9306 25.0735 56.0337 25.8926 54.9932 25.8926ZM54.9932 20.6301C53.095 20.6301 51.5479 22.0077 51.5479 23.9068C51.5479 25.7934 53.095 27.1834 54.9932 27.1834C56.8922 27.1834 58.4392 25.7934 58.4392 23.9068C58.4392 22.0077 56.8922 20.6301 54.9932 20.6301Z" fill="white"/>
<path d="M16.7172 18.836L8.125 27.5416C8.12532 27.5434 8.12597 27.5449 8.12627 27.5467C8.38979 28.492 9.29434 29.1881 10.3679 29.1881C10.797 29.1881 11.1999 29.0773 11.5454 28.8829L11.5729 28.8676L21.245 23.54L16.7172 18.836Z" fill="#EB3131"/>
<path d="M25.412 17.3552L25.4037 17.3498L21.228 15.0391L16.5234 19.0351L21.2443 23.5408L25.398 21.2531C26.1263 20.8778 26.6207 20.145 26.6207 19.2999C26.6207 18.4609 26.133 17.7317 25.412 17.3552Z" fill="#F6B60B"/>
<path d="M8.12568 11.0195C8.07402 11.2013 8.04688 11.3918 8.04688 11.5896V26.973C8.04688 27.1704 8.0737 27.3615 8.12601 27.5427L17.0148 19.0596L8.12568 11.0195Z" fill="#5778C5"/>
<path d="M16.7814 19.2807L21.229 15.0365L11.5678 9.68969C11.2166 9.48892 10.8067 9.37305 10.3682 9.37305C9.29466 9.37305 8.38889 10.0704 8.12532 11.0168C8.125 11.0177 8.125 11.0183 8.125 11.0192L16.7814 19.2807Z" fill="#3BAD49"/>
<path d="M38.253 11.4071H35.8985V11.9633H37.6628C37.6149 12.4171 37.4257 12.7734 37.1066 13.0322C36.7876 13.2911 36.3802 13.4211 35.8985 13.4211C35.3701 13.4211 34.9224 13.2453 34.5555 12.8963C34.196 12.5399 34.0132 12.0993 34.0132 11.5685C34.0132 11.0377 34.196 10.597 34.5555 10.2407C34.9224 9.89167 35.3701 9.71709 35.8985 9.71709C36.1697 9.71709 36.4282 9.76163 36.6652 9.85916C36.9023 9.95661 37.0927 10.0927 37.2416 10.2672L37.6893 9.8399C37.4862 9.61956 37.229 9.45107 36.9098 9.32827C36.5908 9.20546 36.2579 9.14653 35.8984 9.14653C35.1935 9.14653 34.5958 9.38004 34.1077 9.84593C33.6196 10.313 33.375 10.8884 33.375 11.5685C33.375 12.2486 33.6196 12.8253 34.1077 13.2912C34.5958 13.7569 35.1935 13.9906 35.8984 13.9906C36.6387 13.9906 37.2289 13.7642 37.6829 13.3043C38.0827 12.9216 38.2869 12.404 38.2869 11.7563C38.2869 11.6468 38.2731 11.5299 38.253 11.4071ZM39.1651 9.24995V13.8869H42.0012V13.3175H39.7893V11.8466H41.7844V11.2904H39.7893V9.82058H42.0012V9.24993L39.1651 9.24995ZM45.9782 9.8206V9.24995H42.64V9.8206H43.997V13.8869H44.6213V9.8206H45.9782ZM49.0004 9.24995H48.3761V13.8869H49.0004V9.24995ZM53.1207 9.8206V9.24995H49.7826V9.8206H51.1395V13.8869H51.7637V9.8206H53.1207ZM59.4199 9.85311C58.9381 9.38 58.3479 9.14648 57.6429 9.14648C56.9368 9.14648 56.3466 9.38 55.8648 9.84588C55.3831 10.3057 55.146 10.8823 55.146 11.5684C55.146 12.2546 55.3831 12.8312 55.8648 13.2911C56.3466 13.7569 56.9368 13.9905 57.6429 13.9905C58.3416 13.9905 58.9381 13.7569 59.4199 13.2911C59.9016 12.8313 60.1386 12.2546 60.1386 11.5684C60.1386 10.8883 59.9016 10.3129 59.4199 9.85311ZM56.3125 10.2407C56.6719 9.89163 57.1133 9.71705 57.6429 9.71705C58.1714 9.71705 58.6128 9.89163 58.9659 10.2407C59.3253 10.5838 59.5018 11.0315 59.5018 11.5684C59.5018 12.1066 59.3253 12.5531 58.9659 12.8962C58.6127 13.2453 58.1713 13.421 57.6429 13.421C57.1133 13.421 56.6719 13.2453 56.3125 12.8962C55.9606 12.5459 55.7841 12.1066 55.7841 11.5684C55.7841 11.0315 55.9606 10.591 56.3125 10.2407ZM61.6217 10.9991L61.5953 10.1046H61.6217L64.091 13.8869H64.7429V9.2499H64.1187V11.9632L64.1451 12.8577H64.1187L61.7579 9.2499H60.9975V13.8869H61.6217V10.9991Z" fill="white" stroke="white" stroke-width="0.291947" stroke-miterlimit="10"/>
</svg>
