<svg width="18" height="19" viewBox="0 0 18 19" fill="none" xmlns="http://www.w3.org/2000/svg">
    <path
        d="M9 17.4167C4.86279 17.4167 1.5 13.8671 1.5 9.50004C1.5 5.13299 4.86279 1.58337 9 1.58337C13.1372 1.58337 16.5 5.13299 16.5 9.50004C16.5 13.8671 13.1372 17.4167 9 17.4167ZM9 2.68803C5.44186 2.68803 2.54651 5.74423 2.54651 9.50004C2.54651 13.2559 5.44186 16.3121 9 16.3121C12.5581 16.3121 15.4535 13.2559 15.4535 9.50004C15.4535 5.74423 12.5581 2.68803 9 2.68803Z"
        fill="#292D32" />
    <path
        d="M6.90698 16.6803H6.2093C5.92326 16.6803 5.68605 16.4299 5.68605 16.1279C5.68605 15.826 5.9093 15.583 6.19535 15.5756C5.1 11.6283 5.1 7.37175 6.19535 3.42446C5.9093 3.41709 5.68605 3.17407 5.68605 2.87213C5.68605 2.5702 5.92326 2.31981 6.2093 2.31981H6.90698C7.07442 2.31981 7.23488 2.40818 7.33256 2.5481C7.43023 2.69539 7.45814 2.8795 7.40233 3.04888C6.0907 7.20973 6.0907 11.7904 7.40233 15.9586C7.45814 16.1279 7.43023 16.3121 7.33256 16.4593C7.23488 16.5919 7.07442 16.6803 6.90698 16.6803Z"
        fill="#292D32" />
    <path
        d="M11.0933 16.6808C11.0375 16.6808 10.9817 16.6734 10.9259 16.6513C10.6538 16.5556 10.5003 16.2389 10.598 15.9517C11.9096 11.7908 11.9096 7.21022 10.598 3.04201C10.5073 2.7548 10.6538 2.43813 10.9259 2.34239C11.2049 2.24666 11.498 2.40131 11.5886 2.68852C12.977 7.07766 12.977 11.9087 11.5886 16.2905C11.5189 16.5335 11.3096 16.6808 11.0933 16.6808Z"
        fill="#292D32" />
    <path
        d="M9 13.3301C7.05349 13.3301 5.11395 13.0429 3.24419 12.4611C3.23721 12.7556 3.00698 12.9987 2.72093 12.9987C2.43488 12.9987 2.19767 12.7483 2.19767 12.4463V11.7099C2.19767 11.5332 2.2814 11.3638 2.41395 11.2607C2.55349 11.1576 2.72791 11.1281 2.88837 11.187C6.83023 12.5715 11.1767 12.5715 15.1186 11.187C15.2791 11.1281 15.4535 11.1576 15.593 11.2607C15.7326 11.3638 15.8093 11.5332 15.8093 11.7099V12.4463C15.8093 12.7483 15.5721 12.9987 15.286 12.9987C15 12.9987 14.7698 12.763 14.7628 12.4611C12.886 13.0429 10.9465 13.3301 9 13.3301Z"
        fill="#292D32" />
    <path
        d="M15.2789 7.8426C15.2231 7.8426 15.1673 7.83524 15.1115 7.81315C11.1696 6.42865 6.82311 6.42865 2.88124 7.81315C2.60217 7.90888 2.30915 7.75423 2.21845 7.46702C2.13473 7.17245 2.28124 6.86315 2.55334 6.76741C6.71148 5.30191 11.2882 5.30191 15.4394 6.76741C15.7115 6.86315 15.865 7.17981 15.7673 7.46702C15.7045 7.69532 15.4952 7.8426 15.2789 7.8426Z"
        fill="#292D32" />
</svg>