<svg width="30" height="30" viewBox="0 0 30 30" fill="none" xmlns="http://www.w3.org/2000/svg">
<path d="M9.9496 8.09368C9.9496 6.97353 9.96553 5.85161 9.9496 4.72795C9.9496 4.43149 10.0489 4.30723 10.322 4.20782C14.0392 2.8374 17.7546 1.45632 21.4665 0.0645881C21.8389 -0.0756499 21.9683 0.00778281 22.0996 0.36104C24.6995 7.39424 27.3082 14.4275 29.9259 21.4571C30.0376 21.7536 30.0695 21.9222 29.6811 22.0642C22.6015 24.679 15.5289 27.3063 8.46165 29.9477C8.14063 30.0667 8.05552 29.9832 7.9491 29.6921C5.3244 22.6127 2.69612 15.5369 0.0589846 8.46287C-0.0545169 8.15935 -0.0190477 8.04039 0.296629 7.92858C2.05945 7.29305 3.81695 6.64157 5.56914 5.97766C5.92205 5.84275 6.03201 5.8889 6.00895 6.27414C5.98235 6.7179 6.02667 7.16524 5.99477 7.60906C5.96817 7.97296 6.07105 8.08835 6.45231 8.08125C7.62105 8.05816 8.79149 8.08125 9.96198 8.08125C9.96198 9.26883 9.9815 10.4582 9.96198 11.6404C9.96198 11.9689 10.0542 12.0576 10.3788 12.0523C11.3985 12.031 12.4218 12.0718 13.4451 12.0328C13.8955 12.0168 13.9824 12.1552 13.9807 12.5795C13.9629 16.2221 13.9736 19.863 13.9665 23.5056C13.9665 23.8216 13.9736 24.0169 14.3974 24.0134C16.7721 23.992 19.1415 23.9974 21.5125 24.0134C21.8548 24.0134 21.9151 23.8908 21.9134 23.5837C21.9063 18.5583 21.9063 13.531 21.9134 8.50549C21.9134 8.19839 21.8513 8.08125 21.5125 8.08301C17.657 8.0972 13.8033 8.09368 9.94781 8.09544L9.9496 8.09368Z" fill="white"/>
</svg>
