<svg width="18" height="19" viewBox="0 0 18 19" fill="none" xmlns="http://www.w3.org/2000/svg">
    <path
        d="M8.65199 16.6804C4.70967 16.6804 1.5 13.2925 1.5 9.13111C1.5 4.96978 4.70967 1.58179 8.65199 1.58179C12.5943 1.58179 15.804 4.96978 15.804 9.13111C15.804 13.2925 12.5943 16.6804 8.65199 16.6804ZM8.65199 2.68657C5.28183 2.68657 2.54663 5.58109 2.54663 9.13111C2.54663 12.6811 5.28183 15.5757 8.65199 15.5757C12.0222 15.5757 14.7574 12.6811 14.7574 9.13111C14.7574 5.58109 12.0222 2.68657 8.65199 2.68657Z"
        fill="#292D32" />
    <path
        d="M15.9784 17.417C15.8458 17.417 15.7133 17.3654 15.6086 17.2549L14.2131 15.7819C14.0108 15.5683 14.0108 15.2148 14.2131 15.0012C14.4155 14.7876 14.7504 14.7876 14.9527 15.0012L16.3482 16.4742C16.5506 16.6878 16.5506 17.0413 16.3482 17.2549C16.2436 17.3654 16.111 17.417 15.9784 17.417Z"
        fill="#292D32" />
</svg>