<svg width="102" height="35" viewBox="0 0 102 35" fill="none" xmlns="http://www.w3.org/2000/svg">
    <path
        d="M11.128 9.24935C11.128 7.98775 11.1456 6.72417 11.128 5.45862C11.128 5.12473 11.2377 4.98478 11.5396 4.87282C15.6483 3.32934 19.755 1.77387 23.8578 0.206411C24.2695 0.0484647 24.4125 0.142433 24.5576 0.540296C27.4313 8.46159 30.3148 16.3829 33.2081 24.3002C33.3317 24.6341 33.3669 24.824 32.9376 24.9839C25.1124 27.9289 17.2949 30.888 9.48332 33.8629C9.1285 33.9969 9.03443 33.9029 8.9168 33.575C6.01566 25.6017 3.11057 17.6325 0.19569 9.66516C0.0702345 9.32331 0.109439 9.18933 0.458363 9.0634C2.40684 8.34762 4.34945 7.61388 6.28617 6.86613C6.67625 6.71419 6.7978 6.76616 6.77231 7.20005C6.7429 7.69985 6.7919 8.20367 6.75664 8.70353C6.72723 9.11339 6.84094 9.24334 7.26236 9.23535C8.55419 9.20934 9.84791 9.23535 11.1417 9.23535C11.1417 10.5729 11.1632 11.9124 11.1417 13.2439C11.1417 13.6138 11.2436 13.7138 11.6024 13.7078C12.7295 13.6838 13.8606 13.7298 14.9916 13.6858C15.4895 13.6678 15.5856 13.8238 15.5836 14.3016C15.564 18.4042 15.5758 22.5048 15.5679 26.6074C15.5679 26.9633 15.5758 27.1832 16.0442 27.1792C18.669 27.1552 21.2879 27.1612 23.9087 27.1792C24.2871 27.1792 24.3537 27.0412 24.3518 26.6953C24.344 21.0353 24.344 15.3732 24.3518 9.71316C24.3518 9.36728 24.2832 9.23535 23.9087 9.23733C19.6472 9.25331 15.3876 9.24935 11.126 9.25133L11.128 9.24935Z"
        fill="#F0500A" />
    <path
        d="M4.57891 4.76681C3.96143 4.76681 3.34395 4.75881 2.72059 4.76681C2.4638 4.76681 2.31678 4.73082 2.31875 4.41292C2.33247 3.13536 2.32854 1.8578 2.31875 0.580234C2.31875 0.322323 2.39911 0.220357 2.66375 0.224356C3.92222 0.24035 5.17678 0.24235 6.43132 0.228354C6.69792 0.228354 6.77047 0.324322 6.77047 0.584233C6.76065 1.8618 6.75673 3.13936 6.77047 4.41692C6.77047 4.73682 6.63518 4.7788 6.37647 4.7728C5.77856 4.75881 5.17874 4.76881 4.58086 4.76881L4.57891 4.76681Z"
        fill="#F0500A" />
    <path
        d="M46.12 27.1719C44.5155 27.1719 43.059 26.7725 41.7505 25.9738C40.4419 25.1751 39.4138 24.0968 38.666 22.739C37.9183 21.3652 37.5444 19.8556 37.5444 18.2103C37.5444 16.5809 37.9183 15.0793 38.666 13.7055C39.4138 12.3317 40.4419 11.2455 41.7505 10.4467C43.059 9.64802 44.5155 9.24866 46.12 9.24866C47.7246 9.24866 49.1811 9.64802 50.4896 10.4467C51.7982 11.2455 52.8263 12.3317 53.5741 13.7055C54.3374 15.0793 54.719 16.5809 54.719 18.2103C54.719 19.8556 54.3452 21.3652 53.5974 22.739C52.8497 24.0968 51.8138 25.1751 50.4896 25.9738C49.1811 26.7725 47.7246 27.1719 46.12 27.1719ZM46.12 25.231C47.3195 25.231 48.4178 24.9355 49.4148 24.3444C50.4273 23.7374 51.2218 22.9067 51.7982 21.8524C52.3901 20.7821 52.6861 19.5681 52.6861 18.2103C52.6861 16.8525 52.3901 15.6464 51.7982 14.5921C51.2218 13.5218 50.4273 12.6911 49.4148 12.1001C48.4178 11.4931 47.3195 11.1895 46.12 11.1895C44.9206 11.1895 43.8223 11.4931 42.8253 12.1001C41.8283 12.6911 41.0339 13.5218 40.4419 14.5921C39.85 15.6624 39.554 16.8684 39.554 18.2103C39.554 19.5521 39.85 20.7582 40.4419 21.8285C41.0339 22.8987 41.8283 23.7374 42.8253 24.3444C43.8223 24.9355 44.9206 25.231 46.12 25.231Z"
        fill="#00AF51" />
    <path
        d="M58.6258 16.4131H56.4293V14.5681H58.6258V13.2502C58.6258 12.4834 58.7972 11.8125 59.1399 11.2374C59.4826 10.6623 59.9421 10.2231 60.5185 9.91954C61.0949 9.60005 61.7336 9.44031 62.4346 9.44031C63.1044 9.44031 63.6886 9.53615 64.1871 9.72785V11.7167C63.9067 11.6048 63.6419 11.517 63.3926 11.4531C63.1434 11.3732 62.8474 11.3333 62.5047 11.3333C61.9906 11.3333 61.5467 11.525 61.1728 11.9083C60.7989 12.2758 60.612 12.7949 60.612 13.4658V14.5681H66.0331V13.2502C66.0331 12.4834 66.1966 11.8125 66.5238 11.2374C66.8665 10.6623 67.326 10.2231 67.9024 9.91954C68.4944 9.60005 69.1409 9.44031 69.8419 9.44031C70.4806 9.44031 71.0647 9.53615 71.5944 9.72785V11.7167C71.2828 11.5889 71.0024 11.493 70.7532 11.4291C70.5195 11.3652 70.2313 11.3333 69.8886 11.3333C69.3745 11.3333 68.9306 11.525 68.5567 11.9083C68.1828 12.2758 67.9959 12.7949 67.9959 13.4658V14.5681H75.3798V26.7885H73.417V16.4131H67.9959V26.7885H66.0331V16.4131H60.612V26.7885H58.6258V16.4131ZM74.3984 12.4595C74.0089 12.4595 73.674 12.3157 73.3936 12.0282C73.1132 11.7406 72.973 11.3972 72.973 10.9978C72.973 10.5825 73.1132 10.239 73.3936 9.96746C73.674 9.67992 74.0089 9.53615 74.3984 9.53615C74.8034 9.53615 75.1383 9.67992 75.4032 9.96746C75.6836 10.239 75.8238 10.5825 75.8238 10.9978C75.8238 11.3972 75.6836 11.7406 75.4032 12.0282C75.1383 12.3157 74.8034 12.4595 74.3984 12.4595Z"
        fill="#0068C4" />
    <path
        d="M83.7983 27.1718C82.6455 27.1718 81.6096 26.8923 80.6905 26.3332C79.7714 25.7581 79.0548 24.9834 78.5408 24.0089C78.0267 23.0185 77.7697 21.9083 77.7697 20.6783C77.7697 19.4482 78.0267 18.338 78.5408 17.3476C79.0548 16.3572 79.7714 15.5824 80.6905 15.0233C81.6096 14.4642 82.6455 14.1847 83.7983 14.1847C85.0913 14.1847 86.1739 14.4962 87.0463 15.1192C87.9342 15.7262 88.5651 16.5409 88.939 17.5633L87.1397 18.33C86.8438 17.5792 86.3998 17.0122 85.8078 16.6288C85.2315 16.2294 84.5304 16.0297 83.7048 16.0297C83.0038 16.0297 82.3495 16.2294 81.742 16.6288C81.1345 17.0122 80.6438 17.5553 80.2699 18.2582C79.9116 18.961 79.7325 19.7677 79.7325 20.6783C79.7325 21.5888 79.9116 22.3955 80.2699 23.0984C80.6438 23.8013 81.1345 24.3524 81.742 24.7517C82.3495 25.1351 83.0038 25.3268 83.7048 25.3268C84.546 25.3268 85.2704 25.1271 85.8779 24.7278C86.4855 24.3284 86.9372 23.7613 87.2332 23.0265L89.0091 23.7933C88.6041 24.7997 87.9498 25.6143 87.0463 26.2373C86.1583 26.8603 85.0757 27.1718 83.7983 27.1718Z"
        fill="#FEB700" />
    <path
        d="M96.3466 27.1718C95.2094 27.1718 94.1891 26.8923 93.2856 26.3332C92.3821 25.7741 91.6733 25.0073 91.1592 24.0329C90.6607 23.0425 90.4115 21.9323 90.4115 20.7022C90.4115 19.5201 90.6451 18.4339 91.1125 17.4435C91.5954 16.4531 92.273 15.6623 93.1454 15.0713C94.0177 14.4802 95.0303 14.1847 96.1831 14.1847C97.3514 14.1847 98.364 14.4563 99.2207 14.9994C100.078 15.5265 100.732 16.2614 101.184 17.2038C101.651 18.1463 101.885 19.2246 101.885 20.4387C101.885 20.6783 101.861 20.8859 101.814 21.0617H92.3976C92.4444 21.9882 92.6625 22.7709 93.0519 23.4099C93.4414 24.0489 93.9321 24.5281 94.524 24.8476C95.1315 25.1671 95.7625 25.3268 96.4167 25.3268C97.9434 25.3268 99.1195 24.592 99.9451 23.1223L101.628 23.961C101.113 24.9514 100.412 25.7342 99.5245 26.3092C98.6521 26.8843 97.5928 27.1718 96.3466 27.1718ZM99.7815 19.3843C99.7504 18.8732 99.6102 18.362 99.3609 17.8508C99.1117 17.3396 98.7145 16.9083 98.1692 16.5569C97.6396 16.2054 96.9697 16.0297 96.1597 16.0297C95.225 16.0297 94.4305 16.3412 93.7763 16.9642C93.1376 17.5713 92.717 18.378 92.5145 19.3843H99.7815Z"
        fill="#FEB700" />
</svg>