<svg width="1280" height="220" viewBox="84 144.131 1280 220" fill="none" xmlns="http://www.w3.org/2000/svg">
<rect width="1280" height="120" transform="translate(84 244.131)" fill="#01183C"/>
<g style="mix-blend-mode:hard-light" opacity="0.36" clip-path="url(#clip0_401_4315)">
<path d="M7.00409 310.984C230.775 242.376 235.582 305.176 675.74 336.882C1021.31 361.784 1177.84 281.075 1688.92 0.185065" stroke="url(#paint0_linear_401_4315)" stroke-width="0.5" stroke-miterlimit="10"/>
<path d="M8.65012 321.309C231.366 250.767 262.014 298.954 688.657 333.414C1030.28 360.995 1184.1 286.314 1690.9 12.5942" stroke="url(#paint1_linear_401_4315)" stroke-width="0.5" stroke-miterlimit="10"/>
<path d="M10.2979 331.641C231.96 259.18 288.373 292.824 701.595 329.935C1039.17 360.27 1190.35 291.551 1692.88 25.0181" stroke="url(#paint2_linear_401_4315)" stroke-width="0.5" stroke-miterlimit="10"/>
<path d="M11.9449 341.966C232.533 267.59 314.64 286.804 714.511 326.46C1048.14 359.571 1196.61 296.791 1694.86 37.4282" stroke="url(#paint3_linear_401_4315)" stroke-width="0.5" stroke-miterlimit="10"/>
<path d="M13.5975 352.326C233.126 275.995 340.886 280.787 727.449 322.981C1056.98 358.94 1202.85 302.026 1696.84 49.8442" stroke="url(#paint4_linear_401_4315)" stroke-width="0.5" stroke-miterlimit="10"/>
<path d="M15.2388 362.621C233.781 284.376 366.889 274.91 740.409 319.505C1065.77 358.363 1209.11 307.265 1698.82 62.2603" stroke="url(#paint5_linear_401_4315)" stroke-width="0.5" stroke-miterlimit="10"/>
<path d="M16.8881 372.961C234.294 292.825 392.862 269.112 753.311 316.077C1074.48 357.851 1215.38 312.506 1700.8 74.6704" stroke="url(#paint6_linear_401_4315)" stroke-width="0.5" stroke-miterlimit="10"/>
<path d="M18.5336 383.278C234.885 301.216 418.69 263.373 766.242 312.555C1083.11 357.401 1221.62 317.748 1702.78 87.0864" stroke="url(#paint7_linear_401_4315)" stroke-width="0.5" stroke-miterlimit="10"/>
<path d="M20.1785 393.596C235.481 309.643 444.399 257.719 779.158 309.08C1091.62 357.022 1227.88 322.981 1704.76 99.5036" stroke="url(#paint8_linear_401_4315)" stroke-width="0.5" stroke-miterlimit="10"/>
<path d="M21.8264 403.928C236.07 318.021 469.991 252.149 792.097 305.608C1099.98 356.702 1234.04 328.238 1706.74 111.92" stroke="url(#paint9_linear_401_4315)" stroke-width="0.5" stroke-miterlimit="10"/>
<path d="M23.4696 414.23C236.642 326.429 495.418 246.649 805.035 302.129C1108.23 356.459 1240.38 333.456 1708.71 124.308" stroke="url(#paint10_linear_401_4315)" stroke-width="0.5" stroke-miterlimit="10"/>
<path d="M25.1203 424.584C237.15 334.85 520.678 241.213 817.95 298.655C1116.31 356.295 1246.65 338.697 1710.68 136.75" stroke="url(#paint11_linear_401_4315)" stroke-width="0.5" stroke-miterlimit="10"/>
<path d="M26.7685 434.915C237.829 343.241 545.777 235.86 830.889 295.175C1124.1 356.219 1252.89 343.939 1712.68 149.162" stroke="url(#paint12_linear_401_4315)" stroke-width="0.5" stroke-miterlimit="10"/>
<path d="M28.4152 445.24C238.423 351.647 570.731 230.56 843.806 291.707C1131.87 356.198 1259.15 349.172 1714.66 161.58" stroke="url(#paint13_linear_401_4315)" stroke-width="0.5" stroke-miterlimit="10"/>
<path d="M30.0617 455.565C238.973 360.06 595.449 225.304 856.744 288.228C1139.35 356.253 1265.39 354.393 1716.64 173.989" stroke="url(#paint14_linear_401_4315)" stroke-width="0.5" stroke-miterlimit="10"/>
<path d="M31.7093 465.896C239.588 368.462 620.05 220.141 869.682 284.749C1146.57 356.423 1271.66 359.64 1718.62 186.405" stroke="url(#paint15_linear_401_4315)" stroke-width="0.5" stroke-miterlimit="10"/>
<path d="M33.3559 476.221C240.177 376.84 644.352 215.025 882.598 281.274C1153.55 356.653 1277.92 364.887 1720.6 198.815" stroke="url(#paint16_linear_401_4315)" stroke-width="0.5" stroke-miterlimit="10"/>
</g>
<g clip-path="url(#clip1_401_4315)">
<path d="M437.489 268.74C437.499 269.134 437.481 269.536 437.416 269.922C437.353 270.31 437.249 270.688 437.109 271.05C436.97 271.413 436.792 271.76 436.585 272.09C436.386 272.426 436.154 272.743 435.894 273.036C435.274 272.674 434.746 272.176 434.359 271.563C434.166 271.256 434.007 270.921 433.89 270.559C433.832 270.379 433.784 270.191 433.747 269.998C433.712 269.807 433.69 269.611 433.679 269.41C433.636 268.603 433.79 267.794 434.098 267.035C434.249 266.652 434.452 266.297 434.686 265.958C434.92 265.62 435.187 265.301 435.481 265.008C436.672 265.805 437.431 267.153 437.489 268.74Z" fill="#FFCC80"/>
<path d="M440.333 274.323C440.134 274.352 439.934 274.37 439.738 274.379C439.545 274.39 439.353 274.39 439.163 274.381C438.784 274.362 438.414 274.304 438.058 274.209C437.347 274.019 436.695 273.683 436.151 273.221C436.365 272.895 436.61 272.589 436.883 272.31C437.165 272.036 437.477 271.791 437.809 271.577C438.142 271.363 438.496 271.182 438.867 271.04C439.24 270.899 439.622 270.792 440.033 270.741C441.664 270.528 443.128 271.071 444.152 272.058C443.932 272.353 443.681 272.627 443.403 272.874C443.125 273.121 442.817 273.34 442.503 273.54C441.866 273.933 441.133 274.206 440.333 274.323Z" fill="#FFCC80"/>
<path d="M433.451 273.7C433.555 274.543 433.473 275.375 433.234 276.154C433.203 276.25 433.172 276.348 433.141 276.446C433.109 276.544 433.075 276.64 433.038 276.736C432.965 276.928 432.883 277.116 432.792 277.299C432.609 277.666 432.39 278.015 432.138 278.342C430.768 277.69 429.742 276.439 429.497 274.721C429.466 274.507 429.448 274.291 429.443 274.074C429.436 273.857 429.452 273.647 429.475 273.434C429.522 273.009 429.616 272.586 429.752 272.174C429.89 271.762 430.065 271.356 430.284 270.976C430.509 270.601 430.771 270.244 431.062 269.912C431.718 270.288 432.269 270.819 432.678 271.463C432.883 271.785 433.051 272.135 433.18 272.508C433.245 272.694 433.299 272.887 433.343 273.084C433.386 273.281 433.426 273.489 433.451 273.7Z" fill="#FFCC80"/>
<path d="M436.92 279.326C435.298 279.699 433.655 279.383 432.43 278.511C432.628 278.155 432.863 277.816 433.128 277.503C433.261 277.346 433.401 277.196 433.549 277.052C433.623 276.981 433.698 276.911 433.775 276.843C433.814 276.81 433.853 276.776 433.893 276.743L434.017 276.649C434.685 276.153 435.455 275.789 436.287 275.611C436.496 275.567 436.698 275.533 436.907 275.516C437.116 275.499 437.321 275.494 437.524 275.501C437.929 275.513 438.321 275.571 438.696 275.67C439.447 275.868 440.128 276.229 440.704 276.71C440.497 277.03 440.256 277.328 439.984 277.602C439.719 277.879 439.434 278.135 439.115 278.359C438.798 278.583 438.452 278.778 438.082 278.94C437.898 279.021 437.702 279.091 437.512 279.157C437.32 279.223 437.123 279.28 436.92 279.326Z" fill="#FFCC80"/>
<path d="M429.653 279.269C429.823 280.133 429.845 281.027 429.686 281.871C429.514 282.71 429.236 283.539 428.789 284.28C427.277 283.754 426.045 282.558 425.594 280.758C425.389 279.874 425.403 278.939 425.601 278.025C425.82 277.128 426.228 276.259 426.773 275.487C428.217 276.157 429.288 277.532 429.653 279.269Z" fill="#FFCC80"/>
<path d="M433.886 284.797C432.252 285.341 430.499 285.197 429.109 284.424C429.437 283.635 429.905 282.892 430.556 282.309C431.194 281.719 431.94 281.254 432.815 281.004C434.544 280.491 436.222 280.858 437.527 281.767C437.178 282.465 436.678 283.086 436.055 283.598C435.458 284.12 434.728 284.532 433.886 284.797Z" fill="#FFCC80"/>
<path d="M426.295 285.547C426.37 285.77 426.433 285.994 426.483 286.219C426.507 286.332 426.531 286.445 426.556 286.56C426.579 286.674 426.599 286.789 426.616 286.903C426.683 287.361 426.704 287.818 426.679 288.269C426.645 288.718 426.605 289.174 426.508 289.615C426.46 289.836 426.402 290.055 426.333 290.27C426.266 290.486 426.178 290.696 426.103 290.909C425.69 290.826 425.286 290.698 424.902 290.523C424.518 290.347 424.151 290.124 423.821 289.856C423.159 289.319 422.614 288.591 422.254 287.671C422.209 287.556 422.167 287.44 422.129 287.322C422.11 287.263 422.092 287.204 422.075 287.145C422.059 287.086 422.045 287.027 422.031 286.968C421.976 286.732 421.934 286.491 421.906 286.247C421.85 285.76 421.846 285.261 421.892 284.76C421.898 284.698 421.905 284.635 421.911 284.573C421.92 284.511 421.93 284.45 421.941 284.388C421.963 284.266 421.987 284.143 422.015 284.021C422.07 283.777 422.137 283.534 422.214 283.294C422.292 283.054 422.381 282.816 422.481 282.583C422.53 282.466 422.583 282.351 422.638 282.236C422.694 282.123 422.758 282.014 422.821 281.904C423.622 282.172 424.335 282.636 424.924 283.254C425.52 283.877 425.993 284.654 426.295 285.546L426.295 285.547Z" fill="#FFCC80"/>
<path d="M431.502 290.755C430.692 291.136 429.821 291.348 428.957 291.394C428.523 291.415 428.1 291.397 427.682 291.335C427.265 291.272 426.855 291.166 426.462 291.014C426.504 290.793 426.581 290.581 426.657 290.37C426.735 290.159 426.824 289.952 426.924 289.75C427.124 289.346 427.351 288.958 427.652 288.613C427.945 288.265 428.273 287.947 428.633 287.67C428.723 287.601 428.815 287.534 428.908 287.47C429.001 287.405 429.097 287.344 429.2 287.287C429.403 287.172 429.613 287.068 429.83 286.977C430.697 286.61 431.58 286.476 432.428 286.536C433.287 286.599 434.11 286.854 434.845 287.251C434.808 287.344 434.767 287.435 434.727 287.526C434.689 287.618 434.649 287.709 434.606 287.798C434.52 287.977 434.424 288.151 434.318 288.321C434.212 288.49 434.096 288.655 433.97 288.814C433.907 288.893 433.842 288.971 433.774 289.048L433.67 289.161L433.57 289.275C433.298 289.574 432.987 289.849 432.638 290.097C432.464 290.221 432.28 290.337 432.088 290.447C431.99 290.501 431.894 290.554 431.799 290.606C431.702 290.658 431.603 290.708 431.501 290.755L431.502 290.755Z" fill="#FFCC80"/>
<path d="M423.723 292.616C423.962 293.062 424.15 293.52 424.289 293.984C424.324 294.1 424.356 294.217 424.384 294.333C424.414 294.45 424.447 294.569 424.474 294.687C424.529 294.924 424.572 295.161 424.604 295.399C424.709 296.346 424.708 297.309 424.502 298.24C424.058 298.23 423.615 298.171 423.182 298.059C422.752 297.948 422.335 297.784 421.939 297.563C421.148 297.123 420.436 296.453 419.891 295.543C419.632 295.092 419.428 294.606 419.278 294.095C419.203 293.84 419.141 293.579 419.092 293.314C419.053 293.052 419.028 292.785 419.015 292.517C419.003 292.248 419.003 291.977 419.016 291.705C419.022 291.569 419.032 291.433 419.044 291.297C419.058 291.161 419.07 291.024 419.096 290.891C419.192 290.356 419.337 289.825 419.526 289.312C420.402 289.471 421.222 289.857 421.936 290.421C422.293 290.704 422.623 291.031 422.92 291.397C423.069 291.581 423.209 291.774 423.34 291.976C423.469 292.178 423.604 292.394 423.722 292.616L423.723 292.616Z" fill="#FFCC80"/>
<path d="M430.059 297.143C429.296 297.661 428.444 298.027 427.558 298.226C427.116 298.325 426.667 298.382 426.22 298.392C425.776 298.403 425.331 298.368 424.894 298.283C424.957 297.346 425.188 296.408 425.676 295.591C425.793 295.385 425.92 295.187 426.058 294.996C426.128 294.901 426.197 294.808 426.275 294.717C426.354 294.627 426.435 294.539 426.519 294.454C426.855 294.112 427.23 293.808 427.641 293.551C427.849 293.424 428.051 293.309 428.272 293.213C428.491 293.116 428.712 293.034 428.935 292.966C429.38 292.83 429.831 292.751 430.279 292.723C431.176 292.666 432.067 292.815 432.899 293.119C432.821 293.514 432.696 293.896 432.525 294.265C432.48 294.357 432.444 294.449 432.4 294.54C432.358 294.631 432.312 294.72 432.263 294.809C432.166 294.987 432.058 295.161 431.938 295.331C431.819 295.501 431.687 295.666 431.546 295.827C431.414 295.989 431.271 296.146 431.117 296.298C430.809 296.602 430.456 296.885 430.059 297.143Z" fill="#FFCC80"/>
<path d="M422.385 300.465C422.724 300.883 423.01 301.322 423.254 301.776C423.514 302.23 423.725 302.698 423.887 303.176C423.929 303.296 423.963 303.416 424.003 303.537C424.043 303.657 424.08 303.778 424.114 303.9C424.183 304.143 424.239 304.388 424.282 304.635C424.36 305.129 424.432 305.626 424.444 306.126C423.523 306.297 422.569 306.265 421.643 305.977C421.183 305.833 420.721 305.626 420.291 305.349C419.865 305.072 419.457 304.726 419.078 304.307C418.888 304.098 418.71 303.876 418.544 303.643C418.387 303.41 418.245 303.167 418.114 302.914C417.983 302.661 417.865 302.398 417.76 302.129C417.707 301.994 417.657 301.857 417.611 301.719C417.563 301.58 417.531 301.441 417.495 301.3C417.359 300.737 417.275 300.151 417.243 299.56C417.232 298.972 417.277 298.379 417.371 297.797C418.309 297.797 419.235 298.051 420.087 298.51C420.513 298.74 420.921 299.02 421.302 299.347C421.493 299.511 421.674 299.686 421.854 299.872C422.038 300.059 422.216 300.257 422.385 300.466L422.385 300.465Z" fill="#FFCC80"/>
<path d="M429.912 303.839C429.572 304.179 429.2 304.487 428.803 304.758C428.411 305.029 428.007 305.264 427.577 305.458C426.721 305.847 425.793 306.073 424.855 306.085C424.769 305.597 424.72 305.101 424.765 304.606C424.783 304.359 424.813 304.114 424.855 303.871C424.876 303.75 424.9 303.629 424.928 303.51C424.955 303.39 424.996 303.271 425.034 303.154C425.192 302.684 425.399 302.234 425.655 301.816C425.928 301.399 426.257 301.014 426.628 300.673C426.814 300.502 427.008 300.347 427.207 300.207C427.41 300.068 427.625 299.943 427.84 299.832C428.273 299.612 428.722 299.45 429.18 299.341C430.096 299.123 431.046 299.119 431.969 299.278C431.971 299.684 431.919 300.086 431.82 300.483C431.744 300.88 431.616 301.27 431.437 301.654C431.394 301.75 431.341 301.846 431.298 301.941C431.252 302.035 431.204 302.13 431.153 302.223C431.049 302.411 430.933 302.596 430.805 302.779C430.676 302.962 430.534 303.142 430.382 303.319C430.238 303.496 430.081 303.669 429.912 303.839Z" fill="#FFCC80"/>
<path d="M422.781 308.883C423.234 309.239 423.64 309.626 423.999 310.038C424.174 310.246 424.361 310.454 424.525 310.671C424.691 310.887 424.845 311.109 424.988 311.336C425.57 312.241 426.002 313.219 426.278 314.238C425.375 314.622 424.388 314.804 423.371 314.718C422.862 314.675 422.346 314.564 421.83 314.38C421.319 314.193 420.821 313.928 420.328 313.583C420.082 313.411 419.845 313.223 419.619 313.02C419.402 312.815 419.194 312.596 418.997 312.364C418.8 312.132 418.614 311.888 418.439 311.633C418.395 311.569 418.352 311.505 418.31 311.44C418.268 311.374 418.23 311.308 418.192 311.241C418.116 311.107 418.042 310.971 417.972 310.832C417.831 310.555 417.702 310.27 417.586 309.977C417.529 309.831 417.469 309.684 417.424 309.534C417.378 309.384 417.335 309.232 417.296 309.079C417.217 308.774 417.151 308.464 417.098 308.152C417.072 307.996 417.049 307.839 417.03 307.683C417.016 307.525 417.007 307.367 417 307.209C417.967 307.005 418.974 307.071 419.949 307.363C420.445 307.509 420.934 307.71 421.409 307.965C421.646 308.092 421.879 308.233 422.107 308.386C422.222 308.463 422.334 308.543 422.446 308.626C422.557 308.709 422.667 308.796 422.782 308.884L422.781 308.883Z" fill="#FFCC80"/>
<path d="M431.332 310.656C431.067 311.08 430.755 311.48 430.42 311.847C430.091 312.212 429.727 312.546 429.334 312.843C428.548 313.436 427.65 313.878 426.692 314.102C426.269 313.143 426.082 312.085 426.161 311.054C426.184 310.796 426.221 310.54 426.272 310.287C426.325 310.035 426.382 309.788 426.477 309.543C426.657 309.054 426.895 308.589 427.192 308.159C427.264 308.051 427.346 307.947 427.43 307.846C427.514 307.745 427.601 307.647 427.689 307.554C427.866 307.366 428.052 307.193 428.246 307.034C428.635 306.716 429.055 306.455 429.497 306.246C430.397 305.827 431.379 305.621 432.362 305.584C432.382 305.686 432.399 305.789 432.412 305.892C432.431 305.994 432.447 306.096 432.46 306.2C432.485 306.406 432.497 306.614 432.496 306.823C432.495 306.928 432.491 307.033 432.483 307.138C432.475 307.244 432.475 307.348 432.465 307.454C432.448 307.664 432.418 307.876 432.374 308.09C432.352 308.196 432.327 308.303 432.299 308.41C432.284 308.464 432.269 308.517 432.254 308.571C432.241 308.624 432.227 308.677 432.211 308.731C432.152 308.944 432.078 309.158 431.991 309.373C431.904 309.588 431.803 309.803 431.689 310.018C431.583 310.231 431.465 310.444 431.332 310.656Z" fill="#FFCC80"/>
<path d="M425.251 317.437C425.796 317.701 426.292 318.013 426.778 318.348C427.258 318.686 427.683 319.066 428.1 319.462C428.304 319.661 428.497 319.87 428.679 320.085C428.77 320.193 428.86 320.301 428.951 320.41C429.04 320.519 429.127 320.63 429.211 320.743C429.379 320.969 429.535 321.202 429.68 321.441C429.831 321.677 429.973 321.918 430.102 322.166C429.26 322.751 428.285 323.147 427.217 323.278C426.95 323.311 426.677 323.327 426.4 323.326C426.123 323.324 425.846 323.301 425.563 323.261C424.998 323.18 424.418 323.024 423.83 322.784C423.254 322.536 422.703 322.216 422.184 321.837C422.052 321.743 421.928 321.642 421.807 321.538C421.685 321.433 421.565 321.325 421.448 321.214C421.213 320.991 420.987 320.755 420.772 320.508C420.662 320.386 420.563 320.256 420.465 320.124C420.367 319.992 420.271 319.858 420.179 319.721C419.994 319.448 419.82 319.165 419.658 318.875C419.502 318.582 419.366 318.278 419.239 317.97C419.113 317.662 418.997 317.35 418.902 317.031C419.374 316.817 419.871 316.67 420.385 316.587C420.9 316.502 421.436 316.48 421.977 316.518C422.518 316.555 423.067 316.652 423.612 316.807C423.886 316.884 424.153 316.978 424.429 317.082C424.705 317.185 424.98 317.303 425.251 317.436L425.251 317.437Z" fill="#FFCC80"/>
<path d="M434.456 317.39C434.29 317.887 434.074 318.366 433.814 318.819C433.685 319.045 433.542 319.266 433.394 319.477C433.247 319.687 433.09 319.891 432.923 320.085C432.256 320.864 431.433 321.507 430.497 321.94C430.334 321.715 430.181 321.482 430.042 321.242C429.91 320.999 429.79 320.749 429.683 320.495C429.63 320.368 429.58 320.24 429.533 320.111C429.51 320.046 429.487 319.981 429.465 319.916C429.445 319.851 429.427 319.784 429.409 319.718C429.338 319.453 429.28 319.185 429.238 318.916C429.145 318.381 429.147 317.828 429.202 317.29C429.251 316.754 429.397 316.217 429.602 315.705C429.705 315.449 429.823 315.206 429.954 314.975C430.086 314.743 430.241 314.522 430.402 314.314C430.726 313.898 431.095 313.534 431.5 313.218C431.905 312.903 432.344 312.637 432.81 312.417C433.277 312.197 433.766 312.023 434.266 311.894C434.362 312.094 434.453 312.297 434.525 312.506C434.6 312.714 434.657 312.928 434.709 313.145C434.767 313.36 434.811 313.58 434.842 313.804C434.857 313.916 434.869 314.029 434.878 314.143C434.885 314.258 434.892 314.373 434.899 314.487C434.913 314.717 434.913 314.951 434.899 315.188C434.892 315.307 434.882 315.426 434.868 315.547C434.853 315.669 434.837 315.789 434.822 315.909C434.757 316.392 434.634 316.888 434.456 317.39Z" fill="#FFCC80"/>
<path d="M429.756 325.666C430.065 325.746 430.366 325.84 430.658 325.946C430.803 326 430.95 326.055 431.096 326.112C431.241 326.169 431.384 326.23 431.524 326.293C431.806 326.42 432.079 326.559 432.342 326.709C432.609 326.857 432.872 327.013 433.123 327.181C434.122 327.856 435.014 328.666 435.736 329.603C435.359 329.982 434.936 330.318 434.473 330.602C434.012 330.885 433.511 331.114 432.975 331.279C432.438 331.445 431.867 331.546 431.265 331.576C430.963 331.592 430.659 331.584 430.347 331.558C430.035 331.531 429.717 331.485 429.393 331.418C428.1 331.151 426.873 330.554 425.796 329.72C425.728 329.668 425.661 329.616 425.595 329.562C425.53 329.507 425.465 329.451 425.401 329.395C425.273 329.281 425.147 329.166 425.024 329.046C424.778 328.807 424.539 328.559 424.315 328.296C424.096 328.03 423.887 327.754 423.691 327.47C423.592 327.328 423.498 327.184 423.406 327.038C423.313 326.894 423.231 326.74 423.148 326.588C424.023 325.951 425.062 325.564 426.187 325.413C426.752 325.335 427.338 325.318 427.934 325.361C428.232 325.383 428.532 325.42 428.834 325.472C429.138 325.522 429.448 325.586 429.756 325.666L429.756 325.666Z" fill="#FFCC80"/>
<path d="M439.271 323.83C439.205 324.384 439.074 324.93 438.906 325.447C438.736 325.965 438.514 326.462 438.246 326.929C437.977 327.397 437.66 327.834 437.301 328.232C436.943 328.629 436.541 328.987 436.098 329.297C435.25 328.478 434.573 327.486 434.183 326.397C434.084 326.126 433.998 325.852 433.933 325.572C433.872 325.29 433.826 325.006 433.797 324.721C433.783 324.579 433.773 324.436 433.768 324.293C433.761 324.151 433.761 324.008 433.768 323.863C433.78 323.574 433.811 323.286 433.86 322.999C433.91 322.713 433.975 322.437 434.06 322.169C434.148 321.9 434.252 321.64 434.371 321.392C434.608 320.894 434.904 320.439 435.247 320.027C435.939 319.202 436.826 318.549 437.797 318.074C437.871 318.17 437.935 318.27 438.007 318.369C438.078 318.468 438.145 318.568 438.209 318.671C438.337 318.876 438.453 319.089 438.556 319.309C438.664 319.527 438.765 319.75 438.849 319.981C438.892 320.097 438.932 320.214 438.968 320.333C439.003 320.453 439.038 320.572 439.072 320.691C439.332 321.657 439.409 322.718 439.271 323.83Z" fill="#FFCC80"/>
<path d="M436.038 333.283C436.372 333.31 436.702 333.354 437.025 333.412C437.187 333.441 437.347 333.475 437.507 333.51C437.667 333.545 437.826 333.583 437.984 333.625C438.298 333.708 438.607 333.806 438.907 333.917C439.212 334.024 439.51 334.145 439.799 334.278C440.962 334.806 442.016 335.522 442.935 336.373C442.276 337.281 441.405 338.035 440.346 338.552C440.081 338.681 439.805 338.795 439.517 338.893C439.23 338.991 438.934 339.07 438.626 339.133C438.011 339.257 437.351 339.315 436.665 339.28C436.32 339.263 435.976 339.228 435.633 339.172C435.293 339.115 434.955 339.037 434.62 338.942C433.945 338.756 433.299 338.48 432.67 338.153C432.359 337.985 432.056 337.8 431.76 337.602C431.612 337.503 431.466 337.4 431.322 337.295C431.181 337.187 431.041 337.075 430.904 336.96C430.63 336.731 430.364 336.491 430.111 336.237C429.862 335.981 429.624 335.713 429.398 335.437C430.18 334.623 431.181 334.025 432.312 333.663C432.878 333.481 433.473 333.361 434.101 333.293C434.413 333.261 434.732 333.244 435.054 333.242C435.377 333.241 435.703 333.258 436.039 333.284L436.038 333.283Z" fill="#FFCC80"/>
<path d="M445.603 329.801C445.629 330.398 445.604 330.98 445.516 331.55C445.473 331.835 445.413 332.117 445.342 332.393C445.271 332.667 445.186 332.937 445.087 333.201C444.691 334.257 444.073 335.218 443.259 335.998C442.228 335.288 441.367 334.351 440.76 333.29C440.609 333.023 440.473 332.75 440.353 332.471C440.237 332.189 440.137 331.901 440.054 331.61C440.013 331.464 439.976 331.317 439.944 331.17C439.912 331.021 439.887 330.87 439.865 330.72C439.823 330.418 439.799 330.113 439.794 329.807C439.788 329.502 439.809 329.198 439.846 328.904C439.883 328.609 439.939 328.322 440.011 328.042C440.155 327.485 440.377 326.954 440.652 326.462C441.205 325.477 441.986 324.64 442.903 323.974C443.1 324.152 443.286 324.34 443.46 324.539C443.638 324.735 443.808 324.939 443.965 325.154C444.043 325.261 444.118 325.37 444.191 325.482C444.266 325.592 444.338 325.704 444.408 325.819C444.546 326.048 444.671 326.287 444.786 326.533C444.904 326.776 445.01 327.028 445.102 327.289C445.149 327.418 445.19 327.552 445.232 327.685C445.273 327.817 445.311 327.952 445.346 328.088C445.416 328.361 445.471 328.642 445.512 328.928C445.557 329.212 445.587 329.504 445.602 329.801H445.603Z" fill="#FFCC80"/>
<path d="M443.272 267.443C442.981 267.756 442.664 268.033 442.327 268.272C442.159 268.392 441.986 268.502 441.808 268.604C441.629 268.704 441.456 268.803 441.275 268.889C440.552 269.234 439.773 269.433 438.991 269.48C438.897 268.74 438.973 267.96 439.221 267.196C439.284 267.007 439.352 266.813 439.441 266.63C439.528 266.447 439.627 266.265 439.735 266.086C439.953 265.729 440.213 265.385 440.514 265.061C440.816 264.738 441.138 264.447 441.489 264.205C441.842 263.966 442.211 263.765 442.591 263.605C443.349 263.284 444.144 263.124 444.918 263.131C444.958 263.884 444.84 264.653 444.562 265.385C444.424 265.751 444.245 266.108 444.026 266.449C443.809 266.793 443.564 267.131 443.272 267.443Z" fill="#FFCC80"/>
<path d="M452.061 343.044C451.94 342.979 451.833 342.92 451.721 342.858L451.391 342.671C451.172 342.545 450.956 342.418 450.74 342.289C450.31 342.031 449.883 341.77 449.461 341.502C448.617 340.966 447.787 340.412 446.97 339.842C446.153 339.272 445.352 338.682 444.56 338.08C444.167 337.775 443.772 337.474 443.386 337.162C443.193 337.006 442.996 336.854 442.805 336.695L442.231 336.221C442.039 336.064 441.851 335.902 441.663 335.741L441.097 335.258L440.541 334.764C440.356 334.6 440.169 334.437 439.988 334.268C439.625 333.931 439.256 333.601 438.902 333.255L438.366 332.742C438.188 332.57 438.015 332.393 437.84 332.219C436.44 330.822 435.108 329.361 433.861 327.835C431.367 324.785 429.211 321.466 427.574 317.913C426.755 316.138 426.068 314.307 425.531 312.436C424.993 310.565 424.607 308.654 424.378 306.727L424.241 305.278C424.227 305.157 424.226 305.036 424.219 304.915L424.202 304.552L424.168 303.825L424.152 303.462L424.153 303.099L424.155 302.372L424.156 302.009C424.158 301.888 424.153 301.767 424.162 301.646L424.2 300.92L424.237 300.195L424.247 300.013C424.25 299.953 424.258 299.893 424.264 299.833L424.3 299.471L424.374 298.748L424.41 298.387L424.429 298.207L424.455 298.027L424.673 296.59C424.704 296.35 424.76 296.114 424.806 295.876L424.949 295.164C424.998 294.927 425.042 294.689 425.095 294.453L425.273 293.748L425.451 293.044L425.539 292.691C425.569 292.574 425.608 292.459 425.642 292.343L426.064 290.951C426.129 290.718 426.215 290.491 426.295 290.262L426.538 289.577L426.781 288.891C426.819 288.776 426.867 288.664 426.912 288.552L427.049 288.215L427.596 286.866C427.792 286.422 427.998 285.982 428.199 285.54L428.502 284.878C428.605 284.658 428.721 284.444 428.829 284.227C430.57 280.751 432.667 277.451 435.004 274.326C437.351 271.205 439.928 268.251 442.653 265.435C439.97 268.287 437.438 271.274 435.142 274.419C432.856 277.57 430.815 280.887 429.135 284.365C429.031 284.582 428.918 284.796 428.819 285.016L428.528 285.678C428.335 286.12 428.136 286.559 427.949 287.003L427.425 288.348L427.294 288.685C427.251 288.797 427.205 288.908 427.169 289.023L426.938 289.706L426.708 290.388C426.632 290.616 426.549 290.842 426.488 291.074L426.091 292.457C426.059 292.572 426.022 292.686 425.995 292.803L425.912 293.153L425.746 293.852L425.581 294.551C425.531 294.785 425.492 295.021 425.447 295.256L425.315 295.961C425.273 296.197 425.221 296.431 425.194 296.668L425.001 298.088L424.977 298.266L424.962 298.444L424.931 298.801L424.869 299.514L424.838 299.871C424.833 299.93 424.826 299.99 424.824 300.049L424.817 300.228L424.791 300.943L424.764 301.658C424.757 301.777 424.764 301.896 424.763 302.015L424.768 302.373L424.776 303.088L424.781 303.445L424.802 303.802L424.845 304.516L424.867 304.872C424.875 304.991 424.878 305.11 424.894 305.229L425.05 306.65C425.302 308.54 425.709 310.409 426.263 312.236C426.816 314.064 427.516 315.85 428.344 317.579C429.999 321.039 432.162 324.266 434.654 327.228C435.901 328.71 437.231 330.127 438.626 331.482C438.801 331.65 438.974 331.821 439.151 331.988L439.685 332.486C440.038 332.82 440.406 333.141 440.768 333.467C440.948 333.631 441.134 333.788 441.318 333.947L441.872 334.425L442.435 334.893C442.623 335.048 442.81 335.205 443.001 335.357L443.572 335.815C443.762 335.969 443.957 336.116 444.149 336.266C444.533 336.568 444.926 336.859 445.317 337.153C446.103 337.733 446.899 338.303 447.709 338.852C448.52 339.4 449.341 339.933 450.175 340.446C450.592 340.703 451.012 340.953 451.435 341.198C451.646 341.32 451.858 341.441 452.071 341.559L452.39 341.734C452.496 341.791 452.606 341.85 452.704 341.901L452.062 343.042L452.061 343.044Z" fill="#FFCC80"/>
</g>
<g clip-path="url(#clip2_401_4315)">
<path d="M1012.08 268.74C1012.07 269.134 1012.09 269.536 1012.15 269.922C1012.21 270.31 1012.31 270.688 1012.45 271.05C1012.58 271.413 1012.76 271.76 1012.96 272.09C1013.15 272.426 1013.38 272.743 1013.63 273.036C1014.23 272.674 1014.75 272.176 1015.12 271.563C1015.31 271.256 1015.46 270.921 1015.58 270.559C1015.64 270.379 1015.68 270.191 1015.72 269.998C1015.75 269.807 1015.77 269.611 1015.78 269.41C1015.83 268.603 1015.68 267.794 1015.38 267.035C1015.23 266.652 1015.03 266.297 1014.8 265.958C1014.58 265.62 1014.32 265.301 1014.03 265.008C1012.87 265.805 1012.14 267.153 1012.08 268.74Z" fill="#FFCC80"/>
<path d="M1009.31 274.323C1009.51 274.352 1009.7 274.37 1009.89 274.379C1010.08 274.39 1010.27 274.39 1010.45 274.381C1010.82 274.362 1011.18 274.304 1011.53 274.209C1012.22 274.019 1012.85 273.683 1013.38 273.221C1013.17 272.895 1012.93 272.589 1012.67 272.31C1012.4 272.036 1012.09 271.791 1011.77 271.577C1011.45 271.363 1011.1 271.182 1010.74 271.04C1010.38 270.899 1010.01 270.792 1009.61 270.741C1008.02 270.528 1006.6 271.071 1005.6 272.058C1005.82 272.353 1006.06 272.627 1006.33 272.874C1006.6 273.121 1006.9 273.34 1007.21 273.54C1007.82 273.933 1008.54 274.206 1009.31 274.323Z" fill="#FFCC80"/>
<path d="M1016.01 273.7C1015.9 274.543 1015.98 275.375 1016.22 276.154C1016.25 276.25 1016.28 276.348 1016.31 276.446C1016.34 276.544 1016.37 276.64 1016.41 276.736C1016.48 276.928 1016.56 277.116 1016.65 277.299C1016.82 277.666 1017.04 278.015 1017.28 278.342C1018.61 277.69 1019.61 276.439 1019.85 274.721C1019.88 274.507 1019.9 274.291 1019.9 274.074C1019.91 273.857 1019.89 273.647 1019.87 273.434C1019.83 273.009 1019.73 272.586 1019.6 272.174C1019.47 271.762 1019.3 271.356 1019.08 270.976C1018.87 270.601 1018.61 270.244 1018.33 269.912C1017.69 270.288 1017.16 270.819 1016.76 271.463C1016.56 271.785 1016.39 272.135 1016.27 272.508C1016.21 272.694 1016.15 272.887 1016.11 273.084C1016.07 273.281 1016.03 273.489 1016.01 273.7Z" fill="#FFCC80"/>
<path d="M1012.63 279.326C1014.21 279.699 1015.81 279.383 1017 278.511C1016.81 278.155 1016.58 277.816 1016.32 277.503C1016.19 277.346 1016.05 277.196 1015.91 277.052C1015.84 276.981 1015.76 276.911 1015.69 276.843C1015.65 276.81 1015.61 276.776 1015.58 276.743L1015.46 276.649C1014.8 276.153 1014.06 275.789 1013.25 275.611C1013.05 275.567 1012.85 275.533 1012.64 275.516C1012.44 275.499 1012.24 275.494 1012.05 275.501C1011.65 275.513 1011.27 275.571 1010.91 275.67C1010.18 275.868 1009.51 276.229 1008.95 276.71C1009.16 277.03 1009.39 277.328 1009.65 277.602C1009.91 277.879 1010.19 278.135 1010.5 278.359C1010.81 278.583 1011.14 278.778 1011.5 278.94C1011.68 279.021 1011.87 279.091 1012.06 279.157C1012.24 279.223 1012.44 279.28 1012.63 279.326Z" fill="#FFCC80"/>
<path d="M1019.7 279.268C1019.53 280.132 1019.51 281.026 1019.67 281.87C1019.83 282.709 1020.1 283.538 1020.54 284.279C1022.01 283.753 1023.21 282.557 1023.65 280.757C1023.85 279.873 1023.83 278.938 1023.64 278.024C1023.43 277.127 1023.03 276.258 1022.5 275.486C1021.1 276.156 1020.05 277.531 1019.7 279.268Z" fill="#FFCC80"/>
<path d="M1015.58 284.797C1017.17 285.341 1018.88 285.197 1020.23 284.424C1019.91 283.635 1019.45 282.892 1018.82 282.309C1018.2 281.719 1017.47 281.254 1016.62 281.004C1014.94 280.491 1013.31 280.858 1012.04 281.767C1012.38 282.465 1012.87 283.086 1013.47 283.598C1014.05 284.12 1014.76 284.532 1015.58 284.797Z" fill="#FFCC80"/>
<path d="M1022.96 285.547C1022.89 285.77 1022.83 285.994 1022.78 286.219C1022.76 286.332 1022.73 286.445 1022.71 286.56C1022.69 286.674 1022.67 286.789 1022.65 286.903C1022.59 287.361 1022.57 287.818 1022.59 288.269C1022.62 288.718 1022.66 289.174 1022.76 289.615C1022.8 289.836 1022.86 290.055 1022.93 290.27C1022.99 290.486 1023.08 290.696 1023.15 290.909C1023.55 290.826 1023.94 290.698 1024.32 290.523C1024.69 290.347 1025.05 290.124 1025.37 289.856C1026.01 289.319 1026.54 288.591 1026.89 287.671C1026.94 287.556 1026.98 287.44 1027.01 287.322C1027.03 287.263 1027.05 287.204 1027.07 287.145C1027.08 287.086 1027.1 287.027 1027.11 286.968C1027.16 286.732 1027.2 286.491 1027.23 286.247C1027.29 285.76 1027.29 285.261 1027.24 284.76C1027.24 284.698 1027.23 284.635 1027.23 284.573C1027.22 284.511 1027.21 284.45 1027.2 284.388C1027.18 284.266 1027.15 284.143 1027.13 284.021C1027.07 283.777 1027.01 283.534 1026.93 283.294C1026.86 283.054 1026.77 282.816 1026.67 282.583C1026.62 282.466 1026.57 282.351 1026.52 282.236C1026.46 282.123 1026.4 282.014 1026.34 281.904C1025.56 282.172 1024.87 282.636 1024.3 283.254C1023.72 283.877 1023.26 284.654 1022.96 285.546L1022.96 285.547Z" fill="#FFCC80"/>
<path d="M1017.9 290.755C1018.69 291.136 1019.53 291.348 1020.37 291.394C1020.8 291.415 1021.21 291.397 1021.61 291.335C1022.02 291.272 1022.42 291.166 1022.8 291.014C1022.76 290.793 1022.69 290.581 1022.61 290.37C1022.53 290.159 1022.45 289.952 1022.35 289.75C1022.16 289.346 1021.94 288.958 1021.64 288.613C1021.36 288.265 1021.04 287.947 1020.69 287.67C1020.6 287.601 1020.51 287.534 1020.42 287.47C1020.33 287.405 1020.24 287.344 1020.14 287.287C1019.94 287.172 1019.74 287.068 1019.53 286.977C1018.68 286.61 1017.83 286.476 1017 286.536C1016.17 286.599 1015.37 286.854 1014.65 287.251C1014.69 287.344 1014.73 287.435 1014.77 287.526C1014.8 287.618 1014.84 287.709 1014.88 287.798C1014.97 287.977 1015.06 288.151 1015.16 288.321C1015.27 288.49 1015.38 288.655 1015.5 288.814C1015.56 288.893 1015.63 288.971 1015.69 289.048L1015.79 289.161L1015.89 289.275C1016.15 289.574 1016.46 289.849 1016.8 290.097C1016.97 290.221 1017.14 290.337 1017.33 290.447C1017.43 290.501 1017.52 290.554 1017.61 290.606C1017.71 290.658 1017.8 290.708 1017.9 290.755L1017.9 290.755Z" fill="#FFCC80"/>
<path d="M1025.47 292.616C1025.23 293.062 1025.05 293.52 1024.91 293.984C1024.88 294.1 1024.85 294.217 1024.82 294.333C1024.79 294.45 1024.76 294.569 1024.73 294.687C1024.68 294.924 1024.64 295.161 1024.61 295.399C1024.51 296.346 1024.51 297.309 1024.71 298.24C1025.14 298.23 1025.57 298.171 1025.99 298.059C1026.41 297.948 1026.81 297.784 1027.2 297.563C1027.97 297.123 1028.66 296.453 1029.19 295.543C1029.44 295.092 1029.64 294.606 1029.79 294.095C1029.86 293.84 1029.92 293.579 1029.97 293.314C1030.01 293.052 1030.03 292.785 1030.04 292.517C1030.05 292.248 1030.05 291.977 1030.04 291.705C1030.03 291.569 1030.03 291.433 1030.01 291.297C1030 291.161 1029.99 291.024 1029.96 290.891C1029.87 290.356 1029.73 289.825 1029.54 289.312C1028.69 289.471 1027.9 289.857 1027.2 290.421C1026.85 290.704 1026.53 291.031 1026.25 291.397C1026.1 291.581 1025.96 291.774 1025.84 291.976C1025.71 292.178 1025.58 292.394 1025.47 292.616L1025.47 292.616Z" fill="#FFCC80"/>
<path d="M1019.3 297.143C1020.05 297.661 1020.87 298.027 1021.74 298.226C1022.16 298.325 1022.6 298.382 1023.04 298.392C1023.47 298.403 1023.9 298.368 1024.33 298.283C1024.26 297.346 1024.04 296.408 1023.57 295.591C1023.45 295.385 1023.33 295.187 1023.19 294.996C1023.13 294.901 1023.06 294.808 1022.98 294.717C1022.91 294.627 1022.83 294.539 1022.75 294.454C1022.42 294.112 1022.05 293.808 1021.65 293.551C1021.45 293.424 1021.26 293.309 1021.04 293.213C1020.83 293.116 1020.61 293.034 1020.4 292.966C1019.96 292.83 1019.53 292.751 1019.09 292.723C1018.22 292.666 1017.35 292.815 1016.54 293.119C1016.62 293.514 1016.74 293.896 1016.91 294.265C1016.95 294.357 1016.99 294.449 1017.03 294.54C1017.07 294.631 1017.11 294.72 1017.16 294.809C1017.26 294.987 1017.36 295.161 1017.48 295.331C1017.59 295.501 1017.72 295.666 1017.86 295.827C1017.99 295.989 1018.13 296.146 1018.28 296.298C1018.58 296.602 1018.92 296.885 1019.3 297.143Z" fill="#FFCC80"/>
<path d="M1026.76 300.465C1026.43 300.883 1026.16 301.322 1025.92 301.776C1025.67 302.23 1025.46 302.698 1025.3 303.176C1025.26 303.296 1025.23 303.416 1025.19 303.537C1025.15 303.657 1025.12 303.778 1025.08 303.9C1025.02 304.143 1024.96 304.388 1024.92 304.635C1024.85 305.129 1024.77 305.626 1024.76 306.126C1025.66 306.297 1026.59 306.265 1027.49 305.977C1027.93 305.833 1028.38 305.626 1028.8 305.349C1029.21 305.072 1029.61 304.726 1029.98 304.307C1030.16 304.098 1030.34 303.876 1030.5 303.643C1030.65 303.41 1030.79 303.167 1030.92 302.914C1031.04 302.661 1031.16 302.398 1031.26 302.129C1031.31 301.994 1031.36 301.857 1031.41 301.719C1031.45 301.58 1031.48 301.441 1031.52 301.3C1031.65 300.737 1031.73 300.151 1031.76 299.56C1031.77 298.972 1031.73 298.379 1031.64 297.797C1030.73 297.797 1029.83 298.051 1029 298.51C1028.58 298.74 1028.19 299.02 1027.82 299.347C1027.63 299.511 1027.46 299.686 1027.28 299.872C1027.1 300.059 1026.93 300.257 1026.76 300.466L1026.76 300.465Z" fill="#FFCC80"/>
<path d="M1019.45 303.839C1019.78 304.179 1020.14 304.487 1020.52 304.758C1020.91 305.029 1021.3 305.264 1021.72 305.458C1022.55 305.847 1023.45 306.073 1024.36 306.085C1024.45 305.597 1024.49 305.101 1024.45 304.606C1024.43 304.359 1024.4 304.114 1024.36 303.871C1024.34 303.75 1024.32 303.629 1024.29 303.51C1024.27 303.39 1024.23 303.271 1024.19 303.154C1024.04 302.684 1023.83 302.234 1023.59 301.816C1023.32 301.399 1023 301.014 1022.64 300.673C1022.46 300.502 1022.27 300.347 1022.08 300.207C1021.88 300.068 1021.67 299.943 1021.46 299.832C1021.04 299.612 1020.6 299.45 1020.16 299.341C1019.27 299.123 1018.34 299.119 1017.45 299.278C1017.44 299.684 1017.49 300.086 1017.59 300.483C1017.67 300.88 1017.79 301.27 1017.96 301.654C1018.01 301.75 1018.06 301.846 1018.1 301.941C1018.14 302.035 1018.19 302.13 1018.24 302.223C1018.34 302.411 1018.45 302.596 1018.58 302.779C1018.7 302.962 1018.84 303.142 1018.99 303.319C1019.13 303.496 1019.28 303.669 1019.45 303.839Z" fill="#FFCC80"/>
<path d="M1026.38 308.883C1025.94 309.239 1025.54 309.626 1025.2 310.038C1025.03 310.246 1024.84 310.454 1024.68 310.671C1024.52 310.887 1024.37 311.109 1024.23 311.336C1023.67 312.241 1023.25 313.219 1022.98 314.238C1023.86 314.622 1024.82 314.804 1025.81 314.718C1026.3 314.675 1026.8 314.564 1027.3 314.38C1027.8 314.193 1028.29 313.928 1028.76 313.583C1029 313.411 1029.23 313.223 1029.45 313.02C1029.67 312.815 1029.87 312.596 1030.06 312.364C1030.25 312.132 1030.43 311.888 1030.6 311.633C1030.64 311.569 1030.69 311.505 1030.73 311.44C1030.77 311.374 1030.8 311.308 1030.84 311.241C1030.92 311.107 1030.99 310.971 1031.06 310.832C1031.19 310.555 1031.32 310.27 1031.43 309.977C1031.49 309.831 1031.54 309.684 1031.59 309.534C1031.63 309.384 1031.67 309.232 1031.71 309.079C1031.79 308.774 1031.85 308.464 1031.9 308.152C1031.93 307.996 1031.95 307.839 1031.97 307.683C1031.98 307.525 1031.99 307.367 1032 307.209C1031.06 307.005 1030.08 307.071 1029.13 307.363C1028.65 307.509 1028.17 307.71 1027.71 307.965C1027.48 308.092 1027.26 308.233 1027.03 308.386C1026.92 308.463 1026.81 308.543 1026.71 308.626C1026.6 308.709 1026.49 308.796 1026.38 308.884L1026.38 308.883Z" fill="#FFCC80"/>
<path d="M1018.07 310.657C1018.32 311.081 1018.63 311.481 1018.95 311.848C1019.27 312.213 1019.63 312.547 1020.01 312.844C1020.77 313.437 1021.64 313.879 1022.58 314.103C1022.99 313.144 1023.17 312.086 1023.09 311.055C1023.07 310.797 1023.03 310.541 1022.98 310.288C1022.93 310.036 1022.88 309.789 1022.79 309.544C1022.61 309.055 1022.38 308.59 1022.09 308.16C1022.02 308.052 1021.94 307.948 1021.86 307.847C1021.78 307.746 1021.69 307.648 1021.61 307.555C1021.43 307.367 1021.25 307.194 1021.06 307.035C1020.69 306.717 1020.28 306.456 1019.85 306.247C1018.97 305.828 1018.02 305.622 1017.06 305.585C1017.04 305.687 1017.03 305.79 1017.02 305.892C1017 305.995 1016.98 306.097 1016.97 306.201C1016.94 306.407 1016.93 306.615 1016.93 306.824C1016.93 306.929 1016.94 307.034 1016.95 307.139C1016.95 307.245 1016.95 307.349 1016.96 307.455C1016.98 307.665 1017.01 307.877 1017.05 308.09C1017.07 308.197 1017.1 308.304 1017.13 308.411C1017.14 308.465 1017.15 308.518 1017.17 308.572C1017.18 308.625 1017.2 308.678 1017.21 308.732C1017.27 308.945 1017.34 309.159 1017.42 309.374C1017.51 309.589 1017.61 309.804 1017.72 310.019C1017.82 310.232 1017.94 310.445 1018.07 310.657Z" fill="#FFCC80"/>
<path d="M1023.98 317.437C1023.45 317.701 1022.97 318.013 1022.49 318.348C1022.03 318.686 1021.61 319.066 1021.21 319.462C1021.01 319.661 1020.82 319.87 1020.65 320.085C1020.56 320.193 1020.47 320.301 1020.38 320.41C1020.29 320.519 1020.21 320.63 1020.13 320.743C1019.96 320.969 1019.81 321.202 1019.67 321.441C1019.53 321.677 1019.39 321.918 1019.26 322.166C1020.08 322.751 1021.03 323.147 1022.07 323.278C1022.33 323.311 1022.59 323.327 1022.86 323.326C1023.13 323.324 1023.4 323.301 1023.67 323.261C1024.22 323.18 1024.79 323.024 1025.36 322.784C1025.92 322.536 1026.46 322.216 1026.96 321.837C1027.09 321.743 1027.21 321.642 1027.33 321.538C1027.45 321.433 1027.56 321.325 1027.68 321.214C1027.9 320.991 1028.12 320.755 1028.33 320.508C1028.44 320.386 1028.54 320.256 1028.63 320.124C1028.73 319.992 1028.82 319.858 1028.91 319.721C1029.09 319.448 1029.26 319.165 1029.42 318.875C1029.57 318.582 1029.7 318.278 1029.82 317.97C1029.95 317.662 1030.06 317.35 1030.15 317.031C1029.69 316.817 1029.21 316.67 1028.71 316.587C1028.21 316.502 1027.69 316.48 1027.16 316.518C1026.63 316.555 1026.1 316.652 1025.57 316.807C1025.31 316.884 1025.05 316.978 1024.78 317.082C1024.51 317.185 1024.24 317.303 1023.98 317.436L1023.98 317.437Z" fill="#FFCC80"/>
<path d="M1015.03 317.39C1015.19 317.887 1015.4 318.366 1015.65 318.819C1015.78 319.045 1015.92 319.266 1016.06 319.477C1016.2 319.687 1016.36 319.891 1016.52 320.085C1017.17 320.864 1017.97 321.507 1018.88 321.94C1019.04 321.715 1019.19 321.482 1019.32 321.242C1019.45 320.999 1019.57 320.749 1019.67 320.495C1019.72 320.368 1019.77 320.24 1019.82 320.111C1019.84 320.046 1019.86 319.981 1019.88 319.916C1019.9 319.851 1019.92 319.784 1019.94 319.718C1020.01 319.453 1020.06 319.185 1020.1 318.916C1020.19 318.381 1020.19 317.828 1020.14 317.29C1020.09 316.754 1019.95 316.217 1019.75 315.705C1019.65 315.449 1019.53 315.206 1019.41 314.975C1019.28 314.743 1019.13 314.522 1018.97 314.314C1018.66 313.898 1018.3 313.534 1017.9 313.218C1017.51 312.903 1017.08 312.637 1016.63 312.417C1016.18 312.197 1015.7 312.023 1015.21 311.894C1015.12 312.094 1015.03 312.297 1014.96 312.506C1014.89 312.714 1014.83 312.928 1014.78 313.145C1014.73 313.36 1014.68 313.58 1014.65 313.804C1014.64 313.916 1014.63 314.029 1014.62 314.143C1014.61 314.258 1014.6 314.373 1014.6 314.487C1014.58 314.717 1014.58 314.951 1014.6 315.188C1014.6 315.307 1014.61 315.426 1014.63 315.547C1014.64 315.669 1014.66 315.789 1014.67 315.909C1014.74 316.392 1014.86 316.888 1015.03 317.39Z" fill="#FFCC80"/>
<path d="M1019.6 325.666C1019.3 325.746 1019 325.84 1018.72 325.946C1018.58 326 1018.44 326.055 1018.3 326.112C1018.15 326.169 1018.02 326.23 1017.88 326.293C1017.6 326.42 1017.34 326.559 1017.08 326.709C1016.82 326.857 1016.57 327.013 1016.32 327.181C1015.35 327.856 1014.49 328.666 1013.78 329.603C1014.15 329.982 1014.56 330.318 1015.01 330.602C1015.46 330.885 1015.95 331.114 1016.47 331.279C1016.99 331.445 1017.55 331.546 1018.13 331.576C1018.42 331.592 1018.72 331.584 1019.02 331.558C1019.33 331.531 1019.64 331.485 1019.95 331.418C1021.21 331.151 1022.4 330.554 1023.45 329.72C1023.51 329.668 1023.58 329.616 1023.64 329.562C1023.71 329.507 1023.77 329.451 1023.83 329.395C1023.96 329.281 1024.08 329.166 1024.2 329.046C1024.44 328.807 1024.67 328.559 1024.89 328.296C1025.1 328.03 1025.3 327.754 1025.49 327.47C1025.59 327.328 1025.68 327.184 1025.77 327.038C1025.86 326.894 1025.94 326.74 1026.02 326.588C1025.17 325.951 1024.16 325.564 1023.07 325.413C1022.52 325.335 1021.95 325.318 1021.37 325.361C1021.08 325.383 1020.79 325.42 1020.49 325.472C1020.2 325.522 1019.9 325.586 1019.6 325.666L1019.6 325.666Z" fill="#FFCC80"/>
<path d="M1010.35 323.83C1010.41 324.384 1010.54 324.93 1010.7 325.447C1010.87 325.965 1011.08 326.462 1011.34 326.929C1011.61 327.397 1011.91 327.834 1012.26 328.232C1012.61 328.629 1013 328.987 1013.43 329.297C1014.26 328.478 1014.92 327.486 1015.29 326.397C1015.39 326.126 1015.47 325.852 1015.54 325.572C1015.6 325.29 1015.64 325.006 1015.67 324.721C1015.68 324.579 1015.69 324.436 1015.7 324.293C1015.7 324.151 1015.71 324.008 1015.7 323.863C1015.69 323.574 1015.66 323.286 1015.61 322.999C1015.56 322.713 1015.5 322.437 1015.41 322.169C1015.33 321.9 1015.23 321.64 1015.11 321.392C1014.88 320.894 1014.59 320.439 1014.26 320.027C1013.59 319.202 1012.73 318.549 1011.78 318.074C1011.71 318.17 1011.65 318.27 1011.58 318.369C1011.51 318.468 1011.44 318.568 1011.38 318.671C1011.26 318.876 1011.14 319.089 1011.04 319.309C1010.94 319.527 1010.84 319.75 1010.76 319.981C1010.72 320.097 1010.68 320.214 1010.64 320.333C1010.61 320.453 1010.57 320.572 1010.54 320.691C1010.29 321.657 1010.21 322.718 1010.35 323.83Z" fill="#FFCC80"/>
<path d="M1013.49 333.283C1013.17 333.31 1012.84 333.354 1012.53 333.412C1012.37 333.441 1012.22 333.475 1012.06 333.51C1011.91 333.545 1011.75 333.583 1011.6 333.625C1011.29 333.708 1010.99 333.806 1010.7 333.917C1010.4 334.024 1010.12 334.145 1009.83 334.278C1008.7 334.806 1007.68 335.522 1006.79 336.373C1007.43 337.281 1008.27 338.035 1009.3 338.552C1009.56 338.681 1009.83 338.795 1010.11 338.893C1010.39 338.991 1010.67 339.07 1010.97 339.133C1011.57 339.257 1012.21 339.315 1012.88 339.28C1013.22 339.263 1013.55 339.228 1013.88 339.172C1014.21 339.115 1014.54 339.037 1014.87 338.942C1015.52 338.756 1016.15 338.48 1016.76 338.153C1017.07 337.985 1017.36 337.8 1017.65 337.602C1017.79 337.503 1017.93 337.4 1018.07 337.295C1018.21 337.187 1018.35 337.075 1018.48 336.96C1018.75 336.731 1019.01 336.491 1019.25 336.237C1019.49 335.981 1019.73 335.713 1019.95 335.437C1019.19 334.623 1018.21 334.025 1017.11 333.663C1016.56 333.481 1015.98 333.361 1015.37 333.293C1015.07 333.261 1014.76 333.244 1014.45 333.242C1014.13 333.241 1013.82 333.258 1013.49 333.284L1013.49 333.283Z" fill="#FFCC80"/>
<path d="M1004.19 329.8C1004.17 330.397 1004.19 330.979 1004.28 331.549C1004.32 331.834 1004.38 332.116 1004.45 332.392C1004.51 332.666 1004.6 332.936 1004.69 333.2C1005.08 334.256 1005.68 335.217 1006.47 335.997C1007.47 335.287 1008.31 334.35 1008.9 333.289C1009.05 333.022 1009.18 332.749 1009.3 332.47C1009.41 332.188 1009.51 331.9 1009.59 331.609C1009.63 331.463 1009.66 331.316 1009.69 331.169C1009.72 331.02 1009.75 330.869 1009.77 330.719C1009.81 330.417 1009.83 330.112 1009.84 329.806C1009.84 329.501 1009.82 329.197 1009.79 328.903C1009.75 328.608 1009.7 328.321 1009.63 328.042C1009.49 327.484 1009.27 326.953 1009 326.461C1008.47 325.476 1007.71 324.639 1006.82 323.973C1006.62 324.151 1006.44 324.34 1006.28 324.538C1006.1 324.734 1005.94 324.938 1005.78 325.153C1005.71 325.26 1005.63 325.369 1005.56 325.481C1005.49 325.591 1005.42 325.703 1005.35 325.818C1005.22 326.047 1005.1 326.286 1004.99 326.532C1004.87 326.775 1004.77 327.027 1004.68 327.288C1004.63 327.418 1004.59 327.551 1004.55 327.684C1004.51 327.816 1004.47 327.951 1004.44 328.087C1004.37 328.36 1004.32 328.641 1004.28 328.927C1004.24 329.211 1004.21 329.503 1004.19 329.8H1004.19Z" fill="#FFCC80"/>
<path d="M1006.46 267.443C1006.74 267.756 1007.05 268.033 1007.37 268.272C1007.54 268.392 1007.71 268.502 1007.88 268.604C1008.05 268.704 1008.22 268.803 1008.4 268.889C1009.1 269.234 1009.86 269.433 1010.62 269.48C1010.71 268.74 1010.64 267.96 1010.4 267.196C1010.33 267.007 1010.27 266.813 1010.18 266.63C1010.1 266.447 1010 266.265 1009.89 266.086C1009.68 265.729 1009.43 265.385 1009.14 265.061C1008.84 264.738 1008.53 264.447 1008.19 264.205C1007.85 263.966 1007.49 263.765 1007.12 263.605C1006.38 263.284 1005.61 263.124 1004.86 263.131C1004.82 263.884 1004.93 264.653 1005.2 265.385C1005.34 265.751 1005.51 266.108 1005.72 266.449C1005.93 266.793 1006.17 267.131 1006.46 267.443Z" fill="#FFCC80"/>
<path d="M997.913 343.044C998.031 342.979 998.135 342.92 998.244 342.858L998.565 342.671C998.777 342.545 998.988 342.418 999.197 342.289C999.616 342.031 1000.03 341.77 1000.44 341.502C1001.26 340.966 1002.07 340.412 1002.86 339.842C1003.66 339.272 1004.44 338.682 1005.21 338.08C1005.59 337.775 1005.97 337.474 1006.35 337.162C1006.54 337.006 1006.73 336.854 1006.91 336.695L1007.47 336.221C1007.66 336.064 1007.84 335.902 1008.02 335.741L1008.57 335.258L1009.11 334.764C1009.29 334.6 1009.48 334.437 1009.65 334.268C1010 333.931 1010.36 333.601 1010.71 333.255L1011.23 332.742C1011.4 332.57 1011.57 332.393 1011.74 332.219C1013.1 330.822 1014.4 329.361 1015.61 327.835C1018.03 324.785 1020.13 321.466 1021.72 317.913C1022.52 316.138 1023.18 314.307 1023.71 312.436C1024.23 310.565 1024.61 308.654 1024.83 306.727L1024.96 305.278C1024.97 305.157 1024.98 305.036 1024.98 304.915L1025 304.552L1025.03 303.825L1025.05 303.462L1025.05 303.099L1025.04 302.372L1025.04 302.009C1025.04 301.888 1025.05 301.767 1025.04 301.646L1025 300.92L1024.96 300.195L1024.95 300.013C1024.95 299.953 1024.94 299.893 1024.94 299.833L1024.9 299.471L1024.83 298.748L1024.8 298.387L1024.78 298.207L1024.75 298.027L1024.54 296.59C1024.51 296.35 1024.46 296.114 1024.41 295.876L1024.27 295.164C1024.22 294.927 1024.18 294.689 1024.13 294.453L1023.96 293.748L1023.78 293.044L1023.7 292.691C1023.67 292.574 1023.63 292.459 1023.6 292.343L1023.19 290.951C1023.12 290.718 1023.04 290.491 1022.96 290.262L1022.73 289.577L1022.49 288.891C1022.45 288.776 1022.41 288.664 1022.36 288.552L1022.23 288.215L1021.7 286.866C1021.51 286.422 1021.31 285.982 1021.11 285.54L1020.82 284.878C1020.72 284.658 1020.61 284.444 1020.5 284.227C1018.81 280.751 1016.77 277.451 1014.5 274.326C1012.22 271.205 1009.71 268.251 1007.06 265.435C1009.67 268.287 1012.13 271.274 1014.36 274.419C1016.59 277.57 1018.57 280.887 1020.2 284.365C1020.3 284.582 1020.41 284.796 1020.51 285.016L1020.79 285.678C1020.98 286.12 1021.17 286.559 1021.36 287.003L1021.87 288.348L1021.99 288.685C1022.03 288.797 1022.08 288.908 1022.11 289.023L1022.34 289.706L1022.56 290.388C1022.64 290.616 1022.72 290.842 1022.78 291.074L1023.16 292.457C1023.19 292.572 1023.23 292.686 1023.26 292.803L1023.34 293.153L1023.5 293.852L1023.66 294.551C1023.71 294.785 1023.74 295.021 1023.79 295.256L1023.92 295.961C1023.96 296.197 1024.01 296.431 1024.03 296.668L1024.22 298.088L1024.25 298.266L1024.26 298.444L1024.29 298.801L1024.35 299.514L1024.38 299.871C1024.38 299.93 1024.39 299.99 1024.39 300.049L1024.4 300.228L1024.43 300.943L1024.45 301.658C1024.46 301.777 1024.45 301.896 1024.45 302.015L1024.45 302.373L1024.44 303.088L1024.44 303.445L1024.42 303.802L1024.37 304.516L1024.35 304.872C1024.34 304.991 1024.34 305.11 1024.33 305.229L1024.17 306.65C1023.93 308.54 1023.53 310.409 1023 312.236C1022.46 314.064 1021.78 315.85 1020.97 317.579C1019.36 321.039 1017.26 324.266 1014.84 327.228C1013.62 328.71 1012.33 330.127 1010.98 331.482C1010.8 331.65 1010.64 331.821 1010.46 331.988L1009.95 332.486C1009.6 332.82 1009.24 333.141 1008.89 333.467C1008.72 333.631 1008.54 333.788 1008.36 333.947L1007.82 334.425L1007.27 334.893C1007.09 335.048 1006.91 335.205 1006.72 335.357L1006.17 335.815C1005.98 335.969 1005.79 336.116 1005.61 336.266C1005.23 336.568 1004.85 336.859 1004.47 337.153C1003.71 337.733 1002.93 338.303 1002.14 338.852C1001.36 339.4 1000.56 339.933 999.747 340.446C999.342 340.703 998.933 340.953 998.522 341.198C998.317 341.32 998.11 341.441 997.903 341.559L997.593 341.734C997.491 341.791 997.384 341.85 997.288 341.901L997.912 343.042L997.913 343.044Z" fill="#FFCC80"/>
</g>
<defs>
<linearGradient id="paint0_linear_401_4315" x1="16.5262" y1="372.07" x2="1705.68" y2="102.683" gradientUnits="userSpaceOnUse">
<stop stop-color="#FC6FDD"/>
<stop offset="0.08" stop-color="#FC76D4"/>
<stop offset="0.2" stop-color="#FD88BC"/>
<stop offset="0.36" stop-color="#FEA595"/>
<stop offset="0.54" stop-color="#FFCC61"/>
<stop offset="0.6" stop-color="#FFC752"/>
<stop offset="0.87" stop-color="#FFB117"/>
<stop offset="1" stop-color="#FFA900"/>
</linearGradient>
<linearGradient id="paint1_linear_401_4315" x1="17.597" y1="378.925" x2="1706.75" y2="109.538" gradientUnits="userSpaceOnUse">
<stop stop-color="#FC6EDC"/>
<stop offset="0.08" stop-color="#FB75D3"/>
<stop offset="0.22" stop-color="#FA89B9"/>
<stop offset="0.4" stop-color="#F8A88F"/>
<stop offset="0.5" stop-color="#F6BC75"/>
<stop offset="0.51" stop-color="#F6BF71"/>
<stop offset="0.54" stop-color="#F7C46A"/>
<stop offset="0.61" stop-color="#F8BF58"/>
<stop offset="0.87" stop-color="#FDB11D"/>
<stop offset="1" stop-color="#FFAB06"/>
</linearGradient>
<linearGradient id="paint2_linear_401_4315" x1="18.7036" y1="385.863" x2="1707.86" y2="116.476" gradientUnits="userSpaceOnUse">
<stop stop-color="#FC6CDA"/>
<stop offset="0.09" stop-color="#FA74D0"/>
<stop offset="0.25" stop-color="#F689B4"/>
<stop offset="0.46" stop-color="#EFAB88"/>
<stop offset="0.5" stop-color="#EDB37E"/>
<stop offset="0.51" stop-color="#EEB67A"/>
<stop offset="0.54" stop-color="#EFBC73"/>
<stop offset="0.62" stop-color="#F2B95E"/>
<stop offset="0.88" stop-color="#FBB023"/>
<stop offset="1" stop-color="#FFAD0C"/>
</linearGradient>
<linearGradient id="paint3_linear_401_4315" x1="19.806" y1="392.911" x2="1708.98" y2="123.521" gradientUnits="userSpaceOnUse">
<stop stop-color="#FD6BD9"/>
<stop offset="0.11" stop-color="#FA74CE"/>
<stop offset="0.29" stop-color="#F08BB0"/>
<stop offset="0.5" stop-color="#E4AB88"/>
<stop offset="0.51" stop-color="#E5AE83"/>
<stop offset="0.54" stop-color="#E7B47C"/>
<stop offset="0.63" stop-color="#ECB364"/>
<stop offset="0.88" stop-color="#FAB129"/>
<stop offset="1" stop-color="#FFB012"/>
</linearGradient>
<linearGradient id="paint4_linear_401_4315" x1="20.9467" y1="400.062" x2="1710.13" y2="130.672" gradientUnits="userSpaceOnUse">
<stop stop-color="#FD6AD8"/>
<stop offset="0.12" stop-color="#F774CC"/>
<stop offset="0.34" stop-color="#E88DAC"/>
<stop offset="0.5" stop-color="#DBA391"/>
<stop offset="0.51" stop-color="#DDA78B"/>
<stop offset="0.54" stop-color="#DFAC84"/>
<stop offset="0.64" stop-color="#E7AD6A"/>
<stop offset="0.88" stop-color="#F8B12F"/>
<stop offset="1" stop-color="#FFB218"/>
</linearGradient>
<linearGradient id="paint5_linear_401_4315" x1="22.0821" y1="407.323" x2="1711.26" y2="137.932" gradientUnits="userSpaceOnUse">
<stop stop-color="#FD68D6"/>
<stop offset="0.15" stop-color="#F473C9"/>
<stop offset="0.42" stop-color="#DB90A6"/>
<stop offset="0.5" stop-color="#D29A9A"/>
<stop offset="0.51" stop-color="#D49E94"/>
<stop offset="0.54" stop-color="#D7A48D"/>
<stop offset="0.65" stop-color="#E1A870"/>
<stop offset="0.89" stop-color="#F7B135"/>
<stop offset="1" stop-color="#FFB41E"/>
</linearGradient>
<linearGradient id="paint6_linear_401_4315" x1="23.2593" y1="414.702" x2="1712.44" y2="145.312" gradientUnits="userSpaceOnUse">
<stop stop-color="#FD67D5"/>
<stop offset="0.17" stop-color="#EF73C7"/>
<stop offset="0.5" stop-color="#C992A3"/>
<stop offset="0.51" stop-color="#CC969D"/>
<stop offset="0.54" stop-color="#CF9C96"/>
<stop offset="0.65" stop-color="#DDA376"/>
<stop offset="0.89" stop-color="#F5B13B"/>
<stop offset="1" stop-color="#FFB624"/>
</linearGradient>
<linearGradient id="paint7_linear_401_4315" x1="23.9461" y1="419.145" x2="1713.15" y2="149.751" gradientUnits="userSpaceOnUse">
<stop stop-color="#FD65D3"/>
<stop offset="0.16" stop-color="#ED6FC9"/>
<stop offset="0.48" stop-color="#C388AE"/>
<stop offset="0.5" stop-color="#C08AAC"/>
<stop offset="0.51" stop-color="#C38EA6"/>
<stop offset="0.54" stop-color="#C7949F"/>
<stop offset="0.66" stop-color="#D89F7C"/>
<stop offset="0.89" stop-color="#F4B141"/>
<stop offset="1" stop-color="#FFB82A"/>
</linearGradient>
<linearGradient id="paint8_linear_401_4315" x1="24.5276" y1="422.796" x2="1713.73" y2="153.402" gradientUnits="userSpaceOnUse">
<stop stop-color="#FE64D2"/>
<stop offset="0.16" stop-color="#EC6CCB"/>
<stop offset="0.47" stop-color="#BD80B8"/>
<stop offset="0.5" stop-color="#B882B6"/>
<stop offset="0.51" stop-color="#BB87AF"/>
<stop offset="0.54" stop-color="#BF8DA8"/>
<stop offset="0.67" stop-color="#D39B82"/>
<stop offset="0.89" stop-color="#F3B147"/>
<stop offset="1" stop-color="#FFBA30"/>
</linearGradient>
<linearGradient id="paint9_linear_401_4315" x1="25.0839" y1="426.283" x2="1714.26" y2="156.892" gradientUnits="userSpaceOnUse">
<stop stop-color="#FE63D1"/>
<stop offset="0.16" stop-color="#E969CC"/>
<stop offset="0.48" stop-color="#B378C0"/>
<stop offset="0.5" stop-color="#AF79BF"/>
<stop offset="0.51" stop-color="#B27FB8"/>
<stop offset="0.54" stop-color="#B685B1"/>
<stop offset="0.67" stop-color="#CE9789"/>
<stop offset="0.89" stop-color="#F1B24E"/>
<stop offset="1" stop-color="#FFBD37"/>
</linearGradient>
<linearGradient id="paint10_linear_401_4315" x1="25.5981" y1="429.644" x2="1714.8" y2="160.251" gradientUnits="userSpaceOnUse">
<stop stop-color="#FE61CF"/>
<stop offset="0.16" stop-color="#E665CD"/>
<stop offset="0.5" stop-color="#A671C8"/>
<stop offset="0.51" stop-color="#AA77C1"/>
<stop offset="0.54" stop-color="#AE7DBA"/>
<stop offset="0.68" stop-color="#CA948F"/>
<stop offset="0.9" stop-color="#F0B354"/>
<stop offset="1" stop-color="#FFBF3D"/>
</linearGradient>
<linearGradient id="paint11_linear_401_4315" x1="26.1186" y1="432.911" x2="1715.32" y2="163.517" gradientUnits="userSpaceOnUse">
<stop stop-color="#FE60CE"/>
<stop offset="0.17" stop-color="#E063CF"/>
<stop offset="0.5" stop-color="#9D69D1"/>
<stop offset="0.51" stop-color="#A16FCA"/>
<stop offset="0.54" stop-color="#A675C3"/>
<stop offset="0.69" stop-color="#C69095"/>
<stop offset="0.9" stop-color="#EFB35A"/>
<stop offset="1" stop-color="#FFC143"/>
</linearGradient>
<linearGradient id="paint12_linear_401_4315" x1="26.6083" y1="436.116" x2="1715.81" y2="166.722" gradientUnits="userSpaceOnUse">
<stop stop-color="#FE5ECD"/>
<stop offset="0.19" stop-color="#D95FD2"/>
<stop offset="0.5" stop-color="#9460DA"/>
<stop offset="0.51" stop-color="#9967D2"/>
<stop offset="0.54" stop-color="#9E6DCB"/>
<stop offset="0.69" stop-color="#C28D9B"/>
<stop offset="0.9" stop-color="#EEB460"/>
<stop offset="1" stop-color="#FFC349"/>
</linearGradient>
<linearGradient id="paint13_linear_401_4315" x1="27.1146" y1="439.29" x2="1716.31" y2="169.896" gradientUnits="userSpaceOnUse">
<stop stop-color="#FE5DCB"/>
<stop offset="0.23" stop-color="#CC5BD5"/>
<stop offset="0.5" stop-color="#8B58E3"/>
<stop offset="0.51" stop-color="#915FDB"/>
<stop offset="0.54" stop-color="#9665D4"/>
<stop offset="0.7" stop-color="#BE8AA1"/>
<stop offset="0.9" stop-color="#EDB466"/>
<stop offset="1" stop-color="#FFC54F"/>
</linearGradient>
<linearGradient id="paint14_linear_401_4315" x1="27.6195" y1="442.456" x2="1716.8" y2="173.065" gradientUnits="userSpaceOnUse">
<stop stop-color="#FF5CCA"/>
<stop offset="0.3" stop-color="#B555DF"/>
<stop offset="0.5" stop-color="#8250ED"/>
<stop offset="0.52" stop-color="#8857E4"/>
<stop offset="0.54" stop-color="#8E5DDD"/>
<stop offset="0.7" stop-color="#BB88A7"/>
<stop offset="0.9" stop-color="#ECB66C"/>
<stop offset="1" stop-color="#FFC855"/>
</linearGradient>
<linearGradient id="paint15_linear_401_4315" x1="28.1063" y1="445.647" x2="1717.31" y2="176.253" gradientUnits="userSpaceOnUse">
<stop stop-color="#FF5AC8"/>
<stop offset="0.5" stop-color="#7947F6"/>
<stop offset="0.52" stop-color="#804EED"/>
<stop offset="0.54" stop-color="#8655E6"/>
<stop offset="0.71" stop-color="#B885AD"/>
<stop offset="0.91" stop-color="#EBB772"/>
<stop offset="1" stop-color="#FFCA5B"/>
</linearGradient>
<linearGradient id="paint16_linear_401_4315" x1="28.6227" y1="448.885" x2="1717.8" y2="179.495" gradientUnits="userSpaceOnUse">
<stop stop-color="#FF59C7"/>
<stop offset="0.5" stop-color="#703FFF"/>
<stop offset="0.62" stop-color="#9D6BCD"/>
<stop offset="0.74" stop-color="#C7959F"/>
<stop offset="0.85" stop-color="#E6B37D"/>
<stop offset="0.94" stop-color="#F8C568"/>
<stop offset="1" stop-color="#FFCC61"/>
</linearGradient>
<clipPath id="clip0_401_4315">
<rect width="1710.65" height="258.134" fill="white" transform="translate(0 269.41) rotate(-9.06122)"/>
</clipPath>
<clipPath id="clip1_401_4315">
<rect width="36" height="80" fill="white" transform="translate(417 263.131)"/>
</clipPath>
<clipPath id="clip2_401_4315">
<rect width="35" height="80" fill="white" transform="matrix(-1 0 0 1 1032 263.131)"/>
</clipPath>
</defs>
</svg>
