<svg width="216" height="145" viewBox="0 0 216 145" fill="none" xmlns="http://www.w3.org/2000/svg">
<g clip-path="url(#clip0_4236_15627)">
<path d="M132.198 61.5877C132.38 61.9846 132.709 62.1744 133.141 62.2159C135.049 59.0236 140.324 57.0716 143.3 57.0716C146.65 57.0716 152.187 62.2423 155.247 64.6455C158.307 67.0486 163.26 64.4281 166.611 66.6118C169.962 68.7956 167.19 84.6742 167.263 86.0582C167.336 87.4422 170.468 89.4086 172.363 85.6215C174.257 81.8343 171.343 70.5461 169.521 63.2634C167.7 55.9807 160.755 49.4002 155.753 46.3429C150.751 43.2856 147.304 44.0121 140.892 47.0708C134.48 50.1296 131.13 59.2583 132.198 61.5877Z" fill="#FFD15B"/>
<path d="M0.00585938 141.066C0.00585938 141.066 22.3705 140.508 25.5393 141.066C28.7082 141.624 72.8063 144.803 75.9145 144.755C79.0227 144.706 103.888 140.241 102.14 139.608C100.392 138.975 72.6607 137.812 71.9806 137.521C71.3005 137.23 53.914 93.7034 51.8014 93.339C49.6888 92.9745 5.54264 93.0478 5.39701 94.5036C5.25138 95.9595 24.483 139.438 25.5029 139.729C26.5228 140.021 75.3825 143.882 74.6544 143.106C73.9262 142.329 72.3728 140.582 73.2466 140.485C74.1204 140.388 81.8916 139.466 85.291 139.466C88.6905 139.466 105.64 138.895 115.693 140.206C125.747 141.518 171.059 140.243 171.566 137.985C172.073 135.727 174.187 120.288 178.56 114.607C182.932 108.926 187.52 93.123 187.52 87.8067C187.52 82.4904 185.079 67.8881 189.122 59.9134C193.165 51.9387 196.99 46.1493 198.082 40.1774C199.175 34.2054 203.643 24.4953 202.526 22.9415C201.409 21.3876 199.225 18.0401 199.322 16.6784C199.419 15.3166 199.796 12.3938 201.798 9.84456C203.8 7.29535 204.457 6.49609 205.112 5.43865C205.768 4.38121 207.699 0.246094 208.961 0.246094C210.224 0.246094 210.709 2.76958 209.908 3.62028C209.108 4.47099 205.464 7.01729 204.833 9.34957C204.202 11.6819 204.42 13.4522 205.234 14.5688C206.047 15.6855 208.427 14.957 207.625 14.5203C206.824 14.0835 205.15 12.8703 205.247 11.9483C205.344 11.0262 208.645 3.59748 210.006 4.56853C211.368 5.53959 211.851 9.05937 213.382 10.4919C214.912 11.9245 216.585 13.2581 215.3 14.6169C214.015 15.9757 209.131 18.423 207.552 20.5126C205.974 22.6022 203.983 24.1037 203.157 22.842C202.331 21.5802 200.459 17.4898 199.928 17.4068C199.396 17.3238 193.711 31.4014 189.668 36.7546C185.625 42.1078 175.717 59.0399 175.135 64.793C174.552 70.5461 172.805 90.137 173.314 94.871C173.822 99.605 175.644 103.173 177.284 104.448C178.924 105.722 179.068 106.232 178.085 106.232C177.101 106.232 174.333 103.21 173.279 99.0221C172.225 94.8346 172.876 90.682 172.366 91.2644C171.857 91.8467 166.648 95.4155 165.519 94.3959C164.389 93.3763 160.235 88.2784 160.526 83.7997C160.818 79.321 165.262 74.9146 164.788 71.965C164.314 69.0155 161.73 67.4621 160.053 68.9669C158.376 70.4718 160.757 71.9272 160.199 73.8465C159.64 75.7658 158.523 77.852 159.786 78.2141C161.048 78.5761 162.941 77.1464 163.281 74.7913C163.621 72.4362 163.281 70.5694 161.799 70.4723C160.318 70.3752 155.85 71.2487 152.208 67.7547C148.565 64.2606 144.146 59.0157 141.766 59.0642C139.792 59.1045 135.244 62.418 133.141 62.2159M192.764 142.569C182.274 141.986 165.227 136.743 163.333 136.161C161.439 135.578 156.049 136.597 151.823 138.344C147.598 140.091 144.975 138.347 141.333 136.452C137.69 134.557 125.524 139.655 123.922 139.509C122.319 139.363 121.153 136.451 120.789 130.042C120.425 123.632 125.743 114.237 126.981 110.742C128.22 107.246 123.011 100.254 122.72 99.0896C122.429 97.9249 123.958 95.0506 124.942 93.5573C125.925 92.0641 126.799 87.2578 127.637 86.3838C128.475 85.5098 125.124 97.9269 123.958 97.8177C122.793 97.7085 120.607 94.6497 118.167 89.9885C115.726 85.3274 110.774 72.6182 109.534 68.2133C108.294 63.8083 104.03 56.7809 101.442 53.1393C98.8529 49.4977 95.686 42.8702 93.7559 36.4979C91.8258 30.1256 87.3454 24.1532 87.0298 23.1341C86.7143 22.115 92.7117 19.6163 93.9991 18.7665C95.2865 17.9168 95.8204 13.986 95.9175 12.4549C96.0146 10.9238 94.8243 7.93981 94.4127 7.23566C94.001 6.53151 93.271 6.50677 92.0826 6.53152C90.8943 6.55627 90.1409 5.9977 89.704 5.70653C89.2672 5.41536 89.1691 5.97344 88.9031 7.04155C88.6371 8.10966 87.8842 8.42607 86.3303 9.44517C84.7765 10.4643 83.609 12.4054 83.2464 13.4245C82.8838 14.4436 85.3896 15.8757 86.1177 16.0213C86.8458 16.1669 86.7255 16.7492 87.1371 16.9919C87.5487 17.2345 88.7628 16.5303 89.273 16.0451C89.7832 15.5598 89.9045 15.8524 90.7055 15.584C91.5064 15.3157 91.4336 14.7105 91.7734 13.1804C92.1132 11.6503 92.5744 10.7525 92.3559 9.61211C92.1375 8.47169 88.5934 7.08814 86.4308 8.20478C84.2682 9.32142 81.2348 13.8851 80.7732 15.8757C80.3115 17.8663 81.5979 18.9102 82.728 19.8206C83.858 20.731 84.9134 22.2237 86.0425 22.9521C87.1716 23.6805 93.4001 19.2009 94.3471 19.2741C95.2942 19.3474 97.1155 25.2456 100.175 30.4168C103.235 35.588 108.189 43.8908 112.559 48.7698C116.93 53.6489 116.928 59.9105 117.149 60.7132C117.369 61.5159 118.968 63.0435 120.864 65.0099C122.76 66.9763 123.853 72.0747 126.983 77.6822C130.114 83.2897 136.231 88.5332 139.51 90.7907C142.788 93.0483 145.997 97.7798 145.775 99.457C145.554 101.134 142.497 103.461 140.166 105.647C137.835 107.833 138.563 109.288 138.782 110.6C139 111.911 144.318 105.939 149.199 100.695C154.08 95.4514 161.657 95.3786 162.968 95.1602C164.278 94.9419 163.587 93.2307 162.385 91.7011C161.183 90.1715 160.419 87.5864 160.09 86.6396C159.762 85.6928 158.014 88.9699 154.991 91.6647C151.968 94.3595 149.272 95.3786 146.285 95.0874C143.299 94.7963 141.586 92.2471 140.275 89.0063C138.964 85.7656 136.45 84.054 134.775 81.6508C133.101 79.2477 131.498 67.414 132.591 63.4803C132.713 63.0401 132.9 62.6181 133.141 62.2159M133.141 62.2159C132.709 62.1744 132.38 61.9846 132.198 61.5877C131.13 59.2583 134.48 50.1296 140.892 47.0708C147.304 44.0121 150.751 43.2856 155.753 46.3429C160.755 49.4002 167.7 55.9807 169.521 63.2634C171.343 70.5461 174.257 81.8343 172.363 85.6215C170.468 89.4086 167.336 87.4422 167.263 86.0582C167.19 84.6742 169.962 68.7956 166.611 66.6118C163.26 64.4281 158.307 67.0486 155.247 64.6455C152.187 62.2423 146.65 57.0716 143.3 57.0716C140.324 57.0716 135.049 59.0236 133.141 62.2159Z" stroke="#231F20" stroke-width="1.91538" stroke-miterlimit="10"/>
</g>
<defs>
<clipPath id="clip0_4236_15627">
<rect width="216" height="145" fill="white"/>
</clipPath>
</defs>
</svg>
