<svg width="222" height="144" viewBox="0 0 222 144" fill="none" xmlns="http://www.w3.org/2000/svg">
<g clip-path="url(#clip0_4236_15603)">
<path d="M169.312 128.225C169.21 128.184 169.105 128.149 168.997 128.12C168.206 128.141 167.416 128.155 166.627 128.241C164.363 128.463 155.609 128.603 154.438 130.012C154.206 130.292 154.142 130.715 154.218 131.063C154.761 133.569 162.465 138.229 164.722 139.537C165.271 139.853 165.995 140.111 166.492 140.473C167.941 140.702 174.989 140.201 176.472 139.893C177.019 139.779 177.577 139.59 178.03 139.253C178.483 138.916 178.797 138.435 178.859 137.865C178.926 137.202 178.84 136.412 178.61 135.787C178.273 134.955 170.487 128.708 169.312 128.225ZM167.213 129.016C167.756 128.954 168.308 128.953 168.853 128.934C170.049 129.414 176.969 134.976 177.886 136.082L177.81 136.213C176.141 136.873 168.482 137.294 166.495 137.205L166.397 137.171C166.341 137.152 166.288 137.13 166.233 137.111C164.42 136.492 158.189 131.431 155.944 129.942C159.694 129.511 163.455 129.325 167.213 129.016V129.016ZM164.633 138.513C163.354 138.042 156.596 133.39 155.752 132.394C155.254 131.806 155.243 131.117 155.31 130.392C158.065 132.151 162.648 135.292 164.832 137.571C164.948 138.05 164.85 138.094 164.634 138.513L164.633 138.513ZM178.019 137.948C177.944 138.317 177.599 138.667 177.279 138.836C176.075 139.475 168.923 139.826 167.41 139.738C166.945 139.71 166.475 139.58 166.026 139.453L165.645 139.036C165.585 138.587 165.497 138.438 165.731 138.039C166.619 137.733 167.921 137.917 168.88 137.889C171.552 137.808 174.716 137.844 177.308 137.187L177.843 137.202C178.016 137.462 178.088 137.628 178.02 137.949L178.019 137.948Z" fill="black" stroke="black" stroke-width="0.4"/>
<path d="M127.885 129.032C127.575 127.814 126.828 126.717 125.737 126.084C125.111 125.722 124.509 125.522 123.785 125.481C120.776 125.315 117.662 125.508 114.641 125.52C108.359 125.511 102.076 125.547 95.7928 125.63C92.7954 125.658 82.8987 125.4 80.9968 125.934C79.2587 126.161 78.1532 127.025 77.0954 128.403C75.7227 130.195 74.5069 132.157 73.2408 134.026C71.9331 135.956 70.5184 137.872 69.32 139.874C69.2738 140.77 68.9604 142.429 69.6035 143.141C70.4617 144.09 72.9752 144.004 74.1857 144.001C77.2078 143.993 80.2461 143.803 83.2672 143.691L102.408 142.985C108.584 142.795 114.758 142.563 120.93 142.29C123.79 142.167 126.766 142.23 129.601 141.898C130.258 141.821 130.632 141.74 131.114 141.26C131.29 141.084 131.46 140.934 131.463 140.665C131.476 139.489 128.623 130.514 127.925 129.206C127.912 129.144 127.9 129.088 127.885 129.032ZM130.529 139.617C130.609 139.807 130.696 139.973 130.68 140.184C130.656 140.492 130.543 140.673 130.285 140.843C129.876 141.112 129.163 141.179 128.679 141.215C125.711 141.431 122.662 141.398 119.681 141.524C112.491 141.861 105.299 142.144 98.1057 142.374C90.4342 142.615 82.7249 143.129 75.0539 143.18C73.5589 143.189 72.1142 143.118 70.6329 142.9L70.1762 142.584C69.8733 142.012 69.9914 141.257 70.0145 140.627C72.8177 141.127 75.94 140.898 78.781 140.838L90.4987 140.593L116.375 140.074C120.942 139.968 125.59 140.074 130.136 139.67C130.322 139.539 130.318 139.583 130.529 139.617ZM129.926 138.681C129.521 138.991 129.133 139.072 128.634 139.099C124.592 139.31 120.475 139.194 116.425 139.265L94.4091 139.743L80.8592 140.007C77.3316 140.069 73.7725 140.202 70.2612 139.806C72.0691 137.329 73.7358 134.727 75.4345 132.172C76.4025 130.717 77.3495 129.071 78.5763 127.82C78.9548 127.433 79.4162 127.188 79.8928 126.94C82.6577 126.085 86.6593 126.424 89.5917 126.386L103.374 126.255C107.951 126.187 112.53 126.171 117.108 126.206C119.208 126.209 121.347 126.098 123.441 126.221C124.038 126.255 124.625 126.299 125.162 126.587C125.955 127.013 126.455 127.725 126.9 128.484L127.005 128.658C127.55 130.596 130.02 137.106 129.926 138.681Z" fill="black" stroke="black" stroke-width="0.4"/>
<path d="M221.812 121.776C219.86 120.836 180.182 122.043 174.782 122.323C174.875 122.267 174.964 122.206 175.049 122.14C175.781 121.522 176.526 120.364 177.032 119.563C178.187 117.731 179.144 115.698 179.567 113.562C180.803 107.317 178.773 95.9538 176.696 90.0404C175.656 87.0802 173.243 83.1342 172.736 80.24C172.445 78.5807 172.941 77.0559 173.14 75.4251C173.206 74.8761 173.218 74.2754 172.958 73.7728C172.538 72.9661 171.576 72.544 171.042 71.8179C170.509 71.0919 170.429 70.1819 169.887 69.4822C169.91 69.4585 169.935 69.4353 169.957 69.4111C170.474 68.8562 170.97 67.9568 170.909 67.1812C170.817 66.0115 169.968 65.3028 169.118 64.6247C169.514 64.1794 169.877 63.5456 169.947 62.9386C170.107 61.5233 168.803 60.3041 168.004 59.2856C168.282 58.1654 167.1 54.1746 166.748 52.9406C165.773 49.5305 165.062 49.5157 162.195 47.9229C155.797 44.0928 148.195 43.8779 141.365 41.2897C139.452 40.5642 137.522 39.6737 135.827 38.515C134.665 37.7215 133.562 36.7857 132.362 36.0581C133.615 33.3566 135.597 29.7727 134.436 26.7435C133.964 25.5158 132.284 24.9731 132.167 24.5832C131.875 23.6211 132.094 22.1431 132.13 21.1241C132.352 14.9293 131.699 11.5191 127.202 6.97461C128.616 7.13636 129.901 7.77813 131.284 7.9067L131.366 7.68224C131.023 7.08209 129.784 6.73065 129.134 6.55308C128.241 6.30965 125.44 6.41872 125.061 6.05147C125.022 5.19157 126.349 2.67613 125.918 2.14765C124.785 3.1867 124.49 4.69838 124.223 6.13735C122.085 2.98279 118.338 1.00479 114.665 0.28873C111.062 -0.414686 107.532 0.141724 104.481 2.23827C103.671 2.79521 102.911 3.46859 102.208 4.15357C99.2155 4.36433 96.7761 5.1178 94.7456 7.47885C93.5719 8.84406 92.5902 10.5802 91.9335 12.2631C91.6185 13.0682 91.3933 14.0098 90.8994 14.7232C89.5723 16.6401 87.461 17.9716 86.0043 19.8121C85.598 20.3258 85.3854 20.9296 85.1896 21.5509C84.4772 23.7997 84.1082 26.1549 83.536 28.4417C83.0704 30.3032 82.2236 32.3777 82.063 34.2814C81.8357 37.0091 82.2866 39.777 82.284 42.5105C76.3454 44.743 69.9631 46.2716 64.4418 49.4657C59.563 52.2092 58.8721 52.6582 57.2873 58.275C56.6081 60.6808 55.9545 63.349 55.8338 65.8545C55.7813 66.9747 56.2464 68.8963 55.859 69.9116C55.4716 70.927 54.2574 71.3343 53.7713 72.396C53.712 72.9645 53.8673 73.3686 54.2296 73.8075C54.4243 74.0436 54.608 74.2712 54.8779 74.4214C55.1928 75.1991 55.2569 75.5937 54.9125 76.3951C54.8135 76.6252 54.7043 76.8502 54.5849 77.0701C52.25 80.2663 53.198 83.295 52.3361 86.8858C51.0951 92.0547 48.2599 96.6704 46.9292 101.78C46.5481 103.249 46.3591 104.737 46.5969 106.246C46.777 107.384 47.2405 108.432 47.4746 109.547C47.9544 111.826 47.3575 112.715 48.515 115.211C49.6043 117.559 51.2285 119.643 52.3634 121.976C43.7092 121.755 35.0587 121.26 26.4082 121.064C20.9614 120.941 15.4962 121.049 10.0473 121.026C8.25095 121.019 1.35321 120.687 0.0146109 121.315L-0.00585938 121.554C0.166322 121.682 0.291256 121.75 0.507007 121.784C2.29181 122.066 4.95484 121.769 6.85565 121.758C11.8405 121.721 16.8253 121.728 21.8102 121.777C32.1516 121.891 42.4803 122.756 52.8159 122.747C55.7734 125.027 59.4501 126.513 63.2502 125.974C64.0974 125.853 65.4166 125.478 66.0439 124.867C66.908 124.333 67.5809 123.61 68.2954 122.896C76.7443 122.725 85.2132 123.061 93.6611 123.159C105.598 123.223 117.533 123.346 129.468 123.528C135.719 123.674 141.971 123.76 148.223 123.788C151.921 123.824 155.65 123.96 159.346 123.8C161.519 125.075 163.707 126.599 166.17 127.254C167.831 127.696 169.451 127.546 170.94 126.658C171.994 126.029 173.864 124.392 174.165 123.193C185.351 122.613 196.543 122.324 207.741 122.326C210.964 122.31 214.187 122.312 217.409 122.333C218.669 122.343 220.106 122.544 221.342 122.419C221.699 122.382 221.775 122.333 221.997 122.062L221.812 121.776ZM154.335 45.4976C156.71 46.1825 158.989 47.2253 161.241 48.2374L162.204 48.7501C162.127 49.4456 161.288 50.051 160.989 50.7397C160.294 52.3378 159.758 54.1082 159.272 55.7801C157.501 61.859 156.775 71.1851 154.268 76.4342C152.01 73.8745 150.269 70.9154 148.031 68.3725C146.788 66.962 145.201 66.0889 143.779 64.9071C143.078 64.3275 142.459 63.5809 141.735 63.0418C140.744 61.9354 139.663 60.9527 138.702 59.8088C140.191 59.2144 141.909 58.8725 143.257 57.9751C143.577 57.7644 144.001 57.404 144.065 57.0072C144.148 56.4946 143.936 55.8359 143.761 55.3512C143.214 53.8347 142.286 52.4532 141.669 50.9542C140.727 48.6669 140.088 46.2552 138.971 44.0391C138.19 42.4895 137.231 41.0631 136.25 39.6357C142.468 43.2782 147.692 43.5754 154.335 45.4976ZM131.989 73.3771C131.693 73.8834 129.899 74.8677 129.345 74.9725C129.124 75.0136 128.96 74.9836 128.783 74.8439C128.529 74.6448 128.34 74.257 128.172 73.9825C128.163 73.9535 128.151 73.925 128.145 73.895C128.01 73.2864 128.32 72.9255 128.631 72.4434C129.229 71.878 129.776 71.2383 130.4 70.7046L131.283 72.2716C130.176 72.7927 129.187 73.2575 128.216 74.023C129.393 73.8997 130.921 72.9239 131.989 73.3771ZM129.185 79.1092C129.005 79.683 128.85 80.4491 129.041 81.0345L129.274 81.1167C129.684 80.8501 129.886 80.5962 130.138 80.1778L130.122 79.8653L129.832 79.702L129.89 79.5049L129.832 79.5128C130.105 79.173 130.209 78.9733 130.684 78.9248C130.711 78.9248 130.74 78.9248 130.768 78.9217L131.127 79.3358C131.232 79.6904 131.271 79.977 131.116 80.3264C130.767 81.113 129.707 81.4329 128.967 81.6789C128.582 80.945 127.679 79.6504 127.917 78.8395C128.096 78.2256 128.725 77.9511 129.239 77.6576C129.457 78.3289 129.394 78.4332 129.183 79.1092H129.185ZM130.51 77.998C130.102 77.7309 130.103 76.9821 129.998 76.5295C129.874 76.3421 129.772 76.1402 129.696 75.9283C130.423 74.9952 133.199 73.8181 134.315 72.9645C137.373 70.624 139.936 67.6349 142.223 64.5514C143.069 65.3318 143.903 66.1248 144.776 66.8761C143.694 68.4839 142.568 70.0593 141.398 71.6024C138.534 74.8039 135.529 77.7066 132.007 80.1678C131.863 79.4991 131.765 78.8589 131.272 78.3463C131.026 78.2456 130.729 78.1434 130.508 77.998H130.51ZM137.349 42.6217C139.042 45.5012 139.796 48.6194 141.066 51.6671C141.643 53.0586 142.618 54.2705 143.177 55.6715C143.334 56.0651 143.419 56.3876 143.312 56.8081C142.992 57.2881 142.532 57.4836 142.036 57.7438C140.789 58.2166 139.552 58.7118 138.323 59.2292C137.798 58.6585 137.251 58.07 136.954 57.3413C135.757 54.4222 135.353 50.8282 134.791 47.7195C134.153 44.1893 133.479 40.7349 132.558 37.2652C134.26 37.751 136.446 41.0895 137.347 42.6217H137.349ZM134.507 50.4473C134.919 52.5886 135.242 55.7274 136.194 57.6543C137.303 59.8989 139.764 62.3579 141.659 63.9724C139.006 67.4199 136.136 70.9133 132.473 73.3328C132.028 72.0529 129.184 65.7396 128.42 64.7311C127.125 63.0234 125.382 62.0966 124.489 60.0216C122.506 55.4065 122.019 50.1917 121.4 45.2557C121.182 43.5217 121.051 41.6628 120.596 39.9735L120.456 39.8518C118.046 37.7842 112.739 36.5239 111.369 33.7091L111.392 33.2829C111.953 32.9314 112.686 33.1048 113.297 33.2428C116.207 33.8994 119.336 34.9953 122.102 36.1303C122.799 37.2573 123.415 39.0577 124.337 39.9498L124.678 39.9851L124.847 39.758C124.696 38.7527 123.317 36.1856 122.648 35.3352C122.245 34.823 121.67 34.402 121.149 34.0205C119.5 32.8134 113.092 29.9281 112.793 28.1693C112.75 27.9132 112.82 27.8321 112.911 27.5997C113.455 27.1424 114.135 27.1381 114.811 27.2003C115.841 27.2952 116.902 27.5128 117.914 27.7235C119.055 28.0507 123.899 30.2289 124.186 30.2432C124.432 30.2558 124.479 30.1536 124.634 29.9908C123.997 28.8896 119.285 27.507 118.014 26.7372L117.9 26.666C117.121 25.8182 115.958 24.8566 116.048 23.5958C116.091 23.0035 116.27 22.3644 116.727 21.9666C117.28 21.8417 117.86 22.2559 118.313 22.5414C120.037 23.6274 125.533 27.1782 125.947 28.9913C126.372 30.8528 127.359 36.6983 128.437 37.8959L128.668 37.9017C128.867 37.0718 126.756 28.5487 126.269 27.7367C124.979 25.5817 119.794 23.6927 120.653 20.5107C120.767 20.085 120.986 19.7241 121.264 19.3874C121.66 19.4 121.878 19.7336 122.142 20.0197C122.72 20.6383 123.242 21.3211 123.872 21.886C125.332 23.1958 127.399 24.3677 128.442 26.0575C130.596 29.5492 133.583 45.6562 134.505 50.4473H134.507ZM107.22 92.1828C107.251 95.0421 107.246 97.9014 107.206 100.761C106.453 98.7006 105.827 96.6072 105.229 94.498C104.074 90.2601 103.297 85.9168 102.481 81.6025C101.523 76.7817 100.659 71.9448 99.8864 67.0916C100.581 68.4658 101.481 70.0233 102.471 71.2015C102.775 71.5629 102.956 71.7189 103.428 71.7616C104.229 71.1456 104.712 68.7187 105.239 67.7207C105.721 66.8066 106.305 66.0283 106.996 65.2638C107.138 65.7807 107.157 66.3582 107.268 66.8888C107.727 69.0896 108.532 71.1862 110.143 72.7901C109.716 75.5827 108.966 78.3178 108.237 81.0419C107.89 82.3386 107.439 83.6543 107.24 84.9826C106.885 87.2963 107.172 89.8407 107.219 92.1828H107.22ZM111.21 34.8841C112.89 37.3606 117.441 38.4534 119.795 40.3834C120.416 42.3857 120.543 44.7304 120.811 46.8153C121.211 49.9241 121.656 53.0001 122.341 56.0598C119.58 58.8372 115.626 63.4486 111.489 63.4597C111.062 63.4597 110.636 63.4539 110.21 63.4423C109.042 62.742 108.14 61.8263 107.116 60.9453C106.276 59.9874 105.283 59.1127 104.37 58.2212C102.162 55.6473 99.9216 52.8805 98.3336 49.864C96.8732 47.0872 95.1 40.2965 95.354 37.1951C95.554 34.7508 97.532 32.6369 99.1672 30.9582C102.207 30.8528 105.672 30.6684 108.517 29.4613C109.607 28.9986 110.95 27.9949 112.087 27.7873C112.087 27.8147 112.09 27.84 112.092 27.8684C112.097 27.9132 112.102 27.9575 112.106 28.0023C112.112 28.0592 112.116 28.1155 112.122 28.1719C112.209 29.006 112.574 29.4728 113.219 29.9855C115.728 31.9788 118.76 33.1543 121.355 35.0275C119.573 34.401 112.897 31.6916 111.28 32.4899C110.971 32.6427 110.866 32.8419 110.789 33.1622C110.645 33.7566 110.873 34.3947 111.206 34.8841H111.21ZM96.9913 48.9398C98.4885 52.4574 100.989 55.8854 103.701 58.5626C104.632 59.5674 105.6 60.5232 106.588 61.4738C107.16 62.174 107.946 62.7984 108.605 63.4233C108.404 63.514 108.205 63.6086 108.008 63.7073C105.234 65.1068 104.187 68.0348 103.26 70.8063C103.208 70.7489 103.16 70.6909 103.11 70.6335C101.76 69.0559 100.515 67.0073 99.7247 65.0857C99.1152 63.6014 98.827 61.9828 98.468 60.4216C97.5719 56.5372 96.7037 52.9543 96.9913 48.9398ZM107.852 64.7469C108.606 64.6305 109.366 64.5441 110.123 64.4487C111.75 64.3733 115.473 63.8164 116.82 64.7069C116.981 64.8125 117.117 64.9531 117.217 65.1185C117.317 65.2838 117.379 65.4697 117.397 65.6621C117.631 67.5095 115.807 70.1513 114.76 71.5903C113.937 72.2795 111.627 72.1041 110.582 72.1288C108.923 69.6787 107.894 67.794 107.852 64.7453V64.7469ZM118.214 65.5583C119.297 66.6042 120.813 69.9843 121.533 70.3763C121.848 70.5471 121.975 70.4649 122.291 70.3864C122.868 69.9596 123.155 69.1165 123.455 68.4758C122.871 73.0493 122.338 77.6288 121.855 82.2143C121.471 86.0607 121.235 89.9186 120.768 93.7598L120.473 95.8568C119.761 93.2513 119.567 90.3718 119.161 87.6983C118.305 82.0947 117.347 77.8178 115.272 72.5598C116.89 70.5465 117.64 68.0322 118.214 65.5568V65.5583ZM121.937 69.6866L120.454 67.128C119.004 65.082 118.034 64.0061 115.631 63.2026C118.003 61.2388 120.281 59.3187 122.403 57.0747C122.594 57.2243 124.147 61.1492 124.59 61.8853C124.276 64.6605 123.451 67.3387 121.937 69.685V69.6866ZM132.95 25.8483C133.458 26.1692 133.745 26.8309 133.881 27.3968C134.503 29.9897 133.251 32.5605 131.999 34.7271L131.586 33.118C131.561 33.0426 131.538 32.9678 131.518 32.8919C131.507 32.8503 131.498 32.8092 131.487 32.7681C131.067 31.2153 132.126 27.7804 131.426 26.6713C130.992 27.009 130.944 27.9048 130.855 28.4333C130.823 28.0796 130.812 27.7244 130.822 27.3694C130.866 26.4637 131.298 26.1307 131.932 25.5695C132.289 25.608 132.64 25.6512 132.95 25.8483ZM98.257 5.76115C99.6465 5.15099 101.005 5.08091 102.492 5.03824C104.844 2.53755 107.709 0.832494 111.211 0.74977C115.541 0.647551 119.629 2.4406 122.71 5.43921C123.171 5.88708 124.121 6.67322 124.137 7.35081C124.138 7.50284 124.13 7.65481 124.115 7.80606C124.292 8.02841 124.27 8.02788 124.55 8.06108C124.822 7.80237 124.93 7.57844 125.072 7.23279C125.596 7.11371 126.219 7.40034 126.677 7.68435C129.026 9.14123 130.43 12.1103 131.009 14.7227C131.434 16.6422 131.852 23.6274 131.04 25.0442C130.992 25.1164 130.937 25.1832 130.876 25.2434C130.423 25.0674 130.351 24.6317 129.931 24.4789C129.535 25.3356 130.036 26.7314 130.12 27.6798C129.862 27.037 129.595 26.2171 129.164 25.6776C128.925 25.3778 121.819 18.6276 121.77 18.6028C121.496 18.4664 121.131 18.5096 120.842 18.5628C120.412 18.8089 120.216 19.1229 120.09 19.6029C119.772 20.8032 119.896 21.8285 120.297 22.9846C119.405 22.3523 117.862 20.9591 116.696 21.201C116.302 21.2827 116.01 21.5603 115.807 21.8965C115.392 22.5815 115.282 23.5863 115.199 24.373C115.696 25.2603 116.254 25.9763 116.954 26.7082C115.848 26.5796 114.742 26.431 113.629 26.3762C114.172 25.9547 114.843 25.5274 115.192 24.9283L115.167 24.6285L114.963 24.5853C113.707 25.4336 112.542 26.4358 111.267 27.2462C108.019 29.3111 103.888 29.966 100.128 30.2421C101.799 29.251 103.291 28.3115 104.711 26.9753C105.31 26.4864 106.164 25.8688 106.465 25.1507L106.354 24.9778C104.674 24.7423 103.112 26.4173 101.302 26.4806C99.8318 26.5333 95.5593 25.4299 94.5356 24.4852C94.4238 23.982 94.5446 23.9256 94.7913 23.492C95.0506 23.3371 100.39 18.6771 100.574 18.429C101.167 17.6302 101.45 16.3846 101.309 15.4014C101.233 14.8745 101.108 14.5583 100.682 14.2369C99.0858 13.7269 95.9693 16.7977 94.3194 17.4479L94.1813 17.5005C95.4007 16.3277 96.911 15.5389 97.331 13.7632C97.4674 13.1836 97.5215 12.3142 97.1499 11.82C97.0093 11.6163 96.7952 11.4755 96.553 11.4275C95.9189 11.3 95.4506 11.6451 94.9446 11.9739C93.9867 12.5742 93.0487 13.2044 92.1304 13.8644C93.4002 10.6808 94.9209 7.22489 98.257 5.76115ZM98.5273 26.8541C97.3724 27.7957 96.0496 28.5465 94.7682 29.2942C93.6678 29.8972 92.5229 30.4144 91.3435 30.8412C92.113 28.8917 92.9986 26.969 93.8837 25.07C95.2889 25.8899 96.9876 26.3409 98.5273 26.8541ZM82.8546 34.2218C83.0473 32.2164 84.3029 28.8427 84.7796 26.6381C85.1591 24.8798 85.4132 22.1241 86.3728 20.6024C87.576 18.6929 90.7235 15.9209 92.6023 14.5325C93.3897 13.9529 94.7351 13.2795 95.3257 12.5398C95.3561 12.5018 95.385 12.4623 95.4144 12.4233C96.0344 12.2157 96.0763 12.1841 96.6858 12.4028C96.8958 12.7294 96.9483 12.8496 96.8559 13.2421C96.3378 15.4377 91.0527 18.8236 89.4904 20.8933C87.819 23.1063 87.1109 26.1987 86.1087 28.7673C85.7938 29.573 84.7906 31.1489 85.0447 31.9509C85.2841 31.9419 85.2946 31.9646 85.4552 31.7812C86.0132 31.1426 86.356 30.0461 86.683 29.2626C89.0374 23.6247 88.2027 22.2622 93.8873 18.6803C95.2181 17.8931 99.2124 15.1079 100.351 15.0768C100.643 15.4277 100.752 15.7686 100.689 16.2318C100.377 18.5085 95.9278 21.0355 94.4149 22.8676C93.386 24.1796 90.5361 29.7005 90.45 31.2733L90.5734 31.5805C91.3608 31.8829 92.2102 31.4466 92.9435 31.1205C95.2007 30.1194 97.227 28.7178 99.2344 27.2899C100.953 27.439 102.292 27.1935 103.926 26.6671C102.804 28.0086 100.79 28.7847 99.3667 29.8032C98.2643 30.5936 97.3415 31.6474 96.5367 32.7354C95.7094 33.8551 94.9682 35.0538 94.6774 36.4332C94.3866 37.8127 94.6574 39.23 94.828 40.6116C95.2391 43.9395 95.6879 47.4882 94.6606 50.7471C93.5257 54.3469 91.1115 54.1662 89.8374 56.7227C88.8133 58.7776 88.6264 61.7741 88.2243 64.0361C84.5087 63.1172 81.7675 61.7141 79.2971 58.6996C82.672 51.8662 83.283 48.3196 82.9717 40.7491C82.8846 38.5983 82.6489 36.3642 82.8546 34.2218ZM87.6437 74.9973C87.6001 75.1485 87.5119 75.3045 87.4474 75.4494C86.9697 75.5916 86.5781 75.4441 86.1376 75.2533C81.0683 73.0625 76.3039 70.5112 74.1752 65.102C75.3413 62.6389 76.5837 60.2152 77.9023 57.8308C78.3281 58.2771 78.6567 58.9325 79.0016 59.4515C81.7633 63.603 87.3135 64.7975 91.88 65.7117C90.3792 68.8573 88.7419 71.6551 87.6437 74.9973ZM91.48 76.4647L91.4217 76.6085L90.7618 76.5627C89.8768 76.3888 89.0143 76.1586 88.145 75.9194C88.4421 74.7697 88.9251 73.62 89.3272 72.4998C89.9377 72.9877 90.9765 75.5842 91.48 76.4647ZM47.5003 102.652C48.6027 97.623 51.4846 93.0095 52.8747 88.0155C53.1896 86.8985 53.403 85.7552 53.5125 84.5996C53.65 83.0689 53.4511 81.0014 54.0611 79.5782C54.2537 79.1287 54.754 79.5666 55.1298 79.4138C55.1876 78.919 55.123 78.9896 54.8831 78.6013C54.6306 78.1929 54.7172 78.0886 54.8343 77.6476C54.8851 77.6218 54.9337 77.5918 54.9797 77.558C55.375 77.2119 55.7892 76.4204 55.8821 75.9246C56.0432 75.0684 55.8432 74.6395 55.3729 73.9561C54.9356 73.4777 54.628 73.1473 54.4726 72.4982C55.2075 71.642 56.133 71.0755 56.7965 70.1303C56.743 69.4773 56.6973 68.8241 56.6595 68.1707C56.3934 63.3232 57.8622 55.7743 61.1215 52.1097C64.5657 55.1836 66.5384 59.5601 67.6597 63.985C67.8571 64.7648 67.7736 65.7817 68.2781 66.4319L68.488 66.4256L68.655 66.0931C68.4807 61.2509 65.3819 55.2242 61.9955 51.882C63.0559 51.0437 64.267 50.4162 65.4397 49.7523C69.5342 47.7416 73.6944 46.2932 78.0084 44.8568C79.4478 44.3779 80.8819 43.7872 82.3433 43.3915C82.3171 49.1759 81.4719 52.5496 78.8577 57.7149L77.6903 56.543C76.4945 58.7911 75.3161 61.0487 74.1553 63.3158C73.4136 63.6905 72.8073 64.0382 72.2424 64.6557C70.003 67.1053 62.0942 79.8227 61.1325 82.7854C60.8255 83.7307 60.5987 84.8145 60.0911 85.6708C59.1315 87.2899 57.5629 88.6562 56.2753 90.0098C54.134 92.2623 51.1051 96.1445 50.5592 99.2438C50.2295 100.123 49.7607 100.703 49.2253 101.454C47.7617 103.509 47.7281 105.148 47.6352 107.592C47.2478 105.902 47.126 104.367 47.5009 102.654L47.5003 102.652ZM64.6554 124.862C61.3908 125.636 58.1068 125.171 55.154 123.57C54.4957 123.214 53.986 122.748 53.5151 122.167C52.5177 120.932 49.1733 115.202 48.7444 113.714C47.7943 110.411 48.1408 104.574 49.7906 101.572C49.6547 102.966 48.9922 106.607 49.4505 107.78L49.7702 107.892C50.0059 107.724 50.0143 107.663 50.0851 107.377C50.356 106.316 50.2248 104.851 50.3534 103.717C50.7849 99.9093 52.2337 96.9955 54.154 93.7382C54.8794 93.0743 55.4532 92.1301 56.112 91.3834C57.4958 89.8143 59.4275 88.1978 60.5215 86.439C61.4769 84.8994 61.8045 82.9287 62.6097 81.2874C64.6271 77.1776 67.2649 73.3338 69.7657 69.5112C70.8718 67.8219 71.9238 65.8829 73.3259 64.4334C74.234 68.3325 76.707 70.8832 80.0116 72.9397C83.6001 75.1727 87.7245 77.0074 91.9661 77.4147C90.2253 82.8318 86.5329 87.6066 84.0289 92.6844C82.1318 96.5308 80.369 101.683 78.7743 105.816C78.064 107.657 77.4645 109.598 76.4488 111.296C74.9721 113.764 72.7605 116 70.9778 118.262C69.0114 120.76 67.3746 123.144 64.656 124.864L64.6554 124.862ZM69.6875 122.119L69.1909 122.106L69.0733 121.98C70.7878 119.451 72.9196 117.063 74.8298 114.665C75.6645 116.239 75.4708 120.288 75.5501 122.135L69.6875 122.119ZM97.9467 122.38L76.1832 122.127C76.2299 119.292 75.9732 116.556 75.6157 113.749C77.6777 111.123 78.6199 108.293 79.8304 105.239C81.2478 101.669 82.5428 98.0208 84.0641 94.4974C85.5135 91.14 87.5728 87.9386 89.3308 84.7287C89.7928 85.1871 90.4059 88.1372 90.6679 88.9439C91.6322 91.924 93.1451 94.8937 94.5472 97.6989C99.0145 106.646 104.99 115.129 111.635 122.558C107.073 122.456 102.51 122.397 97.9472 122.382L97.9467 122.38ZM112.648 122.567C110.844 120.527 109.107 118.431 107.437 116.279C101.178 108.667 95.1619 98.9103 91.7251 89.6304C91.0059 87.6899 90.4936 85.7003 89.9718 83.7001L92.9041 77.4158C92.3267 76.1191 91.2033 74.8682 90.8096 73.5362C90.7162 73.22 90.7209 73.1832 90.8852 72.9039C91.2075 72.9071 91.5298 72.9025 91.8521 72.8902L91.9965 72.7095C91.6122 71.9781 90.5681 71.7537 89.8327 71.4934C90.481 69.8373 91.4128 68.3657 92.1613 66.7634C92.3892 66.2749 92.691 65.6569 92.4973 65.1199C91.5051 64.6341 89.9875 64.5256 88.8752 64.2585C89.3938 61.5101 91.3046 57.5668 92.818 55.1625C93.3267 54.3543 94.1362 53.7805 94.5824 52.9311C95.2842 51.5949 95.564 50.0078 96.0658 48.5847C96.1924 48.7227 96.248 48.8539 96.3283 49.021C95.5409 54.438 97.752 59.9073 98.7515 65.1568C100.804 75.9404 102.064 87.0233 105.278 97.5435C107.907 106.153 111.897 114.138 114.955 122.571L112.648 122.567ZM114.785 119.926C113.978 117.86 113.138 115.807 112.266 113.767C110.852 110.544 108.588 106.397 108.123 102.919C107.715 99.8655 108.075 96.2225 108.061 93.1185C108.049 90.5525 107.599 87.7183 108.03 85.1908C108.734 81.0667 110.288 77.1781 110.827 72.984C111.988 72.8628 113.149 72.7485 114.311 72.641C114.404 72.6636 114.409 72.6547 114.493 72.7358C114.834 73.063 115.071 74.0568 115.233 74.5225C117.23 80.1868 117.99 85.9769 118.991 91.8708C119.34 93.9258 119.867 96.046 120.012 98.1231C120.142 100.008 116.13 119.611 115.178 120.727L114.785 119.926ZM118.131 122.473C117.332 122.7 116.392 122.579 115.567 122.554C118.166 113.961 120.101 104.784 121.278 95.8816C121.915 91.0726 122.238 86.2461 122.727 81.4229C123.341 75.1548 124.16 68.914 125.185 62.7004C128.193 65.3618 128.573 66.4193 130.076 70.008C129.373 70.647 128.703 71.3212 128.068 72.0282C127.673 72.4829 127.167 72.9376 127.245 73.5962C127.291 73.9856 127.584 74.4203 127.787 74.7491C128.256 75.4783 128.791 76.1565 129.321 76.8414C128.586 77.1528 127.438 77.5201 127.105 78.3226C126.722 79.2446 127.637 80.9787 128.044 81.817C129.634 85.097 132.033 87.8737 134.098 90.8465C132.162 95.4938 130.064 100.066 127.803 104.564C126.753 106.681 125.141 109.115 124.402 111.306C122.429 114.889 120.591 118.592 118.476 122.088L118.131 122.473ZM133.144 122.758C129.892 122.744 126.64 122.706 123.389 122.643C121.941 122.617 120.417 122.68 118.979 122.538C120.99 120.04 123.401 115.123 124.723 112.118C125.691 110.786 126.42 109.019 127.185 107.546C129.87 102.376 132.62 97.0297 134.658 91.5663C137.45 95.3779 140.391 99.1748 142.886 103.188C143.889 104.801 144.927 106.408 145.84 108.075C147.473 111.056 148.861 114.151 151.072 116.769C153.134 119.211 155.702 121.178 158.264 123.056C149.889 123.022 141.516 122.923 133.144 122.758ZM172.601 124.237C171.465 125.501 169.89 126.583 168.145 126.642C163.631 126.794 156.064 120.678 152.951 117.676C151.613 116.384 150.564 114.936 149.585 113.362C148.43 111.507 147.542 109.5 146.494 107.586C145.142 105.115 143.602 102.686 142.016 100.359C139.829 97.1504 137.526 93.989 135.203 90.875C133.156 88.1303 131.025 85.4589 129.364 82.4477C133.785 80.5825 139.148 76 141.911 72.0677C143.307 70.4591 144.516 68.7071 145.73 66.9567C148.648 70.1761 150.989 73.8255 153.765 77.1665C154.412 77.9453 155.083 78.9185 155.874 79.5329C158.439 82.8576 161.585 85.7119 164.357 88.859C167.816 92.7861 173.993 102.327 175.207 107.467C175.684 109.494 175.578 111.55 175.551 113.612C175.543 114.13 175.526 114.465 175.922 114.824L176.152 114.774C176.901 113.146 176.078 107.421 175.457 105.719C174.844 104.033 172.961 99.6095 171.645 98.5925C173.277 99.1094 174.782 100.023 175.578 101.616C175.91 102.284 176.062 103.092 176.558 103.658L176.82 103.61C176.982 103.247 176.949 103.035 176.808 102.652C176.089 100.681 174.84 99.1658 172.937 98.3017C172.436 98.0751 171.887 97.8549 171.348 97.7442C171.265 96.9059 170.425 95.8374 169.966 95.1308C166.258 89.4476 161.927 85.2118 157.428 80.2194L154.761 77.0764C156.667 74.5426 161.375 71.5824 164.126 69.958C165.101 69.3815 166.574 68.8515 167.369 68.0506C167.542 67.8788 167.534 67.9252 167.538 67.6644L167.275 67.6196C163.02 69.2662 159.247 72.3475 155.624 75.0547C155.874 74.3408 156.061 73.5926 156.274 72.8654C157.593 71.6219 164.859 64.4271 165.083 63.4001L164.852 63.2041C163.696 63.5877 157.624 70.4185 156.609 71.712C158.154 65.6305 158.616 59.2771 160.814 53.3621C161.304 52.0391 161.983 49.9631 163.33 49.3466C163.704 49.3382 163.912 49.3276 164.223 49.5826C165.66 50.7545 167.151 56.8892 167.212 58.6923L167.255 58.8841C167.768 61.1292 170.095 62.192 168.469 64.7854C168.449 64.8175 168.424 64.8465 168.402 64.8776C168.994 65.3312 169.807 66.0447 169.913 66.8208C170.085 68.0653 169.329 69.2619 169.583 70.5587C169.989 72.6241 172.155 73.2153 172.333 74.6975C172.51 76.1796 171.8 77.6882 171.849 79.1962V79.3131C171.941 82.053 174.443 86.5755 175.48 89.2368C177.838 95.2767 180.406 108.237 178.521 114.59C177.659 117.52 174.662 121.937 172.599 124.237H172.601Z" fill="black"/>
<path d="M114.785 119.926C113.978 117.86 113.138 115.807 112.266 113.767C110.852 110.544 108.588 106.397 108.123 102.919C107.715 99.8655 108.075 96.2225 108.061 93.1185C108.049 90.5525 107.599 87.7183 108.03 85.1908C108.734 81.0667 110.288 77.1781 110.827 72.984C111.988 72.8628 113.149 72.7485 114.311 72.641C114.404 72.6636 114.409 72.6547 114.493 72.7358C114.834 73.063 115.071 74.0568 115.233 74.5225C117.23 80.1868 117.99 85.9769 118.991 91.8708C119.34 93.9258 119.867 96.046 120.012 98.1231C120.142 100.008 116.13 119.611 115.178 120.727L114.785 119.926Z" fill="#FF8080"/>
<path d="M110.123 64.4487C109.366 64.5441 108.606 64.6305 107.852 64.7469C107.895 67.7946 108.924 69.6791 110.582 72.1288C111.627 72.1041 113.937 72.2795 114.76 71.5903C115.807 70.1513 117.631 67.5095 117.397 65.6621C117.379 65.4697 117.317 65.2838 117.217 65.1185C117.117 64.9531 116.981 64.8125 116.82 64.7069C115.473 63.8164 111.75 64.3733 110.123 64.4487Z" fill="#FF8080"/>
<path d="M107.852 64.7469C108.606 64.6305 109.366 64.5441 110.123 64.4487C111.75 64.3733 115.473 63.8164 116.82 64.7069C116.981 64.8125 117.117 64.9531 117.217 65.1185C117.317 65.2838 117.379 65.4696 117.397 65.6621C117.631 67.5095 115.807 70.1513 114.76 71.5903C113.937 72.2795 111.627 72.1041 110.582 72.1288M107.852 64.7469V64.7453C107.894 67.794 108.923 69.6787 110.582 72.1288M107.852 64.7469C107.895 67.7946 108.924 69.6791 110.582 72.1288M221.812 121.776C219.86 120.836 180.181 122.043 174.782 122.323C174.875 122.267 174.964 122.206 175.049 122.14C175.781 121.522 176.526 120.364 177.032 119.563C178.187 117.731 179.144 115.698 179.567 113.562C180.803 107.317 178.773 95.9538 176.696 90.0404C175.656 87.0802 173.243 83.1342 172.736 80.24C172.445 78.5808 172.941 77.0559 173.14 75.4251C173.206 74.8761 173.218 74.2754 172.958 73.7728C172.538 72.9661 171.576 72.544 171.042 71.818C170.509 71.0919 170.429 70.1819 169.887 69.4822C169.91 69.4585 169.935 69.4353 169.957 69.4111C170.474 68.8562 170.97 67.9568 170.909 67.1812C170.817 66.0115 169.968 65.3028 169.118 64.6247C169.514 64.1794 169.877 63.5456 169.947 62.9386C170.107 61.5233 168.803 60.3041 168.004 59.2856C168.282 58.1654 167.1 54.1746 166.748 52.9406C165.773 49.5305 165.062 49.5157 162.195 47.9229C155.797 44.0928 148.195 43.8779 141.365 41.2897C139.452 40.5642 137.522 39.6737 135.827 38.515C134.665 37.7215 133.562 36.7857 132.362 36.0581C133.615 33.3566 135.597 29.7727 134.436 26.7435C133.964 25.5158 132.284 24.9731 132.167 24.5832C131.875 23.6211 132.094 22.1431 132.13 21.1241C132.352 14.9293 131.699 11.5191 127.202 6.97461C128.616 7.13636 129.901 7.77813 131.284 7.9067L131.366 7.68224C131.023 7.08209 129.784 6.73065 129.134 6.55308C128.241 6.30965 125.44 6.41872 125.061 6.05147C125.022 5.19157 126.349 2.67613 125.918 2.14765C124.785 3.1867 124.49 4.69838 124.223 6.13735C122.085 2.98279 118.338 1.00479 114.665 0.28873C111.062 -0.414686 107.532 0.141724 104.481 2.23827C103.671 2.79521 102.911 3.46859 102.208 4.15357C99.2155 4.36433 96.7761 5.1178 94.7456 7.47885C93.5719 8.84406 92.5902 10.5802 91.9335 12.2631C91.6185 13.0682 91.3933 14.0098 90.8994 14.7232C89.5723 16.6401 87.461 17.9716 86.0043 19.8121C85.598 20.3258 85.3854 20.9296 85.1896 21.5509C84.4772 23.7997 84.1082 26.1549 83.536 28.4417C83.0704 30.3032 82.2237 32.3777 82.063 34.2814C81.8357 37.0091 82.2866 39.777 82.284 42.5105C76.3454 44.743 69.9631 46.2716 64.4418 49.4657C59.563 52.2092 58.8721 52.6582 57.2873 58.275C56.6081 60.6808 55.9545 63.349 55.8338 65.8545C55.7813 66.9747 56.2464 68.8963 55.859 69.9116C55.4716 70.927 54.2574 71.3343 53.7713 72.396C53.712 72.9645 53.8673 73.3686 54.2296 73.8075C54.4243 74.0436 54.608 74.2712 54.8779 74.4214C55.1928 75.1991 55.2569 75.5937 54.9125 76.3952C54.8135 76.6252 54.7043 76.8502 54.5849 77.0701C52.25 80.2663 53.198 83.295 52.3361 86.8858C51.0951 92.0547 48.2599 96.6704 46.9292 101.78C46.5481 103.249 46.3591 104.737 46.5969 106.246C46.777 107.384 47.2405 108.432 47.4746 109.547C47.9544 111.826 47.3575 112.715 48.515 115.211C49.6043 117.559 51.2285 119.643 52.3634 121.976C43.7092 121.755 35.0587 121.26 26.4082 121.064C20.9614 120.941 15.4962 121.049 10.0473 121.026C8.25095 121.019 1.35321 120.687 0.0146109 121.315L-0.00585938 121.554C0.166322 121.682 0.291256 121.75 0.507007 121.784C2.29181 122.066 4.95484 121.769 6.85565 121.758C11.8405 121.721 16.8253 121.728 21.8102 121.777C32.1516 121.891 42.4803 122.756 52.8159 122.747C55.7734 125.027 59.4501 126.513 63.2502 125.974C64.0974 125.853 65.4166 125.478 66.0439 124.867C66.908 124.333 67.5809 123.61 68.2954 122.896C76.7443 122.725 85.2132 123.061 93.6611 123.159C105.598 123.223 117.533 123.346 129.468 123.528C135.719 123.674 141.971 123.76 148.223 123.788C151.921 123.824 155.65 123.96 159.346 123.8C161.519 125.075 163.707 126.599 166.17 127.254C167.831 127.696 169.451 127.546 170.94 126.658C171.994 126.029 173.864 124.392 174.165 123.193C185.351 122.613 196.543 122.324 207.741 122.326C210.964 122.31 214.187 122.312 217.409 122.333C218.669 122.343 220.106 122.544 221.342 122.419C221.699 122.382 221.775 122.333 221.997 122.062L221.812 121.776ZM154.335 45.4976C156.71 46.1825 158.989 47.2253 161.241 48.2374L162.204 48.7501C162.127 49.4456 161.288 50.0511 160.989 50.7397C160.294 52.3378 159.758 54.1082 159.272 55.7801C157.501 61.859 156.775 71.1851 154.268 76.4342C152.01 73.8745 150.269 70.9154 148.031 68.3725C146.788 66.962 145.201 66.0889 143.779 64.9071C143.078 64.3275 142.459 63.5809 141.735 63.0418C140.744 61.9354 139.663 60.9527 138.702 59.8088C140.191 59.2144 141.909 58.8725 143.257 57.9751C143.577 57.7644 144.001 57.404 144.065 57.0072C144.148 56.4946 143.936 55.8359 143.761 55.3512C143.214 53.8347 142.286 52.4532 141.669 50.9542C140.727 48.6669 140.088 46.2552 138.971 44.0391C138.19 42.4895 137.231 41.0631 136.25 39.6358C142.468 43.2782 147.692 43.5754 154.335 45.4976ZM131.989 73.3771C131.693 73.8834 129.899 74.8677 129.345 74.9725C129.124 75.0136 128.96 74.9836 128.783 74.844C128.529 74.6448 128.34 74.257 128.172 73.9825C128.163 73.9535 128.151 73.925 128.145 73.895C128.01 73.2864 128.32 72.9255 128.631 72.4434C129.229 71.878 129.776 71.2383 130.4 70.7046L131.283 72.2716C130.176 72.7927 129.187 73.2575 128.216 74.023C129.393 73.8997 130.921 72.9239 131.989 73.3771ZM129.185 79.1092C129.005 79.683 128.85 80.4491 129.041 81.0345L129.274 81.1167C129.684 80.8501 129.886 80.5962 130.138 80.1778L130.122 79.8653L129.832 79.702L129.89 79.5049L129.832 79.5128C130.105 79.173 130.209 78.9733 130.684 78.9248C130.711 78.9248 130.74 78.9248 130.768 78.9217L131.127 79.3358C131.232 79.6904 131.271 79.977 131.116 80.3264C130.767 81.113 129.707 81.4329 128.967 81.6789C128.582 80.945 127.679 79.6504 127.917 78.8395C128.096 78.2256 128.725 77.9511 129.239 77.6576C129.457 78.3289 129.394 78.4332 129.183 79.1092H129.185ZM130.51 77.998C130.102 77.7309 130.103 76.9821 129.998 76.5295C129.874 76.3421 129.772 76.1402 129.696 75.9283C130.423 74.9952 133.199 73.8181 134.315 72.9645C137.373 70.624 139.936 67.6349 142.223 64.5514C143.069 65.3318 143.903 66.1248 144.776 66.8761C143.694 68.4839 142.568 70.0593 141.398 71.6024C138.534 74.8039 135.529 77.7066 132.007 80.1678C131.863 79.4991 131.765 78.8589 131.272 78.3463C131.026 78.2456 130.729 78.1434 130.508 77.998H130.51ZM137.349 42.6217C139.042 45.5012 139.796 48.6194 141.066 51.6671C141.643 53.0586 142.618 54.2705 143.177 55.6715C143.334 56.0651 143.419 56.3876 143.312 56.8081C142.992 57.2881 142.532 57.4835 142.036 57.7438C140.789 58.2166 139.552 58.7118 138.323 59.2292C137.798 58.6585 137.251 58.07 136.954 57.3413C135.757 54.4222 135.353 50.8282 134.791 47.7195C134.153 44.1893 133.479 40.7349 132.558 37.2652C134.26 37.751 136.446 41.0895 137.347 42.6217H137.349ZM134.507 50.4473C134.919 52.5886 135.242 55.7274 136.194 57.6543C137.303 59.8989 139.764 62.3579 141.659 63.9724C139.006 67.4199 136.136 70.9133 132.473 73.3328C132.028 72.0529 129.184 65.7396 128.42 64.7311C127.125 63.0234 125.382 62.0966 124.489 60.0216C122.506 55.4065 122.019 50.1917 121.4 45.2557C121.182 43.5217 121.051 41.6628 120.596 39.9735L120.456 39.8518C118.046 37.7842 112.739 36.5239 111.369 33.7091L111.392 33.2829C111.953 32.9314 112.686 33.1048 113.297 33.2428C116.207 33.8994 119.336 34.9953 122.102 36.1303C122.799 37.2573 123.415 39.0577 124.337 39.9498L124.678 39.9851L124.847 39.758C124.696 38.7527 123.317 36.1856 122.648 35.3352C122.245 34.823 121.67 34.402 121.149 34.0205C119.5 32.8134 113.092 29.9281 112.793 28.1693C112.75 27.9132 112.82 27.8321 112.911 27.5997C113.455 27.1424 114.135 27.1381 114.811 27.2003C115.841 27.2952 116.902 27.5128 117.914 27.7235C119.055 28.0507 123.899 30.2289 124.186 30.2432C124.432 30.2558 124.479 30.1536 124.634 29.9908C123.997 28.8896 119.285 27.507 118.014 26.7372L117.9 26.666C117.121 25.8182 115.958 24.8566 116.048 23.5958C116.091 23.0035 116.27 22.3644 116.727 21.9666C117.28 21.8417 117.86 22.2559 118.313 22.5414C120.037 23.6274 125.533 27.1782 125.947 28.9913C126.372 30.8528 127.359 36.6983 128.437 37.8959L128.668 37.9017C128.867 37.0718 126.756 28.5487 126.269 27.7367C124.979 25.5817 119.794 23.6927 120.653 20.5107C120.767 20.085 120.986 19.7241 121.264 19.3874C121.66 19.4 121.878 19.7336 122.142 20.0197C122.72 20.6383 123.242 21.3211 123.872 21.886C125.332 23.1958 127.399 24.3677 128.442 26.0575C130.596 29.5492 133.583 45.6562 134.505 50.4473H134.507ZM107.22 92.1828C107.251 95.0421 107.246 97.9014 107.206 100.761C106.453 98.7006 105.827 96.6072 105.229 94.498C104.074 90.2601 103.297 85.9168 102.481 81.6025C101.524 76.7817 100.659 71.9448 99.8864 67.0916C100.581 68.4658 101.481 70.0233 102.471 71.2015C102.775 71.5629 102.956 71.7189 103.428 71.7616C104.229 71.1456 104.712 68.7187 105.239 67.7208C105.721 66.8066 106.305 66.0283 106.996 65.2638C107.138 65.7807 107.157 66.3582 107.268 66.8888C107.727 69.0896 108.532 71.1862 110.143 72.7901C109.716 75.5827 108.966 78.3178 108.237 81.0419C107.89 82.3386 107.439 83.6543 107.24 84.9826C106.885 87.2963 107.172 89.8407 107.219 92.1828H107.22ZM111.21 34.8841C112.89 37.3606 117.441 38.4534 119.795 40.3834C120.416 42.3857 120.543 44.7304 120.811 46.8153C121.211 49.9241 121.656 53.0001 122.341 56.0598C119.58 58.8372 115.626 63.4486 111.489 63.4597C111.062 63.4597 110.636 63.4539 110.21 63.4423C109.042 62.742 108.14 61.8263 107.116 60.9453C106.276 59.9874 105.283 59.1127 104.37 58.2212C102.162 55.6473 99.9216 52.8805 98.3336 49.864C96.8732 47.0872 95.1 40.2965 95.354 37.1951C95.554 34.7508 97.532 32.6369 99.1672 30.9582C102.207 30.8528 105.672 30.6684 108.517 29.4613C109.607 28.9986 110.95 27.9949 112.087 27.7873C112.087 27.8147 112.09 27.84 112.092 27.8684C112.097 27.9132 112.102 27.9575 112.106 28.0023C112.112 28.0592 112.116 28.1155 112.122 28.1719C112.209 29.006 112.574 29.4728 113.219 29.9855C115.728 31.9788 118.76 33.1543 121.355 35.0275C119.573 34.401 112.897 31.6916 111.28 32.4899C110.971 32.6427 110.866 32.8419 110.789 33.1622C110.645 33.7566 110.873 34.3947 111.206 34.8841H111.21ZM96.9913 48.9398C98.4885 52.4574 100.989 55.8854 103.701 58.5626C104.632 59.5674 105.6 60.5232 106.588 61.4738C107.16 62.174 107.946 62.7984 108.605 63.4233C108.404 63.514 108.205 63.6086 108.008 63.7073C105.234 65.1068 104.187 68.0348 103.26 70.8063C103.208 70.7489 103.16 70.6909 103.11 70.6335C101.76 69.0559 100.515 67.0073 99.7247 65.0857C99.1152 63.6014 98.827 61.9828 98.468 60.4216C97.5719 56.5372 96.7037 52.9543 96.9913 48.9398ZM118.214 65.5583C119.297 66.6042 120.813 69.9843 121.533 70.3763C121.848 70.5471 121.975 70.4649 122.291 70.3864C122.868 69.9596 123.155 69.1165 123.455 68.4758C122.871 73.0493 122.338 77.6288 121.855 82.2143C121.471 86.0607 121.235 89.9187 120.768 93.7598L120.473 95.8569C119.761 93.2513 119.567 90.3718 119.161 87.6983C118.305 82.0947 117.347 77.8178 115.272 72.5598C116.89 70.5465 117.64 68.0322 118.214 65.5568V65.5583ZM121.937 69.6866L120.454 67.128C119.004 65.082 118.034 64.0061 115.631 63.2026C118.003 61.2388 120.281 59.3187 122.403 57.0747C122.594 57.2243 124.147 61.1492 124.59 61.8853C124.276 64.6605 123.451 67.3387 121.937 69.685V69.6866ZM132.95 25.8483C133.458 26.1692 133.745 26.8309 133.881 27.3968C134.503 29.9897 133.251 32.5605 131.999 34.7271L131.586 33.118C131.561 33.0426 131.538 32.9678 131.518 32.8919C131.507 32.8503 131.498 32.8092 131.487 32.7681C131.067 31.2153 132.126 27.7804 131.426 26.6713C130.992 27.009 130.944 27.9048 130.855 28.4333C130.823 28.0796 130.812 27.7244 130.822 27.3694C130.866 26.4637 131.298 26.1307 131.932 25.5695C132.289 25.608 132.64 25.6512 132.95 25.8483ZM98.257 5.76115C99.6465 5.15099 101.005 5.08091 102.492 5.03824C104.844 2.53755 107.709 0.832494 111.211 0.74977C115.541 0.647551 119.629 2.4406 122.71 5.43921C123.171 5.88708 124.121 6.67322 124.137 7.35081C124.138 7.50284 124.13 7.65481 124.115 7.80606C124.292 8.02841 124.27 8.02788 124.55 8.06108C124.822 7.80237 124.93 7.57844 125.072 7.23279C125.596 7.11371 126.219 7.40034 126.677 7.68435C129.026 9.14123 130.43 12.1103 131.009 14.7227C131.434 16.6422 131.852 23.6274 131.04 25.0442C130.992 25.1164 130.937 25.1832 130.876 25.2434C130.423 25.0674 130.351 24.6317 129.931 24.4789C129.535 25.3356 130.036 26.7314 130.12 27.6798C129.862 27.037 129.595 26.2171 129.164 25.6776C128.925 25.3778 121.819 18.6276 121.77 18.6028C121.496 18.4664 121.131 18.5096 120.842 18.5628C120.412 18.8089 120.216 19.1229 120.09 19.6029C119.772 20.8032 119.896 21.8285 120.297 22.9846C119.405 22.3523 117.862 20.9591 116.696 21.201C116.302 21.2827 116.01 21.5603 115.807 21.8965C115.392 22.5815 115.282 23.5863 115.199 24.373C115.696 25.2603 116.254 25.9763 116.954 26.7082C115.848 26.5796 114.742 26.431 113.629 26.3762C114.172 25.9547 114.843 25.5274 115.192 24.9283L115.167 24.6285L114.963 24.5853C113.707 25.4336 112.542 26.4358 111.267 27.2462C108.019 29.3111 103.888 29.966 100.128 30.2421C101.799 29.251 103.291 28.3115 104.711 26.9753C105.31 26.4864 106.164 25.8688 106.465 25.1507L106.354 24.9778C104.674 24.7423 103.112 26.4173 101.302 26.4806C99.8318 26.5333 95.5593 25.4299 94.5356 24.4852C94.4238 23.982 94.5446 23.9256 94.7913 23.492C95.0506 23.3371 100.39 18.6771 100.574 18.429C101.167 17.6302 101.45 16.3846 101.309 15.4014C101.233 14.8745 101.108 14.5583 100.682 14.2369C99.0858 13.7269 95.9693 16.7977 94.3194 17.4479L94.1813 17.5006C95.4008 16.3277 96.911 15.5389 97.331 13.7632C97.4674 13.1836 97.5215 12.3142 97.1499 11.82C97.0093 11.6163 96.7952 11.4755 96.553 11.4275C95.9189 11.3 95.4506 11.6451 94.9446 11.9739C93.9867 12.5742 93.0487 13.2044 92.1304 13.8644C93.4002 10.6808 94.9209 7.22489 98.257 5.76115ZM98.5273 26.8541C97.3724 27.7957 96.0496 28.5465 94.7682 29.2942C93.6678 29.8972 92.5228 30.4144 91.3435 30.8412C92.113 28.8917 92.9986 26.969 93.8837 25.07C95.2889 25.8899 96.9877 26.3409 98.5273 26.8541ZM82.8546 34.2218C83.0473 32.2164 84.3029 28.8427 84.7796 26.6381C85.1591 24.8798 85.4132 22.1241 86.3728 20.6024C87.576 18.6929 90.7235 15.9209 92.6023 14.5325C93.3897 13.9529 94.7351 13.2795 95.3257 12.5398C95.3561 12.5018 95.385 12.4623 95.4144 12.4233C96.0344 12.2157 96.0763 12.1841 96.6858 12.4028C96.8958 12.7294 96.9483 12.8496 96.8559 13.2421C96.3378 15.4377 91.0527 18.8236 89.4904 20.8933C87.819 23.1063 87.1109 26.1987 86.1087 28.7673C85.7938 29.573 84.7906 31.1489 85.0447 31.9509C85.2841 31.9419 85.2946 31.9646 85.4552 31.7812C86.0132 31.1426 86.356 30.0461 86.683 29.2626C89.0374 23.6247 88.2027 22.2622 93.8873 18.6803C95.2181 17.8931 99.2124 15.1079 100.351 15.0768C100.643 15.4277 100.752 15.7686 100.689 16.2318C100.377 18.5085 95.9278 21.0355 94.4149 22.8676C93.386 24.1796 90.5361 29.7005 90.45 31.2733L90.5734 31.5805C91.3608 31.8829 92.2102 31.4466 92.9435 31.1205C95.2007 30.1194 97.227 28.7178 99.2344 27.2899C100.953 27.439 102.292 27.1935 103.926 26.6671C102.804 28.0086 100.79 28.7847 99.3667 29.8032C98.2643 30.5936 97.3415 31.6474 96.5367 32.7354C95.7094 33.8551 94.9682 35.0538 94.6774 36.4332C94.3866 37.8127 94.6574 39.23 94.828 40.6116C95.2391 43.9395 95.6879 47.4882 94.6606 50.7471C93.5257 54.3469 91.1115 54.1662 89.8374 56.7227C88.8133 58.7776 88.6264 61.7741 88.2243 64.0361C84.5087 63.1172 81.7675 61.7141 79.2971 58.6996C82.672 51.8662 83.283 48.3196 82.9717 40.7491C82.8846 38.5983 82.6489 36.3642 82.8546 34.2218ZM87.6437 74.9973C87.6001 75.1485 87.5119 75.3045 87.4474 75.4494C86.9697 75.5916 86.5781 75.4441 86.1376 75.2534C81.0683 73.0625 76.3039 70.5112 74.1752 65.102C75.3413 62.6389 76.5837 60.2152 77.9023 57.8308C78.3281 58.2771 78.6567 58.9325 79.0016 59.4515C81.7633 63.603 87.3135 64.7975 91.88 65.7117C90.3792 68.8573 88.7419 71.6551 87.6437 74.9973ZM91.48 76.4647L91.4217 76.6085L90.7618 76.5627C89.8768 76.3888 89.0143 76.1586 88.145 75.9194C88.4421 74.7697 88.9251 73.62 89.3272 72.4998C89.9377 72.9877 90.9765 75.5842 91.48 76.4647ZM47.5003 102.652C48.6027 97.623 51.4846 93.0095 52.8747 88.0155C53.1896 86.8985 53.403 85.7552 53.5125 84.5996C53.65 83.0689 53.4511 81.0013 54.0611 79.5782C54.2537 79.1287 54.754 79.5666 55.1298 79.4138C55.1876 78.919 55.123 78.9896 54.8831 78.6013C54.6306 78.1929 54.7172 78.0886 54.8343 77.6476C54.8851 77.6218 54.9337 77.5918 54.9797 77.558C55.375 77.2119 55.7892 76.4204 55.8821 75.9246C56.0432 75.0684 55.8432 74.6395 55.3729 73.9561C54.9356 73.4777 54.628 73.1473 54.4726 72.4982C55.2075 71.642 56.133 71.0755 56.7965 70.1303C56.743 69.4773 56.6973 68.8241 56.6595 68.1707C56.3934 63.3232 57.8622 55.7743 61.1215 52.1097C64.5657 55.1836 66.5384 59.5601 67.6597 63.985C67.8571 64.7648 67.7736 65.7817 68.2781 66.4319L68.488 66.4256L68.655 66.0931C68.4807 61.2509 65.3819 55.2242 61.9955 51.882C63.0559 51.0437 64.267 50.4162 65.4397 49.7523C69.5342 47.7416 73.6944 46.2932 78.0084 44.8568C79.4478 44.3779 80.8819 43.7872 82.3433 43.3915C82.3171 49.1759 81.4719 52.5496 78.8577 57.7149L77.6903 56.543C76.4945 58.7911 75.3161 61.0487 74.1553 63.3158C73.4136 63.6905 72.8073 64.0382 72.2424 64.6558C70.003 67.1053 62.0942 79.8227 61.1325 82.7854C60.8255 83.7307 60.5987 84.8145 60.0911 85.6708C59.1315 87.2899 57.5629 88.6562 56.2753 90.0098C54.134 92.2623 51.1051 96.1445 50.5592 99.2438C50.2295 100.123 49.7607 100.703 49.2253 101.454C47.7618 103.509 47.7281 105.148 47.6352 107.592C47.2478 105.902 47.126 104.367 47.5009 102.654L47.5003 102.652ZM64.6554 124.862C61.3908 125.636 58.1068 125.171 55.154 123.57C54.4957 123.214 53.986 122.748 53.5151 122.167C52.5177 120.932 49.1733 115.202 48.7444 113.714C47.7943 110.411 48.1408 104.574 49.7906 101.572C49.6547 102.966 48.9922 106.607 49.4505 107.78L49.7702 107.892C50.0059 107.724 50.0143 107.663 50.0851 107.377C50.356 106.316 50.2248 104.851 50.3534 103.717C50.7849 99.9093 52.2337 96.9955 54.154 93.7382C54.8794 93.0743 55.4532 92.1301 56.112 91.3834C57.4958 89.8143 59.4275 88.1978 60.5215 86.439C61.4769 84.8994 61.8045 82.9288 62.6097 81.2874C64.6271 77.1776 67.2649 73.3338 69.7657 69.5112C70.8718 67.8219 71.9238 65.8829 73.3259 64.4334C74.234 68.3325 76.707 70.8832 80.0116 72.9397C83.6001 75.1727 87.7245 77.0074 91.9661 77.4147C90.2253 82.8318 86.5329 87.6066 84.0289 92.6844C82.1318 96.5308 80.369 101.683 78.7743 105.816C78.064 107.657 77.4645 109.598 76.4488 111.296C74.9721 113.764 72.7605 116 70.9778 118.262C69.0114 120.76 67.3746 123.144 64.656 124.864L64.6554 124.862ZM69.6875 122.119L69.1909 122.106L69.0733 121.98C70.7878 119.451 72.9196 117.063 74.8298 114.665C75.6645 116.239 75.4708 120.288 75.5501 122.135L69.6875 122.119ZM97.9467 122.38L76.1832 122.127C76.2299 119.292 75.9732 116.556 75.6157 113.749C77.6777 111.123 78.6199 108.293 79.8304 105.239C81.2478 101.669 82.5428 98.0208 84.0641 94.4974C85.5135 91.14 87.5728 87.9385 89.3308 84.7287C89.7928 85.1871 90.4059 88.1372 90.6679 88.9439C91.6322 91.9241 93.1451 94.8937 94.5472 97.6989C99.0145 106.646 104.99 115.129 111.635 122.558C107.073 122.456 102.51 122.397 97.9472 122.382L97.9467 122.38ZM112.648 122.567C110.844 120.527 109.107 118.431 107.437 116.279C101.178 108.667 95.1619 98.9103 91.7251 89.6304C91.0059 87.6899 90.4936 85.7003 89.9718 83.7001L92.9041 77.4158C92.3267 76.1191 91.2033 74.8682 90.8096 73.5362C90.7162 73.22 90.7209 73.1832 90.8852 72.9039C91.2075 72.9071 91.5298 72.9025 91.8521 72.8902L91.9965 72.7095C91.6122 71.9781 90.5681 71.7537 89.8327 71.4934C90.481 69.8373 91.4128 68.3657 92.1613 66.7634C92.3892 66.2749 92.691 65.6569 92.4973 65.12C91.5052 64.6341 89.9875 64.5256 88.8752 64.2585C89.3938 61.5101 91.3046 57.5668 92.818 55.1625C93.3267 54.3543 94.1362 53.7805 94.5824 52.9311C95.2842 51.5949 95.564 50.0078 96.0658 48.5847C96.1924 48.7227 96.248 48.8539 96.3283 49.021C95.5409 54.438 97.752 59.9073 98.7515 65.1568C100.804 75.9404 102.064 87.0233 105.278 97.5435C107.907 106.153 111.897 114.138 114.955 122.571L112.648 122.567ZM114.785 119.926C113.978 117.86 113.138 115.807 112.266 113.767C110.852 110.544 108.588 106.397 108.123 102.919C107.715 99.8655 108.075 96.2225 108.061 93.1185C108.049 90.5525 107.599 87.7183 108.03 85.1908C108.734 81.0667 110.288 77.1781 110.827 72.984C111.988 72.8628 113.149 72.7485 114.311 72.641C114.404 72.6636 114.409 72.6547 114.493 72.7358C114.834 73.063 115.071 74.0568 115.233 74.5225C117.23 80.1868 117.99 85.9769 118.991 91.8708C119.34 93.9258 119.867 96.046 120.012 98.1231C120.142 100.008 116.13 119.611 115.178 120.727L114.785 119.926ZM118.131 122.473C117.332 122.7 116.392 122.579 115.567 122.554C118.166 113.961 120.101 104.784 121.278 95.8816C121.915 91.0726 122.238 86.2461 122.727 81.4229C123.341 75.1548 124.16 68.914 125.185 62.7004C128.193 65.3618 128.573 66.4193 130.076 70.008C129.373 70.647 128.703 71.3212 128.068 72.0282C127.673 72.4829 127.167 72.9376 127.245 73.5962C127.291 73.9856 127.584 74.4203 127.787 74.7491C128.256 75.4783 128.791 76.1565 129.321 76.8414C128.586 77.1528 127.438 77.5201 127.105 78.3226C126.722 79.2446 127.637 80.9787 128.044 81.817C129.634 85.097 132.033 87.8737 134.098 90.8465C132.162 95.4938 130.064 100.066 127.803 104.564C126.753 106.681 125.141 109.115 124.402 111.306C122.429 114.889 120.591 118.592 118.476 122.088L118.131 122.473ZM133.144 122.758C129.892 122.744 126.64 122.706 123.389 122.643C121.941 122.617 120.417 122.68 118.979 122.538C120.99 120.04 123.401 115.123 124.723 112.118C125.691 110.786 126.42 109.019 127.185 107.546C129.87 102.376 132.62 97.0297 134.658 91.5663C137.45 95.3779 140.391 99.1748 142.886 103.188C143.889 104.801 144.927 106.408 145.84 108.075C147.473 111.056 148.861 114.151 151.072 116.769C153.134 119.211 155.702 121.178 158.264 123.056C149.889 123.022 141.516 122.923 133.144 122.758ZM172.601 124.237C171.465 125.501 169.89 126.583 168.145 126.642C163.631 126.794 156.064 120.678 152.951 117.676C151.613 116.384 150.564 114.936 149.585 113.362C148.43 111.507 147.542 109.5 146.494 107.586C145.142 105.115 143.602 102.686 142.016 100.359C139.829 97.1504 137.526 93.989 135.203 90.875C133.156 88.1303 131.025 85.4589 129.364 82.4477C133.784 80.5825 139.148 76 141.911 72.0677C143.307 70.4591 144.516 68.7071 145.73 66.9567C148.648 70.1761 150.989 73.8255 153.765 77.1665C154.412 77.9453 155.083 78.9185 155.874 79.5329C158.439 82.8576 161.585 85.7119 164.357 88.859C167.816 92.7861 173.993 102.327 175.207 107.467C175.684 109.494 175.578 111.55 175.551 113.612C175.543 114.13 175.526 114.465 175.922 114.824L176.152 114.774C176.901 113.146 176.078 107.421 175.457 105.719C174.844 104.033 172.961 99.6095 171.645 98.5925C173.277 99.1094 174.782 100.023 175.578 101.616C175.91 102.284 176.062 103.092 176.558 103.658L176.82 103.61C176.982 103.247 176.949 103.035 176.808 102.652C176.089 100.681 174.84 99.1658 172.937 98.3017C172.436 98.0751 171.887 97.8549 171.348 97.7442C171.265 96.9059 170.425 95.8374 169.966 95.1308C166.258 89.4476 161.927 85.2118 157.428 80.2194L154.761 77.0764C156.667 74.5426 161.375 71.5824 164.126 69.958C165.101 69.3815 166.574 68.8515 167.369 68.0506C167.542 67.8788 167.534 67.9252 167.538 67.6644L167.275 67.6196C163.02 69.2662 159.247 72.3475 155.624 75.0547C155.874 74.3408 156.061 73.5926 156.274 72.8654C157.593 71.6219 164.859 64.4271 165.083 63.4001L164.852 63.2041C163.696 63.5877 157.624 70.4185 156.609 71.712C158.154 65.6305 158.616 59.2771 160.814 53.3621C161.304 52.0391 161.983 49.9631 163.33 49.3466C163.704 49.3382 163.912 49.3276 164.223 49.5826C165.66 50.7545 167.151 56.8892 167.212 58.6923L167.255 58.8841C167.768 61.1292 170.095 62.192 168.469 64.7854C168.449 64.8175 168.424 64.8465 168.402 64.8776C168.994 65.3312 169.807 66.0447 169.913 66.8208C170.085 68.0653 169.329 69.2619 169.583 70.5587C169.989 72.6241 172.155 73.2153 172.333 74.6975C172.51 76.1796 171.8 77.6882 171.849 79.1962V79.3131C171.941 82.053 174.443 86.5755 175.48 89.2368C177.838 95.2767 180.406 108.237 178.521 114.59C177.659 117.52 174.662 121.937 172.599 124.237H172.601Z" stroke="black" stroke-width="0.4"/>
<path d="M65.1983 70.6611C65.6734 70.9672 66.329 71.1469 66.8781 71.2565C66.7931 70.7739 66.7826 70.6205 66.3495 70.3302C65.8954 70.0251 65.1579 69.8323 64.6172 69.7422C64.7122 70.2327 64.75 70.3724 65.1983 70.6611Z" fill="black" stroke="black" stroke-width="0.4"/>
<path d="M63.8589 74.356C63.8353 74.1363 63.8726 73.9508 63.6952 73.8017C63.1015 73.3033 58.9707 72.9971 58.02 72.8496L57.915 73.3359C58.7471 74.2322 62.5308 74.2412 63.8589 74.356Z" fill="black" stroke="black" stroke-width="0.4"/>
<path d="M117.067 53.0686C117.462 52.7672 117.645 52.4532 117.876 52.0232C118.176 52.3515 118.359 52.607 118.812 52.6766L118.96 52.4943C118.775 51.7308 118.382 51.3878 117.73 50.9773C117.667 50.9383 117.603 50.902 117.538 50.8672C117.093 51.5743 116.789 52.1107 116.853 52.9817L117.067 53.0686Z" fill="black" stroke="black" stroke-width="0.4"/>
<path d="M105.622 56.7416C105.533 57.0446 105.442 57.1753 105.596 57.484C105.842 57.9777 106.55 58.2659 107.057 58.4082C109.256 59.0231 114.114 58.777 116.205 57.8813L116.397 57.6553C115.75 57.2337 114.866 57.6147 114.157 57.708C112.684 57.7991 107.308 58.2933 106.431 57.3723C106.406 57.3415 106.383 57.3089 106.362 57.2748C106.606 56.7906 107.21 56.4687 107.721 56.3017C108.898 55.9181 110.174 56.5688 111.378 56.5398C112.364 56.5156 113.652 55.9692 114.577 56.1051C115.4 56.2258 116.204 57.0788 117.03 56.9945L117.154 56.7479C116.949 56.2021 116.546 55.9207 116.026 55.6804C115.328 55.3574 114.651 55.2141 113.884 55.2979C113.29 55.4823 112.639 55.7247 112.015 55.7595C109.761 55.8912 107.407 54.6888 105.622 56.7416Z" fill="black" stroke="black" stroke-width="0.4"/>
<path d="M169.906 73.1958L169.836 72.9134C169.149 72.7611 168.37 72.8939 167.671 72.9524C166.145 73.2427 158.814 74.7438 158.026 75.9631C158.01 75.9926 157.996 76.0232 157.984 76.0548C158.262 76.3071 158.322 76.276 158.683 76.3045L159.452 75.9525C161.399 75.2491 163.387 74.6646 165.405 74.2022C166.826 73.8792 168.708 73.9103 169.99 73.2727L170.064 73.0583L169.959 72.9708L169.906 73.1958Z" fill="black"/>
</g>
<defs>
<clipPath id="clip0_4236_15603">
<rect width="222" height="144" fill="white"/>
</clipPath>
</defs>
</svg>
