<svg width="16" height="19" viewBox="0 0 16 19" fill="none" xmlns="http://www.w3.org/2000/svg">
<path d="M12.0983 2.18469C11.9341 2.58225 11.7275 2.91929 11.4463 3.20046C11.1652 3.48162 10.8281 3.68826 10.4306 3.85243C10.8281 4.0166 11.1652 4.22324 11.4463 4.5044C11.7275 4.78557 11.9341 5.12261 12.0983 5.52017C12.2625 5.12261 12.4691 4.78557 12.7503 4.5044C13.0315 4.22324 13.3685 4.0166 13.7661 3.85243C13.3685 3.68826 13.0315 3.48162 12.7503 3.20046C12.4691 2.91929 12.2625 2.58225 12.0983 2.18469ZM11.4543 0.523547C11.6004 -0.174516 12.5962 -0.174516 12.7423 0.523547C12.9649 1.58752 13.1817 2.10871 13.5119 2.43889C13.842 2.76906 14.3632 2.98581 15.4272 3.20844C16.1252 3.35455 16.1253 4.35031 15.4272 4.49641C14.3632 4.71904 13.842 4.9358 13.5119 5.26597C13.1817 5.59615 12.9649 6.11731 12.7423 7.18128C12.5962 7.87934 11.6004 7.87937 11.4543 7.18131C11.2317 6.11734 11.0149 5.59615 10.6848 5.26597C10.3546 4.9358 9.83344 4.71905 8.76946 4.49642C8.0714 4.35031 8.07137 3.35455 8.76943 3.20845C9.83341 2.98582 10.3546 2.76906 10.6848 2.43889C11.0149 2.10871 11.2317 1.58752 11.4543 0.523547Z" fill="#3A3D42"/>
<path d="M12.0983 2.18469C11.9341 2.58225 11.7275 2.91929 11.4463 3.20046C11.1652 3.48162 10.8281 3.68826 10.4306 3.85243C10.8281 4.0166 11.1652 4.22324 11.4463 4.5044C11.7275 4.78557 11.9341 5.12261 12.0983 5.52017C12.2625 5.12261 12.4691 4.78557 12.7503 4.5044C13.0315 4.22324 13.3685 4.0166 13.7661 3.85243C13.3685 3.68826 13.0315 3.48162 12.7503 3.20046C12.4691 2.91929 12.2625 2.58225 12.0983 2.18469ZM11.4543 0.523547C11.6004 -0.174516 12.5962 -0.174516 12.7423 0.523547C12.9649 1.58752 13.1817 2.10871 13.5119 2.43889C13.842 2.76906 14.3632 2.98581 15.4272 3.20844C16.1252 3.35455 16.1253 4.35031 15.4272 4.49641C14.3632 4.71904 13.842 4.9358 13.5119 5.26597C13.1817 5.59615 12.9649 6.11731 12.7423 7.18128C12.5962 7.87934 11.6004 7.87937 11.4543 7.18131C11.2317 6.11734 11.0149 5.59615 10.6848 5.26597C10.3546 4.9358 9.83344 4.71905 8.76946 4.49642C8.0714 4.35031 8.07137 3.35455 8.76943 3.20845C9.83341 2.98582 10.3546 2.76906 10.6848 2.43889C11.0149 2.10871 11.2317 1.58752 11.4543 0.523547Z" fill="#3A3D42"/>
<path d="M9.64345 13.3651L9.77325 13.3785C10.0655 13.4385 10.2853 13.697 10.2853 14.0069C10.2852 14.3168 10.0655 14.5754 9.77325 14.6353L9.64345 14.6488H3.73883C3.3845 14.6488 3.09708 14.3612 3.09698 14.0069C3.09698 13.6525 3.38445 13.3651 3.73883 13.3651H9.64345ZM7.27749 10.1952L7.40729 10.2087C7.6996 10.2686 7.91933 10.5271 7.91933 10.8371C7.91933 11.1471 7.6996 11.4056 7.40729 11.4655L7.27749 11.4789H3.75942C3.4052 11.4787 3.11847 11.1913 3.11847 10.8371C3.11847 10.4828 3.4052 10.1954 3.75942 10.1952H7.27749Z" fill="#3A3D42"/>
<path d="M12.7671 13.9407C12.767 15.6618 11.3721 17.0567 9.65096 17.0568H4.39982C2.67868 17.0567 1.28379 15.6618 1.28369 13.9407V6.15617C1.28379 4.43502 2.67868 3.04014 4.39982 3.04004H6.38355C6.73803 3.04004 7.02539 2.75267 7.02539 2.39819C7.02539 2.04371 6.73803 1.75635 6.38355 1.75635H4.39982L4.17334 1.76172C1.84867 1.87967 9.38338e-05 3.80221 0 6.15617V13.9407L0.00537109 14.1672C0.119517 16.4168 1.92368 18.221 4.17334 18.3351L4.39982 18.3405H9.65096L9.87744 18.3351C12.1271 18.221 13.9313 16.4168 14.0454 14.1672L14.0508 13.9407L14.1075 9.92549C14.1126 9.56263 13.816 9.26773 13.4532 9.27493C13.1074 9.28179 12.8293 9.5615 12.8244 9.90732L12.7671 13.9407Z" fill="#3A3D42"/>
</svg>
