<svg width="22" height="22" viewBox="0 0 22 22" fill="none" xmlns="http://www.w3.org/2000/svg">
<path d="M11.9166 20.8541H8.24992C3.27242 20.8541 1.14575 18.7274 1.14575 13.7499V8.24992C1.14575 3.27242 3.27242 1.14575 8.24992 1.14575H13.7499C18.7274 1.14575 20.8541 3.27242 20.8541 8.24992V11.9166C20.8541 12.2924 20.5424 12.6041 20.1666 12.6041C19.7908 12.6041 19.4791 12.2924 19.4791 11.9166V8.24992C19.4791 4.02408 17.9758 2.52075 13.7499 2.52075H8.24992C4.02409 2.52075 2.52075 4.02408 2.52075 8.24992V13.7499C2.52075 17.9757 4.02409 19.4791 8.24992 19.4791H11.9166C12.2924 19.4791 12.6041 19.7907 12.6041 20.1666C12.6041 20.5424 12.2924 20.8541 11.9166 20.8541Z" fill="#676D78"/>
<path d="M6.71917 13.97C6.5725 13.97 6.42585 13.9242 6.29751 13.8233C5.99501 13.5942 5.94003 13.1633 6.16919 12.8608L8.35084 10.0283C8.61667 9.68918 8.99252 9.46918 9.42335 9.41418C9.85418 9.35918 10.2758 9.47834 10.615 9.74418L12.2925 11.0642C12.3567 11.1192 12.4209 11.11 12.4667 11.11C12.5034 11.11 12.5675 11.0917 12.6225 11.0183L14.74 8.28667C14.9692 7.98417 15.4 7.92918 15.7025 8.16751C16.005 8.39668 16.06 8.82751 15.8217 9.13001L13.7042 11.8617C13.4384 12.2008 13.0625 12.4208 12.6317 12.4667C12.21 12.5217 11.7792 12.4025 11.4492 12.1367L9.77169 10.8167C9.70752 10.7617 9.63418 10.7617 9.59752 10.7708C9.56085 10.7708 9.49667 10.7892 9.44167 10.8625L7.26003 13.695C7.1317 13.8783 6.93 13.97 6.71917 13.97Z" fill="#676D78"/>
<path d="M18.5722 20.8543C18.2513 20.8543 17.8388 20.7535 17.353 20.4601L17.1238 20.3226C17.0597 20.286 16.8671 20.286 16.803 20.3226L16.5738 20.4601C15.5196 21.0926 14.8505 20.8268 14.5572 20.6068C14.2547 20.3868 13.7872 19.8368 14.0622 18.6268L14.108 18.4343C14.1263 18.361 14.0713 18.1868 14.0255 18.1318L13.7047 17.811C13.1638 17.261 12.953 16.6193 13.1363 16.0418C13.3196 15.4735 13.8605 15.0701 14.6213 14.9418L14.9696 14.8868C15.0338 14.8685 15.1621 14.7768 15.1988 14.7126L15.4555 14.1901C15.813 13.466 16.363 13.0535 16.968 13.0535C17.573 13.0535 18.123 13.466 18.4805 14.1901L18.7372 14.7035C18.7738 14.7676 18.9022 14.8593 18.9663 14.8776L19.3147 14.9326C20.0755 15.061 20.6163 15.4643 20.7997 16.0326C20.983 16.601 20.7813 17.2426 20.2313 17.8018L19.9105 18.1226C19.8647 18.1776 19.8097 18.3518 19.828 18.4251L19.8738 18.6176C20.1488 19.8276 19.6813 20.3776 19.3788 20.5976C19.2138 20.726 18.948 20.8543 18.5722 20.8543ZM16.9497 14.4376C16.9405 14.4468 16.8122 14.5385 16.6838 14.8043L16.4272 15.3268C16.2072 15.776 15.6846 16.161 15.1988 16.2435L14.8505 16.2985C14.5572 16.3443 14.4563 16.4451 14.4472 16.4635C14.4472 16.4818 14.4746 16.6285 14.6855 16.8393L15.0063 17.1601C15.3822 17.5451 15.5746 18.2051 15.4555 18.7276L15.4097 18.9201C15.3272 19.2776 15.3638 19.4335 15.3822 19.4885C15.4097 19.4701 15.5655 19.4518 15.868 19.2685L16.0972 19.131C16.6013 18.8285 17.3255 18.8285 17.8297 19.131L18.0588 19.2685C18.4347 19.4976 18.5905 19.4701 18.5997 19.4701C18.563 19.4701 18.6088 19.2868 18.5263 18.9201L18.4805 18.7276C18.3613 18.196 18.5538 17.5451 18.9297 17.1601L19.2505 16.8393C19.4613 16.6285 19.4888 16.4818 19.4888 16.4543C19.4797 16.436 19.3788 16.3443 19.0855 16.2893L18.7372 16.2343C18.2422 16.1518 17.7288 15.7668 17.5088 15.3176L17.2522 14.8043C17.1055 14.5293 16.9772 14.4468 16.9497 14.4376Z" fill="#676D78"/>
</svg>
