<svg width="19" height="19" viewBox="0 0 19 19" fill="none" xmlns="http://www.w3.org/2000/svg">
<path fill-rule="evenodd" clip-rule="evenodd" d="M5.43322 2.93344C4.08824 2.93344 3.00373 4.01736 3.00373 5.36162V7.06263C3.00373 7.4126 2.71987 7.6963 2.36972 7.6963C2.01957 7.6963 1.73571 7.4126 1.73571 7.06263V5.36162C1.73571 3.31744 3.38793 1.66612 5.43322 1.66612H7.13516C7.48531 1.66612 7.76917 1.94982 7.76917 2.29978C7.76917 2.64974 7.48531 2.93344 7.13516 2.93344H5.43322Z" fill="#676D78"/>
<path fill-rule="evenodd" clip-rule="evenodd" d="M10.5862 2.29978C10.5862 1.94982 10.8701 1.66612 11.2202 1.66612H12.9221C14.9674 1.66612 16.6196 3.31744 16.6196 5.36162V7.06263C16.6196 7.4126 16.3358 7.6963 15.9856 7.6963C15.6355 7.6963 15.3516 7.4126 15.3516 7.06263V5.36162C15.3516 4.01736 14.2671 2.93344 12.9221 2.93344H11.2202C10.8701 2.93344 10.5862 2.64974 10.5862 2.29978Z" fill="#676D78"/>
<path fill-rule="evenodd" clip-rule="evenodd" d="M15.9857 10.4345C16.3359 10.4345 16.6197 10.7182 16.6197 11.0681V12.8458C16.6197 14.89 14.9675 16.5413 12.9222 16.5413H11.2371C10.8869 16.5413 10.6031 16.2576 10.6031 15.9076C10.6031 15.5577 10.8869 15.274 11.2371 15.274H12.9222C14.2672 15.274 15.3517 14.1901 15.3517 12.8458V11.0681C15.3517 10.7182 15.6356 10.4345 15.9857 10.4345Z" fill="#676D78"/>
<path fill-rule="evenodd" clip-rule="evenodd" d="M2.36932 10.1172C2.71947 10.1172 3.00332 10.4009 3.00332 10.7508L3.00373 12.8465C3.00373 14.1907 4.08824 15.2747 5.43322 15.2747H7.13516C7.48531 15.2747 7.76917 15.5584 7.76917 15.9083C7.76917 16.2583 7.48531 16.542 7.13516 16.542H5.43322C3.38793 16.542 1.73571 14.8907 1.73571 12.8465L1.73531 10.7508C1.73531 10.4009 2.01916 10.1172 2.36932 10.1172Z" fill="#676D78"/>
<path fill-rule="evenodd" clip-rule="evenodd" d="M6.48281 0.185596C6.7304 -0.0618652 7.13184 -0.0618652 7.37943 0.185596L9.12222 1.92744C9.36982 2.1749 9.36982 2.57611 9.12222 2.82357L7.37943 4.56542C7.13184 4.81288 6.7304 4.81288 6.48281 4.56542C6.23521 4.31796 6.23521 3.91674 6.48281 3.66928L7.77729 2.37551L6.48281 1.08173C6.23521 0.83427 6.23521 0.433056 6.48281 0.185596Z" fill="#676D78"/>
<path fill-rule="evenodd" clip-rule="evenodd" d="M18.1476 6.27027C18.3952 6.51773 18.3952 6.91894 18.1476 7.16641L16.4048 8.90825C16.1573 9.15571 15.7558 9.15571 15.5082 8.90825L13.7654 7.16641C13.5178 6.91894 13.5178 6.51773 13.7654 6.27027C14.013 6.02281 14.4145 6.02281 14.6621 6.27027L15.9565 7.56405L17.251 6.27027C17.4986 6.02281 17.9 6.02281 18.1476 6.27027Z" fill="#676D78"/>
<path fill-rule="evenodd" clip-rule="evenodd" d="M12.234 18.1477C11.9864 18.3952 11.585 18.3952 11.3374 18.1477L9.59458 16.4059C9.34698 16.1584 9.34698 15.7572 9.59458 15.5098L11.3374 13.7679C11.585 13.5205 11.9864 13.5205 12.234 13.7679C12.4816 14.0154 12.4816 14.4166 12.234 14.664L10.9395 15.9578L12.234 17.2516C12.4816 17.4991 12.4816 17.9003 12.234 18.1477Z" fill="#676D78"/>
<path fill-rule="evenodd" clip-rule="evenodd" d="M0.185696 11.5553C-0.0618988 11.3079 -0.0618988 10.9067 0.185696 10.6592L1.92849 8.91735C2.17608 8.66989 2.57751 8.66989 2.82511 8.91735L4.5679 10.6592C4.81549 10.9067 4.81549 11.3079 4.5679 11.5553C4.3203 11.8028 3.91887 11.8028 3.67127 11.5553L2.3768 10.2616L1.08232 11.5553C0.834723 11.8028 0.433292 11.8028 0.185696 11.5553Z" fill="#676D78"/>
</svg>
