<svg width="22" height="22" viewBox="0 0 22 22" fill="none" xmlns="http://www.w3.org/2000/svg">
<path d="M15.5399 4.93469C15.3757 5.33225 15.1691 5.66929 14.8879 5.95046C14.6068 6.23162 14.2697 6.43826 13.8722 6.60243C14.2697 6.7666 14.6068 6.97324 14.8879 7.2544C15.1691 7.53557 15.3757 7.87261 15.5399 8.27016C15.7041 7.87261 15.9107 7.53557 16.1919 7.2544C16.4731 6.97324 16.8101 6.7666 17.2077 6.60243C16.8101 6.43826 16.4731 6.23162 16.1919 5.95046C15.9107 5.66929 15.7041 5.33225 15.5399 4.93469ZM14.8959 3.27355C15.042 2.57548 16.0378 2.57548 16.1839 3.27355C16.4065 4.33752 16.6233 4.85871 16.9535 5.18889C17.2836 5.51906 17.8048 5.73581 18.8688 5.95844C19.5668 6.10455 19.5669 7.10031 18.8688 7.24641C17.8048 7.46904 17.2836 7.6858 16.9535 8.01597C16.6233 8.34615 16.4065 8.86731 16.1839 9.93128C16.0378 10.6293 15.042 10.6294 14.8959 9.93131C14.6733 8.86734 14.4565 8.34615 14.1264 8.01597C13.7962 7.6858 13.275 7.46905 12.2111 7.24642C11.513 7.10031 11.513 6.10455 12.211 5.95845C13.275 5.73582 13.7962 5.51906 14.1264 5.18889C14.4565 4.85871 14.6733 4.33752 14.8959 3.27355Z" fill="#676D78"/>
<path d="M15.5399 4.93469C15.3757 5.33225 15.1691 5.66929 14.8879 5.95046C14.6068 6.23162 14.2697 6.43826 13.8722 6.60243C14.2697 6.7666 14.6068 6.97324 14.8879 7.2544C15.1691 7.53557 15.3757 7.87261 15.5399 8.27016C15.7041 7.87261 15.9107 7.53557 16.1919 7.2544C16.4731 6.97324 16.8101 6.7666 17.2077 6.60243C16.8101 6.43826 16.4731 6.23162 16.1919 5.95046C15.9107 5.66929 15.7041 5.33225 15.5399 4.93469ZM14.8959 3.27355C15.042 2.57548 16.0378 2.57548 16.1839 3.27355C16.4065 4.33752 16.6233 4.85871 16.9535 5.18889C17.2836 5.51906 17.8048 5.73581 18.8688 5.95844C19.5668 6.10455 19.5669 7.10031 18.8688 7.24641C17.8048 7.46904 17.2836 7.6858 16.9535 8.01597C16.6233 8.34615 16.4065 8.86731 16.1839 9.93128C16.0378 10.6293 15.042 10.6294 14.8959 9.93131C14.6733 8.86734 14.4565 8.34615 14.1264 8.01597C13.7962 7.6858 13.275 7.46905 12.2111 7.24642C11.513 7.10031 11.513 6.10455 12.211 5.95845C13.275 5.73582 13.7962 5.51906 14.1264 5.18889C14.4565 4.85871 14.6733 4.33752 14.8959 3.27355Z" fill="#676D78"/>
<path d="M1.83325 14.4375V8.9375C1.83325 8.5578 2.14106 8.25 2.52075 8.25C2.90045 8.25 3.20825 8.5578 3.20825 8.9375V14.4375C3.20825 14.8172 2.90045 15.125 2.52075 15.125C2.14106 15.125 1.83325 14.8172 1.83325 14.4375Z" fill="#676D78"/>
<path d="M5.5 15.3541V8.02075C5.5 7.64106 5.8078 7.33325 6.1875 7.33325C6.5672 7.33325 6.875 7.64106 6.875 8.02075V15.3541C6.875 15.7338 6.5672 16.0416 6.1875 16.0416C5.8078 16.0416 5.5 15.7338 5.5 15.3541Z" fill="#676D78"/>
<path d="M9.16675 18.1041V5.27075C9.16675 4.89106 9.47455 4.58325 9.85425 4.58325C10.2339 4.58325 10.5417 4.89106 10.5417 5.27075V18.1041C10.5417 18.4838 10.2339 18.7916 9.85425 18.7916C9.47455 18.7916 9.16675 18.4838 9.16675 18.1041Z" fill="#676D78"/>
<path d="M12.8333 15.3542L12.8333 11.9167C12.8333 11.5371 13.1411 11.2292 13.5208 11.2292C13.9004 11.2292 14.2083 11.5371 14.2083 11.9167L14.2083 15.3542C14.2083 15.7339 13.9004 16.0417 13.5208 16.0417C13.1411 16.0417 12.8333 15.7339 12.8333 15.3542Z" fill="#676D78"/>
</svg>
