<svg width="20" height="20" viewBox="0 0 20 20" fill="none" xmlns="http://www.w3.org/2000/svg">
<path d="M10.0001 18.3337C5.40318 18.3337 1.66675 14.5972 1.66675 10.0003C1.66675 5.40343 5.40318 1.66699 10.0001 1.66699C14.597 1.66699 18.3334 5.40343 18.3334 10.0003C18.3334 14.5972 14.597 18.3337 10.0001 18.3337ZM10.0001 2.82978C6.04659 2.82978 2.82954 6.04684 2.82954 10.0003C2.82954 13.9538 6.04659 17.1709 10.0001 17.1709C13.9536 17.1709 17.1706 13.9538 17.1706 10.0003C17.1706 6.04684 13.9536 2.82978 10.0001 2.82978Z" fill="white"/>
<path d="M11.9381 10.5817H7.2869C6.96907 10.5817 6.70551 10.3182 6.70551 10.0003C6.70551 9.6825 6.96907 9.41893 7.2869 9.41893H11.9381C12.2559 9.41893 12.5195 9.6825 12.5195 10.0003C12.5195 10.3182 12.2559 10.5817 11.9381 10.5817Z" fill="white"/>
<path d="M10.3877 12.9073C10.2404 12.9073 10.0931 12.853 9.97683 12.7368C9.75202 12.512 9.75202 12.1399 9.97683 11.9151L11.8916 10.0003L9.97683 8.0856C9.75202 7.86079 9.75202 7.4887 9.97683 7.26389C10.2016 7.03909 10.5737 7.03909 10.7985 7.26389L13.1241 9.58947C13.3489 9.81428 13.3489 10.1864 13.1241 10.4112L10.7985 12.7368C10.6823 12.853 10.535 12.9073 10.3877 12.9073Z" fill="white"/>
<path d="M10.0001 18.3337C5.40318 18.3337 1.66675 14.5972 1.66675 10.0003C1.66675 5.40343 5.40318 1.66699 10.0001 1.66699C14.597 1.66699 18.3334 5.40343 18.3334 10.0003C18.3334 14.5972 14.597 18.3337 10.0001 18.3337ZM10.0001 2.82978C6.04659 2.82978 2.82954 6.04684 2.82954 10.0003C2.82954 13.9538 6.04659 17.1709 10.0001 17.1709C13.9536 17.1709 17.1706 13.9538 17.1706 10.0003C17.1706 6.04684 13.9536 2.82978 10.0001 2.82978Z" stroke="white" stroke-width="0.2"/>
<path d="M11.9381 10.5817H7.2869C6.96907 10.5817 6.70551 10.3182 6.70551 10.0003C6.70551 9.6825 6.96907 9.41893 7.2869 9.41893H11.9381C12.2559 9.41893 12.5195 9.6825 12.5195 10.0003C12.5195 10.3182 12.2559 10.5817 11.9381 10.5817Z" stroke="white" stroke-width="0.2"/>
<path d="M10.3877 12.9073C10.2404 12.9073 10.0931 12.853 9.97683 12.7368C9.75202 12.512 9.75202 12.1399 9.97683 11.9151L11.8916 10.0003L9.97683 8.0856C9.75202 7.86079 9.75202 7.4887 9.97683 7.26389C10.2016 7.03909 10.5737 7.03909 10.7985 7.26389L13.1241 9.58947C13.3489 9.81428 13.3489 10.1864 13.1241 10.4112L10.7985 12.7368C10.6823 12.853 10.535 12.9073 10.3877 12.9073Z" stroke="white" stroke-width="0.2"/>
</svg>
