<svg width="45" height="40" viewBox="0 0 45 40" fill="none" xmlns="http://www.w3.org/2000/svg">
<path d="M44.9991 25.9569C44.9991 25.2438 44.4129 24.6633 43.6923 24.6633H41.3519V23.5502C41.3519 22.6995 41.0161 21.8976 40.4062 21.2927C39.7963 20.6877 38.9878 20.3548 38.13 20.3548H35.2711V4.65374C35.2711 2.0876 33.1653 0 30.5762 0H4.6922C2.10486 0 0 2.0876 0 4.65374V13.2866C0 14.0893 0.659141 14.7431 1.46857 14.7431H7.91848C7.93782 14.7431 7.95715 14.7413 7.97736 14.7405V37.8915C7.97736 38.5461 8.51347 39.0787 9.17173 39.0787H25.2671C25.5202 39.6217 26.073 40 26.7145 40H42.6165C43.4963 40 44.2125 39.2905 44.2125 38.4171V30.5199C44.7047 29.9037 45 29.1253 45 28.2798V25.9569H44.9991ZM43.5921 28.2798C43.5921 28.842 43.3803 29.3554 43.0314 29.7468C43.0041 29.7721 42.9786 29.7991 42.9549 29.8278C42.548 30.2419 41.9803 30.4999 41.3527 30.4999H36.3195V29.9551C36.3195 29.3232 35.8001 28.8098 35.1621 28.8098H34.1681C33.5301 28.8098 33.0107 29.3232 33.0107 29.9551V30.4999H27.9792C27.3456 30.4999 26.7734 30.2375 26.3665 29.8165C26.3489 29.7956 26.3305 29.7755 26.3103 29.7564C25.957 29.3633 25.7408 28.8464 25.7408 28.2789V26.0588H43.5921V28.2798ZM34.4186 30.2061H34.9116V32.19H34.4186V30.2061ZM37.9665 24.6633H31.3646V23.7124H37.9665V24.6633ZM39.4105 22.2802C39.755 22.6219 39.9439 23.0726 39.9439 23.5511V24.6642H39.3736V23.5511C39.3736 23.2251 39.2409 22.9078 39.008 22.6794C38.7751 22.4458 38.4631 22.3168 38.1291 22.3168H31.2011C30.8698 22.3168 30.5578 22.4458 30.3222 22.6794C30.0902 22.9096 29.9566 23.2277 29.9566 23.5511V24.6642H29.3889V23.5511C29.3889 23.0717 29.5779 22.6202 29.9197 22.2802C30.2642 21.9385 30.7186 21.7511 31.2011 21.7511H38.1291C38.6116 21.7503 39.0669 21.9385 39.4105 22.2802ZM7.91848 13.3476H1.46857C1.43605 13.3476 1.40793 13.3197 1.40793 13.2874V4.65374C1.40793 2.85727 2.88176 1.39551 4.69308 1.39551C6.5044 1.39551 7.97736 2.85727 7.97736 4.65374V13.2866C7.97649 13.3188 7.94924 13.3476 7.91848 13.3476ZM9.38441 13.2866V4.65374C9.38441 3.38636 8.87028 2.23578 8.03888 1.39551H30.5762C32.3884 1.39551 33.8632 2.85727 33.8632 4.65374V20.3548H31.2011C30.3433 20.3548 29.5348 20.6877 28.9249 21.2927C28.3167 21.8958 27.981 22.6978 27.981 23.5502V24.6633H25.6379C24.919 24.6633 24.3337 25.2438 24.3337 25.9569V28.2798C24.3337 29.1244 24.6281 29.9011 25.1185 30.5173V37.6832H9.38441V13.2866ZM42.6165 38.6036H26.7145C26.6126 38.6036 26.5265 38.5182 26.5265 38.4171V31.5947C26.9721 31.7873 27.4633 31.8954 27.9801 31.8954H33.0115V32.4376C33.0115 33.0704 33.5309 33.5855 34.169 33.5855H35.163C35.801 33.5855 36.3204 33.0704 36.3204 32.4376V31.8954H41.3536C41.8695 31.8954 42.3599 31.7882 42.8046 31.5956V38.4171C42.8046 38.5182 42.7185 38.6036 42.6165 38.6036ZM13.1846 11.2669H30.063C30.4514 11.2669 30.7669 10.9549 30.7669 10.5688V5.22205C30.7669 4.83678 30.4523 4.52386 30.063 4.52386H13.1846C12.7961 4.52386 12.4806 4.83591 12.4806 5.22205V10.5688C12.4806 10.954 12.7961 11.2669 13.1846 11.2669ZM13.8885 5.92024H29.359V9.87143H13.8885V5.92024ZM12.4806 14.574C12.4806 14.1887 12.7952 13.8758 13.1846 13.8758H30.063C30.4514 13.8758 30.7669 14.1878 30.7669 14.574C30.7669 14.9601 30.4523 15.2722 30.063 15.2722H13.1846C12.7961 15.2722 12.4806 14.9592 12.4806 14.574ZM12.4806 19.3942C12.4806 19.0089 12.7952 18.696 13.1846 18.696H18.9446C19.333 18.696 19.6486 19.0081 19.6486 19.3942C19.6486 19.7803 19.3339 20.0924 18.9446 20.0924H13.1846C12.7961 20.0924 12.4806 19.7803 12.4806 19.3942ZM12.4806 29.0355C12.4806 28.6502 12.7952 28.3373 13.1846 28.3373H18.9446C19.333 28.3373 19.6486 28.6494 19.6486 29.0355C19.6486 29.4217 19.3339 29.7337 18.9446 29.7337H13.1846C12.7961 29.7337 12.4806 29.4217 12.4806 29.0355ZM12.4806 24.2153C12.4806 23.83 12.7952 23.5171 13.1846 23.5171H22.4969C22.8854 23.5171 23.2009 23.8292 23.2009 24.2153C23.2009 24.6014 22.8863 24.9135 22.4969 24.9135H13.1846C12.7961 24.9135 12.4806 24.6006 12.4806 24.2153ZM23.5296 33.854C23.5296 34.2393 23.2149 34.5522 22.8256 34.5522H13.1846C12.7961 34.5522 12.4806 34.2401 12.4806 33.854C12.4806 33.4679 12.7952 33.1558 13.1846 33.1558H22.8256C23.2149 33.1558 23.5296 33.4687 23.5296 33.854Z" fill="white" fill-opacity="0.5"/>
</svg>

