<svg width="36" height="40" viewBox="0 0 36 40" fill="none" xmlns="http://www.w3.org/2000/svg">
<path d="M33.934 28.4403L29.5811 27.081V25.867C30.211 25.1975 30.714 24.3264 31.0266 23.3108C31.5993 23.0905 32.0717 22.5858 32.3569 21.8749C32.606 21.2539 32.7369 20.3445 32.3452 19.7164C33.355 17.2946 33.2806 15.3392 32.1203 13.901C31.0391 12.5612 29.1212 11.8933 27.009 11.7074V1.74837C27.009 0.784344 26.2232 0 25.258 0H1.75338C0.786594 0 0 0.784344 0 1.74837V35.683C0 36.647 0.786594 37.4314 1.75338 37.4314H16.7676V39.1C16.7676 39.5961 17.1727 40 17.6702 40H24.5881H28.1795H35.0975C35.595 40 36 39.5961 36 39.1V31.2433C36 29.9332 35.1891 28.8332 33.934 28.4403ZM29.7409 28.4419L28.612 30.1715L27.4916 29.5426L29.0907 28.2395L29.7409 28.4419ZM26.9393 32.0261H25.8276L25.3614 30.9285L26.3822 30.3558L27.4031 30.9293L26.9393 32.0261ZM26.3916 27.338C27.0725 27.338 27.7274 27.1622 28.3268 26.8404V27.245L26.383 28.8293L24.4408 27.245V26.8325C25.0441 27.1591 25.7045 27.338 26.3916 27.338ZM23.677 28.2387L25.2744 29.5418L24.1541 30.1707L23.0267 28.4419L23.677 28.2387ZM31.1927 21.4109C31.1261 21.5765 30.8762 22.121 30.4374 22.1788C30.1836 22.2124 29.9752 22.3968 29.9125 22.6444C29.6501 23.6702 29.1674 24.5279 28.5532 25.131C28.5336 25.1475 28.5156 25.1646 28.4984 25.1826C27.8904 25.7576 27.161 26.0865 26.3916 26.0865C25.6184 26.0865 24.8843 25.7537 24.2747 25.1732C24.2567 25.1537 24.2371 25.1342 24.2168 25.117C23.6096 24.5147 23.1317 23.6624 22.8708 22.6444C22.8073 22.3968 22.5997 22.2124 22.3459 22.1788C21.9056 22.1202 21.6548 21.5734 21.589 21.4078C21.3751 20.8718 21.4441 20.4476 21.5076 20.3695C21.5773 20.2836 21.6541 20.2469 21.7637 20.2469H22.15C22.4892 20.2469 22.7666 19.9781 22.7768 19.6406C22.8003 18.8735 22.9005 18.2438 23.0862 17.7079C25.2823 18.9024 27.5002 18.9024 29.6947 17.7079C29.882 18.2446 29.9822 18.8743 30.0057 19.6406C30.0159 19.9781 30.2941 20.2469 30.6325 20.2469H31.0188C31.0995 20.2469 31.1645 20.268 31.2201 20.3133L31.2217 20.3148C31.2397 20.3297 31.2577 20.3476 31.2742 20.3687C31.3392 20.4469 31.4081 20.8734 31.1927 21.4109ZM31.1433 14.6854C31.962 15.7002 32.0059 17.1564 31.2765 19.0172C31.2593 19.0149 31.2428 19.011 31.2264 19.0086C31.1402 18.0149 30.9153 17.2103 30.5307 16.5087C30.4468 16.3556 30.3027 16.2447 30.1334 16.2025C29.9642 16.1603 29.784 16.19 29.6375 16.2853C27.4532 17.704 25.3285 17.704 23.1426 16.2853C22.9961 16.19 22.8167 16.1603 22.6475 16.2033C22.4783 16.2455 22.3341 16.3572 22.2503 16.5095C21.8672 17.2087 21.6423 18.0134 21.5569 19.0094C21.5326 19.0125 21.5099 19.018 21.4856 19.0219C20.9356 17.8641 20.8291 16.8032 21.2028 16.058C21.5342 15.3963 22.2448 14.99 23.3142 14.8525C23.6409 14.8104 23.8791 14.5237 23.8603 14.1963C23.8391 13.8362 23.6723 13.4331 23.4584 13.0706C24.3852 12.9362 25.3583 12.8776 26.3008 12.9143C26.3282 12.9182 26.3556 12.9206 26.3838 12.9206C26.3916 12.9206 26.4003 12.9198 26.4081 12.919C28.3871 13.0104 30.2134 13.5323 31.1433 14.6854ZM1.75338 36.1798C1.47839 36.1798 1.2551 35.9572 1.2551 35.683V1.74837C1.2551 1.47416 1.47839 1.25151 1.75338 1.25151H25.2588C25.5322 1.25151 25.7555 1.47416 25.7555 1.74837V11.6519C24.5552 11.6495 23.333 11.7831 22.2001 12.023C21.9698 12.0714 21.7865 12.2441 21.7246 12.4706C21.6627 12.6972 21.7332 12.9386 21.9063 13.0971C22.0771 13.2534 22.2667 13.5112 22.4054 13.7549C21.0437 14.1135 20.3911 14.876 20.0793 15.4986C19.5129 16.6298 19.6445 18.1516 20.4326 19.7227C20.0456 20.3484 20.1749 21.2531 20.4225 21.871C20.7076 22.5843 21.1808 23.0905 21.7551 23.3116C22.0654 24.3186 22.5629 25.1834 23.1849 25.8513V27.0818L18.832 28.4411C17.5777 28.8332 16.7668 29.934 16.7668 31.2433V36.1806H1.75338V36.1798ZM18.0219 31.2433C18.0219 30.4918 18.4873 29.8598 19.2081 29.6348L21.7825 28.8309L23.4223 31.3457C23.5422 31.5292 23.7428 31.63 23.9488 31.63C24.053 31.63 24.1588 31.6042 24.2559 31.5495L24.2614 31.5464L24.7691 32.7417L24.0326 38.7493H22.0528V36.5759C22.0528 36.2306 21.7724 35.9502 21.4253 35.9502C21.0782 35.9502 20.7977 36.2298 20.7977 36.5759V38.7493H18.0219V31.2433ZM25.2971 38.7493L25.9678 33.2776H26.8006L27.4713 38.7493H25.2971ZM34.7449 38.7493H31.9691V36.5759C31.9691 36.2306 31.6886 35.9502 31.3415 35.9502C30.9945 35.9502 30.714 36.2298 30.714 36.5759V38.7493H28.7342L27.9977 32.7417L28.5039 31.5472L28.5086 31.5495C28.6057 31.6042 28.7115 31.63 28.8157 31.63C29.0217 31.63 29.2223 31.5292 29.3422 31.3457L30.9843 28.8309L33.5587 29.6348C34.2795 29.8605 34.7449 30.4918 34.7449 31.2433V38.7493ZM8.839 4.62248C8.839 4.27718 9.11948 3.99672 9.46655 3.99672H17.544C17.8903 3.99672 18.1716 4.2764 18.1716 4.62248C18.1716 4.96856 17.8911 5.24823 17.544 5.24823H9.46655C9.12026 5.24823 8.839 4.96856 8.839 4.62248ZM3.21375 9.32151C3.21375 8.97621 3.49423 8.69575 3.84131 8.69575H23.1693C23.5156 8.69575 23.7968 8.97543 23.7968 9.32151C23.7968 9.66759 23.5163 9.94727 23.1693 9.94727H3.84131C3.49423 9.94727 3.21375 9.66759 3.21375 9.32151ZM3.21375 14.019C3.21375 13.6737 3.49423 13.3932 3.84131 13.3932H8.81785C9.16413 13.3932 9.4454 13.6729 9.4454 14.019C9.4454 14.3651 9.16492 14.6447 8.81785 14.6447H3.84131C3.49423 14.644 3.21375 14.3643 3.21375 14.019ZM3.21375 18.7157C3.21375 18.3704 3.49423 18.0899 3.84131 18.0899H17.7571C18.1034 18.0899 18.3847 18.3696 18.3847 18.7157C18.3847 19.0618 18.1042 19.3414 17.7571 19.3414H3.84131C3.49423 19.3414 3.21375 19.061 3.21375 18.7157ZM3.21375 23.4124C3.21375 23.0671 3.49423 22.7866 3.84131 22.7866H8.81785C9.16413 22.7866 9.4454 23.0663 9.4454 23.4124C9.4454 23.7584 9.16492 24.0381 8.81785 24.0381H3.84131C3.49423 24.0381 3.21375 23.7577 3.21375 23.4124ZM12.6952 31.1925C12.7171 31.537 12.4547 31.8347 12.1092 31.8566C10.8102 31.9386 9.78072 31.9222 9.33728 30.9254C9.2652 30.7636 9.20722 30.6129 9.15865 30.4746C9.01684 30.6504 8.85389 30.8574 8.68231 31.0761C8.5311 31.2683 8.3603 31.4847 8.16836 31.7269C8.02733 31.905 7.89885 32.0698 7.78211 32.2198C7.1953 32.9753 6.83412 33.4393 6.36875 33.4393C6.2904 33.4393 6.20892 33.426 6.12353 33.3987C5.47717 33.1932 5.44505 32.4526 5.37454 30.8293C5.35338 30.341 5.24292 30.0699 5.1677 29.9504C4.98359 30.148 4.63025 30.8129 4.46416 32.3784C4.42812 32.7222 4.11943 32.9714 3.77471 32.9347C3.42999 32.8987 3.18007 32.5901 3.21689 32.2472C3.56553 28.9536 4.73758 28.6325 5.22333 28.6481C6.02246 28.6731 6.57402 29.5082 6.62807 30.7761C6.63669 30.9754 6.65079 31.2972 6.67116 31.6058C6.71112 31.555 6.75108 31.5035 6.79025 31.4535C6.90934 31.3003 7.04017 31.1324 7.18433 30.9504C7.37549 30.7097 7.54472 30.4949 7.69515 30.3035C8.08844 29.8043 8.34777 29.4746 8.54755 29.252C8.72383 29.0559 9.0521 28.6903 9.51042 28.7786C9.98285 28.8692 10.1082 29.2934 10.2187 29.6684C10.279 29.8738 10.355 30.1301 10.4835 30.4183C10.5391 30.5433 10.6081 30.698 12.0292 30.6082C12.3755 30.5855 12.6733 30.8472 12.6952 31.1925Z" fill="white" fill-opacity="0.5"/>
</svg>
