<svg width="36" height="40" viewBox="0 0 36 40" fill="none" xmlns="http://www.w3.org/2000/svg">
<path d="M35.7174 16.8019L33.214 14.3659C33.2116 14.3636 33.2084 14.3604 33.206 14.3581C33.0173 14.1807 32.7821 14.0878 32.5252 14.0878H30.5164C28.8994 10.8518 26.0283 8.37438 22.5398 7.20248V3.38288C22.5398 3.12584 22.4371 2.88756 22.2508 2.70943L19.7523 0.276568C19.7499 0.274224 19.7466 0.271099 19.7442 0.268755C19.5572 0.0929706 19.3219 0 19.0634 0H14.8146C14.0687 0 13.4618 0.590637 13.4618 1.31643V7.2017C9.96926 8.37438 7.10461 10.8486 5.48683 14.087H1.35284C0.606972 14.087 0 14.6776 0 15.4034V24.5966C0 25.3224 0.606972 25.913 1.35284 25.913H5.48442C7.10221 29.1514 9.97328 31.6287 13.461 32.7983V38.6859C13.461 39.4109 14.0679 40 14.8138 40H21.1862C21.9321 40 22.539 39.4101 22.539 38.6859V32.7983C26.0267 31.628 28.8978 29.1506 30.5156 25.913H34.6471C35.393 25.913 36 25.3224 36 24.5966V17.4722C36.0016 17.2183 35.9004 16.98 35.7174 16.8019ZM33.3047 16.2238L33.8065 16.712H33.3047V16.2238ZM19.843 2.1352L20.3456 2.62505H19.843V2.1352ZM14.8146 1.25159H18.5576V3.25006C18.5576 3.59538 18.845 3.87586 19.2007 3.87586H21.2544V7.65406V7.66109V10.508C21.2544 10.5432 21.2239 10.5736 21.187 10.5736H14.8146C14.7793 10.5736 14.7472 10.5424 14.7472 10.508V7.66031C14.7472 7.65796 14.7472 7.65562 14.7472 7.65406V1.31643C14.7472 1.28284 14.7793 1.25159 14.8146 1.25159ZM6.38123 16.2253L6.88061 16.7113H6.38123V16.2253ZM1.2854 24.5966V15.4042C1.2854 15.3698 1.31751 15.3386 1.35284 15.3386H5.09583V17.3371C5.09583 17.6824 5.38326 17.9629 5.73893 17.9629H7.79268V24.5966C7.79268 24.6294 7.75976 24.6622 7.72524 24.6622H5.88024C5.87943 24.6622 5.87863 24.6622 5.87783 24.6622H1.35284C1.31751 24.6622 1.2854 24.6309 1.2854 24.5966ZM21.187 38.7492H14.8146C14.7801 38.7492 14.7472 38.7187 14.7472 38.6859V32.3467C14.7472 32.3444 14.7472 32.342 14.7472 32.3397V29.4935C14.7472 29.4592 14.7793 29.4279 14.8146 29.4279H18.5576V31.4264C18.5576 31.7717 18.845 32.0522 19.2007 32.0522H21.2544V32.3397V32.3467V38.6859C21.2536 38.7195 21.2223 38.7492 21.187 38.7492ZM19.843 30.3131L20.3448 30.8014H19.843V30.3131ZM22.535 31.4686C22.5141 31.2483 22.4178 31.049 22.2532 30.8889L19.7523 28.4552C19.5652 28.2732 19.3267 28.1763 19.0634 28.1763H14.8146C14.0687 28.1763 13.4618 28.767 13.4618 29.4928V31.4662C10.6822 30.4248 8.36834 28.4568 6.932 25.9122H7.72524C8.4711 25.9122 9.07807 25.3216 9.07807 24.5958V17.4714C9.07807 17.2183 8.97611 16.9808 8.79225 16.8011L6.61727 14.6847C8.01668 11.8518 10.4646 9.65644 13.4618 8.53298V10.5065C13.4618 11.2323 14.0687 11.8229 14.8146 11.8229H21.187C21.9329 11.8229 22.5398 11.2323 22.5398 10.5065V8.53298C25.3202 9.57597 27.6341 11.544 29.0696 14.0862H28.2764C27.5313 14.0862 26.9259 14.6768 26.9259 15.4026V24.5958C26.9259 25.3216 27.5321 25.9122 28.2764 25.9122H29.0696C27.6325 28.4592 25.317 30.4279 22.535 31.4686ZM34.6479 24.6622H30.123C30.1222 24.6622 30.1214 24.6622 30.1206 24.6622H28.2756C28.2418 24.6622 28.2105 24.6302 28.2105 24.5966V15.4042C28.2105 15.3706 28.2418 15.3386 28.2756 15.3386H30.1061H30.1085H30.1117H32.0185V17.3371C32.0185 17.6824 32.306 17.9629 32.6616 17.9629H34.7154V24.5966C34.7154 24.6309 34.6833 24.6622 34.6479 24.6622ZM33.9984 19.2527C33.9984 19.598 33.711 19.8785 33.3553 19.8785H29.5706C29.2157 19.8785 28.9275 19.5988 28.9275 19.2527C28.9275 18.9066 29.2149 18.6269 29.5706 18.6269H33.3553C33.711 18.6277 33.9984 18.9074 33.9984 19.2527ZM33.9984 21.3129C33.9984 21.6582 33.711 21.9387 33.3553 21.9387H29.5706C29.2157 21.9387 28.9275 21.659 28.9275 21.3129C28.9275 20.9668 29.2149 20.6871 29.5706 20.6871H33.3553C33.711 20.6871 33.9984 20.9668 33.9984 21.3129ZM33.9984 23.3747C33.9984 23.72 33.711 24.0005 33.3553 24.0005H29.5706C29.2157 24.0005 28.9275 23.7208 28.9275 23.3747C28.9275 23.0286 29.2149 22.7489 29.5706 22.7489H33.3553C33.711 22.7489 33.9984 23.0286 33.9984 23.3747ZM2.00477 19.2527C2.00477 18.9074 2.2922 18.6269 2.64787 18.6269H6.4302C6.78507 18.6269 7.0733 18.9066 7.0733 19.2527C7.0733 19.5988 6.78587 19.8785 6.4302 19.8785H2.64787C2.2922 19.8785 2.00477 19.5988 2.00477 19.2527ZM2.00477 21.3129C2.00477 20.9676 2.2922 20.6871 2.64787 20.6871H6.4302C6.78507 20.6871 7.0733 20.9668 7.0733 21.3129C7.0733 21.659 6.78587 21.9387 6.4302 21.9387H2.64787C2.2922 21.9379 2.00477 21.6582 2.00477 21.3129ZM2.64787 23.9997C2.293 23.9997 2.00477 23.72 2.00477 23.3739C2.00477 23.0278 2.2922 22.7481 2.64787 22.7481H6.4302C6.78507 22.7481 7.0733 23.0278 7.0733 23.3739C7.0733 23.72 6.78587 23.9997 6.4302 23.9997H2.64787ZM20.5343 33.3397C20.5343 33.685 20.2468 33.9655 19.8912 33.9655H16.1088C15.754 33.9655 15.4657 33.6858 15.4657 33.3397C15.4657 32.9936 15.7532 32.7139 16.1088 32.7139H19.8912C20.2468 32.7147 20.5343 32.9944 20.5343 33.3397ZM20.5343 35.4023C20.5343 35.7476 20.2468 36.028 19.8912 36.028H16.1088C15.754 36.028 15.4657 35.7484 15.4657 35.4023C15.4657 35.0562 15.7532 34.7765 16.1088 34.7765H19.8912C20.2468 34.7765 20.5343 35.0562 20.5343 35.4023ZM20.5343 37.4617C20.5343 37.807 20.2468 38.0875 19.8912 38.0875H16.1088C15.754 38.0875 15.4657 37.8078 15.4657 37.4617C15.4657 37.1156 15.7532 36.8359 16.1088 36.8359H19.8912C20.2468 36.8359 20.5343 37.1156 20.5343 37.4617ZM24.4667 18.1769L23.3764 17.8332L23.8967 16.8394C24.1488 16.3581 24.054 15.7816 23.6647 15.4066L22.7221 14.4893C22.3319 14.1097 21.7402 14.0182 21.2496 14.2612L20.2276 14.7675L19.8735 13.7081C19.7049 13.1979 19.22 12.8557 18.6676 12.8557H17.334C16.7816 12.8557 16.2967 13.1987 16.1289 13.7065L15.774 14.7683L14.7544 14.2628C14.2638 14.0175 13.6713 14.1089 13.2795 14.4901L12.3369 15.4073C11.9475 15.7862 11.8544 16.362 12.1049 16.8402L12.6252 17.8347L11.5317 18.1793C11.009 18.3472 10.6581 18.8191 10.6581 19.3535V20.6488C10.6581 21.1832 11.009 21.6551 11.5357 21.8239L12.626 22.1676L12.1057 23.1622C11.8552 23.6403 11.9483 24.2161 12.3377 24.595L13.2795 25.5122C13.6713 25.8935 14.2638 25.9849 14.752 25.7403L15.774 25.2341L16.1281 26.2935C16.2975 26.8044 16.7816 27.1482 17.334 27.1482H18.6676C19.22 27.1482 19.7049 26.8044 19.8727 26.295L20.2276 25.2333L21.2496 25.7396C21.7402 25.9825 22.3319 25.8911 22.7221 25.5114L23.6614 24.5974C24.0541 24.22 24.148 23.6434 23.8959 23.1622L23.3756 22.1684L24.4691 21.8231C24.9918 21.6551 25.3427 21.1832 25.3427 20.6488V19.3535C25.3435 18.8183 24.9926 18.3465 24.4667 18.1769ZM24.0573 20.6371L22.6314 21.0871C22.4419 21.1473 22.2917 21.2887 22.2243 21.4715C22.1745 21.6067 22.1199 21.7332 22.0581 21.8582C21.9706 22.0348 21.9722 22.2403 22.0637 22.4153L22.7454 23.7184L21.8213 24.6177L20.4837 23.9552C20.307 23.8677 20.0983 23.8645 19.9185 23.9466C19.79 24.0052 19.6527 24.0606 19.5106 24.1106C19.3243 24.1763 19.1798 24.3216 19.118 24.5052L18.6531 25.8958H17.3469L16.882 24.5052C16.821 24.3216 16.6757 24.1763 16.4894 24.1106C16.3481 24.0606 16.2108 24.0052 16.0815 23.9466C15.9017 23.8645 15.6929 23.8677 15.5163 23.9552L14.1787 24.6177L13.2554 23.7192L13.9371 22.4161C14.027 22.2442 14.0302 22.0411 13.9459 21.8661C13.8736 21.716 13.8206 21.5926 13.7805 21.4793C13.7147 21.2934 13.5629 21.1481 13.3702 21.0871L11.9419 20.6371V19.3637L13.3702 18.9137C13.5621 18.8535 13.7131 18.709 13.7797 18.5238C13.8222 18.4058 13.876 18.2785 13.9459 18.1347C14.0302 17.9597 14.027 17.7574 13.9371 17.5847L13.2554 16.2816L14.1795 15.3823L15.5171 16.0448C15.6937 16.1323 15.9025 16.1355 16.0823 16.0534C16.2116 15.9941 16.3489 15.9394 16.4902 15.8894C16.6765 15.8237 16.821 15.6784 16.8828 15.4948L17.3469 14.1065H18.6547L19.1188 15.4948C19.1798 15.6784 19.3251 15.8237 19.5114 15.8894C19.6527 15.9394 19.79 15.9948 19.9193 16.0534C20.0991 16.1355 20.3078 16.1323 20.4845 16.0448L21.8221 15.3823L22.7462 16.2816L22.0645 17.5847C21.973 17.7589 21.9714 17.9652 22.0589 18.1418C22.1183 18.2613 22.1729 18.3886 22.2267 18.5316C22.2942 18.7129 22.4443 18.8543 22.633 18.9137L24.0589 19.3637L24.0573 20.6371ZM18.0004 16.3753C15.9458 16.3753 14.2735 18.0019 14.2735 20.002C14.2735 22.002 15.945 23.6286 18.0004 23.6286C20.0549 23.6286 21.7273 22.002 21.7273 20.002C21.7273 18.0019 20.0549 16.3753 18.0004 16.3753ZM18.0004 22.377C16.6548 22.377 15.5597 21.3114 15.5597 20.002C15.5597 18.6926 16.6548 17.6269 18.0004 17.6269C19.346 17.6269 20.4411 18.6926 20.4411 20.002C20.4411 21.3114 19.346 22.377 18.0004 22.377ZM15.4665 5.16338C15.4665 4.81806 15.754 4.53759 16.1096 4.53759H19.892C20.2468 4.53759 20.5351 4.81728 20.5351 5.16338C20.5351 5.50948 20.2476 5.78918 19.892 5.78918H16.1096C15.754 5.78918 15.4665 5.50948 15.4665 5.16338ZM15.4665 7.22358C15.4665 6.87826 15.754 6.59778 16.1096 6.59778H19.892C20.2468 6.59778 20.5351 6.87748 20.5351 7.22358C20.5351 7.56968 20.2476 7.84937 19.892 7.84937H16.1096C15.754 7.84859 15.4665 7.5689 15.4665 7.22358ZM15.4665 9.28534C15.4665 8.94002 15.754 8.65954 16.1096 8.65954H19.892C20.2468 8.65954 20.5351 8.93924 20.5351 9.28534C20.5351 9.63144 20.2476 9.91113 19.892 9.91113H16.1096C15.754 9.91035 15.4665 9.63066 15.4665 9.28534Z" fill="white" fill-opacity="0.5"/>
</svg>

