<svg width="45" height="40" viewBox="0 0 45 40" fill="none" xmlns="http://www.w3.org/2000/svg">
<path d="M24.2947 26.6376C24.2947 25.3125 23.2189 24.2342 21.8971 24.2342H17.1442C17.8314 22.007 17.7743 18.5824 16.6019 16.7235C15.9427 15.6786 14.9013 15.2319 13.9495 15.5843C13.1602 15.8768 12.4554 16.8001 12.6417 18.2098C12.7032 20.7638 11.4614 21.8158 10.0235 23.0333C9.4593 23.5109 8.87661 24.0051 8.38883 24.598C8.0865 24.9645 7.69364 25.1504 7.21993 25.1504H7.19357C7.09074 24.2465 6.32348 23.5426 5.39364 23.5426H1.8096C0.811199 23.5426 0 24.3566 0 25.3566V38.1833C0 39.1851 0.812078 40 1.8096 40H5.39452C6.32436 40 7.09162 39.2943 7.19445 38.3895H7.62421C7.82108 38.3895 7.97313 38.4168 8.15505 38.4873L9.61925 39.0362C9.95938 39.1639 10.2846 39.2238 10.644 39.2238H20.6517C21.9736 39.2238 23.0493 38.1455 23.0493 36.8204C23.0493 36.3094 22.8893 35.8345 22.616 35.4451C23.2752 35.0161 23.712 34.2716 23.712 33.4267C23.712 32.8197 23.4861 32.2647 23.1143 31.8418C23.6162 31.4013 23.9334 30.7537 23.9334 30.033C23.9334 29.4577 23.7304 28.9282 23.3929 28.5142C23.9431 28.0728 24.2947 27.3961 24.2947 26.6376ZM5.79968 38.1833C5.79968 38.4071 5.61775 38.5895 5.39452 38.5895H1.8096C1.59164 38.5895 1.40707 38.4036 1.40707 38.1833V25.3566C1.40707 25.1381 1.59164 24.9531 1.8096 24.9531H5.39452C5.61423 24.9531 5.79968 25.1381 5.79968 25.3566V38.1833ZM21.8971 27.6279H21.5385H20.0409C19.6525 27.6279 19.3369 27.9433 19.3369 28.3336C19.3369 28.7238 19.6516 29.0392 20.0409 29.0392H21.5385C22.0834 29.0392 22.5264 29.4842 22.5264 30.0322C22.5264 30.5801 22.0834 31.0251 21.5385 31.0251H21.317H20.0418C19.6533 31.0251 19.3378 31.3405 19.3378 31.7308C19.3378 32.1211 19.6525 32.4365 20.0418 32.4365H21.317C21.8619 32.4365 22.3049 32.8805 22.3049 33.4267C22.3049 33.9738 21.8619 34.4196 21.317 34.4196H20.6517H20.0418C19.6533 34.4196 19.3378 34.735 19.3378 35.1253C19.3378 35.5156 19.6525 35.831 20.0418 35.831H20.6517C21.1975 35.831 21.6422 36.2751 21.6422 36.8213C21.6422 37.3684 21.1984 37.8142 20.6517 37.8142H10.644C10.4515 37.8142 10.2977 37.786 10.1132 37.7164L8.65425 37.1693C8.3194 37.0398 7.99158 36.9799 7.62421 36.9799H7.20763V26.5618H7.22169C8.12253 26.5618 8.90209 26.1936 9.47688 25.4958C9.88379 25.0007 10.3935 24.569 10.9332 24.1117C12.4378 22.8378 14.1437 21.3938 14.0488 18.1322C14.0479 18.1049 14.0453 18.0785 14.0417 18.0521C13.9477 17.3992 14.1727 17.0072 14.4381 16.9094C14.7413 16.7975 15.1236 17.0204 15.4137 17.4794C16.4217 19.0785 16.4578 22.8069 15.4822 24.6042C15.3636 24.8227 15.3688 25.0879 15.4954 25.302C15.6219 25.5161 15.8522 25.6473 16.1001 25.6473H21.8971C22.4429 25.6473 22.8876 26.0922 22.8876 26.6402C22.8876 27.1838 22.4429 27.6279 21.8971 27.6279ZM39.3787 14.1201C38.9068 12.2752 37.7405 10.6638 36.1375 9.62865C36.7535 8.65689 37.1121 7.50628 37.1121 6.27197C37.1121 2.81309 34.3041 0 30.8528 0C27.4015 0 24.5935 2.81397 24.5935 6.27197C24.5935 7.5054 24.9521 8.65601 25.5673 9.62689C23.4052 11.0136 22.0922 13.3827 22.0922 15.987V20.1753C22.0922 21.2158 22.935 22.0625 23.9721 22.0625H33.1124C33.899 24.5205 36.1999 26.3054 38.9103 26.3054C42.2685 26.3054 45 23.5681 45 20.2035C45 16.9957 42.5181 14.3606 39.3787 14.1201ZM30.8537 1.41051C33.529 1.41051 35.7051 3.59103 35.7051 6.27197C35.7051 8.95379 33.529 11.1352 30.8537 11.1352C28.1784 11.1352 26.0023 8.95379 26.0023 6.27197C26.0014 3.59191 28.1784 1.41051 30.8537 1.41051ZM27.9226 20.6502V16.9931C27.9226 16.6037 27.608 16.2874 27.2187 16.2874C26.8293 16.2874 26.5147 16.6028 26.5147 16.9931V20.6502H23.9721C23.712 20.6502 23.5002 20.437 23.5002 20.1744V15.9861C23.5002 13.8179 24.6216 11.8497 26.4576 10.7334C27.5887 11.8532 29.1416 12.5457 30.8528 12.5457C32.564 12.5457 34.1169 11.8532 35.248 10.7334C36.5329 11.5193 37.4909 12.7519 37.933 14.1791C35.0389 14.6487 32.8224 17.1702 32.8224 20.2018C32.8224 20.3524 32.8294 20.5022 32.8408 20.6502H27.9226ZM38.9103 24.8932C36.3299 24.8932 34.2303 22.7884 34.2303 20.2018C34.2303 17.6494 36.2746 15.5685 38.8075 15.513C38.8417 15.5121 38.876 15.5103 38.9103 15.5103C41.4924 15.5103 43.5929 17.6151 43.5929 20.2018C43.5929 22.7884 41.4915 24.8932 38.9103 24.8932ZM41.4054 18.4476C41.6805 18.7234 41.6805 19.1701 41.4054 19.4458L38.8971 21.9603C38.76 22.0977 38.5798 22.1673 38.3997 22.1673C38.2195 22.1673 38.0393 22.0986 37.9022 21.9603L36.4178 20.4722C36.1427 20.1965 36.1427 19.7498 36.4178 19.474C36.6929 19.1983 37.1385 19.1983 37.4136 19.474L38.4006 20.4634L40.4114 18.4476C40.6856 18.1719 41.1312 18.1719 41.4054 18.4476Z" fill="white" fill-opacity="0.5"/>
</svg>

