<svg width="48" height="48" viewBox="0 0 48 48" fill="none" xmlns="http://www.w3.org/2000/svg">
<path d="M37.1266 23.0217H31.0764C30.3511 23.0217 29.7496 22.4058 29.7496 21.663V9C29.7496 7.65942 30.2626 6.40942 31.1826 5.46739C32.1025 4.52536 33.3232 4 34.6323 4H34.65C36.8613 4.01812 38.9487 4.9058 40.5409 6.51812C42.133 8.16667 42.9999 10.3406 42.9999 12.6051V16.9891C43.0176 20.5942 40.647 23.0217 37.1266 23.0217ZM32.4032 20.3043H37.1266C39.1787 20.3043 40.364 19.0906 40.364 16.9891V12.6051C40.364 11.0471 39.7625 9.56159 38.6834 8.4384C37.6042 7.35145 36.1714 6.73551 34.65 6.71739C34.65 6.71739 34.6499 6.71739 34.6323 6.71739C34.0485 6.71739 33.4823 6.9529 33.0578 7.38768C32.6332 7.82246 32.4032 8.38406 32.4032 9V20.3043Z" fill="white"/>
<path d="M18.6925 44C17.8611 44 17.0827 43.6739 16.4989 43.058L13.5622 40.0326C13.403 39.8695 13.1554 39.8514 12.9785 39.9964L9.95336 42.3152C9.01575 43.0398 7.77738 43.1666 6.71594 42.6232C5.6545 42.0797 5 40.9927 5 39.779V12.6051C5 7.13406 8.06048 4 13.4031 4H34.6323C35.3576 4 35.9586 4.61594 35.9586 5.3587C35.9586 6.10145 35.3576 6.71739 34.6323 6.71739C33.4116 6.71739 32.4205 7.73188 32.4205 8.98188V39.779C32.4205 40.9927 31.7659 42.0797 30.7044 42.6232C29.6607 43.1666 28.4047 43.0398 27.4671 42.3152L24.442 39.9964C24.2651 39.8514 24.0174 39.8877 23.8759 40.0326L20.9039 43.0761C20.3024 43.6739 19.524 44 18.6925 44ZM13.2261 37.1884C14.0399 37.1884 14.8359 37.4964 15.4374 38.1304L18.3741 41.1558C18.4803 41.2645 18.6218 41.2826 18.6925 41.2826C18.7633 41.2826 18.9048 41.2645 19.011 41.1558L21.983 38.1123C23.0798 36.9891 24.8135 36.8804 26.0342 37.8406L29.0415 40.1413C29.2361 40.2862 29.413 40.2319 29.5015 40.1775C29.5899 40.1232 29.7492 40.0145 29.7492 39.779V8.98188C29.7492 8.16666 29.9438 7.38768 30.2799 6.71739H13.3853C9.45802 6.71739 7.63589 8.58333 7.63589 12.6051V39.779C7.63589 40.0326 7.79513 40.1413 7.88358 40.1956C7.98973 40.25 8.16665 40.2862 8.34356 40.1413L11.3686 37.8224C11.917 37.4058 12.5715 37.1884 13.2261 37.1884Z" fill="white"/>
<path fill-rule="evenodd" clip-rule="evenodd" d="M19.2059 14.8829C19.9387 14.8829 20.5327 15.4912 20.5327 16.2416V17.599C20.5327 18.3494 19.9387 18.9577 19.2059 18.9577C18.4731 18.9577 17.8791 18.3494 17.8791 17.599V16.2416C17.8791 15.4912 18.4731 14.8829 19.2059 14.8829Z" fill="white"/>
<path fill-rule="evenodd" clip-rule="evenodd" d="M19.2059 27.9915C19.9387 27.9915 20.5327 28.5998 20.5327 29.3502V30.7077C20.5327 31.4581 19.9387 32.0664 19.2059 32.0664C18.4731 32.0664 17.8791 31.4581 17.8791 30.7077V29.3502C17.8791 28.5998 18.4731 27.9915 19.2059 27.9915Z" fill="white"/>
<path fill-rule="evenodd" clip-rule="evenodd" d="M14.4118 21.0027C14.4118 18.7577 16.189 16.9378 18.3813 16.9378H22.6732C23.406 16.9378 24 17.5461 24 18.2965C24 19.0469 23.406 19.6552 22.6732 19.6552H18.3813C17.6546 19.6552 17.0654 20.2585 17.0654 21.0027C17.0654 21.747 17.6546 22.3503 18.3813 22.3503H20.0871C22.2481 22.3503 24 24.1443 24 26.3573C24 28.5703 22.2481 30.3643 20.0871 30.3643H15.7386C15.0058 30.3643 14.4118 29.756 14.4118 29.0057C14.4118 28.2553 15.0058 27.647 15.7386 27.647H20.0871C20.7826 27.647 21.3464 27.0696 21.3464 26.3573C21.3464 25.6451 20.7826 25.0677 20.0871 25.0677H18.3813C16.189 25.0677 14.4118 23.2478 14.4118 21.0027Z" fill="white"/>
</svg>
