<svg width="48" height="48" viewBox="0 0 48 48" fill="none" xmlns="http://www.w3.org/2000/svg">
<path d="M24 44C14.0716 44 6 36.0744 6 26.3256C6 16.5767 14.0716 8.65116 24 8.65116C33.9284 8.65116 42 16.5767 42 26.3256C42 36.0744 33.9284 44 24 44ZM24 11.4419C15.6442 11.4419 8.84211 18.1209 8.84211 26.3256C8.84211 34.5302 15.6442 41.2093 24 41.2093C32.3558 41.2093 39.1579 34.5302 39.1579 26.3256C39.1579 18.1209 32.3558 11.4419 24 11.4419Z" fill="white"/>
<path d="M24 27.2558C23.2232 27.2558 22.5789 26.6232 22.5789 25.8605V16.5581C22.5789 15.7953 23.2232 15.1628 24 15.1628C24.7768 15.1628 25.4211 15.7953 25.4211 16.5581V25.8605C25.4211 26.6232 24.7768 27.2558 24 27.2558Z" fill="white"/>
<path d="M29.6842 6.7907H18.3158C17.5389 6.7907 16.8947 6.15814 16.8947 5.39535C16.8947 4.63256 17.5389 4 18.3158 4H29.6842C30.4611 4 31.1053 4.63256 31.1053 5.39535C31.1053 6.15814 30.4611 6.7907 29.6842 6.7907Z" fill="white"/>
<path d="M36.2386 16.3113C35.7542 15.7039 35.8471 14.8059 36.4435 14.3303L38.9184 12.3566C39.5148 11.881 40.411 11.9902 40.8953 12.5976C41.3797 13.2049 41.2868 14.103 40.6904 14.5786L38.2155 16.5523C37.6192 17.0279 36.7229 16.9186 36.2386 16.3113Z" fill="white"/>
</svg>
