<svg width="43" height="40" viewBox="0 0 43 40" fill="none" xmlns="http://www.w3.org/2000/svg">
<path d="M42.9588 21.8792C42.8757 21.5677 42.6742 21.3078 42.3928 21.1466L39.2486 19.3517C38.6708 19.0187 37.9267 19.2139 37.5874 19.7894L37.4925 19.9522L36.3722 19.3119L32.8568 13.3956L33.9997 12.7436C34.5473 12.4313 34.9479 11.9363 35.0965 11.3864C35.2166 10.9429 35.1629 10.4944 34.9462 10.124L34.4247 9.2286C33.9225 8.36894 32.6804 8.14552 31.6567 8.72859L30.643 9.3075C30.638 9.30999 30.6329 9.31249 30.6279 9.31498C30.6229 9.31747 30.6187 9.32079 30.6136 9.32411L29.3363 10.0534C27.9657 9.59488 26.4616 9.69538 25.1591 10.3416L24.2647 10.7851V3.23179C24.2647 1.4502 22.7992 0 20.997 0H3.2677C1.46631 0 0 1.44937 0 3.23179V36.7682C0 38.5498 1.46547 40 3.2677 40H20.9961C22.7975 40 24.2638 38.5506 24.2638 36.7682V25.5944C24.9264 25.4856 25.537 25.0969 25.8972 24.4781L26.1022 24.1267C27.6331 26.1019 29.7747 27.3934 32.7299 28.1285C32.4906 28.6792 32.7014 29.3353 33.2389 29.6435L36.3831 31.4384C36.5738 31.5488 36.7829 31.6012 36.9903 31.6012C37.4094 31.6012 37.8175 31.386 38.0451 31.0015L42.8354 22.792C42.9983 22.5138 43.042 22.1898 42.9588 21.8792ZM31.5912 12.5792C31.5844 12.5825 31.5794 12.5875 31.5727 12.5908L24.7786 16.4688L23.293 15.6199C23.1032 15.5119 22.905 15.4306 22.7026 15.3741L29.7159 11.3698C29.7192 11.3682 29.7217 11.3665 29.7251 11.3649L30.7178 10.7984L31.7163 12.5094L31.618 12.5659C31.6088 12.5709 31.5996 12.5742 31.5912 12.5792ZM22.5271 21.0553L21.8729 22.1782C21.7427 22.4008 21.5311 22.5603 21.2766 22.6284C21.023 22.6957 20.7593 22.6624 20.5351 22.5345C20.0673 22.2671 19.906 21.6724 20.1756 21.2106L20.7568 20.2155C20.7626 20.2056 20.7685 20.1956 20.7744 20.1856L20.8315 20.0876L22.5271 21.0553ZM19.8204 19.1599L19.6952 19.3742L18.1147 20.2762L17.1145 18.566L19.5164 17.1947C19.3425 17.8683 19.4584 18.5801 19.8204 19.1599ZM16.1042 19.4963L16.7937 20.6748L15.1611 20.821L16.1042 19.4963ZM33.2582 9.89223L33.7797 10.7876C33.8276 10.869 33.815 10.9703 33.7957 11.0409C33.7394 11.2494 33.5639 11.4546 33.3262 11.5908L32.8803 11.8449L31.8817 10.1339L32.3268 9.87977C32.7174 9.65718 33.1482 9.70452 33.2582 9.89223ZM25.7604 11.5293C26.3071 11.2577 26.9 11.1157 27.4971 11.1016L18.7891 16.0734C18.7882 16.0726 18.7882 16.0718 18.7874 16.0709C18.5455 15.5933 18.7412 15.0111 19.2233 14.7719L25.7604 11.5293ZM20.9953 38.6686H3.2677C2.20786 38.6686 1.34538 37.8156 1.34538 36.7674V3.23179C1.34538 2.1836 2.20786 1.33059 3.2677 1.33059H20.9961C22.056 1.33059 22.9184 2.1836 22.9184 3.23179V11.4512L18.6211 13.5825C17.4756 14.1506 17.0112 15.5344 17.5856 16.6665C17.5982 16.6914 17.6125 16.7146 17.6251 16.7387L15.953 17.6939C15.7213 17.826 15.534 17.9937 15.3753 18.2113L13.5361 20.7945C13.5252 20.8094 13.5159 20.8235 13.5058 20.8385C12.4838 20.8659 12.4208 20.7263 12.3687 20.6109C12.231 20.3036 12.1504 20.032 12.0849 19.8135C11.9665 19.4157 11.8329 18.9655 11.3265 18.8683C10.8352 18.7753 10.4842 19.1615 10.2961 19.3692C10.0828 19.6042 9.80647 19.9522 9.38825 20.4797C9.22448 20.6856 9.03972 20.9182 8.83145 21.179C8.67693 21.3725 8.53668 21.5511 8.40819 21.7139C8.36704 21.7662 8.32505 21.8202 8.28306 21.8734C8.26122 21.5453 8.24694 21.2048 8.23771 20.9938C8.17976 19.6449 7.58769 18.757 6.73024 18.7305C6.20872 18.7122 4.95152 19.0552 4.58033 22.5561C4.5417 22.9216 4.8096 23.2488 5.17911 23.287C5.54947 23.3261 5.87952 23.0603 5.91815 22.6948C6.09451 21.0303 6.47326 20.3243 6.67146 20.1142C6.75208 20.2413 6.87133 20.5295 6.89401 21.0494C6.96791 22.7746 7.0015 23.562 7.69435 23.7804C7.78673 23.8095 7.87323 23.8236 7.95805 23.8236C8.45606 23.8236 8.84321 23.3302 9.47139 22.5295C9.59652 22.3701 9.73425 22.194 9.88625 22.0046C10.0962 21.743 10.2818 21.5096 10.4464 21.3019C10.6278 21.0735 10.7991 20.8576 10.9486 20.6732C10.9998 20.8194 11.062 20.9797 11.1393 21.1508C11.5886 22.1533 12.6014 22.2231 13.8905 22.1558C14.0072 22.2064 14.1349 22.2339 14.2684 22.2339C14.302 22.2339 14.3356 22.2322 14.3692 22.2289L17.5546 21.944C17.8166 21.9216 18.0601 21.8443 18.297 21.7089L18.7127 21.4722C18.6287 22.341 19.0494 23.2214 19.8624 23.6865C20.2184 23.89 20.614 23.9947 21.0163 23.9947C21.2195 23.9947 21.4236 23.9681 21.626 23.9149C21.6302 23.9141 21.6352 23.9125 21.6394 23.9108C21.6402 23.9149 21.6411 23.9191 21.6428 23.9241C21.804 24.5188 22.1878 25.0155 22.7253 25.322C22.7891 25.3585 22.8538 25.3901 22.9193 25.4191V36.769C22.9176 37.8156 22.0551 38.6686 20.9953 38.6686ZM23.7297 24.2837C23.7238 24.2829 23.7179 24.2821 23.7121 24.2804C23.6037 24.2613 23.4962 24.2248 23.3955 24.1674C23.1704 24.0387 23.0083 23.8294 22.9403 23.5786C22.8722 23.3277 22.9067 23.0669 23.0369 22.8443L23.6911 21.7214L24.111 21.9606C24.5737 22.2239 24.9365 22.5304 25.2498 22.9232L24.7308 23.8144C24.5233 24.1708 24.1185 24.3452 23.7297 24.2837ZM26.664 22.6001C26.6522 22.5819 26.6405 22.5636 26.6279 22.5453C26.6195 22.532 26.6111 22.5187 26.6019 22.5055C26.124 21.7828 25.5437 21.2405 24.7837 20.8077L21.3933 18.8725C21.2934 18.816 21.2061 18.7462 21.1296 18.6682C21.1196 18.6574 21.1086 18.6466 21.0977 18.6358C20.7509 18.2562 20.6728 17.6839 20.944 17.218C21.2833 16.639 22.035 16.4397 22.6203 16.7728L24.4234 17.8027C24.4267 17.8052 24.4309 17.8068 24.4343 17.8093L26.2273 18.8334C27.1738 19.3733 28.1631 19.6067 29.2506 19.5453C29.6218 19.5245 29.9048 19.2105 29.8838 18.8434C29.8628 18.4763 29.5437 18.1956 29.1742 18.2172C28.3436 18.2628 27.6214 18.0934 26.8991 17.6814L26.1232 17.2379L31.6903 14.0601L35.3006 20.1366C35.3014 20.1375 35.3023 20.1383 35.3031 20.14C35.3174 20.1632 35.3325 20.1856 35.3502 20.2072C35.3535 20.2114 35.3577 20.2155 35.3611 20.2197C35.3745 20.2363 35.3888 20.2512 35.4039 20.2662L35.4215 20.2836C35.4358 20.2969 35.4509 20.3094 35.4669 20.3218C35.4728 20.326 35.4778 20.331 35.4837 20.3351C35.503 20.3493 35.5232 20.3625 35.545 20.375L35.5517 20.3792C35.5517 20.3792 35.5526 20.3792 35.5526 20.38L36.819 21.1043L33.4211 26.9241C30.2315 26.1999 28.0757 24.8186 26.664 22.6001ZM36.945 30.2224L34.0224 28.5546L38.3147 21.2023C38.3164 21.1998 38.3181 21.1973 38.3197 21.1948C38.3223 21.1906 38.3239 21.1873 38.3256 21.1832L38.6851 20.5677L41.6059 22.2347L36.945 30.2224ZM5.81317 3.65041C5.81317 3.28329 6.11382 2.98511 6.48586 2.98511H17.7771C18.1483 2.98511 18.4498 3.28246 18.4498 3.65041C18.4498 4.01836 18.1492 4.3157 17.7771 4.3157H6.48586C6.11466 4.3157 5.81317 4.01753 5.81317 3.65041ZM13.1363 36.3488C13.1363 36.7159 12.8357 37.0141 12.4636 37.0141H11.7993C11.4281 37.0141 11.1267 36.7167 11.1267 36.3488C11.1267 35.9808 11.4273 35.6835 11.7993 35.6835H12.4636C12.8348 35.6835 13.1363 35.9816 13.1363 36.3488Z" fill="white" fill-opacity="0.5"/>
</svg>
