<svg width="48" height="48" viewBox="0 0 48 48" fill="none" xmlns="http://www.w3.org/2000/svg">
<path d="M24 44C23.5528 44 23.1056 43.9442 22.677 43.8141C13.0062 41.1552 6 32.1371 6 22.3567V14.194C6 12.1115 7.50933 9.86176 9.44721 9.06222L19.8261 4.82278C22.528 3.72574 25.4907 3.72574 28.1739 4.82278L38.5528 9.06222C40.4907 9.86176 42 12.1115 42 14.194V22.3567C42 32.1185 34.9751 41.1366 25.323 43.8141C24.8944 43.9442 24.4472 44 24 44ZM24 6.81233C22.9379 6.81233 21.8944 7.01689 20.8882 7.42596L10.5093 11.6653C9.61493 12.0372 8.79503 13.2458 8.79503 14.2126V22.3754C8.79503 30.9099 14.9441 38.7938 23.4224 41.1366C23.795 41.2481 24.205 41.2481 24.5776 41.1366C33.0559 38.7938 39.205 30.9099 39.205 22.3754V14.2126C39.205 13.2458 38.3851 12.0372 37.4907 11.6653L27.1118 7.42596C26.1056 7.01689 25.0621 6.81233 24 6.81233Z" fill="white"/>
<path d="M21.5038 28.1563C21.1498 28.1563 20.7958 28.0262 20.5162 27.7473L17.5163 24.7537C16.9759 24.2145 16.9759 23.3219 17.5163 22.7827C18.0566 22.2435 18.951 22.2435 19.4914 22.7827L21.5038 24.7909L28.5287 17.781C29.069 17.2418 29.9634 17.2418 30.5038 17.781C31.0442 18.3202 31.0442 19.2127 30.5038 19.7519L22.4914 27.7473C22.2119 28.0262 21.8579 28.1563 21.5038 28.1563Z" fill="white"/>
</svg>
