<svg width="33" height="40" viewBox="0 0 33 40" fill="none" xmlns="http://www.w3.org/2000/svg">
<path d="M6.66929 11.9281H11.6063C12.1801 11.9281 12.6464 11.457 12.6464 10.8773V9.3625C12.6464 8.42656 12.2141 7.54141 11.5081 6.95781C11.6628 6.62109 11.7494 6.24688 11.7494 5.85234C11.7494 4.39766 10.5778 3.21328 9.1378 3.21328C7.69784 3.21328 6.52545 4.39688 6.52545 5.85234C6.52545 6.24688 6.61206 6.62031 6.76673 6.95625C6.0599 7.53906 5.62683 8.42578 5.62683 9.36172V10.8766C5.62683 11.4563 6.0947 11.9281 6.66929 11.9281ZM11.4076 10.6766H6.86572V9.3625C6.86572 8.80781 7.12092 8.28281 7.53853 7.93437C7.98088 8.28125 8.53536 8.48828 9.1378 8.48828C9.73946 8.48828 10.2939 8.28125 10.7363 7.93516C11.1531 8.28359 11.4083 8.80859 11.4083 9.3625V10.6766H11.4076ZM9.1378 4.46484C9.8949 4.46484 10.5112 5.0875 10.5112 5.85234C10.5112 6.61641 9.8949 7.2375 9.1378 7.2375C8.3807 7.2375 7.76434 6.61641 7.76434 5.85234C7.76434 5.0875 8.3807 4.46484 9.1378 4.46484ZM4.15129 15.7156C4.15129 15.3703 4.42815 15.0898 4.77074 15.0898H22.5205C22.8623 15.0898 23.1399 15.3695 23.1399 15.7156C23.1399 16.0617 22.8631 16.3414 22.5205 16.3414H4.77074C4.42892 16.3414 4.15129 16.0617 4.15129 15.7156ZM4.15129 21.4492C4.15129 21.1039 4.42815 20.8234 4.77074 20.8234H13.6471C13.989 20.8234 14.2666 21.1031 14.2666 21.4492C14.2666 21.7953 13.9897 22.075 13.6471 22.075H4.77074C4.42892 22.075 4.15129 21.7953 4.15129 21.4492ZM4.15129 27.1828C4.15129 26.8375 4.42815 26.557 4.77074 26.557H22.5205C22.8623 26.557 23.1399 26.8367 23.1399 27.1828C23.1399 27.5289 22.8631 27.8086 22.5205 27.8086H4.77074C4.42892 27.8086 4.15129 27.5281 4.15129 27.1828ZM14.2658 32.9164C14.2658 33.2617 13.989 33.5422 13.6464 33.5422H4.77074C4.42892 33.5422 4.15129 33.2625 4.15129 32.9164C4.15129 32.5703 4.42815 32.2906 4.77074 32.2906H13.6471C13.989 32.2906 14.2658 32.5711 14.2658 32.9164ZM27.292 27.2484V10.1992C27.292 9.725 27.1172 9.29844 26.7862 8.96406L18.4187 0.513281C18.09 0.177344 17.667 0 17.196 0H2.99283C1.34252 0 0 1.35547 0 3.02187V34.9313C0 36.5984 1.34252 37.9555 2.9936 37.9555H22.0402C23.1956 39.2117 24.8444 40 26.6725 40C30.1618 40 33 37.1336 33 33.6102C33 30.2961 30.4913 27.5641 27.292 27.2484ZM25.1777 9.10859H18.274V2.13594L25.1777 9.10859ZM2.99283 36.7047C2.02538 36.7047 1.23812 35.9094 1.23812 34.932V3.02187C1.23812 2.04531 2.02538 1.25156 2.99283 1.25156H17.0344V9.73438C17.0344 10.0797 17.3112 10.3602 17.6538 10.3602H26.0531V27.2484C22.8538 27.5641 20.3451 30.2961 20.3451 33.6094C20.3451 34.732 20.6343 35.7867 21.1393 36.7039H2.99283V36.7047ZM26.6725 38.7484C23.8661 38.7484 21.5832 36.443 21.5832 33.6094C21.5832 30.7742 23.8661 28.468 26.6725 28.468C29.479 28.468 31.7619 30.7742 31.7619 33.6094C31.7619 36.443 29.479 38.7484 26.6725 38.7484ZM29.8718 33.6094C29.8718 33.9547 29.595 34.2352 29.2524 34.2352H27.2912V36.2164C27.2912 36.5617 27.0143 36.8422 26.6718 36.8422C26.3292 36.8422 26.0523 36.5625 26.0523 36.2164V34.2352H24.0911C23.7493 34.2352 23.4717 33.9555 23.4717 33.6094C23.4717 33.2633 23.7485 32.9836 24.0911 32.9836H26.0523V31.0008C26.0523 30.6555 26.3292 30.375 26.6718 30.375C27.0143 30.375 27.2912 30.6547 27.2912 31.0008V32.9836H29.2524C29.595 32.9836 29.8718 33.2641 29.8718 33.6094Z" fill="white"/>
</svg>
