<svg width="22" height="22" viewBox="0 0 22 22" fill="none" xmlns="http://www.w3.org/2000/svg">
<g filter="url(#filter0_d_178_4033)">
<rect x="1" width="20" height="20" rx="10" fill="white" shape-rendering="crispEdges"/>
<path d="M15.6329 6.50015C15.5402 6.50279 15.4522 6.54069 15.3875 6.60582L9.21672 12.6555L6.6143 10.1042C6.58142 10.0706 6.54204 10.0438 6.49846 10.0253C6.45488 10.0069 6.40798 9.99713 6.3605 9.99665C6.31303 9.99618 6.26594 10.005 6.22198 10.0226C6.17803 10.0402 6.1381 10.0662 6.10453 10.0991C6.07096 10.132 6.04442 10.1712 6.02648 10.2143C6.00853 10.2574 5.99954 10.3035 6.00002 10.3501C6.0005 10.3966 6.01045 10.4426 6.02929 10.4853C6.04812 10.528 6.07546 10.5666 6.10971 10.5989L8.96442 13.3976C9.03134 13.4632 9.12209 13.5 9.21672 13.5C9.31134 13.5 9.40209 13.4632 9.46901 13.3976L15.8921 7.10052C15.9436 7.05136 15.9787 6.98812 15.993 6.91906C16.0072 6.85 15.9998 6.77834 15.9718 6.71347C15.9437 6.64859 15.8964 6.59352 15.8359 6.55546C15.7755 6.5174 15.7047 6.49812 15.6329 6.50015Z" fill="#2B6AD1" stroke="#2B6AD1"/>
</g>
<defs>
<filter id="filter0_d_178_4033" x="0" y="0" width="22" height="22" filterUnits="userSpaceOnUse" color-interpolation-filters="sRGB">
<feFlood flood-opacity="0" result="BackgroundImageFix"/>
<feColorMatrix in="SourceAlpha" type="matrix" values="0 0 0 0 0 0 0 0 0 0 0 0 0 0 0 0 0 0 127 0" result="hardAlpha"/>
<feOffset dy="1"/>
<feGaussianBlur stdDeviation="0.5"/>
<feComposite in2="hardAlpha" operator="out"/>
<feColorMatrix type="matrix" values="0 0 0 0 0 0 0 0 0 0 0 0 0 0 0 0 0 0 0.2 0"/>
<feBlend mode="normal" in2="BackgroundImageFix" result="effect1_dropShadow_178_4033"/>
<feBlend mode="normal" in="SourceGraphic" in2="effect1_dropShadow_178_4033" result="shape"/>
</filter>
</defs>
</svg>
