<svg width="18" height="18" viewBox="0 0 18 18" fill="none" xmlns="http://www.w3.org/2000/svg">
<path d="M15.9493 3.75022C15.8103 3.75419 15.6783 3.81104 15.5813 3.90874L6.32508 12.9833L2.42145 9.15629C2.37213 9.10593 2.31306 9.06572 2.24769 9.03802C2.18232 9.01032 2.11197 8.99569 2.04075 8.99498C1.96954 8.99427 1.8989 9.0075 1.83297 9.03389C1.76704 9.06028 1.70715 9.0993 1.65679 9.14867C1.60643 9.19803 1.56663 9.25676 1.53971 9.32139C1.5128 9.38603 1.4993 9.45528 1.50003 9.5251C1.50075 9.59491 1.51568 9.66388 1.54393 9.72797C1.57218 9.79205 1.61319 9.84997 1.66456 9.89832L5.94663 14.0964C6.04702 14.1947 6.18314 14.25 6.32508 14.25C6.46701 14.25 6.60314 14.1947 6.70352 14.0964L16.3382 4.65077C16.4154 4.57704 16.4681 4.48218 16.4894 4.37859C16.5107 4.275 16.4997 4.16752 16.4576 4.0702C16.4156 3.97289 16.3446 3.89028 16.2539 3.83319C16.1632 3.77609 16.057 3.74718 15.9493 3.75022Z" fill="white" stroke="white" stroke-width="1.4"/>
</svg>
