<svg width="22" height="22" viewBox="0 0 22 22" fill="none" xmlns="http://www.w3.org/2000/svg">
<rect width="22" height="22" rx="11" fill="#2B6AD1"/>
<path d="M15.6329 7.50015C15.5402 7.50279 15.4522 7.54069 15.3875 7.60582L9.21672 13.6555L6.6143 11.1042C6.58142 11.0706 6.54204 11.0438 6.49846 11.0253C6.45488 11.0069 6.40798 10.9971 6.3605 10.9967C6.31303 10.9962 6.26594 11.005 6.22198 11.0226C6.17803 11.0402 6.1381 11.0662 6.10453 11.0991C6.07096 11.132 6.04442 11.1712 6.02648 11.2143C6.00853 11.2574 5.99954 11.3035 6.00002 11.3501C6.0005 11.3966 6.01045 11.4426 6.02929 11.4853C6.04812 11.528 6.07546 11.5666 6.10971 11.5989L8.96442 14.3976C9.03134 14.4632 9.12209 14.5 9.21672 14.5C9.31134 14.5 9.40209 14.4632 9.46901 14.3976L15.8921 8.10052C15.9436 8.05136 15.9787 7.98812 15.993 7.91906C16.0072 7.85 15.9998 7.77834 15.9718 7.71347C15.9437 7.64859 15.8964 7.59352 15.8359 7.55546C15.7755 7.5174 15.7047 7.49812 15.6329 7.50015Z" fill="white" stroke="white"/>
</svg>
