<svg width="52" height="52" viewBox="0 0 52 52" fill="none" xmlns="http://www.w3.org/2000/svg">
<path d="M32.0462 47.6663H30.0307C29.2043 47.6663 28.5191 46.9811 28.5191 46.1547C28.5191 45.3283 29.2043 44.6431 30.0307 44.6431H32.0462C41.3377 44.6431 44.6431 41.3376 44.6431 32.0462V19.9532C44.6431 10.6617 41.3377 7.35626 32.0462 7.35626H19.9532C10.6617 7.35626 7.35626 10.6617 7.35626 19.9532V21.9284C7.35626 22.7547 6.67099 23.44 5.84464 23.44C5.01828 23.44 4.33301 22.7547 4.33301 21.9284V19.9532C4.33301 9.00898 9.00898 4.33301 19.9532 4.33301H32.0462C42.9904 4.33301 47.6663 9.00898 47.6663 19.9532V32.0462C47.6663 42.9904 42.9904 47.6663 32.0462 47.6663Z" fill="#2B6AD1"/>
<path d="M38.1188 12.336C38.5017 12.336 38.8847 12.4771 39.187 12.7794C39.7715 13.3639 39.7715 14.3313 39.187 14.9158L31.649 22.474H36.1033C36.9296 22.474 37.6149 23.1592 37.6149 23.9856C37.6149 24.8119 36.9498 25.4972 36.1033 25.4972L28.0211 25.4972C27.4164 25.4972 26.8521 25.1344 26.6304 24.5701C26.3885 24.0057 26.5296 23.3608 26.9529 22.9174L37.0505 12.7794C37.3529 12.4771 37.7358 12.336 38.1188 12.336Z" fill="#2B6AD1"/>
<path d="M28.0211 14.3716C28.8474 14.3716 29.5327 15.0569 29.5327 15.8833V23.9856C29.5327 24.8119 28.8474 25.4972 28.0211 25.4972C27.1947 25.4972 26.5095 24.8119 26.5095 23.9856V15.9034C26.5095 15.0569 27.1947 14.3716 28.0211 14.3716Z" fill="#2B6AD1"/>
<path d="M17.6353 47.6663H12.1935C6.83223 47.6663 4.33301 45.1671 4.33301 39.8059V34.364C4.33301 29.0028 6.83223 26.5035 12.1935 26.5035H17.6353C22.9966 26.5035 25.4958 29.0028 25.4958 34.364V39.8059C25.4958 45.1671 22.9966 47.6663 17.6353 47.6663ZM12.1935 29.5268C8.48495 29.5268 7.35626 30.6555 7.35626 34.364V39.8059C7.35626 43.5144 8.48495 44.6431 12.1935 44.6431H17.6353C21.3439 44.6431 22.4725 43.5144 22.4725 39.8059V34.364C22.4725 30.6555 21.3439 29.5268 17.6353 29.5268H12.1935Z" fill="#2B6AD1"/>
</svg>
