<svg width="52" height="52" viewBox="0 0 52 52" fill="none" xmlns="http://www.w3.org/2000/svg">
<path d="M15.7092 4.33301C12.4376 4.33301 9.75055 7.08604 9.75055 10.438V27.1377C7.36484 27.225 5.41699 29.2354 5.41699 31.6991C5.41699 33.182 6.11759 34.5795 7.29811 35.441L22.4211 46.4954C24.5571 48.0566 27.4414 48.0566 29.5774 46.4954L44.7025 35.441C45.8803 34.5798 46.583 33.1834 46.5837 31.7013V31.6991C46.5842 29.2365 44.6363 27.2261 42.2522 27.1377V10.438C42.2522 7.08604 39.5652 4.33301 36.2936 4.33301H15.7092ZM15.7092 7.66299H36.2936C37.8084 7.66299 39.0021 8.88595 39.0021 10.438V28.7702C39.0021 29.2118 39.1733 29.6352 39.4781 29.9475C39.7828 30.2597 40.1962 30.4351 40.6271 30.4352H42.0999C42.8012 30.4352 43.334 30.9812 43.3335 31.6991C43.3335 32.1091 43.1417 32.4893 42.8151 32.7289L27.69 43.7854C26.6733 44.5285 25.3252 44.5285 24.3086 43.7854L9.18346 32.7289C8.85807 32.4914 8.66716 32.1098 8.66716 31.6991C8.66716 30.9806 9.19951 30.4352 9.90078 30.4352H11.3756C11.8066 30.4351 12.2199 30.2597 12.5247 29.9475C12.8294 29.6352 13.0007 29.2118 13.0007 28.7702V10.438C13.0007 8.88595 14.1944 7.66299 15.7092 7.66299ZM31.9262 14.8844C31.5038 14.8976 31.1031 15.0788 30.8089 15.3896L18.8916 27.5995C18.7408 27.7542 18.6211 27.9379 18.5395 28.14C18.4579 28.3421 18.4159 28.5587 18.416 28.7775C18.4162 29.2192 18.5877 29.6428 18.8927 29.955C19.1977 30.2672 19.6113 30.4425 20.0424 30.4423C20.2559 30.4422 20.4673 30.399 20.6645 30.3152C20.8617 30.2314 21.0408 30.1086 21.1917 29.9539L33.109 17.744C33.3444 17.51 33.5052 17.2087 33.5703 16.8794C33.6354 16.5501 33.6018 16.2083 33.4738 15.899C33.3458 15.5897 33.1296 15.3272 32.8533 15.1462C32.5771 14.9651 32.2539 14.8739 31.9262 14.8844ZM20.5844 14.9018C20.0098 14.9018 19.4586 15.1357 19.0523 15.552C18.6459 15.9683 18.4177 16.533 18.4177 17.1218C18.4177 17.7105 18.6459 18.2752 19.0523 18.6915C19.4586 19.1079 20.0098 19.3418 20.5844 19.3418C21.1591 19.3418 21.7102 19.1079 22.1166 18.6915C22.5229 18.2752 22.7512 17.7105 22.7512 17.1218C22.7512 16.533 22.5229 15.9683 22.1166 15.552C21.7102 15.1357 21.1591 14.9018 20.5844 14.9018ZM31.4183 26.0017C30.8437 26.0017 30.2925 26.2356 29.8862 26.6519C29.4798 27.0683 29.2516 27.6329 29.2516 28.2217C29.2516 28.8105 29.4798 29.3751 29.8862 29.7915C30.2925 30.2078 30.8437 30.4417 31.4183 30.4417C31.993 30.4417 32.5441 30.2078 32.9505 29.7915C33.3568 29.3751 33.5851 28.8105 33.5851 28.2217C33.5851 27.6329 33.3568 27.0683 32.9505 26.6519C32.5441 26.2356 31.993 26.0017 31.4183 26.0017Z" fill="#2B6AD1"/>
</svg>
