<svg width="52" height="52" viewBox="0 0 52 52" fill="none" xmlns="http://www.w3.org/2000/svg">
<path d="M31.0527 46.9878C20.6537 49.8212 9.94785 43.5188 7.1668 32.9648C6.16477 29.1621 6.29478 25.1817 7.53866 21.4427C7.81643 20.626 8.70275 20.1665 9.50593 20.449C10.3091 20.7314 10.7609 21.6327 10.4832 22.4494C9.43994 25.5671 9.33987 28.929 10.1812 32.1217C12.5228 41.0082 21.5244 46.2929 30.2636 43.9117C39.0027 41.5306 44.1998 32.3772 41.8581 23.4907C39.5165 14.6042 30.4949 9.32495 21.7557 11.7061C19.9159 12.2074 18.1857 12.9621 16.6252 13.954C15.8896 14.416 14.9318 14.1974 14.4775 13.4494C14.0232 12.7014 14.2381 11.7274 14.9737 11.2655C16.8127 10.1105 18.8068 9.21848 20.9466 8.63546C31.3456 5.80207 42.0514 12.1045 44.8325 22.6585C47.6135 33.2125 41.4517 44.1544 31.0527 46.9878Z" fill="#2B6AD1"/>
<path d="M14.2551 16.2264C13.9349 16.3749 13.5443 16.4173 13.1774 16.3098C12.3341 16.053 11.8737 15.179 12.1159 14.3493L14.7068 5.46512C14.949 4.63544 15.8188 4.13942 16.6433 4.40486C17.4592 4.65114 17.9282 5.54431 17.686 6.374L15.0865 15.2391C14.95 15.6958 14.6318 16.0516 14.2551 16.2264Z" fill="#2B6AD1"/>
<path d="M22.715 17.9965C22.4325 18.1276 22.0882 18.1716 21.766 18.1128L13.2769 16.3351C12.4491 16.1638 11.9134 15.3247 12.0819 14.4829C12.2418 13.622 13.067 13.0773 13.9136 13.2399L22.3752 15.0071C23.203 15.1785 23.7576 16.0088 23.5788 16.8785C23.4956 17.403 23.1483 17.7956 22.715 17.9965Z" fill="#2B6AD1"/>
<path d="M25.4822 30.8208C24.6334 30.8208 23.9295 30.1051 23.9295 29.2419V22.3998C23.9295 21.5366 24.6334 20.8208 25.4822 20.8208C26.3311 20.8208 27.035 21.5366 27.035 22.3998V29.2419C27.035 30.1051 26.3311 30.8208 25.4822 30.8208Z" fill="#2B6AD1"/>
<path d="M33.8144 34.5567C33.39 35.3042 32.4284 35.5662 31.6933 35.1346L24.7566 30.6605C24.0215 30.2289 23.7638 29.2511 24.1883 28.5036C24.6127 27.7561 25.5742 27.4941 26.3094 27.9257L33.2461 32.3998C33.9812 32.8314 34.2388 33.8092 33.8144 34.5567Z" fill="#2B6AD1"/>
</svg>
