<svg width="52" height="52" viewBox="0 0 52 52" fill="none" xmlns="http://www.w3.org/2000/svg">
<path d="M7.66632 25.9997C7.66632 15.8745 15.8744 7.66634 25.9997 7.66634C28.9297 7.66634 31.6946 8.35238 34.1468 9.57115C34.9712 9.98074 35.9715 9.64464 36.381 8.82031C36.7908 7.99603 36.4546 6.99572 35.6304 6.58607C32.7272 5.1434 29.4557 4.33301 25.9997 4.33301C14.0335 4.33301 4.33301 14.0335 4.33301 25.9997C4.33301 37.9659 14.0335 47.6663 25.9997 47.6663C37.9659 47.6663 47.6663 37.9659 47.6663 25.9997C47.6663 25.1872 47.6214 24.3846 47.5341 23.5944C47.433 22.6795 46.6094 22.0197 45.6946 22.1208C44.7797 22.2222 44.1199 23.0457 44.221 23.9606C44.2951 24.6295 44.333 25.3099 44.333 25.9997C44.333 36.1248 36.1248 44.333 25.9997 44.333C15.8745 44.333 7.66632 36.1248 7.66632 25.9997ZM47.1781 11.6226C47.829 10.9718 47.829 9.91651 47.1781 9.26562C46.5272 8.61473 45.4721 8.61473 44.8212 9.26562L25.9997 28.087L20.5115 22.599C19.8606 21.9481 18.8053 21.9481 18.1545 22.599C17.5036 23.2499 17.5036 24.305 18.1545 24.9559L24.8212 31.6225C25.1336 31.9352 25.5576 32.1108 25.9996 32.1108C26.4416 32.1108 26.8656 31.9352 27.1781 31.6225L47.1781 11.6226Z" fill="#2B6AD1"/>
</svg>
