<svg width="20" height="20" viewBox="0 0 20 20" fill="none" xmlns="http://www.w3.org/2000/svg">
<rect width="20" height="20" rx="10" fill="#FCD5D5"/>
<path fill-rule="evenodd" clip-rule="evenodd" d="M6.26852 6.16208C6.42473 6.00587 6.678 6.00587 6.83421 6.16208L13.8342 13.1621C13.9904 13.3183 13.9904 13.5716 13.8342 13.7278C13.678 13.884 13.4247 13.884 13.2685 13.7278L6.26852 6.72776C6.11231 6.57155 6.11231 6.31829 6.26852 6.16208Z" fill="#C62323"/>
<path fill-rule="evenodd" clip-rule="evenodd" d="M13.7317 6.27145C13.8879 6.42766 13.8879 6.68093 13.7317 6.83714L6.73167 13.8371C6.57546 13.9933 6.3222 13.9933 6.16599 13.8371C6.00978 13.6809 6.00978 13.4277 6.16599 13.2715L13.166 6.27145C13.3222 6.11524 13.5755 6.11524 13.7317 6.27145Z" fill="#C62323"/>
<path fill-rule="evenodd" clip-rule="evenodd" d="M6.26852 6.16208C6.42473 6.00587 6.678 6.00587 6.83421 6.16208L13.8342 13.1621C13.9904 13.3183 13.9904 13.5716 13.8342 13.7278C13.678 13.884 13.4247 13.884 13.2685 13.7278L6.26852 6.72776C6.11231 6.57155 6.11231 6.31829 6.26852 6.16208Z" stroke="#C62323" stroke-width="0.6" stroke-miterlimit="10" stroke-linecap="round" stroke-linejoin="round"/>
<path fill-rule="evenodd" clip-rule="evenodd" d="M13.7317 6.27145C13.8879 6.42766 13.8879 6.68093 13.7317 6.83714L6.73167 13.8371C6.57546 13.9933 6.3222 13.9933 6.16599 13.8371C6.00978 13.6809 6.00978 13.4277 6.16599 13.2715L13.166 6.27145C13.3222 6.11524 13.5755 6.11524 13.7317 6.27145Z" stroke="#C62323" stroke-width="0.6" stroke-miterlimit="10" stroke-linecap="round" stroke-linejoin="round"/>
</svg>
