<svg width="26" height="26" viewBox="0 0 26 26" fill="none" xmlns="http://www.w3.org/2000/svg">
<path d="M8.27259 6.72451C8.63495 4.44832 10.6136 2.70825 13.0001 2.70825C15.3866 2.70825 17.3651 4.44832 17.7275 6.72451H20.0798C20.5277 6.72451 20.9017 6.72451 21.2086 6.74536C21.5282 6.76707 21.83 6.81391 22.1227 6.93468C22.8017 7.21493 23.3412 7.75244 23.6225 8.42901C23.7437 8.72059 23.7907 9.02132 23.8125 9.33973C23.8334 9.64558 23.8334 10.0181 23.8334 10.4644V10.5151C23.8334 10.9614 23.8334 11.3339 23.8125 11.6398C23.7907 11.9582 23.7437 12.2589 23.6225 12.5505C23.4474 12.9716 23.1722 13.3389 22.8257 13.6237V16.1457C22.8257 17.2423 22.8257 18.1112 22.7682 18.8117C22.7095 19.528 22.5869 20.1341 22.3039 20.6875C21.845 21.5849 21.1127 22.3145 20.212 22.7718C19.6566 23.0537 19.0483 23.1758 18.3294 23.2344C17.6264 23.2916 16.7542 23.2916 15.6535 23.2916H10.3466C9.24602 23.2916 8.37382 23.2916 7.6708 23.2344C6.95187 23.1758 6.34359 23.0537 5.78814 22.7718C4.88745 22.3145 4.15514 21.5849 3.69623 20.6875C3.41322 20.1341 3.29067 19.5281 3.23192 18.8117C3.17449 18.1112 3.17449 17.2422 3.17449 16.1457V13.6237C2.82793 13.3389 2.55278 12.9716 2.37768 12.5505C2.25647 12.2589 2.20947 11.9582 2.18767 11.6398C2.16673 11.3339 2.16673 10.9614 2.16675 10.5151V10.4644C2.16675 10.0181 2.16675 9.64558 2.18767 9.33975C2.20947 9.02135 2.25647 8.72061 2.37768 8.42903C2.65897 7.75246 3.19845 7.21493 3.8775 6.9347C4.17016 6.81393 4.47199 6.7671 4.79157 6.74538C5.09855 6.72451 5.47247 6.72451 5.92035 6.72454L8.27259 6.72451ZM9.81251 6.72451H16.1876C15.8464 5.28534 14.5488 4.21435 13.0001 4.21435C11.4513 4.21435 10.1537 5.28532 9.81251 6.72451ZM21.314 14.226C21.279 14.229 21.244 14.2317 21.2086 14.2341C20.9016 14.255 20.5277 14.255 20.0798 14.255H17.7869V14.506C17.7869 14.9219 17.4485 15.2591 17.0311 15.2591C16.6137 15.2591 16.2753 14.9219 16.2753 14.506V14.255H9.72488V14.506C9.72488 14.9219 9.38649 15.2591 8.96907 15.2591C8.55165 15.2591 8.21326 14.9219 8.21326 14.506V14.255H5.92035C5.47244 14.255 5.09855 14.255 4.79157 14.2341C4.75621 14.2317 4.72106 14.229 4.68611 14.226V16.1125C4.68611 17.2496 4.68671 18.0571 4.73852 18.689C4.78961 19.3122 4.88674 19.698 5.0431 20.0038C5.35711 20.6177 5.85814 21.117 6.47439 21.4298C6.78123 21.5856 7.16843 21.6824 7.7939 21.7333C8.42816 21.7848 9.23866 21.7855 10.3799 21.7855H15.6202C16.7615 21.7855 17.572 21.7848 18.2062 21.7333C18.8316 21.6824 19.2189 21.5856 19.5258 21.4298C20.142 21.1169 20.6431 20.6177 20.9571 20.0038C21.1134 19.698 21.2105 19.3122 21.2616 18.689C21.3134 18.0571 21.314 17.2496 21.314 16.1125L21.314 14.226ZM9.72486 12.7489H16.2752V12.4979C16.2752 12.082 16.6136 11.7448 17.0311 11.7448C17.4485 11.7448 17.7869 12.082 17.7869 12.4979V12.7489H20.0543C20.5342 12.7489 20.8563 12.7485 21.1057 12.7315C21.3483 12.715 21.4664 12.6854 21.5442 12.6534C21.8527 12.526 22.098 12.2816 22.2259 11.9742C22.258 11.8967 22.2878 11.779 22.3043 11.5373C22.3213 11.2888 22.3217 10.9679 22.3217 10.4898C22.3217 10.0116 22.3213 9.69074 22.3043 9.44229C22.2878 9.20057 22.258 9.08289 22.2259 9.00542C22.098 8.6979 21.8527 8.45355 21.5442 8.32616C21.4664 8.29408 21.3483 8.2645 21.1057 8.248C20.8563 8.23104 20.5342 8.23063 20.0543 8.23063H5.94579C5.46589 8.23063 5.14382 8.23102 4.89446 8.248C4.65186 8.2645 4.53374 8.29408 4.45598 8.32616C4.14734 8.45354 3.90208 8.6979 3.77423 9.00542C3.74203 9.08289 3.71235 9.20057 3.69579 9.44229C3.67876 9.69076 3.67835 10.0116 3.67835 10.4898C3.67835 10.9679 3.67874 11.2888 3.69579 11.5373C3.71235 11.779 3.74203 11.8967 3.77423 11.9742C3.90208 12.2816 4.14734 12.526 4.45598 12.6534C4.53374 12.6854 4.65186 12.7151 4.89446 12.7315C5.14385 12.7485 5.46591 12.7489 5.94579 12.7489H8.21323V12.4979C8.21323 12.082 8.55163 11.7448 8.96905 11.7448C9.38647 11.7448 9.72486 12.082 9.72486 12.4979V12.7489Z" fill="#3279F0"/>
</svg>
