<svg width="26" height="26" viewBox="0 0 26 26" fill="none" xmlns="http://www.w3.org/2000/svg">
<path d="M12.9874 2.16673C12.7721 2.17009 12.5669 2.25872 12.417 2.41317C12.267 2.56761 12.1845 2.77523 12.1876 2.99042V3.83631C6.31646 4.28016 2.16675 9.49414 2.16675 15.442C2.16687 15.6123 2.22057 15.7783 2.32025 15.9164C2.41993 16.0546 2.56054 16.1579 2.7222 16.2118C2.88386 16.2657 3.05838 16.2675 3.22108 16.2168C3.38378 16.1661 3.52642 16.0656 3.62882 15.9295L4.03296 15.3913C5.07749 13.9996 7.13107 14.0869 8.0542 15.5615L8.2478 15.8713C8.31368 15.9769 8.40296 16.0659 8.50875 16.1316C8.61453 16.1972 8.734 16.2377 8.85791 16.2498C8.98183 16.262 9.10688 16.2455 9.22342 16.2017C9.33995 16.1579 9.44486 16.0879 9.53003 15.9971C10.2705 15.2079 11.208 14.7322 12.1876 14.5623V20.179C12.1876 21.3094 11.2873 22.2092 10.1563 22.2092C8.9786 22.2092 8.12508 21.4448 8.12508 20.3144C8.1266 20.2068 8.10671 20.0999 8.06656 20.0001C8.02642 19.9002 7.96681 19.8093 7.89121 19.7327C7.81561 19.6561 7.72553 19.5952 7.62619 19.5537C7.52686 19.5121 7.42026 19.4907 7.31258 19.4907C7.20491 19.4907 7.0983 19.5121 6.99897 19.5537C6.89963 19.5952 6.80955 19.6561 6.73395 19.7327C6.65835 19.8093 6.59875 19.9002 6.5586 20.0001C6.51845 20.0999 6.49856 20.2068 6.50008 20.3144C6.50008 22.3228 8.19348 23.8333 10.1563 23.8333C12.1659 23.8333 13.8126 22.1875 13.8126 20.179V14.5623C14.7921 14.7322 15.7297 15.2079 16.4701 15.9971C16.5597 16.0925 16.6711 16.1649 16.7947 16.2081C16.9183 16.2512 17.0505 16.2639 17.18 16.245C17.3096 16.2261 17.4326 16.1762 17.5387 16.0995C17.6448 16.0229 17.7308 15.9217 17.7894 15.8047C18.5778 14.2286 20.6475 13.9639 21.8085 15.2897L22.4094 15.977C22.5183 16.1014 22.6626 16.1895 22.8229 16.2298C22.9832 16.27 23.152 16.2604 23.3068 16.2023C23.4615 16.1442 23.5948 16.0402 23.6889 15.9044C23.783 15.7685 23.8334 15.6072 23.8334 15.442C23.8334 9.49414 19.6837 4.28016 13.8126 3.83631V2.99042C13.8141 2.88173 13.7939 2.77383 13.7529 2.67312C13.712 2.57241 13.6513 2.48094 13.5743 2.40413C13.4973 2.32732 13.4057 2.26672 13.3049 2.22594C13.2041 2.18516 13.0961 2.16503 12.9874 2.16673ZM12.9017 5.43083C12.968 5.4394 13.0352 5.43976 13.1016 5.43188C17.7806 5.48305 21.271 9.01197 22.0413 13.5451C20.3805 12.5384 18.2919 12.8514 16.998 14.3191C14.6754 12.439 11.3455 12.434 9.01799 14.3053C7.73086 12.7967 5.62628 12.4702 3.97583 13.4193C4.78867 8.94512 8.26397 5.47995 12.9017 5.43083Z" fill="#14BC6B"/>
</svg>
