<svg width="24" height="24" viewBox="0 0 24 24" fill="none" xmlns="http://www.w3.org/2000/svg">
<g clip-path="url(#clip0_1259_9827)">
<path d="M12 24C11.8927 24 11.7854 23.9769 11.6858 23.9312L9.4395 22.8945C4.61648 20.6682 1.5 15.7977 1.5 10.4858V3.00004C1.5 2.61881 1.78597 2.29804 2.16502 2.25476C3.64635 2.08556 5.13503 1.83761 6.58883 1.51759C8.33205 1.13381 10.0682 0.637612 11.7499 0.0428625C11.9117 -0.0142875 12.0883 -0.0142875 12.2501 0.0428625C13.9318 0.637612 15.668 1.13381 17.4111 1.51759C18.865 1.83769 20.3536 2.08556 21.8349 2.25476C22.214 2.29796 22.4999 2.61881 22.4999 3.00004V10.4858C22.4999 15.7977 19.3835 20.6683 14.5605 22.8945L12.3142 23.9312C12.2146 23.9769 12.1073 24 12 24ZM3 3.66431V10.4858C3 15.2147 5.7744 19.5506 10.0679 21.5322L12 22.4239L13.9322 21.5322C18.2256 19.5506 21 15.2147 21 10.4858V3.66431C19.6879 3.49436 18.3754 3.26554 17.0889 2.98241C15.3721 2.60449 13.6612 2.12111 12 1.54466C10.3389 2.12111 8.62793 2.60449 6.9111 2.98241C5.62463 3.26546 4.31213 3.49436 3 3.66431Z" fill="#2B2D33"/>
<path d="M15 17.25H9C8.17275 17.25 7.5 16.5773 7.5 15.75V10.5C7.5 9.67275 8.17275 9 9 9H15C15.8273 9 16.5 9.67275 16.5 10.5V15.75C16.5 16.5773 15.8273 17.25 15 17.25ZM9 10.5V15.75H15.0011L15 10.5H9Z" fill="#2B2D33"/>
<path d="M14.25 10.5H9.75C9.33585 10.5 9 10.1642 9 9.75V8.25C9 6.5958 10.3458 5.25 12 5.25C13.6542 5.25 15 6.5958 15 8.25V9.75C15 10.1642 14.6642 10.5 14.25 10.5ZM10.5 9H13.5V8.25C13.5 7.42275 12.8273 6.75 12 6.75C11.1727 6.75 10.5 7.42275 10.5 8.25V9Z" fill="#2B2D33"/>
</g>
<defs>
<clipPath id="clip0_1259_9827">
<rect width="24" height="24" fill="white"/>
</clipPath>
</defs>
</svg>
