<svg width="26" height="26" viewBox="0 0 26 26" fill="none" xmlns="http://www.w3.org/2000/svg">
<path fill-rule="evenodd" clip-rule="evenodd" d="M13.0001 3.67825C7.85185 3.67825 3.67838 7.85172 3.67838 13C3.67838 18.1482 7.85185 22.3217 13.0001 22.3217C18.1483 22.3217 22.3218 18.1482 22.3218 13C22.3218 11.474 21.9557 10.0358 21.3073 8.76624C21.1174 8.3945 21.2649 7.93922 21.6366 7.74935C22.0084 7.55949 22.4636 7.70693 22.6535 8.07867C23.4081 9.5562 23.8334 11.2295 23.8334 13C23.8334 18.983 18.9832 23.8333 13.0001 23.8333C7.017 23.8333 2.16675 18.983 2.16675 13C2.16675 7.01687 7.017 2.16663 13.0001 2.16663C14.8118 2.16663 16.5217 2.61196 18.0242 3.39977C18.3939 3.59361 18.5365 4.05044 18.3426 4.42013C18.1488 4.78982 17.6919 4.93237 17.3223 4.73853C16.0311 4.06155 14.5615 3.67825 13.0001 3.67825Z" fill="#3279F0"/>
<path fill-rule="evenodd" clip-rule="evenodd" d="M22.6043 3.39575C22.8995 3.69091 22.8995 4.16947 22.6043 4.46463L13.5345 13.5344C13.2394 13.8296 12.7608 13.8296 12.4656 13.5344C12.1705 13.2392 12.1705 12.7607 12.4656 12.4655L21.5354 3.39575C21.8306 3.10059 22.3091 3.10059 22.6043 3.39575Z" fill="#3279F0"/>
<path fill-rule="evenodd" clip-rule="evenodd" d="M13.0001 7.20539C9.79983 7.20539 7.20551 9.7997 7.20551 13C7.20551 16.2002 9.79983 18.7945 13.0001 18.7945C16.2003 18.7945 18.7947 16.2002 18.7947 13C18.7947 12.397 18.7028 11.8169 18.5329 11.2722C18.4086 10.8737 18.6309 10.4499 19.0294 10.3256C19.4279 10.2013 19.8517 10.4236 19.976 10.8221C20.1908 11.5109 20.3063 12.2426 20.3063 13C20.3063 17.0351 17.0352 20.3062 13.0001 20.3062C8.96498 20.3062 5.69388 17.0351 5.69388 13C5.69388 8.96486 8.96498 5.69376 13.0001 5.69376C13.7452 5.69376 14.4656 5.80555 15.1447 6.01379C15.5438 6.13616 15.7681 6.55889 15.6457 6.95797C15.5233 7.35706 15.1006 7.58137 14.7015 7.45899C14.1644 7.29429 13.5933 7.20539 13.0001 7.20539Z" fill="#3279F0"/>
<path fill-rule="evenodd" clip-rule="evenodd" d="M12.0411 9.87319C12.2527 10.233 12.1325 10.6962 11.7727 10.9078C11.0539 11.3305 10.5742 12.1101 10.5742 13.0009C10.5742 14.3407 11.6603 15.4268 13.0001 15.4268C14.0128 15.4268 14.8824 14.806 15.2455 13.9213C15.404 13.5351 15.8455 13.3506 16.2317 13.5091C16.6179 13.6676 16.8024 14.1091 16.6439 14.4953C16.056 15.9275 14.647 16.9384 13.0001 16.9384C10.8255 16.9384 9.06257 15.1755 9.06257 13.0009C9.06257 11.5526 9.84492 10.2879 11.0064 9.60481C11.3663 9.39321 11.8295 9.51337 12.0411 9.87319Z" fill="#3279F0"/>
</svg>
