<svg width="26" height="26" viewBox="0 0 26 26" fill="none" xmlns="http://www.w3.org/2000/svg">
<path d="M14.4109 18.462H11.8815C10.2288 18.462 8.88847 17.0713 8.88847 15.3581C8.88847 14.9449 9.2311 14.6023 9.64428 14.6023C10.0575 14.6023 10.4001 14.9449 10.4001 15.3581C10.4001 16.2348 11.0652 16.9503 11.8815 16.9503H14.4109C15.066 16.9503 15.6102 16.3659 15.6102 15.6604C15.6102 14.7837 15.2977 14.6124 14.7838 14.431L10.7226 13C9.93651 12.7279 8.87838 12.1434 8.87838 10.3395C8.87838 8.78756 10.0978 7.53794 11.5892 7.53794H14.1187C15.7714 7.53794 17.1117 8.92864 17.1117 10.6418C17.1117 11.055 16.7691 11.3976 16.3559 11.3976C15.9427 11.3976 15.6001 11.055 15.6001 10.6418C15.6001 9.76508 14.935 9.04957 14.1187 9.04957H11.5892C10.9342 9.04957 10.39 9.63407 10.39 10.3395C10.39 11.2162 10.7024 11.3876 11.2164 11.569L15.2776 13C16.0637 13.2721 17.1218 13.8565 17.1218 15.6604C17.1117 17.2023 15.9024 18.462 14.4109 18.462Z" fill="#E42828"/>
<path d="M13.0001 19.8023C12.5869 19.8023 12.2443 19.4597 12.2443 19.0465V6.95345C12.2443 6.54027 12.5869 6.19763 13.0001 6.19763C13.4133 6.19763 13.7559 6.54027 13.7559 6.95345V19.0465C13.7559 19.4597 13.4133 19.8023 13.0001 19.8023Z" fill="#E42828"/>
<path d="M13.0001 23.8333C7.02411 23.8333 2.16675 18.9759 2.16675 13C2.16675 7.02399 7.02411 2.16663 13.0001 2.16663C18.9761 2.16663 23.8334 7.02399 23.8334 13C23.8334 18.9759 18.9761 23.8333 13.0001 23.8333ZM13.0001 3.67825C7.86055 3.67825 3.67838 7.86042 3.67838 13C3.67838 18.1395 7.86055 22.3217 13.0001 22.3217C18.1396 22.3217 22.3218 18.1395 22.3218 13C22.3218 7.86042 18.1396 3.67825 13.0001 3.67825Z" fill="#E42828"/>
</svg>
