<svg width="26" height="26" viewBox="0 0 26 26" fill="none" xmlns="http://www.w3.org/2000/svg">
<path d="M14.0834 24.6458H9.75008C3.86758 24.6458 1.35425 22.1325 1.35425 16.25V9.74996C1.35425 3.86746 3.86758 1.35413 9.75008 1.35413H16.2501C22.1326 1.35413 24.6459 3.86746 24.6459 9.74996V14.0833C24.6459 14.5275 24.2776 14.8958 23.8334 14.8958C23.3892 14.8958 23.0209 14.5275 23.0209 14.0833V9.74996C23.0209 4.75579 21.2442 2.97913 16.2501 2.97913H9.75008C4.75591 2.97913 2.97925 4.75579 2.97925 9.74996V16.25C2.97925 21.2441 4.75591 23.0208 9.75008 23.0208H14.0834C14.5276 23.0208 14.8959 23.3891 14.8959 23.8333C14.8959 24.2775 14.5276 24.6458 14.0834 24.6458Z" fill="#ECA518"/>
<path d="M7.94102 16.51C7.76768 16.51 7.59436 16.4558 7.44269 16.3367C7.08519 16.0658 7.02021 15.5567 7.29104 15.1992L9.86935 11.8517C10.1835 11.4508 10.6277 11.1908 11.1369 11.1258C11.646 11.0608 12.1443 11.2017 12.5452 11.5158L14.5277 13.0758C14.6035 13.1408 14.6794 13.13 14.7335 13.13C14.7769 13.13 14.8527 13.1083 14.9177 13.0217L17.4202 9.79333C17.691 9.43583 18.2002 9.37085 18.5577 9.65251C18.9152 9.92335 18.9802 10.4325 18.6985 10.79L16.196 14.0183C15.8819 14.4192 15.4377 14.6792 14.9285 14.7333C14.4302 14.7983 13.921 14.6575 13.531 14.3433L11.5485 12.7833C11.4727 12.7183 11.386 12.7183 11.3427 12.7292C11.2994 12.7292 11.2235 12.7508 11.1585 12.8375L8.58021 16.185C8.42855 16.4017 8.19018 16.51 7.94102 16.51Z" fill="#ECA518"/>
<path d="M21.9487 24.646C21.5696 24.646 21.0821 24.5269 20.5079 24.1802L20.2371 24.0177C20.1612 23.9744 19.9337 23.9744 19.8579 24.0177L19.5871 24.1802C18.3412 24.9277 17.5504 24.6135 17.2037 24.3535C16.8462 24.0935 16.2937 23.4435 16.6187 22.0135L16.6729 21.786C16.6946 21.6994 16.6296 21.4935 16.5754 21.4285L16.1963 21.0494C15.5571 20.3994 15.3079 19.641 15.5246 18.9585C15.7412 18.2869 16.3804 17.8102 17.2796 17.6585L17.6912 17.5935C17.7671 17.5719 17.9187 17.4635 17.9621 17.3877L18.2654 16.7702C18.6879 15.9144 19.3379 15.4269 20.0529 15.4269C20.7679 15.4269 21.4179 15.9144 21.8404 16.7702L22.1437 17.3769C22.1871 17.4527 22.3387 17.561 22.4146 17.5827L22.8262 17.6477C23.7254 17.7994 24.3646 18.276 24.5812 18.9477C24.7979 19.6194 24.5596 20.3777 23.9096 21.0385L23.5304 21.4177C23.4762 21.4827 23.4112 21.6885 23.4329 21.7752L23.4871 22.0027C23.8121 23.4327 23.2596 24.0827 22.9021 24.3427C22.7071 24.4944 22.3929 24.646 21.9487 24.646ZM20.0312 17.0627C20.0204 17.0735 19.8688 17.1819 19.7171 17.496L19.4138 18.1135C19.1538 18.6444 18.5362 19.0994 17.9621 19.1969L17.5504 19.2619C17.2038 19.316 17.0846 19.4352 17.0737 19.4569C17.0737 19.4785 17.1062 19.6519 17.3554 19.901L17.7346 20.2802C18.1787 20.7352 18.4062 21.5152 18.2654 22.1327L18.2112 22.3602C18.1137 22.7827 18.1571 22.9669 18.1787 23.0319C18.2112 23.0102 18.3954 22.9885 18.7529 22.7719L19.0237 22.6094C19.6196 22.2519 20.4754 22.2519 21.0713 22.6094L21.3421 22.7719C21.7863 23.0427 21.9704 23.0102 21.9812 23.0102C21.9379 23.0102 21.9921 22.7935 21.8946 22.3602L21.8404 22.1327C21.6996 21.5044 21.9271 20.7352 22.3712 20.2802L22.7504 19.901C22.9996 19.6519 23.0321 19.4785 23.0321 19.446C23.0212 19.4244 22.9021 19.316 22.5554 19.251L22.1437 19.186C21.5587 19.0885 20.9521 18.6335 20.6921 18.1027L20.3887 17.496C20.2154 17.171 20.0637 17.0735 20.0312 17.0627Z" fill="#ECA518"/>
</svg>
