<svg width="26" height="26" viewBox="0 0 26 26" fill="none" xmlns="http://www.w3.org/2000/svg">
<path d="M11.9941 15.8696C10.1076 15.8696 8.56751 14.3288 8.56751 12.4414C8.56751 10.554 10.1076 9.01328 11.9941 9.01328C13.8807 9.01328 15.4208 10.554 15.4208 12.4414C15.4208 14.3288 13.8807 15.8696 11.9941 15.8696ZM11.9941 10.4674C10.9065 10.4674 10.0113 11.3533 10.0113 12.4511C10.0113 13.5488 10.8968 14.4348 11.9941 14.4348C13.0914 14.4348 13.977 13.5488 13.977 12.4511C13.977 11.3533 13.0914 10.4674 11.9941 10.4674Z" fill="#3279F0"/>
<path d="M16.9898 22.1C16.5952 22.1 16.2679 21.7726 16.2679 21.3778C16.2679 19.5289 14.3525 18.0266 11.9942 18.0266C9.63604 18.0266 7.72059 19.5289 7.72059 21.3778C7.72059 21.7726 7.39333 22.1 6.99869 22.1C6.60405 22.1 6.27679 21.7726 6.27679 21.3778C6.27679 18.7392 8.83713 16.5822 11.9942 16.5822C15.1514 16.5822 17.7117 18.7296 17.7117 21.3778C17.7117 21.7726 17.3844 22.1 16.9898 22.1Z" fill="#3279F0"/>
<path d="M12.0327 23.8333C6.59441 23.8333 2.16675 19.4037 2.16675 13.9629C2.16675 8.52218 6.59441 4.09255 12.0327 4.09255C13.3707 4.09255 14.6605 4.35254 15.8733 4.86291C16.2198 5.00736 16.393 5.39252 16.2775 5.74882C16.1716 6.0666 16.1235 6.40366 16.1235 6.7407C16.1235 7.30885 16.2775 7.86735 16.5759 8.34883C16.7299 8.61846 16.932 8.85919 17.163 9.06142C18.0005 9.82216 19.2421 10.0629 20.2143 9.71628C20.5704 9.58147 20.9747 9.76441 21.1191 10.1207C21.6388 11.3437 21.8987 12.6437 21.8987 13.9726C21.8987 19.4037 17.4711 23.8333 12.0327 23.8333ZM12.0327 5.537C7.39331 5.537 3.61055 9.31181 3.61055 13.9629C3.61055 18.614 7.39331 22.3888 12.0327 22.3888C16.6722 22.3888 20.4549 18.614 20.4549 13.9629C20.4549 13.0385 20.3009 12.1237 20.0121 11.2474C18.6839 11.4785 17.2304 11.0644 16.2101 10.1303C15.8732 9.84146 15.5749 9.48515 15.3439 9.09033C14.9203 8.397 14.6893 7.57848 14.6893 6.7407C14.6893 6.4807 14.7086 6.23035 14.7567 5.97998C13.8808 5.68146 12.9664 5.537 12.0327 5.537Z" fill="#3279F0"/>
<path d="M19.2517 11.3148C18.116 11.3148 17.0379 10.8911 16.2005 10.1303C15.8636 9.84146 15.5652 9.48515 15.3342 9.09033C14.9107 8.397 14.6797 7.57848 14.6797 6.7407C14.6797 6.24959 14.7567 5.76812 14.9107 5.30589C15.1225 4.65108 15.4882 4.04441 15.9791 3.5533C16.8454 2.66737 18.0101 2.16663 19.2614 2.16663C20.5704 2.16663 21.8121 2.72516 22.6591 3.68812C23.4099 4.5259 23.8334 5.6044 23.8334 6.7407C23.8334 7.10663 23.7853 7.47255 23.689 7.81921C23.5928 8.25255 23.4099 8.70516 23.1596 9.09997C22.6014 10.0437 21.7158 10.7466 20.6763 11.074C20.2432 11.2377 19.7619 11.3148 19.2517 11.3148ZM19.2517 3.61107C18.3951 3.61107 17.5962 3.94809 17.009 4.55476C16.6721 4.90142 16.4315 5.29623 16.2871 5.74882C16.1813 6.0666 16.1331 6.40366 16.1331 6.7407C16.1331 7.30885 16.2871 7.86735 16.5855 8.34883C16.7395 8.61846 16.9417 8.85919 17.1727 9.06142C18.0101 9.82216 19.2517 10.0629 20.2239 9.71628C20.9554 9.48517 21.5522 9.00366 21.9372 8.35847C22.1105 8.07921 22.226 7.78072 22.2934 7.4822C22.3607 7.23183 22.3896 6.99107 22.3896 6.7407C22.3896 5.97033 22.1008 5.22886 21.5811 4.65109C20.9939 3.98664 20.1469 3.61107 19.2517 3.61107Z" fill="#3279F0"/>
<path d="M20.6859 7.44364H17.8079C17.4133 7.44364 17.086 7.11624 17.086 6.72142C17.086 6.32661 17.4133 5.9992 17.8079 5.9992H20.6859C21.0806 5.9992 21.4078 6.32661 21.4078 6.72142C21.4078 7.11624 21.0902 7.44364 20.6859 7.44364Z" fill="#3279F0"/>
<path d="M19.2517 8.91701C18.8571 8.91701 18.5298 8.5896 18.5298 8.19478V5.31553C18.5298 4.92072 18.8571 4.59331 19.2517 4.59331C19.6464 4.59331 19.9736 4.92072 19.9736 5.31553V8.19478C19.9736 8.59923 19.6464 8.91701 19.2517 8.91701Z" fill="#3279F0"/>
</svg>
