<svg width="26" height="26" viewBox="0 0 26 26" fill="none" xmlns="http://www.w3.org/2000/svg">
<path d="M15.6946 23.8334H10.3547C5.46977 23.8334 3.39317 21.7071 3.39317 16.7388V12.214C3.39317 11.8009 3.72938 11.4582 4.13482 11.4582C4.54025 11.4582 4.87646 11.8009 4.87646 12.214V16.7388C4.87646 20.8605 6.3103 22.3218 10.3547 22.3218H15.6847C19.7291 22.3218 21.1629 20.8605 21.1629 16.7388V12.214C21.1629 11.8009 21.4991 11.4582 21.9046 11.4582C22.31 11.4582 22.6462 11.8009 22.6462 12.214V16.7388C22.6561 21.7071 20.5696 23.8334 15.6946 23.8334Z" fill="#14BC6B"/>
<path d="M13.0246 13.7559C11.9369 13.7559 10.948 13.3226 10.246 12.5264C9.54386 11.7303 9.21754 10.6923 9.32632 9.5838L9.98885 2.85202C10.0284 2.46907 10.3448 2.16675 10.7305 2.16675H15.3485C15.7341 2.16675 16.0505 2.459 16.0901 2.85202L16.7526 9.5838C16.8614 10.6923 16.5351 11.7303 15.833 12.5264C15.1012 13.3226 14.1124 13.7559 13.0246 13.7559ZM11.393 3.67838L10.7997 9.73497C10.7305 10.4102 10.9283 11.045 11.3436 11.5086C12.1841 12.4559 13.8652 12.4559 14.7057 11.5086C15.121 11.035 15.3188 10.4001 15.2496 9.73497L14.6563 3.67838H11.393Z" fill="#14BC6B"/>
<path d="M19.2643 13.7559C17.2569 13.7559 15.4671 12.1032 15.2595 10.0675L14.5673 3.00318C14.5475 2.79155 14.6167 2.57993 14.7551 2.41869C14.8936 2.25745 15.0914 2.16675 15.3089 2.16675H18.3249C21.2322 2.16675 22.5869 3.40628 22.9923 6.44969L23.2692 9.25124C23.3879 10.4404 23.0319 11.5691 22.2705 12.4257C21.509 13.2823 20.4411 13.7559 19.2643 13.7559ZM16.1297 3.67838L16.7427 9.91636C16.8713 11.1761 18.0184 12.2443 19.2643 12.2443C20.0159 12.2443 20.6883 11.952 21.1728 11.4179C21.6475 10.8838 21.865 10.1683 21.7958 9.40241L21.5189 6.63109C21.2124 4.35357 20.4905 3.67838 18.3249 3.67838H16.1297Z" fill="#14BC6B"/>
<path d="M6.73551 13.7559C5.55877 13.7559 4.4908 13.2823 3.72938 12.4257C2.96796 11.5691 2.61198 10.4404 2.73064 9.25124L2.99763 6.47993C3.41295 3.40628 4.76768 2.16675 7.67492 2.16675H10.6909C10.8986 2.16675 11.0964 2.25745 11.2447 2.41869C11.393 2.57993 11.4524 2.79155 11.4326 3.00318L10.7404 10.0675C10.5327 12.1032 8.74289 13.7559 6.73551 13.7559ZM7.67492 3.67838C5.50933 3.67838 4.78746 4.34349 4.47103 6.65124L4.20404 9.40241C4.12493 10.1683 4.35236 10.8838 4.82702 11.4179C5.30167 11.952 5.97409 12.2443 6.73551 12.2443C7.98147 12.2443 9.13843 11.1761 9.25709 9.91636L9.87019 3.67838H7.67492Z" fill="#14BC6B"/>
<path d="M15.4968 23.8334H10.5525C10.1471 23.8334 9.81085 23.4908 9.81085 23.0776V20.5582C9.81085 18.4419 10.948 17.283 13.0246 17.283C15.1012 17.283 16.2384 18.4419 16.2384 20.5582V23.0776C16.2384 23.4908 15.9022 23.8334 15.4968 23.8334ZM11.2941 22.3218H14.7551V20.5582C14.7551 19.2885 14.2706 18.7947 13.0246 18.7947C11.7787 18.7947 11.2941 19.2885 11.2941 20.5582V22.3218Z" fill="#14BC6B"/>
</svg>
