<svg width="26" height="26" viewBox="0 0 26 26" fill="none" xmlns="http://www.w3.org/2000/svg">
<path d="M17.4465 23.8334H8.52776C6.82139 23.8334 5.54163 23.3699 4.74797 22.4528C3.95431 21.5357 3.64676 20.2055 3.8551 18.4823L4.74797 10.9241C5.00591 8.69698 5.56147 6.70163 9.43054 6.70163H16.5735C20.4326 6.70163 20.9882 8.69698 21.256 10.9241L22.1489 18.4823C22.3473 20.2055 22.0497 21.5458 21.256 22.4528C20.4326 23.3699 19.1628 23.8334 17.4465 23.8334ZM9.42061 8.21326C6.56345 8.21326 6.42456 9.36208 6.21623 11.0954L5.32337 18.6536C5.17456 19.9334 5.35313 20.8706 5.85908 21.445C6.36504 22.0195 7.25791 22.3117 8.52776 22.3117H17.4465C18.7163 22.3117 19.6092 22.0195 20.1151 21.445C20.6211 20.8706 20.7997 19.9334 20.6509 18.6536L19.758 11.0954C19.5497 9.35201 19.4207 8.21326 16.5536 8.21326H9.42061Z" fill="#E42828"/>
<path d="M16.9604 9.72489C16.5537 9.72489 16.2164 9.38225 16.2164 8.96907V5.44194C16.2164 4.35357 15.5517 3.67838 14.4802 3.67838H11.504C10.4326 3.67838 9.76791 4.35357 9.76791 5.44194V8.96907C9.76791 9.38225 9.43061 9.72489 9.02386 9.72489C8.61711 9.72489 8.2798 9.38225 8.2798 8.96907V5.44194C8.2798 3.51714 9.60918 2.16675 11.504 2.16675H14.4802C16.3751 2.16675 17.7045 3.51714 17.7045 5.44194V8.96907C17.7045 9.38225 17.3672 9.72489 16.9604 9.72489Z" fill="#E42828"/>
<path d="M21.3355 18.8249H9.02386C8.61711 18.8249 8.2798 18.4823 8.2798 18.0691C8.2798 17.6559 8.61711 17.3133 9.02386 17.3133H21.3355C21.7422 17.3133 22.0795 17.6559 22.0795 18.0691C22.0795 18.4823 21.7422 18.8249 21.3355 18.8249Z" fill="#E42828"/>
</svg>
