<svg width="26" height="26" viewBox="0 0 26 26" fill="none" xmlns="http://www.w3.org/2000/svg">
<path d="M16.7325 4.54492C18.3779 4.54492 19.7117 5.87874 19.7117 7.52409V9.21149H21.0436C22.6894 9.21149 24.0228 10.5467 24.0228 12.1916V20.5226C24.0228 21.5772 22.7894 22.1606 21.976 21.4778L20.4071 20.1608C20.1632 19.9561 19.8549 19.8438 19.5364 19.8438H12.9884C11.3431 19.8438 10.0093 18.51 10.0093 16.8646V12.1907C10.0093 10.5453 11.3431 9.21149 12.9884 9.21149H18.0867V7.52409C18.0867 6.7762 17.4804 6.16992 16.7325 6.16992H5.18083C4.43345 6.16992 3.82666 6.77674 3.82666 7.52513V18.2694L5.58684 16.7918C6.12346 16.3414 6.80166 16.0945 7.50228 16.0945H8.4899C8.93863 16.0945 9.3024 16.4582 9.3024 16.907C9.3024 17.3557 8.93863 17.7194 8.4899 17.7194H7.50228C7.18381 17.7194 6.87554 17.8317 6.63163 18.0364L4.24849 20.037C3.43463 20.7201 2.20166 20.1357 2.20166 19.0816V7.52513C2.20166 5.8803 3.53497 4.54492 5.18083 4.54492H16.7325ZM11.6343 12.1907V16.8646C11.6343 17.6125 12.2406 18.2188 12.9884 18.2188H19.5364C20.237 18.2188 20.9153 18.4657 21.4519 18.9162L22.3978 19.7102V12.1916C22.3978 11.4432 21.7911 10.8365 21.0436 10.8365H12.9884C12.2406 10.8365 11.6343 11.4428 11.6343 12.1907Z" fill="#ECA518"/>
</svg>
