<svg width="26" height="26" viewBox="0 0 26 26" fill="none" xmlns="http://www.w3.org/2000/svg">
<path d="M13.0001 23.8333C7.02411 23.8333 2.16675 18.9759 2.16675 13C2.16675 7.02399 7.02411 2.16663 13.0001 2.16663C18.9761 2.16663 23.8334 7.02399 23.8334 13C23.8334 18.9759 18.9761 23.8333 13.0001 23.8333ZM13.0001 3.67825C7.86055 3.67825 3.67838 7.86042 3.67838 13C3.67838 18.1395 7.86055 22.3217 13.0001 22.3217C18.1396 22.3217 22.3218 18.1395 22.3218 13C22.3218 7.86042 18.1396 3.67825 13.0001 3.67825Z" fill="#14BC6B"/>
<path d="M11.5691 16.6077C11.3675 16.6077 11.1761 16.5271 11.035 16.386L8.18303 13.5341C7.89078 13.2418 7.89078 12.7581 8.18303 12.4659C8.47528 12.1736 8.959 12.1736 9.25124 12.4659L11.5691 14.7837L16.7489 9.60384C17.0412 9.31159 17.5249 9.31159 17.8171 9.60384C18.1094 9.89608 18.1094 10.3798 17.8171 10.6721L12.1032 16.386C11.9621 16.5271 11.7706 16.6077 11.5691 16.6077Z" fill="#14BC6B"/>
</svg>
