<svg width="26" height="26" viewBox="0 0 26 26" fill="none" xmlns="http://www.w3.org/2000/svg">
<path d="M11.9929 16.4609C11.7997 16.4609 11.6065 16.3897 11.454 16.2372L9.92891 14.7121C9.63405 14.4172 9.63405 13.9292 9.92891 13.6344C10.2238 13.3395 10.7118 13.3395 11.0067 13.6344L11.9929 14.6206L15.521 11.0925C15.8159 10.7976 16.3039 10.7976 16.5988 11.0925C16.8936 11.3873 16.8936 11.8754 16.5988 12.1702L12.5318 16.2372C12.3894 16.3897 12.1861 16.4609 11.9929 16.4609Z" fill="#ECA518"/>
<path d="M17.1821 23.8337H9.12007C6.07666 23.8337 4.33325 22.0903 4.33325 19.047V9.22155C4.33325 6.04719 5.94565 4.43481 9.12007 4.43481C9.53325 4.43481 9.87589 4.77744 9.87589 5.19062C9.87589 5.59371 10.0371 5.97665 10.3193 6.25881C10.6015 6.54098 10.9844 6.70222 11.3875 6.70222H14.9146C15.7511 6.70222 16.4263 6.02703 16.4263 5.19062C16.4263 4.77744 16.7689 4.43481 17.1821 4.43481C20.3565 4.43481 21.9689 6.04719 21.9689 9.22155V19.047C21.9689 22.0903 20.2255 23.8337 17.1821 23.8337ZM8.46501 5.96657C6.87276 6.09758 5.84488 6.81307 5.84488 9.22155V19.047C5.84488 21.2841 6.88286 22.3221 9.12007 22.3221H17.1821C19.4193 22.3221 20.4573 21.2841 20.4573 19.047V9.22155C20.4573 6.81307 19.4294 6.10766 17.8372 5.96657C17.4945 7.25647 16.3154 8.21382 14.9146 8.21382H11.3875C10.5813 8.21382 9.8255 7.90142 9.25109 7.32701C8.86814 6.94407 8.6061 6.48052 8.46501 5.96657Z" fill="#ECA518"/>
<path d="M14.9144 8.21315H11.3873C10.5811 8.21315 9.82526 7.90075 9.25084 7.32634C8.67642 6.75193 8.36401 5.99614 8.36401 5.18995C8.36401 3.52719 9.72448 2.16675 11.3873 2.16675H14.9144C15.7206 2.16675 16.4764 2.47915 17.0508 3.05356C17.6252 3.62797 17.9377 4.38376 17.9377 5.18995C17.9377 6.85271 16.5772 8.21315 14.9144 8.21315ZM11.3873 3.67835C10.5508 3.67835 9.87564 4.35353 9.87564 5.18995C9.87564 5.59304 10.0369 5.97598 10.3191 6.25815C10.6012 6.54031 10.9842 6.70155 11.3873 6.70155H14.9144C15.7508 6.70155 16.426 6.02637 16.426 5.18995C16.426 4.78686 16.2648 4.40392 15.9826 4.12175C15.7004 3.83959 15.3175 3.67835 14.9144 3.67835H11.3873Z" fill="#ECA518"/>
</svg>
