<svg width="26" height="26" viewBox="0 0 26 26" fill="none" xmlns="http://www.w3.org/2000/svg">
<path d="M13.0161 18.0391C12.1111 18.0391 11.1954 17.8174 10.4821 17.3841L4.07256 13.4238C2.8801 12.6882 2.16675 11.4487 2.16675 10.0984C2.16675 8.74813 2.8801 7.50867 4.07256 6.77305L10.4927 2.82289C11.9194 1.9462 14.1446 1.9462 15.5607 2.83297L21.9382 6.7932C23.1201 7.52882 23.8334 8.76828 23.8334 10.1085C23.8334 11.4487 23.1201 12.6882 21.9382 13.4238L15.5607 17.3841C14.8473 17.8274 13.9317 18.0391 13.0161 18.0391ZM13.0161 3.67943C12.4092 3.67943 11.8023 3.81043 11.3658 4.09259L4.95626 8.04274C4.21097 8.50628 3.77445 9.25197 3.77445 10.0984C3.77445 10.9449 4.20033 11.6906 4.95626 12.1541L11.3658 16.1144C12.2495 16.6585 13.8039 16.6585 14.6876 16.1144L21.0652 12.1541C21.8105 11.6906 22.2364 10.9449 22.2364 10.0984C22.2364 9.25197 21.8105 8.50628 21.0652 8.04274L14.6876 4.08251C14.2405 3.82051 13.6336 3.67943 13.0161 3.67943Z" fill="#E42828"/>
<path d="M13.0054 23.8333C12.5369 23.8333 12.0578 23.7728 11.6745 23.6519L8.27813 22.5838C6.67043 22.0799 5.40344 20.4172 5.41409 18.815L5.42473 14.0889C5.42473 13.6757 5.78673 13.3331 6.22326 13.3331C6.65979 13.3331 7.02179 13.6757 7.02179 14.0889L7.01114 18.815C7.01114 19.7622 7.8416 20.8505 8.78919 21.1528L12.1856 22.221C12.6115 22.352 13.3993 22.352 13.8252 22.221L17.2216 21.1528C18.1692 20.8505 18.9997 19.7622 18.9997 18.8251V14.1494C18.9997 13.7362 19.3617 13.3936 19.7982 13.3936C20.2347 13.3936 20.5967 13.7362 20.5967 14.1494V18.8251C20.5967 20.4273 19.3404 22.0799 17.7327 22.5938L14.3363 23.662C13.953 23.7728 13.4739 23.8333 13.0054 23.8333Z" fill="#E42828"/>
<path d="M23.0136 16.7794C22.5771 16.7794 22.2151 16.4368 22.2151 16.0237V9.97751C22.2151 9.56436 22.5771 9.22174 23.0136 9.22174C23.4501 9.22174 23.8121 9.56436 23.8121 9.97751V16.0237C23.8121 16.4368 23.4501 16.7794 23.0136 16.7794Z" fill="#E42828"/>
</svg>
