<svg width="24" height="24" viewBox="0 0 24 24" fill="none" xmlns="http://www.w3.org/2000/svg">
<path d="M21.0751 8.1C20.3251 7.275 19.3501 6.75 18.2251 6.75H16.1251V5.625C16.1251 3.375 14.2501 1.5 12.0001 1.5C9.75008 1.5 7.87508 3.375 7.87508 5.625V10.5C7.87508 10.95 8.17508 11.25 8.62508 11.25C9.07508 11.25 9.37508 10.95 9.37508 10.5V8.25H18.2251C18.9001 8.25 19.5001 8.55 19.9501 9.075C20.4001 9.6 20.5501 10.2 20.4751 10.875L19.2001 19.125C19.0501 20.25 18.0751 21 16.9501 21H7.05008C5.92508 21 5.02508 20.175 4.80008 19.125L3.52508 10.875C3.45008 10.2 3.60008 9.6 4.05008 9.075C4.50008 8.55 5.10008 8.25 5.77508 8.25H6.00008C6.45008 8.25 6.75008 7.95 6.75008 7.5C6.75008 7.05 6.45008 6.75 6.00008 6.75H5.77508C4.65008 6.75 3.60008 7.2 2.92508 8.1C2.25008 9 1.87508 10.05 2.10008 11.1L3.37508 19.35C3.67508 21.15 5.17508 22.5 7.05008 22.5H16.9501C18.8251 22.5 20.4001 21.15 20.6251 19.35L21.9001 11.1C22.1251 9.975 21.8251 8.925 21.0751 8.1ZM9.37508 5.625C9.37508 4.2 10.5751 3 12.0001 3C13.4251 3 14.6251 4.2 14.6251 5.625V6.75H9.37508V5.625Z" fill="#2B2D33"/>
<path d="M10.5 18.3749C10.35 18.3749 10.275 18.3749 10.125 18.2999C9.9 18.1499 9.75 17.9249 9.75 17.6249V12.7499C9.75 12.4499 9.9 12.2249 10.125 12.0749C10.35 11.9249 10.65 11.9249 10.875 12.0749L15.075 14.5499C15.3 14.6999 15.45 14.9249 15.45 15.2249C15.45 15.5249 15.3 15.7499 15.075 15.8999L10.875 18.3749C10.725 18.3749 10.65 18.3749 10.5 18.3749ZM11.25 14.0249V16.2749L13.2 15.1499L11.25 14.0249Z" fill="#2B2D33"/>
</svg>
