<svg width="26" height="26" viewBox="0 0 26 26" fill="none" xmlns="http://www.w3.org/2000/svg">
<path d="M13 23.8333C12.3361 23.8333 11.6623 23.662 11.0678 23.3094L5.18216 19.8536C3.99314 19.1483 3.25 17.8486 3.25 16.4482V9.55677C3.25 8.15632 3.99314 6.85662 5.18216 6.15136L11.0678 2.69557C12.2569 1.99031 13.7332 1.99031 14.9322 2.69557L20.8178 6.15136C22.0069 6.85662 22.75 8.15632 22.75 9.55677V16.4482C22.75 17.8486 22.0069 19.1483 20.8178 19.8536L14.9322 23.3094C14.3377 23.662 13.6639 23.8333 13 23.8333ZM13 3.68292C12.5938 3.68292 12.1776 3.79376 11.811 4.00534L5.9253 7.46112C5.19207 7.89435 4.73628 8.69031 4.73628 9.55677V16.4482C4.73628 17.3046 5.19207 18.1106 5.9253 18.5438L11.811 21.9996C12.5442 22.4328 13.4558 22.4328 14.189 21.9996L20.0747 18.5438C20.8079 18.1106 21.2637 17.3146 21.2637 16.4482V9.55677C21.2637 8.70038 20.8079 7.89435 20.0747 7.46112L14.189 4.00534C13.8224 3.79376 13.4062 3.68292 13 3.68292Z" fill="#ECA518"/>
<path d="M13 13C11.2062 13 9.75 11.5438 9.75 9.74997C9.75 7.95613 11.2062 6.5 13 6.5C14.7938 6.5 16.25 7.95613 16.25 9.74997C16.25 11.5438 14.7938 13 13 13ZM13 8.0828C12.082 8.0828 11.3328 8.83194 11.3328 9.74997C11.3328 10.668 12.082 11.4172 13 11.4172C13.918 11.4172 14.6672 10.668 14.6672 9.74997C14.6672 8.83194 13.918 8.0828 13 8.0828Z" fill="#ECA518"/>
<path d="M16.6492 18.4167C16.2752 18.4167 15.965 18.1072 15.965 17.7339C15.965 16.4776 14.6331 15.4489 13.0001 15.4489C11.3671 15.4489 10.0352 16.4776 10.0352 17.7339C10.0352 18.1072 9.72499 18.4167 9.35096 18.4167C8.97692 18.4167 8.66675 18.1072 8.66675 17.7339C8.66675 15.722 10.6099 14.0834 13.0001 14.0834C15.3903 14.0834 17.3334 15.722 17.3334 17.7339C17.3334 18.1072 17.0232 18.4167 16.6492 18.4167Z" fill="#ECA518"/>
</svg>
