<svg width="24" height="24" viewBox="0 0 24 24" fill="none" xmlns="http://www.w3.org/2000/svg">
<path d="M4.61535 9.69261H12C12.2552 9.69261 12.4615 9.4863 12.4615 9.23107C12.4615 8.97584 12.2552 8.76953 12 8.76953H4.61535C4.36012 8.76953 4.15381 8.97584 4.15381 9.23107C4.15381 9.4863 4.36012 9.69261 4.61535 9.69261Z" fill="#2B2D33" stroke="#2B2D33" stroke-width="0.4"/>
<path d="M4.61535 12.9231H8.30765C8.56289 12.9231 8.76919 12.7168 8.76919 12.4615C8.76919 12.2063 8.56289 12 8.30765 12H4.61535C4.36012 12 4.15381 12.2063 4.15381 12.4615C4.15381 12.7168 4.36012 12.9231 4.61535 12.9231Z" fill="#2B2D33" stroke="#2B2D33" stroke-width="0.4"/>
<path d="M16.4013 19.1362L18.2064 18.2344C18.3536 18.1605 18.4506 18.0138 18.4607 17.849C18.4704 17.6847 18.392 17.5273 18.2544 17.4359L12.2258 13.4607C12.0873 13.3702 11.9124 13.3601 11.7652 13.433C11.618 13.5069 11.521 13.6536 11.5109 13.8184L11.078 21.0212C11.0683 21.1855 11.1463 21.3429 11.2843 21.4338C11.4213 21.5252 11.5972 21.5353 11.7449 21.4619L13.5504 20.5601L14.4513 22.3601C14.5321 22.5216 14.695 22.6153 14.8649 22.6153C14.9276 22.6153 14.9913 22.6029 15.0523 22.5752L17.1213 21.6521C17.2363 21.6009 17.3253 21.5049 17.3678 21.3862C17.4103 21.2676 17.4024 21.137 17.3461 21.0244L16.4013 19.1362ZM15.0795 21.5524L14.1698 19.7349C14.0886 19.5729 13.9261 19.4796 13.7563 19.4796C13.687 19.4796 13.6164 19.4953 13.5504 19.5281L12.0472 20.279L12.3841 14.6709L17.0775 17.7664L15.5752 18.5169C15.4658 18.5713 15.3823 18.6673 15.344 18.7836C15.3052 18.8999 15.3144 19.0264 15.3689 19.1362L16.3044 21.0059L15.0795 21.5524Z" fill="#2B2D33" stroke="#2B2D33" stroke-width="0.4"/>
<path d="M21.2308 1.38477H2.76925C1.7511 1.38477 0.923096 2.21277 0.923096 3.23092V7.8463C0.923096 8.10154 1.1294 8.30784 1.38463 8.30784C1.63987 8.30784 1.84617 8.10154 1.84617 7.8463V6.46169H16.6154C16.8706 6.46169 17.0769 6.25538 17.0769 6.00015C17.0769 5.74492 16.8706 5.53861 16.6154 5.53861H1.84617V3.23092C1.84617 2.72184 2.26017 2.30784 2.76925 2.30784H21.2308C21.7399 2.30784 22.1539 2.72184 22.1539 3.23092V5.53861H18.9231C18.6679 5.53861 18.4616 5.74492 18.4616 6.00015C18.4616 6.25538 18.6679 6.46169 18.9231 6.46169H22.1539V18.9232C22.1539 19.4323 21.7399 19.8463 21.2308 19.8463H18.4616C18.2063 19.8463 18 20.0526 18 20.3078C18 20.5631 18.2063 20.7694 18.4616 20.7694H21.2308C22.2489 20.7694 23.0769 19.9414 23.0769 18.9232V3.23092C23.0769 2.21277 22.2489 1.38477 21.2308 1.38477Z" fill="#2B2D33" stroke="#2B2D33" stroke-width="0.4"/>
<path d="M9.69233 19.8462H2.76925C2.26017 19.8462 1.84617 19.4322 1.84617 18.9232V10.1539C1.84617 9.89869 1.63986 9.69238 1.38463 9.69238C1.1294 9.69238 0.923096 9.89869 0.923096 10.1539V18.9232C0.923096 19.9413 1.7511 20.7693 2.76925 20.7693H9.69233C9.94756 20.7693 10.1539 20.563 10.1539 20.3078C10.1539 20.0525 9.94756 19.8462 9.69233 19.8462Z" fill="#2B2D33" stroke="#2B2D33" stroke-width="0.4"/>
</svg>
