<svg width="26" height="26" viewBox="0 0 26 26" fill="none" xmlns="http://www.w3.org/2000/svg">
<path fill-rule="evenodd" clip-rule="evenodd" d="M9.90116 6.98242C10.32 6.98242 10.6595 7.32194 10.6595 7.74076V16.6317C10.6595 17.0505 10.32 17.39 9.90116 17.39C9.48234 17.39 9.14282 17.0505 9.14282 16.6317V7.74076C9.14282 7.32194 9.48234 6.98242 9.90116 6.98242Z" fill="#3279F0"/>
<path fill-rule="evenodd" clip-rule="evenodd" d="M20.3121 4.07745C20.8926 4.80886 21.2035 5.72125 21.3225 6.34142C21.3316 6.38854 21.3361 6.4364 21.3361 6.48437V17.7224C21.3361 17.7444 21.3352 17.7665 21.3332 17.7884C21.1703 19.6551 20.2863 20.7568 19.1156 21.2019C18.0256 21.6164 16.8258 21.404 16.0616 20.972C15.126 20.4432 11.4306 18.2054 9.54149 17.0566H5.04129C3.37927 17.0566 2.4617 15.8621 1.99823 14.8153C1.53397 13.7668 1.40918 12.6428 1.40918 12.2329C1.40918 11.8676 1.46363 10.6688 1.89557 9.53242C2.32775 8.39543 3.24341 7.09803 5.04136 7.09803H9.52245C10.459 6.46932 11.867 5.57486 13.2844 4.77676C14.0438 4.34911 14.8144 3.94437 15.5217 3.62208C16.2175 3.30503 16.8967 3.04684 17.4607 2.94147C18.7591 2.69891 19.7113 3.32041 20.3121 4.07745ZM19.1241 5.0203C18.7591 4.56037 18.3258 4.32276 17.7392 4.43235C17.3607 4.50306 16.8166 4.69871 16.1506 5.00222C15.496 5.30048 14.7661 5.68301 14.0285 6.09832C12.5535 6.92888 11.0817 7.87149 10.1807 8.48363C10.0549 8.56903 9.90647 8.6147 9.75449 8.6147H5.04136C4.17261 8.6147 3.65135 9.18187 3.31328 10.0713C2.97497 10.9613 2.92585 11.9508 2.92585 12.2329C2.92585 12.4703 3.02092 13.379 3.38503 14.2013C3.74994 15.0254 4.26926 15.5399 5.04129 15.5399H9.75402C9.89307 15.5399 10.0294 15.5781 10.1482 15.6504C11.9851 16.7681 15.8686 19.1208 16.8079 19.6517C17.2347 19.893 17.9641 20.0172 18.5766 19.7843C19.1044 19.5836 19.6914 19.0605 19.8194 17.6883V6.56037C19.7222 6.10556 19.4911 5.48272 19.1241 5.0203Z" fill="#3279F0"/>
<path fill-rule="evenodd" clip-rule="evenodd" d="M5.50824 15.8292C5.65207 15.6473 5.8712 15.5413 6.10307 15.5413H9.15858C9.44928 15.5413 9.71439 15.7074 9.84109 15.9691C10.6507 17.6409 11.0745 18.9855 11.0094 20.0177C10.9752 20.561 10.8033 21.0544 10.4499 21.4461C10.1018 21.832 9.6398 22.05 9.14963 22.1644C8.287 22.3656 7.58775 22.1315 7.09503 21.7089C6.63704 21.316 6.39368 20.7951 6.29956 20.4187L6.29729 20.4095L5.36516 16.4744C5.31171 16.2488 5.36442 16.0111 5.50824 15.8292ZM7.06203 17.0579L7.77188 20.0545C7.80815 20.196 7.91398 20.4131 8.08246 20.5577C8.21767 20.6736 8.42471 20.7761 8.805 20.6874C9.09165 20.6205 9.24145 20.5214 9.3238 20.4302C9.40088 20.3447 9.47822 20.2009 9.49577 19.9223C9.53085 19.3657 9.31657 18.4562 8.67755 17.0579H7.06203Z" fill="#3279F0"/>
<path fill-rule="evenodd" clip-rule="evenodd" d="M20.0768 8.32924C20.2376 8.18505 20.4522 8.11627 20.6669 8.14015C21.307 8.21138 22.2521 8.47194 23.0587 9.04647C23.8901 9.63872 24.5984 10.59 24.5984 11.9751C24.5984 13.3573 23.8943 14.3184 23.0708 14.9257C22.2695 15.5165 21.329 15.7992 20.6901 15.8857C20.4731 15.915 20.254 15.8492 20.0891 15.705C19.9243 15.5608 19.8298 15.3525 19.83 15.1335C19.8318 13.3134 19.8287 10.9198 19.8247 8.89534C19.8243 8.67935 19.916 8.47343 20.0768 8.32924ZM21.3431 9.8517C21.3456 11.2791 21.3473 12.8089 21.3472 14.1516C21.6252 14.0427 21.9122 13.8955 22.1706 13.705C22.702 13.3132 23.0818 12.7681 23.0818 11.9751C23.0818 11.1852 22.7044 10.6562 22.1787 10.2818C21.917 10.0953 21.6252 9.954 21.3431 9.8517Z" fill="#3279F0"/>
</svg>
