<svg width="26" height="26" viewBox="0 0 26 26" fill="none" xmlns="http://www.w3.org/2000/svg">
<path d="M17.6847 3.67825C19.0592 3.67825 20.1734 4.80622 20.1734 6.19763V19.8023C20.1734 21.1937 19.0592 22.3217 17.6847 22.3217H7.23198C5.85749 22.3217 4.74324 21.1937 4.74324 19.8023V6.19763C4.74324 4.80622 5.85749 3.67825 7.23198 3.67825H17.6847ZM7.23198 2.16663C5.03279 2.16663 3.25 3.97137 3.25 6.19763V19.8023C3.25 22.0285 5.03279 23.8333 7.23198 23.8333H17.6847C19.8839 23.8333 21.6667 22.0285 21.6667 19.8023V6.19763C21.6667 3.97137 19.8839 2.16663 17.6847 2.16663H7.23198Z" fill="#DD4A09"/>
<path d="M17.4323 8.93408H13.1247C12.7165 8.93408 12.3781 8.59145 12.3781 8.17827C12.3781 7.76509 12.7165 7.42246 13.1247 7.42246H17.4323C17.8405 7.42246 18.1789 7.76509 18.1789 8.17827C18.1789 8.59145 17.8504 8.93408 17.4323 8.93408Z" fill="#DD4A09"/>
<path d="M8.25917 9.69998C8.07002 9.69998 7.88088 9.62943 7.73156 9.47827L6.98493 8.72246C6.69624 8.43021 6.69624 7.94649 6.98493 7.65424C7.27363 7.36199 7.75147 7.36199 8.04016 7.65424L8.25917 7.87594L9.97142 6.14261C10.2601 5.85036 10.738 5.85036 11.0266 6.14261C11.3153 6.43486 11.3153 6.91858 11.0266 7.21083L8.78678 9.47827C8.64741 9.61935 8.45827 9.69998 8.25917 9.69998Z" fill="#DD4A09"/>
<path d="M17.4323 14.1224H13.1247C12.7165 14.1224 12.3781 13.7798 12.3781 13.3666C12.3781 12.9534 12.7165 12.6108 13.1247 12.6108H17.4323C17.8405 12.6108 18.1789 12.9534 18.1789 13.3666C18.1789 13.7798 17.8504 14.1224 17.4323 14.1224Z" fill="#DD4A09"/>
<path d="M8.25917 14.8883C8.07002 14.8883 7.88088 14.8178 7.73156 14.6666L6.98493 13.9108C6.69624 13.6186 6.69624 13.1348 6.98493 12.8426C7.27363 12.5503 7.75147 12.5503 8.04016 12.8426L8.25917 13.0643L9.97142 11.331C10.2601 11.0387 10.738 11.0387 11.0266 11.331C11.3153 11.6232 11.3153 12.1069 11.0266 12.3992L8.78678 14.6666C8.64741 14.8077 8.45827 14.8883 8.25917 14.8883Z" fill="#DD4A09"/>
<path d="M17.4323 19.3106H13.1247C12.7165 19.3106 12.3781 18.968 12.3781 18.5548C12.3781 18.1416 12.7165 17.799 13.1247 17.799H17.4323C17.8405 17.799 18.1789 18.1416 18.1789 18.5548C18.1789 18.968 17.8504 19.3106 17.4323 19.3106Z" fill="#DD4A09"/>
<path d="M8.25917 20.0765C8.07002 20.0765 7.88088 20.006 7.73156 19.8548L6.98493 19.099C6.69624 18.8067 6.69624 18.323 6.98493 18.0308C7.27363 17.7385 7.75147 17.7385 8.04016 18.0308L8.25917 18.2525L9.97142 16.5191C10.2601 16.2269 10.738 16.2269 11.0266 16.5191C11.3153 16.8114 11.3153 17.2951 11.0266 17.5873L8.78678 19.8548C8.64741 19.9959 8.45827 20.0765 8.25917 20.0765Z" fill="#DD4A09"/>
</svg>
