<svg width="24" height="24" viewBox="0 0 24 24" fill="none" xmlns="http://www.w3.org/2000/svg">
<path d="M22.5209 9.28443C22.4673 8.03323 21.3281 6.93003 20.0905 6.84683C19.5209 6.87083 18.9849 7.12363 18.6041 7.54763L16.4785 9.67323C15.8697 8.72683 14.8273 7.86123 13.6449 8.30203C13.0209 7.16523 11.5393 6.42603 10.3945 7.28923C8.12006 4.95723 5.55126 8.81963 3.71126 10.386C0.730463 13.4004 0.735263 18.2732 3.72166 21.2812C6.67366 24.5828 12.6497 24.7236 15.5449 21.2852C17.0513 19.6972 19.6313 17.2316 17.1441 15.4476L21.8201 10.7716C22.2441 10.3908 22.4969 9.85483 22.5209 9.28443ZM20.9721 9.91563C20.9705 9.91243 12.1145 18.774 12.1137 18.7732C11.5617 19.3292 12.4049 20.1756 12.9625 19.622L16.2913 16.2932C16.4289 16.4044 16.5977 16.5492 16.7449 16.6932C17.2937 17.242 16.7721 18.0228 16.5121 18.3452C15.9393 19.0756 15.3289 19.7756 14.6817 20.4412C12.3009 23.3164 7.29926 23.2804 4.76166 20.626C2.07366 18.1164 1.96166 13.8364 4.56566 11.2252C5.84566 9.94923 6.43286 9.40363 7.55686 8.41323C8.00806 7.89883 8.93126 7.43883 9.47126 8.06603L7.35926 10.1788C6.84326 10.7332 7.65366 11.5436 8.20806 11.026L10.3569 8.87643C11.6417 7.61723 11.9897 8.12363 12.5953 8.88443C12.1585 9.19243 10.4489 10.9836 10.0337 11.3772C9.50086 11.9324 10.3241 12.7612 10.8817 12.226C11.3825 11.7732 13.0017 9.99883 13.5561 9.67643C14.4353 8.92123 15.1481 9.79403 15.6105 10.5396L12.6241 13.526C12.0905 14.0804 12.9161 14.91 13.4729 14.374L19.4513 8.39563C19.6137 8.19963 19.8465 8.07483 20.0993 8.04603C20.9033 8.15163 21.7913 9.27323 20.9721 9.91563Z" fill="#2B2D33"/>
<path d="M2.83835 4.41104C6.74955 0.752635 12.7032 0.373435 17.0464 3.50624H16.7143C15.9279 3.50544 15.924 4.70304 16.7112 4.70624H18.6863C19.0175 4.70624 19.2864 4.43744 19.2864 4.10624V2.13104C19.2824 1.34704 18.0903 1.34544 18.0863 2.13104V2.77104C13.2663 -0.942565 6.46715 -0.620965 2.01915 3.53104C1.44715 4.06864 2.25995 4.94464 2.83835 4.41104Z" fill="#2B2D33"/>
</svg>
