<svg width="26" height="26" viewBox="0 0 26 26" fill="none" xmlns="http://www.w3.org/2000/svg">
<path d="M10.9846 18.7434H7.1652C3.33574 18.7434 2.16675 17.5744 2.16675 13.7449V7.6984C2.16675 3.86894 3.33574 2.69995 7.1652 2.69995H17.7768C21.6063 2.69995 22.7753 3.86894 22.7753 7.6984C22.7753 8.11158 22.4326 8.45422 22.0195 8.45422C21.6063 8.45422 21.2636 8.11158 21.2636 7.6984C21.2636 4.73561 20.7396 4.21158 17.7768 4.21158H7.1652C4.20241 4.21158 3.67838 4.73561 3.67838 7.6984V13.7449C3.67838 16.7077 4.20241 17.2317 7.1652 17.2317H10.9846C11.3978 17.2317 11.7404 17.5744 11.7404 17.9876C11.7404 18.4007 11.3978 18.7434 10.9846 18.7434Z" fill="#904BFF"/>
<path d="M10.9846 23.2984C10.5714 23.2984 10.2288 22.9558 10.2288 22.5426V17.9775C10.2288 17.5643 10.5714 17.2217 10.9846 17.2217C11.3978 17.2217 11.7404 17.5643 11.7404 17.9775V22.5426C11.7404 22.9658 11.3978 23.2984 10.9846 23.2984Z" fill="#904BFF"/>
<path d="M10.9846 14.7124H2.92256C2.50938 14.7124 2.16675 14.3697 2.16675 13.9565C2.16675 13.5434 2.50938 13.2007 2.92256 13.2007H10.9846C11.3978 13.2007 11.7404 13.5434 11.7404 13.9565C11.7404 14.3697 11.3978 14.7124 10.9846 14.7124Z" fill="#904BFF"/>
<path d="M10.9846 23.2984H7.69931C7.28613 23.2984 6.94349 22.9558 6.94349 22.5426C6.94349 22.1294 7.28613 21.7868 7.69931 21.7868H10.9846C11.3978 21.7868 11.7404 22.1294 11.7404 22.5426C11.7404 22.9558 11.3978 23.2984 10.9846 23.2984Z" fill="#904BFF"/>
<path d="M20.0947 23.2984H16.5171C13.7257 23.2984 12.7784 22.3511 12.7784 19.5596V13.8054C12.7784 11.0139 13.7257 10.0666 16.5171 10.0666H20.0947C22.8861 10.0666 23.8334 11.0139 23.8334 13.8054V19.5596C23.8334 22.3612 22.8861 23.2984 20.0947 23.2984ZM16.5171 11.5782C14.5419 11.5782 14.29 11.8302 14.29 13.8054V19.5596C14.29 21.5348 14.5419 21.7868 16.5171 21.7868H20.0947C22.0698 21.7868 22.3218 21.5348 22.3218 19.5596V13.8054C22.3218 11.8302 22.0698 11.5782 20.0947 11.5782H16.5171Z" fill="#904BFF"/>
<path d="M18.3412 20.0232C18.0792 20.0232 17.8171 19.9224 17.6257 19.731C17.535 19.6403 17.4644 19.5294 17.414 19.4085C17.3636 19.2775 17.3334 19.1465 17.3334 19.0155C17.3334 18.7534 17.4443 18.4914 17.6257 18.31C17.8574 18.0782 18.2102 17.9674 18.5427 18.0279C18.6032 18.048 18.6636 18.0682 18.7241 18.0883C18.7846 18.1186 18.845 18.1488 18.8954 18.179C18.9559 18.2193 19.0063 18.2596 19.0567 18.31C19.2381 18.4914 19.3489 18.7534 19.3489 19.0155C19.3489 19.1465 19.3187 19.2775 19.2683 19.4085C19.2179 19.5294 19.1474 19.6403 19.0567 19.731C19.0063 19.7813 18.9559 19.8217 18.8954 19.8519C18.845 19.8922 18.7846 19.9224 18.7241 19.9527C18.6636 19.9728 18.6032 19.993 18.5427 20.0031C18.4722 20.0232 18.4117 20.0232 18.3412 20.0232Z" fill="#904BFF"/>
</svg>
