<svg width="26" height="26" viewBox="0 0 26 26" fill="none" xmlns="http://www.w3.org/2000/svg">
<path fill-rule="evenodd" clip-rule="evenodd" d="M9.51584 3.6784C7.17921 3.6784 5.28499 5.59593 5.28499 7.96134V18.0388C5.28499 20.4043 7.17921 22.3218 9.51584 22.3218H16.4843C18.8209 22.3218 20.7152 20.4043 20.7152 18.0388V9.00953H22.2084V18.0388C22.2084 21.2391 19.6456 23.8334 16.4843 23.8334H9.51584C6.35451 23.8334 3.79175 21.2391 3.79175 18.0388V7.96134C3.79175 4.76109 6.35451 2.16677 9.51584 2.16677H15.4829L15.7907 3.6784H9.51584Z" fill="#DD4A09"/>
<path fill-rule="evenodd" clip-rule="evenodd" d="M15.2031 2.2243C15.4821 2.10732 15.8032 2.17198 16.0167 2.38814L21.9897 8.43465C22.2032 8.65081 22.2671 8.9759 22.1516 9.25833C22.036 9.54075 21.7638 9.7249 21.4618 9.7249H18.4753C17.314 9.7249 16.3022 9.53872 15.6142 8.84219C14.9261 8.14566 14.7422 7.12143 14.7422 5.94584V2.92258C14.7422 2.61689 14.9241 2.34129 15.2031 2.2243ZM16.2354 4.74728V5.94584C16.2354 7.03768 16.4248 7.52507 16.67 7.77331C16.9153 8.02155 17.3967 8.21328 18.4753 8.21328H19.6593L16.2354 4.74728Z" fill="#DD4A09"/>
<path d="M16.4253 17.346H8.99671C8.58855 17.346 8.25009 17.6886 8.25009 18.1018C8.25009 18.515 8.58855 18.8576 8.99671 18.8576H16.4253C16.8335 18.8576 17.172 18.515 17.172 18.1018C17.172 17.6886 16.8335 17.346 16.4253 17.346Z" fill="#DD4A09"/>
<path d="M12.9787 13.315H8.99671C8.58855 13.315 8.25009 13.6576 8.25009 14.0708C8.25009 14.484 8.58855 14.8266 8.99671 14.8266H12.9787C13.3868 14.8266 13.7253 14.484 13.7253 14.0708C13.7253 13.6576 13.3868 13.315 12.9787 13.315Z" fill="#DD4A09"/>
</svg>
