<svg width="26" height="26" viewBox="0 0 26 26" fill="none" xmlns="http://www.w3.org/2000/svg">
<path d="M12.9999 14.3102C12.8708 14.3102 12.7416 14.2799 12.6224 14.2094L3.85067 9.05977C3.50298 8.84814 3.37383 8.38458 3.58245 8.02179C3.79106 7.659 4.24803 7.53807 4.60565 7.74969L12.9999 12.6776L21.3445 7.77993C21.7021 7.5683 22.1591 7.69931 22.3677 8.05202C22.5763 8.41481 22.4472 8.87838 22.0995 9.09L13.3873 14.2094C13.2582 14.2698 13.1291 14.3102 12.9999 14.3102Z" fill="#904BFF"/>
<path d="M12.9999 23.4404C12.5926 23.4404 12.2549 23.0978 12.2549 22.6846V13.5443C12.2549 13.1311 12.5926 12.7885 12.9999 12.7885C13.4072 12.7885 13.745 13.1311 13.745 13.5443V22.6846C13.745 23.0978 13.4072 23.4404 12.9999 23.4404Z" fill="#904BFF"/>
<path d="M12.9999 23.8334C12.1257 23.8334 11.2615 23.6419 10.576 23.259L5.27123 20.266C3.8308 19.4598 2.70825 17.5148 2.70825 15.8419V10.1481C2.70825 8.47528 3.8308 6.54039 5.27123 5.72411L10.576 2.74117C11.937 1.97528 14.0629 1.97528 15.4238 2.74117L20.7286 5.73419C22.169 6.54039 23.2916 8.48535 23.2916 10.1582V15.852C23.2916 17.5249 22.169 19.4598 20.7286 20.2761L15.4238 23.259C14.7384 23.6419 13.8741 23.8334 12.9999 23.8334ZM12.9999 3.67838C12.3741 3.67838 11.7582 3.80938 11.3012 4.06132L5.99642 7.05435C5.04275 7.58845 4.19836 9.03962 4.19836 10.1481V15.8419C4.19836 16.9505 5.04275 18.4016 5.99642 18.9458L11.3012 21.9388C12.2052 22.4528 13.7946 22.4528 14.6986 21.9388L20.0034 18.9458C20.9571 18.4016 21.8015 16.9605 21.8015 15.8419V10.1481C21.8015 9.03962 20.9571 7.58845 20.0034 7.04427L14.6986 4.05124C14.2417 3.80938 13.6258 3.67838 12.9999 3.67838Z" fill="#904BFF"/>
</svg>
