<svg width="26" height="26" viewBox="0 0 26 26" fill="none" xmlns="http://www.w3.org/2000/svg">
<path d="M17.0486 22.8919H4.93192C4.05591 22.8919 3.24445 22.4862 2.71884 21.7761C2.18401 21.0569 2.02726 20.1531 2.29467 19.2956L6.17679 6.81924C6.5272 5.65737 7.59687 4.86435 8.81407 4.86435H20.1561C21.2719 4.86435 22.277 5.52836 22.7012 6.56113C22.9317 7.09596 22.9778 7.70458 22.8395 8.30396L19.732 20.7802C19.4369 22.025 18.3304 22.8919 17.0486 22.8919ZM8.82328 6.25676C8.2239 6.25676 7.67985 6.65333 7.50465 7.23426L3.62253 19.7106C3.49343 20.144 3.56719 20.5958 3.84383 20.9647C4.10202 21.3151 4.50776 21.5179 4.94115 21.5179H17.0578C17.6941 21.5179 18.2474 21.0845 18.3949 20.4667L21.5024 7.98112C21.5762 7.67682 21.5578 7.37257 21.4379 7.10515C21.2166 6.57955 20.7279 6.24753 20.1654 6.24753H8.82328V6.25676Z" fill="#E42828"/>
<path d="M21.106 22.8918H16.6983C16.3202 22.8918 16.0067 22.5783 16.0067 22.2002C16.0067 21.8222 16.3202 21.5086 16.6983 21.5086H21.106C21.4841 21.5086 21.8345 21.3519 22.0927 21.0753C22.3509 20.7986 22.4799 20.4298 22.4523 20.0517L21.5394 7.49246C21.5117 7.11439 21.7976 6.78238 22.1757 6.75471C22.5537 6.73627 22.8857 7.01285 22.9133 7.39092L23.8263 19.9503C23.8816 20.7065 23.6142 21.4626 23.0978 22.0159C22.5906 22.5783 21.8621 22.8918 21.106 22.8918Z" fill="#E42828"/>
<path d="M10.8702 8.48829C10.8149 8.48829 10.7596 8.47905 10.7043 8.46983C10.3354 8.37762 10.1049 8.00874 10.1971 7.63067L11.1561 3.64716C11.2483 3.27831 11.6172 3.04774 11.9952 3.13995C12.3641 3.23216 12.5946 3.60104 12.5024 3.97911L11.5434 7.96273C11.4696 8.27625 11.1838 8.48829 10.8702 8.48829Z" fill="#E42828"/>
<path d="M17.0486 8.49754C17.0025 8.49754 16.9472 8.49752 16.9011 8.47908C16.5322 8.39609 16.2925 8.02723 16.3662 7.65838L17.233 3.65641C17.316 3.27834 17.6849 3.04785 18.0537 3.12162C18.4226 3.19539 18.6623 3.57336 18.5885 3.94221L17.7217 7.94429C17.6572 8.27625 17.3713 8.49754 17.0486 8.49754Z" fill="#E42828"/>
<path d="M16.4218 13.6706H9.04483C8.66676 13.6706 8.35324 13.3571 8.35324 12.9791C8.35324 12.601 8.66676 12.2875 9.04483 12.2875H16.4218C16.7999 12.2875 17.1134 12.601 17.1134 12.9791C17.1134 13.3571 16.7999 13.6706 16.4218 13.6706Z" fill="#E42828"/>
<path d="M15.4997 17.3591H8.12271C7.74464 17.3591 7.43112 17.0456 7.43112 16.6675C7.43112 16.2895 7.74464 15.9759 8.12271 15.9759H15.4997C15.8777 15.9759 16.1913 16.2895 16.1913 16.6675C16.1913 17.0456 15.8777 17.3591 15.4997 17.3591Z" fill="#E42828"/>
</svg>
