<svg width="26" height="26" viewBox="0 0 26 26" fill="none" xmlns="http://www.w3.org/2000/svg">
<path d="M16.0233 23.8333H9.97683C4.50473 23.8333 2.16675 21.4953 2.16675 16.0232V9.9767C2.16675 4.50461 4.50473 2.16663 9.97683 2.16663H16.0233C21.4954 2.16663 23.8334 4.50461 23.8334 9.9767V16.0232C23.8334 21.4953 21.4954 23.8333 16.0233 23.8333ZM9.97683 3.67825C5.33109 3.67825 3.67838 5.33097 3.67838 9.9767V16.0232C3.67838 20.669 5.33109 22.3217 9.97683 22.3217H16.0233C20.6691 22.3217 22.3218 20.669 22.3218 16.0232V9.9767C22.3218 5.33097 20.6691 3.67825 16.0233 3.67825H9.97683Z" fill="#904BFF"/>
<path d="M18.2037 8.56751H7.7965C7.38332 8.56751 7.04069 8.22488 7.04069 7.8117C7.04069 7.39852 7.38332 7.05589 7.7965 7.05589H18.2037C18.6168 7.05589 18.9595 7.39852 18.9595 7.8117C18.9595 8.22488 18.6269 8.56751 18.2037 8.56751Z" fill="#904BFF"/>
<path d="M18.2037 13.7559H7.7965C7.38332 13.7559 7.04069 13.4132 7.04069 13C7.04069 12.5869 7.38332 12.2442 7.7965 12.2442H18.2037C18.6168 12.2442 18.9595 12.5869 18.9595 13C18.9595 13.4132 18.6269 13.7559 18.2037 13.7559Z" fill="#904BFF"/>
<path d="M18.2037 18.944H7.7965C7.38332 18.944 7.04069 18.6014 7.04069 18.1882C7.04069 17.775 7.38332 17.4324 7.7965 17.4324H18.2037C18.6168 17.4324 18.9595 17.775 18.9595 18.1882C18.9595 18.6014 18.6269 18.944 18.2037 18.944Z" fill="#904BFF"/>
</svg>
