<svg width="26" height="26" viewBox="0 0 26 26" fill="none" xmlns="http://www.w3.org/2000/svg">
<path d="M13.0001 23.2916C12.6978 23.2916 12.3954 23.2201 12.1435 23.0772C10.259 22.0359 6.94349 20.9333 4.86752 20.6576L4.57528 20.6168C3.25512 20.4534 2.16675 19.1977 2.16675 17.8399V5.50716C2.16675 4.70063 2.47915 3.96557 3.05357 3.43469C3.62799 2.90381 4.37372 2.64858 5.15977 2.72004C7.37683 2.8936 10.7226 4.01661 12.6171 5.2213L12.859 5.36423C12.9295 5.40506 13.0807 5.40506 13.1412 5.37444L13.3024 5.27234C15.197 4.06766 18.5427 2.92423 20.7698 2.73025C20.79 2.73025 20.8706 2.73025 20.8908 2.73025C21.6264 2.65879 22.3823 2.92423 22.9466 3.45511C23.521 3.98599 23.8334 4.72105 23.8334 5.52757V17.8501C23.8334 19.2181 22.745 20.4636 21.4148 20.627L21.0823 20.6678C19.0063 20.9435 15.6807 22.0563 13.8365 23.0874C13.5947 23.2303 13.3024 23.2916 13.0001 23.2916ZM4.91791 4.24122C4.59543 4.24122 4.30318 4.35352 4.0714 4.56791C3.81946 4.80272 3.67838 5.13962 3.67838 5.50716V17.8399C3.67838 18.4422 4.19233 19.0241 4.76675 19.1058L5.06907 19.1466C7.33652 19.4529 10.8133 20.6066 12.8288 21.7194C12.9195 21.7602 13.0505 21.7704 13.1009 21.75C15.1164 20.6168 18.6133 19.4529 20.8908 19.1466L21.2334 19.1058C21.8078 19.0343 22.3218 18.4422 22.3218 17.8399V5.51737C22.3218 5.13963 22.1807 4.81293 21.9288 4.56791C21.6667 4.3331 21.3342 4.2208 20.9613 4.24122C20.9412 4.24122 20.8605 4.24122 20.8404 4.24122C18.9156 4.41477 15.8117 5.46632 14.1187 6.53829L13.9574 6.65059C13.4032 6.9977 12.6171 6.9977 12.083 6.6608L11.8412 6.51787C10.1179 5.4459 7.01404 4.40456 5.03884 4.24122C4.99853 4.24122 4.95822 4.24122 4.91791 4.24122Z" fill="#14BC6B"/>
<path d="M13.0001 22.434C12.5869 22.434 12.2443 22.0869 12.2443 21.6683V6.35452C12.2443 5.93594 12.5869 5.58883 13.0001 5.58883C13.4133 5.58883 13.7559 5.93594 13.7559 6.35452V21.6683C13.7559 22.0971 13.4133 22.434 13.0001 22.434Z" fill="#14BC6B"/>
<path d="M8.71714 10.183H6.44969C6.03652 10.183 5.69388 9.83586 5.69388 9.41728C5.69388 8.9987 6.03652 8.65159 6.44969 8.65159H8.71714C9.13031 8.65159 9.47295 8.9987 9.47295 9.41728C9.47295 9.83586 9.13031 10.183 8.71714 10.183Z" fill="#14BC6B"/>
<path d="M9.47295 13.2457H6.44969C6.03652 13.2457 5.69388 12.8986 5.69388 12.48C5.69388 12.0615 6.03652 11.7143 6.44969 11.7143H9.47295C9.88613 11.7143 10.2288 12.0615 10.2288 12.48C10.2288 12.8986 9.88613 13.2457 9.47295 13.2457Z" fill="#14BC6B"/>
</svg>
