<svg width="26" height="26" viewBox="0 0 26 26" fill="none" xmlns="http://www.w3.org/2000/svg">
<path fill-rule="evenodd" clip-rule="evenodd" d="M8.86027 3.94711L3.93295 8.85725C1.60002 11.2049 1.59781 14.9991 3.93449 17.3379L8.69753 22.1053L8.69907 22.1069C11.0445 24.4419 14.8352 24.4441 17.1719 22.1053L22.0868 17.1858C23.2792 15.9924 23.9185 14.3476 23.8433 12.6534L23.8432 12.6505L23.5827 7.21881C23.4532 4.6399 21.3937 2.57785 18.8043 2.46057L18.803 2.46051L13.384 2.20016L13.3822 2.20007C11.696 2.11241 10.0514 2.7553 8.86027 3.94711ZM10.0111 5.09896C10.881 4.22827 12.0786 3.76309 13.2991 3.8269L13.3026 3.82708L18.7274 4.08771L18.7299 4.08782C20.4794 4.16663 21.8693 5.55728 21.9572 7.29972L22.2175 12.7257L22.2175 12.7271C22.2721 13.9645 21.8048 15.1644 20.936 16.034L16.0211 20.9535C14.3219 22.6542 11.5599 22.6567 9.84751 20.9527L5.08528 16.186C3.3863 14.4855 3.38365 11.7213 5.08551 10.0073L5.08682 10.006L10.0098 5.10023L10.0111 5.09896Z" fill="#DD4A09"/>
<path fill-rule="evenodd" clip-rule="evenodd" d="M15.7285 8.41082C16.7771 8.41082 17.6272 9.26168 17.6272 10.3113C17.6272 11.3609 16.7771 12.2117 15.7285 12.2117C14.6799 12.2117 13.8298 11.3609 13.8298 10.3113C13.8298 9.26168 14.6799 8.41082 15.7285 8.41082ZM19.2547 10.3113C19.2547 8.36203 17.676 6.78186 15.7285 6.78186C13.7811 6.78186 12.2024 8.36203 12.2024 10.3113C12.2024 12.2605 13.7811 13.8407 15.7285 13.8407C17.676 13.8407 19.2547 12.2605 19.2547 10.3113Z" fill="#DD4A09"/>
</svg>
