<svg width="19" height="18" viewBox="0 0 19 18" fill="none" xmlns="http://www.w3.org/2000/svg">
<g clip-path="url(#clip0_5672_2233)">
<path d="M17.8144 12.9987C19.6505 10.5583 19.3698 7.21473 16.862 5.03677C15.7162 4.04167 14.2555 3.42218 12.6775 3.24918C12.6677 3.23771 12.6576 3.22636 12.6466 3.2155C11.2739 1.86462 9.30176 1.08984 7.23588 1.08984C3.30455 1.08984 0 3.86483 0 7.41797C0 8.66373 0.408463 9.85795 1.18438 10.8893L0.100455 14.1134C0.0323223 14.316 0.0993418 14.5375 0.270379 14.6752C0.441713 14.8132 0.683406 14.8397 0.883092 14.7435L4.17941 13.1556C4.85636 13.4317 5.5742 13.6129 6.31757 13.6954C7.75155 15.124 9.73435 15.8555 11.7629 15.8555C12.8174 15.8555 13.8681 15.6519 14.8193 15.2649L18.1157 16.8529C18.1955 16.8913 18.282 16.9102 18.3679 16.9102C18.7435 16.9102 19.0128 16.5633 18.8984 16.2227L17.8144 12.9987ZM4.40407 12.0945C4.24817 12.0244 4.06682 12.0267 3.913 12.1008L1.5652 13.2318L2.33188 10.9513C2.38769 10.7853 2.35337 10.6039 2.24011 10.4666C1.50289 9.57255 1.11321 8.51839 1.11321 7.41797C1.11321 4.5102 3.85982 2.14453 7.23588 2.14453C8.59542 2.14453 9.90423 2.53473 10.9659 3.2374C7.39048 3.57799 4.52705 6.22364 4.52705 9.52734C4.52705 10.5549 4.80507 11.5441 5.32924 12.4304C5.01188 12.3409 4.7028 12.2289 4.40407 12.0945ZM15.0858 14.2101C14.9342 14.1371 14.7527 14.1327 14.5947 14.2039C13.7269 14.5944 12.7477 14.8008 11.7629 14.8008C8.38687 14.8008 5.64025 12.4351 5.64025 9.52734C5.64025 6.61957 8.38687 4.25391 11.7629 4.25391C15.139 4.25391 17.8856 6.61957 17.8856 9.52734C17.8856 10.6278 17.4959 11.6819 16.7587 12.5759C16.6454 12.7132 16.6111 12.8946 16.6669 13.0607L17.4336 15.3411L15.0858 14.2101Z" fill="#2B2D33"/>
<path d="M9.49951 10.0547C9.80694 10.0547 10.0562 9.81859 10.0562 9.52734C10.0562 9.2361 9.80694 9 9.49951 9C9.19209 9 8.94287 9.2361 8.94287 9.52734C8.94287 9.81859 9.19209 10.0547 9.49951 10.0547Z" fill="#2B2D33"/>
<path d="M11.7261 10.0547C12.0335 10.0547 12.2827 9.81859 12.2827 9.52734C12.2827 9.2361 12.0335 9 11.7261 9C11.4187 9 11.1694 9.2361 11.1694 9.52734C11.1694 9.81859 11.4187 10.0547 11.7261 10.0547Z" fill="#2B2D33"/>
<path d="M13.9521 10.0547C14.2596 10.0547 14.5088 9.81859 14.5088 9.52734C14.5088 9.2361 14.2596 9 13.9521 9C13.6447 9 13.3955 9.2361 13.3955 9.52734C13.3955 9.81859 13.6447 10.0547 13.9521 10.0547Z" fill="#2B2D33"/>
</g>
<defs>
<clipPath id="clip0_5672_2233">
<rect width="19" height="18" fill="white"/>
</clipPath>
</defs>
</svg>
