<svg width="18" height="16" viewBox="0 0 18 16" fill="none" xmlns="http://www.w3.org/2000/svg">
<path d="M17.476 2.10951C17.4749 2.10951 17.4738 2.10938 17.4727 2.10938H12.6914V1.58203C12.6914 0.709717 11.9817 0 11.1094 0H6.89062C6.01831 0 5.30859 0.709717 5.30859 1.58203V2.10938H0.527344C0.233734 2.10938 0 2.34998 0 2.63672V14.2383C0 15.1106 0.709717 15.8203 1.58203 15.8203H16.418C17.2903 15.8203 18 15.1106 18 14.2383V2.64784C18 2.64716 18 2.64647 18 2.64578C17.9798 2.29944 17.7668 2.11143 17.476 2.10951ZM6.36328 1.58203C6.36328 1.29131 6.5999 1.05469 6.89062 1.05469H11.1094C11.4001 1.05469 11.6367 1.29131 11.6367 1.58203V2.10938H6.36328V1.58203ZM16.741 3.16406L15.1033 8.07687C15.0315 8.29262 14.8304 8.4375 14.6032 8.4375H11.6367V7.91016C11.6367 7.61888 11.4007 7.38281 11.1094 7.38281H6.89062C6.59935 7.38281 6.36328 7.61888 6.36328 7.91016V8.4375H3.39684C3.16956 8.4375 2.96851 8.29262 2.89668 8.07687L1.25903 3.16406H16.741ZM10.582 8.4375V9.49219H7.41797V8.4375H10.582ZM16.9453 14.2383C16.9453 14.529 16.7087 14.7656 16.418 14.7656H1.58203C1.29131 14.7656 1.05469 14.529 1.05469 14.2383V5.88634L1.8961 8.41045C2.11171 9.05754 2.71486 9.49219 3.39684 9.49219H6.36328V10.0195C6.36328 10.3108 6.59935 10.5469 6.89062 10.5469H11.1094C11.4007 10.5469 11.6367 10.3108 11.6367 10.0195V9.49219H14.6032C15.2851 9.49219 15.8883 9.05754 16.1039 8.41045L16.9453 5.88634V14.2383Z" fill="#2B2D33"/>
</svg>
