<svg width="22" height="22" viewBox="0 0 22 22" fill="none" xmlns="http://www.w3.org/2000/svg">
<mask id="mask0_5672_2209" style="mask-type:luminance" maskUnits="userSpaceOnUse" x="0" y="0" width="22" height="22">
<path d="M0 0H22V22H0V0Z" fill="white"/>
</mask>
<g mask="url(#mask0_5672_2209)">
<path d="M11.0799 7.54088C11.0799 9.6708 9.38995 11.3975 7.30519 11.3975C5.22052 11.3975 3.53052 9.6708 3.53052 7.54088C3.53052 5.41092 5.22052 3.68427 7.30519 3.68427C9.38995 3.68427 11.0799 5.41092 11.0799 7.54088Z" stroke="#2B2D33" stroke-width="1.05473" stroke-miterlimit="10"/>
<path d="M1.68768 18.2939C1.04457 18.2939 0.549009 17.7016 0.663821 17.055C1.23505 13.8377 3.99111 11.3978 7.30494 11.3978C10.6188 11.3978 13.3748 13.8377 13.9461 17.055C14.0608 17.7016 13.5653 18.2939 12.9222 18.2939H1.68768Z" stroke="#2B2D33" stroke-width="1.05473" stroke-miterlimit="10"/>
<path d="M19.1267 7.00481C19.1267 8.6536 17.8185 9.99023 16.2047 9.99023C14.5909 9.99023 13.2827 8.6536 13.2827 7.00481C13.2827 5.35605 14.5909 4.01942 16.2047 4.01942C17.8185 4.01942 19.1267 5.35605 19.1267 7.00481Z" stroke="#2B2D33" stroke-width="1.05473" stroke-miterlimit="10"/>
<path d="M11.5393 12.9223C12.4004 11.1826 14.1663 9.98982 16.2049 9.98982C18.7701 9.98982 20.9036 11.8785 21.3458 14.3691C21.4346 14.8696 21.051 15.3281 20.5532 15.3281H13.401" stroke="#2B2D33" stroke-width="1.05473" stroke-miterlimit="10"/>
</g>
</svg>
