<svg width="14" height="18" viewBox="0 0 14 18" fill="none" xmlns="http://www.w3.org/2000/svg">
<path d="M13.0504 7.45906C12.9601 7.25285 12.7562 7.11966 12.5311 7.11966H7.8196L10.089 0.757456C10.1795 0.5037 10.0789 0.221219 9.84837 0.0818307C9.61766 -0.0576333 9.32082 -0.0154539 9.1382 0.182592L0.150138 9.92912C-0.00247874 10.0946 -0.0426927 10.3347 0.0477132 10.5409C0.137968 10.7472 0.341835 10.8803 0.566943 10.8803H3.62993C3.9431 10.8803 4.19686 10.6265 4.19686 10.3134C4.19686 10.0003 3.9431 9.74649 3.62993 9.74649H1.8609L8.08689 2.99515L6.48135 7.49602C6.41952 7.66965 6.44869 7.86256 6.55497 8.01321C6.66118 8.16386 6.83693 8.25344 7.02129 8.25344H11.2371L5.01203 15.004L6.61779 10.5039C6.67977 10.3303 6.65347 10.1374 6.54719 9.98672C6.44091 9.83607 6.26819 9.74642 6.08382 9.74642H6.07823C5.81177 9.74642 5.59029 9.93025 5.5302 10.178L3.00941 17.2423C2.91886 17.4961 3.01947 17.7786 3.25002 17.9179C3.3411 17.9731 3.44255 17.9998 3.54316 17.9998C3.69729 17.9998 3.84968 17.937 3.96019 17.8172L12.9478 8.07073C13.1005 7.90534 13.1407 7.66527 13.0504 7.45906Z" fill="#2B2D33"/>
</svg>
