<svg width="20" height="17" viewBox="0 0 20 17" fill="none" xmlns="http://www.w3.org/2000/svg">
<path d="M20 5.22875L14.7713 0L11.9679 2.80336L7.00105 5.75824L4.42527 14.8466L4.01055 15.2613C3.69699 15.5748 3.28012 15.7475 2.83668 15.7475C2.39324 15.7475 1.97637 15.5748 1.66277 15.2613C1.03355 14.6321 1.01086 13.6245 1.61113 12.9676L2.40336 12.1005C3.4275 10.9796 3.38883 9.26062 2.3152 8.18703L0.828945 6.70078L0 7.52977L1.48625 9.01602C2.11547 9.64523 2.13816 10.6528 1.53789 11.3097L0.745664 12.1768C-0.278477 13.2977 -0.239805 15.0167 0.833828 16.0903C1.36879 16.6253 2.08008 16.9199 2.83668 16.9199C3.59328 16.9199 4.30453 16.6252 4.83949 16.0903L5.25246 15.6773L14.4366 13.0296L17.2033 8.02543L20 5.22875ZM14.7713 1.65797L18.3421 5.22875L16.7304 6.84047L13.1596 3.26965L14.7713 1.65797ZM13.6318 12.0624L6.89676 14.0404L10.3054 10.6358L11.5008 10.6309L11.4778 8.6091L9.46445 8.63207L9.46945 9.81387L6.08543 13.1938L7.9791 6.54055L12.2385 4.00656L16.0039 7.77199L13.6318 12.0624Z" fill="#2B2D33"/>
</svg>
