<svg width="19" height="19" viewBox="0 0 19 19" fill="none" xmlns="http://www.w3.org/2000/svg">
<path d="M3.5213 16.1806C3.5955 16.241 3.68481 16.2704 3.77354 16.2704C3.88968 16.2704 4.00489 16.2201 4.08389 16.123C4.22331 15.9517 4.19749 15.6999 4.02626 15.5604C2.84489 14.5987 1.97307 13.353 1.4762 11.9608C2.98032 12.2652 4.52659 12.4788 6.0998 12.5997C6.17306 13.3218 6.26997 14.016 6.38931 14.6692C6.42903 14.8864 6.63728 15.0302 6.85454 14.9907C7.07181 14.9509 7.21572 14.7426 7.17604 14.5254C7.06785 13.9334 6.97868 13.306 6.90941 12.6537C7.56024 12.6904 8.21546 12.7115 8.87365 12.7167C8.87472 12.7167 8.87583 12.7167 8.87689 12.7167C9.09629 12.7167 9.27495 12.5397 9.27668 12.32C9.27842 12.0991 9.10083 11.9187 8.88001 11.9169C8.19435 11.9115 7.51221 11.8886 6.83499 11.8483C6.76732 10.9918 6.73253 10.1015 6.73253 9.19875C6.73253 8.45178 6.75599 7.71863 6.80118 7.01041C7.58907 7.06319 8.38878 7.08962 9.19888 7.08962C10.005 7.08962 10.8052 7.06279 11.5958 7.00947C11.6331 7.58792 11.6558 8.18227 11.6629 8.78603C11.6655 9.0053 11.8439 9.18125 12.0626 9.18125C12.0642 9.18125 12.0658 9.18125 12.0674 9.18125C12.2882 9.17867 12.4651 8.99757 12.4625 8.77675C12.4553 8.15547 12.4317 7.54331 12.3927 6.94647C13.2821 6.86565 14.1576 6.75084 15.0139 6.6024C15.2315 6.56468 15.3774 6.35772 15.3397 6.1401C15.3019 5.92252 15.0949 5.77652 14.8774 5.81437C14.0455 5.95855 13.195 6.07025 12.3307 6.14903C12.1602 4.26285 11.8338 2.57053 11.388 1.29381C13.0603 1.75354 14.5529 2.7383 15.6559 4.14564C15.7921 4.3195 16.0434 4.34994 16.2173 4.21376C16.3911 4.07753 16.4216 3.82619 16.2854 3.65237C14.5659 1.45847 11.983 0.200195 9.19875 0.200195C8.65514 0.200195 8.12228 0.248714 7.60498 0.341529C7.59302 0.343173 7.58112 0.345306 7.56939 0.348016C4.61234 0.891138 2.15604 2.88448 0.968492 5.56099C0.95614 5.58311 0.945699 5.6067 0.937568 5.63154C0.463314 6.72578 0.200195 7.93225 0.200195 9.19875C0.200195 11.9176 1.41071 14.4625 3.5213 16.1806ZM7.93918 1.09654C8.3499 1.03296 8.77048 0.999949 9.19875 0.999949C9.62453 0.999949 10.0452 1.03225 10.4578 1.09547C10.9725 2.3398 11.3484 4.14947 11.5342 6.21203C10.764 6.26383 9.98442 6.28983 9.1988 6.28983C8.40922 6.28983 7.62959 6.2641 6.86209 6.21292C7.04644 4.15146 7.42054 2.34913 7.93918 1.09654ZM7.00796 1.29715C6.56005 2.57782 6.23509 4.26467 6.06585 6.15027C4.62501 6.01942 3.22935 5.79696 1.89065 5.48425C2.92451 3.45861 4.77661 1.9166 7.00796 1.29715ZM0.999949 9.19875C0.999949 8.15134 1.19749 7.1489 1.55711 6.22722C2.98138 6.56801 4.46839 6.80873 6.0044 6.94771C5.95717 7.67758 5.93269 8.43165 5.93269 9.19875C5.93269 10.0803 5.96513 10.9511 6.02849 11.7919C4.38837 11.6601 2.77944 11.4256 1.21913 11.0902C1.07464 10.4774 0.999949 9.84349 0.999949 9.19875ZM14.9989 1.11302C15.6577 0.964359 16.5441 0.888427 17.0266 1.37095C17.5907 1.93495 17.506 3.20358 16.7943 4.8516C16.0651 6.54019 14.743 8.49866 13.0528 10.3992C12.7493 10.1764 12.3749 10.0447 11.9705 10.0447C10.9598 10.0447 10.1375 10.867 10.1375 11.8777C10.1375 12.8884 10.9598 13.7107 11.9705 13.7107C12.9812 13.7107 13.8035 12.8884 13.8035 11.8777C13.8035 11.5626 13.7235 11.2657 13.5828 11.0064C15.3606 9.01992 16.7567 6.95589 17.5285 5.16866C18.402 3.146 18.424 1.63717 17.5922 0.805386C17.1838 0.396935 16.3717 -0.0165822 14.823 0.332865C14.6075 0.381473 14.4723 0.59554 14.5209 0.81094C14.5695 1.02634 14.7835 1.16172 14.9989 1.11302ZM11.9704 12.9109C11.4007 12.9109 10.9372 12.4474 10.9372 11.8777C10.9372 11.308 11.4007 10.8445 11.9704 10.8445C12.5402 10.8445 13.0037 11.308 13.0037 11.8777C13.0037 12.4474 12.5402 12.9109 11.9704 12.9109ZM10.0991 14.364C8.21563 15.9232 6.292 17.117 4.6825 17.7255C3.84956 18.0403 3.11236 18.1975 2.48616 18.1975C1.77611 18.1975 1.20873 17.9955 0.805386 17.5922C0.398845 17.1856 -0.0137831 16.378 0.329178 14.8394C0.377252 14.6238 0.591008 14.488 0.806497 14.5361C1.02207 14.5841 1.15786 14.7978 1.10983 15.0134C0.964137 15.667 0.891182 16.5468 1.37095 17.0266C1.88363 17.5394 2.9593 17.5219 4.3997 16.9773C5.92887 16.3993 7.77181 15.2523 9.58908 13.7479C9.75916 13.6071 10.0113 13.6308 10.1521 13.8009C10.2929 13.971 10.2692 14.2231 10.0991 14.364ZM18.0174 7.40006C18.1368 7.98895 18.1974 8.59414 18.1974 9.19875C18.1974 9.99797 18.0927 10.7734 17.8962 11.5116C17.8934 11.5251 17.8898 11.5383 17.8856 11.5513C16.9876 14.8631 14.2413 17.423 10.8276 18.0497C10.8162 18.0523 10.8047 18.0544 10.7932 18.056C10.2756 18.1489 9.74276 18.1974 9.19884 18.1974C8.54371 18.1974 7.8896 18.1265 7.25473 17.9868C7.03906 17.9393 6.9027 17.7259 6.9502 17.5102C6.99765 17.2945 7.21114 17.1582 7.42672 17.2057C8.00525 17.3331 8.60147 17.3976 9.19888 17.3976C9.62715 17.3976 10.0476 17.3647 10.4583 17.3011C10.7286 16.6456 10.9695 15.8051 11.1592 14.8532C11.2024 14.6367 11.413 14.4961 11.6295 14.5392C11.8461 14.5824 11.9867 14.7929 11.9435 15.0095C11.7868 15.796 11.6014 16.4959 11.3899 17.1005C13.9593 16.3872 16.0253 14.4512 16.9189 11.9613C16.2996 12.0865 15.6704 12.1969 15.0406 12.2909C14.822 12.3233 14.6187 12.1728 14.5861 11.9543C14.5535 11.7359 14.7042 11.5324 14.9226 11.4998C15.681 11.3867 16.4383 11.2492 17.1775 11.0905C17.3215 10.483 17.3977 9.84975 17.3977 9.19884C17.3977 8.64746 17.3426 8.0958 17.2337 7.55912C17.1898 7.3427 17.3297 7.13166 17.5461 7.08776C17.7623 7.04382 17.9735 7.1836 18.0174 7.40006Z" fill="#2B2D33" stroke="#2B2D33" stroke-width="0.4"/>
</svg>
