<svg width="18" height="17" viewBox="0 0 18 17" fill="none" xmlns="http://www.w3.org/2000/svg">
<path d="M16.2263 2.24146C16.1293 0.989343 15.0802 0 13.8036 0H2.43077C1.09044 0 0 1.09044 0 2.43077V13.6774C0 15.0177 1.09044 16.1082 2.43077 16.1082H15.5693C16.9096 16.1082 18 15.0177 18 13.6774V4.58124C18 3.46863 17.2483 2.52889 16.2263 2.24146ZM2.43077 1.13554H13.8037C14.4216 1.13554 14.9395 1.57063 15.068 2.15051H2.43077C1.95487 2.15051 1.51084 2.28851 1.13554 2.52584V2.43077C1.13554 1.71659 1.71659 1.13554 2.43077 1.13554ZM15.5692 14.9726H2.43077C1.71659 14.9726 1.13554 14.3916 1.13554 13.6774V4.58124C1.13554 3.86706 1.71659 3.28602 2.43077 3.28602H15.5693C16.2835 3.28602 16.8645 3.86706 16.8645 4.58124V6.5627H13.244C11.8093 6.5627 10.6421 7.72993 10.6421 9.16462C10.6421 10.5993 11.8094 11.7665 13.244 11.7665H16.8645V13.6774C16.8645 14.3916 16.2834 14.9726 15.5692 14.9726ZM16.8645 10.631H13.244C12.4355 10.631 11.7777 9.9732 11.7777 9.16462C11.7777 8.35604 12.4355 7.69824 13.244 7.69824H16.8645V10.631Z" fill="#2B2D33"/>
</svg>
