<svg width="24" height="16" viewBox="0 0 24 16" fill="none" xmlns="http://www.w3.org/2000/svg">
<path d="M23.0645 1.37349C22.1982 0.397935 20.5987 0 17.5441 0H6.45569C3.33112 0 1.70454 0.423604 0.841471 1.46223C0 2.47489 0 3.96696 0 6.03203V9.96804C0 13.9687 0.9984 16 6.45569 16H17.5442C20.1931 16 21.661 15.6489 22.6106 14.7879C23.5845 13.9051 24 12.4636 24 9.96804V6.03203C24 3.85424 23.9349 2.35336 23.0645 1.37349ZM15.4081 8.54344L10.3729 11.0363C10.2603 11.092 10.1372 11.1197 10.0143 11.1197C9.87507 11.1197 9.73618 11.0842 9.61316 11.0136C9.38152 10.8807 9.24008 10.6428 9.24008 10.3863V5.41657C9.24008 5.16047 9.38113 4.92286 9.61231 4.78982C9.84356 4.65678 10.1312 4.64769 10.3711 4.76577L15.4063 7.24256C15.6625 7.36855 15.8234 7.61908 15.8237 7.89241C15.8241 8.16597 15.6639 8.41686 15.4081 8.54344Z" fill="#F24141"/>
</svg>
