<svg width="44" height="18" viewBox="0 0 44 18" fill="none" xmlns="http://www.w3.org/2000/svg">
<path d="M13.6927 1.75977H1.78588V4.42895H10.0486L1.90183 14.9843C1.64655 15.3726 1.46094 15.7366 1.46094 16.5616V17.241H12.6946C13.2516 17.241 13.7159 16.7557 13.7159 16.1733V14.7417H5.0353L12.6946 4.69583C12.8106 4.55029 13.0195 4.28341 13.1124 4.16207L13.1588 4.08924C13.5999 3.40981 13.6927 2.82741 13.6927 2.1238V1.75977Z" fill="#086DFF"/>
<path d="M28.8457 17.241H30.5401V1.75977H27.9869V16.3432C27.9869 16.8286 28.3583 17.241 28.8457 17.241Z" fill="#086DFF"/>
<path d="M20.1254 5.20703C16.9224 5.20703 14.3229 7.92473 14.3229 11.2733C14.3229 14.6219 16.9224 17.3396 20.1254 17.3396C23.3284 17.3396 25.928 14.6219 25.928 11.2733C25.9512 7.92473 23.3517 5.20703 20.1254 5.20703ZM20.1254 14.8403C18.2454 14.8403 16.7135 13.2388 16.7135 11.2733C16.7135 9.3079 18.2454 7.70636 20.1254 7.70636C22.0054 7.70636 23.5373 9.3079 23.5373 11.2733C23.5373 13.2388 22.0287 14.8403 20.1254 14.8403Z" fill="#086DFF"/>
<path d="M38.1042 5.1084C34.8779 5.1084 32.2552 7.85042 32.2552 11.2232C32.2552 14.5961 34.8779 17.3382 38.1042 17.3382C41.3304 17.3382 43.9532 14.5961 43.9532 11.2232C43.9532 7.85042 41.3304 5.1084 38.1042 5.1084ZM38.1042 14.8388C36.201 14.8388 34.6691 13.2373 34.6691 11.2475C34.6691 9.25777 36.201 7.65624 38.1042 7.65624C40.0075 7.65624 41.5394 9.25777 41.5394 11.2475C41.5394 13.2373 40.0075 14.8388 38.1042 14.8388Z" fill="#086DFF"/>
<path d="M24.5824 17.2398H25.9518V5.54395H23.5612V16.1965C23.5612 16.7546 24.0253 17.2398 24.5824 17.2398Z" fill="#086DFF"/>
</svg>