<svg width="20" height="20" viewBox="0 0 20 20" fill="none" xmlns="http://www.w3.org/2000/svg">
<rect width="20" height="20" rx="10" fill="#EFF5FF"/>
<path d="M14.6329 6.50015C14.5402 6.50279 14.4522 6.54069 14.3875 6.60582L8.21672 12.6555L5.6143 10.1042C5.58142 10.0706 5.54204 10.0438 5.49846 10.0253C5.45488 10.0069 5.40798 9.99713 5.3605 9.99665C5.31303 9.99618 5.26594 10.005 5.22198 10.0226C5.17803 10.0402 5.1381 10.0662 5.10453 10.0991C5.07096 10.132 5.04442 10.1712 5.02648 10.2143C5.00853 10.2574 4.99954 10.3035 5.00002 10.3501C5.0005 10.3966 5.01045 10.4426 5.02929 10.4853C5.04812 10.528 5.07546 10.5666 5.10971 10.5989L7.96442 13.3976C8.03134 13.4632 8.12209 13.5 8.21672 13.5C8.31134 13.5 8.40209 13.4632 8.46901 13.3976L14.8921 7.10052C14.9436 7.05136 14.9787 6.98812 14.993 6.91906C15.0072 6.85 14.9998 6.77834 14.9718 6.71347C14.9437 6.64859 14.8964 6.59352 14.8359 6.55546C14.7755 6.5174 14.7047 6.49812 14.6329 6.50015Z" fill="#2B6AD1" stroke="#2B6AD1"/>
</svg>
